<?xml version="1.0" encoding="utf-8"?>
<!-- Generator: Adobe Illustrator 23.0.6, SVG Export Plug-In . SVG Version: 6.00 Build 0)  -->
<svg version="1.1" id="Layer_1" xmlns="http://www.w3.org/2000/svg" xmlns:xlink="http://www.w3.org/1999/xlink" x="0px" y="0px"
	 viewBox="0 0 612 792" style="enable-background:new 0 0 612 792;" xml:space="preserve">
<style type="text/css">
	.st0{fill:none;}
	.st1{fill:#A13722;}
	.st2{font-family:'GaramondPremrPro-Subh';}
	.st3{font-size:39px;}
	.st4{font-size:15px;}
	.st5{font-family:'GaramondPremrPro-Bd';}
	.st6{fill:#6D6E71;}
	.st7{fill:#939598;}
	.st8{letter-spacing:2;}
	.st9{letter-spacing:11;}
	.st10{letter-spacing:33;}
	.st11{letter-spacing:23;}
	.st12{font-size:10px;}
	.st13{font-size:13px;}
	.st14{letter-spacing:27;}
</style>
<rect x="23.2" y="19.12" class="st0" width="165.85" height="38.41"/>
<text transform="matrix(1 0 0 1 23.1951 46.968)" class="st1 st2 st3">Asiya Rizvi</text>
<rect x="426.27" y="19.12" class="st0" width="185.73" height="111.59"/>
<text transform="matrix(1 0 0 1 426.2656 29.8322)"><tspan x="0" y="0" class="st2 st4">401-489-5075</tspan><tspan x="0" y="18" class="st2 st4">rizvi.a@husky.neu.edu</tspan><tspan x="0" y="36" class="st2 st4">LinkedIn: </tspan><tspan x="0" y="54" class="st2 st4">www.linkedin.com/in/asiya-rizvi</tspan><tspan x="0" y="72" class="st2 st4">Boston, MA</tspan><tspan x="0" y="90" class="st2 st4">Avaiability: Jan 2020 - June 2020</tspan></text>
<rect x="20.02" y="351.98" class="st0" width="384.88" height="371.06"/>
<text transform="matrix(1 0 0 1 20.0245 362.4992)"><tspan x="0" y="0" class="st5 st4">WORK EXPERIENCE:</tspan><tspan x="0" y="18" class="st5 st4">Web Designer</tspan><tspan x="0" y="36" class="st6 st2 st4">WRBB (104.9fm) Radio Station at Northeastern</tspan><tspan x="0" y="54" class="st2 st4">- Working to redesign the WRBB website</tspan><tspan x="0" y="72" class="st5 st4">Administrative Assistant</tspan><tspan x="0" y="90" class="st6 st2 st4">Brown Neurology (Providence, RI) </tspan><tspan x="194.21" y="90" class="st7 st2 st4">      </tspan><tspan x="211.22" y="90" class="st2 st4">                                             </tspan><tspan x="0" y="108" class="st2 st4">- Performed financial data entry </tspan><tspan x="0" y="126" class="st2 st4">- Used eClinicalWorks Software to access/update patient info</tspan><tspan x="0" y="144" class="st2 st4">- Made phone calls</tspan><tspan x="102.58" y="144" class="st2 st4 st8">	</tspan><tspan x="108" y="144" class="st2 st4">to patients regarding their care</tspan><tspan x="274.15" y="144" class="st2 st4 st9">	</tspan><tspan x="288" y="144" class="st2 st4 st10">		</tspan><tspan x="0" y="162" class="st5 st4">Lab Assistant</tspan><tspan x="0" y="180" class="st6 st2 st4">Brown University (Providence, RI)</tspan><tspan x="189.71" y="180" class="st2 st4 st11">	</tspan><tspan x="216" y="180" class="st2 st4 st10">				</tspan><tspan x="0" y="198" class="st2 st4">- Assisted in Walter Atwoods laboratory studying the human poly</tspan><tspan x="357.25" y="198" class="st2 st4">-</tspan><tspan x="0" y="216" class="st2 st4">omaviruses, JC Virus (JCV) and BK Virus (BKV). </tspan><tspan x="0" y="234" class="st2 st4">- Started, infected, and transfected cell cultures as well as cleaned and </tspan><tspan x="0" y="252" class="st2 st4">organized lab materials. </tspan><tspan x="0" y="270" class="st5 st4">Teaching Assistant </tspan><tspan x="0" y="288" class="st6 st2 st4">Providence CityArts for Youth</tspan><tspan x="168.76" y="288" class="st2 st4">  </tspan><tspan x="174.43" y="288" class="st6 st2 st4">(Providence, RI)     </tspan><tspan x="278.92" y="288" class="st2 st4">                                                 </tspan><tspan x="0" y="306" class="st2 st4">- Assisted in teaching  STEAM (Science, Technology, Engineering, </tspan><tspan x="0" y="324" class="st2 st4">Art, and Math) classes to underprivileged children. </tspan><tspan x="0" y="342" class="st2 st4">- Assisted students with activities, ensuring their safety, setting up and </tspan><tspan x="0" y="360" class="st2 st4">cleaning up after lessons, and occasionally leading lessons. </tspan></text>
<rect x="319.81" y="426.25" class="st0" width="85.62" height="21.08"/>
<text transform="matrix(1 0 0 1 319.8139 433.2598)"><tspan x="0" y="0" class="st6 st5 st12">Jul 2017 – Sep 2017,</tspan><tspan x="0" y="12" class="st6 st5 st12">May 2019 - Sep 2019</tspan></text>
<rect x="320.18" y="516.07" class="st0" width="84.89" height="9.12"/>
<text transform="matrix(1 0 0 1 320.1825 523.0831)" class="st6 st5 st12">Jul, 2018 – Sep, 2018</text>
<rect x="314.89" y="625.35" class="st0" width="90.01" height="9.12"/>
<text transform="matrix(1 0 0 1 314.888 632.3614)" class="st6 st5 st12">Jun, 2015 – Aug, 2015</text>
<rect x="23.8" y="61.21" class="st0" width="381.1" height="280.62"/>
<text transform="matrix(1 0 0 1 23.8046 71.7213)"><tspan x="0" y="0" class="st5 st4">EDUCATION:</tspan><tspan x="0" y="18" class="st5 st4">Northeastern University </tspan><tspan x="0" y="36" class="st6 st2 st4">Khoury College of Computer Sciences</tspan><tspan x="0" y="51.6" class="st6 st2 st13">Candidate for Bachelor of Science in Computer Science and Design</tspan><tspan x="0" y="69.6" class="st6 st2 st4">Concentration in Graphic Design</tspan><tspan x="185.26" y="69.6" class="st6 st2 st4 st14">	</tspan><tspan x="0" y="87.6" class="st5 st4">Coursework:</tspan><tspan x="79.14" y="87.6" class="st2 st4"> Object-Oriented Design, Fundamentals of Computer </tspan><tspan x="0" y="105.6" class="st2 st4">Science 1 &amp; 2, Discrete Structures, Data Science, Graphic Design 1, </tspan><tspan x="0" y="123.6" class="st2 st4">Typography 1</tspan><tspan x="0" y="141.6" class="st5 st4">Extracurricular:</tspan><tspan x="97.03" y="141.6" class="st2 st4"> Chi Omega Fraternity (2018 - 2019), WRBB Radio </tspan><tspan x="0" y="159.6" class="st2 st4">Station (2019 - present)</tspan><tspan x="0" y="177.6" class="st5 st4">Academic Projects: </tspan><tspan x="0" y="195.6" class="st2 st4">- Bees and Pesticides: Designed programs in Python to analyze and </tspan><tspan x="0" y="213.6" class="st2 st4">visualize the relationship between Honey Bee populations and </tspan><tspan x="0" y="231.6" class="st2 st4">Neonic Pesticides in the United States.</tspan><tspan x="0" y="249.6" class="st2 st4">- Worked collaboratively to design the game Minesweeper in Java</tspan><tspan x="0" y="267.6" class="st2 st4">Worked individually to design Pyramid Solitaire in Java</tspan></text>
<rect x="316.37" y="81.36" class="st0" width="92.52" height="8.96"/>
<text transform="matrix(1 0 0 1 316.366 88.367)" class="st6 st5 st12">2017 - expected: 2022</text>
<rect x="22.22" y="739.9" class="st0" width="589.78" height="37.51"/>
<text transform="matrix(1 0 0 1 22.2197 750.4131)"><tspan x="0" y="0" class="st5 st4">INTERESTS: </tspan><tspan x="0" y="18" class="st2 st4">UX Design, Sustainability, Social Media, Painting in gouache, Sketching in charcoal, Photography </tspan></text>
<rect x="426.27" y="171.55" class="st0" width="180.76" height="551.5"/>
<text transform="matrix(1 0 0 1 426.2657 182.0674)"><tspan x="0" y="0" class="st5 st4">SKILLS:</tspan><tspan x="0" y="36" class="st5 st4">Technical Languages:</tspan><tspan x="0" y="54" class="st2 st4">- Java (proficient)</tspan><tspan x="0" y="72" class="st2 st4">- Python (proficient)</tspan><tspan x="0" y="90" class="st2 st4">- HTML (familiar)</tspan><tspan x="0" y="108" class="st2 st4">- CSS (familiar)</tspan><tspan x="0" y="126" class="st2 st4">- JavaScript (familiar)</tspan><tspan x="0" y="144" class="st2 st4">- Racket (proficient)</tspan><tspan x="0" y="180" class="st5 st4">Technical Software:</tspan><tspan x="0" y="198" class="st2 st4">- Eclipse</tspan><tspan x="0" y="216" class="st2 st4">- IntelliJ</tspan><tspan x="0" y="234" class="st2 st4">- Atom</tspan><tspan x="0" y="252" class="st2 st4">- IDLE</tspan><tspan x="0" y="270" class="st2 st4">- eClinicalWorks</tspan><tspan x="0" y="306" class="st5 st4">Designing Software:</tspan><tspan x="0" y="324" class="st2 st4">- Adobe Photoshop</tspan><tspan x="0" y="342" class="st2 st4">- Adobe Illustrator</tspan><tspan x="0" y="360" class="st2 st4">- Adobe InDesign</tspan><tspan x="0" y="378" class="st2 st4">- Adobe XD</tspan><tspan x="0" y="396" class="st2 st4">- Artivive</tspan><tspan x="0" y="432" class="st5 st4">Cultural Languages:</tspan><tspan x="0" y="450" class="st2 st4">- English </tspan><tspan x="0" y="468" class="st2 st4">- Urdu</tspan><tspan x="0" y="486" class="st2 st4">- French (Awarded Silver Medal </tspan><tspan x="0" y="504" class="st2 st4">in the National French Exam (Le </tspan><tspan x="0" y="522" class="st2 st4">Grand Concours) in March, </tspan><tspan x="0" y="540" class="st2 st4">2016)</tspan></text>
<rect x="320.35" y="374.38" class="st0" width="84.55" height="10.79"/>
<text transform="matrix(1 0 0 1 320.3497 381.3889)" class="st6 st5 st12">Sep, 2019 –  Current</text>
</svg>
