<?xml version="1.0" encoding="utf-8"?>
<!-- Generator: Adobe Illustrator 24.1.2, SVG Export Plug-In . SVG Version: 6.00 Build 0)  -->
<svg version="1.1" xmlns="http://www.w3.org/2000/svg" xmlns:xlink="http://www.w3.org/1999/xlink" x="0px" y="0px"
	 viewBox="0 0 576 576" style="enable-background:new 0 0 576 576;" xml:space="preserve">
<style type="text/css">
	.st0{clip-path:url(#SVGID_18_);}
	.st1{fill:#C7B5A5;}
	.st2{clip-path:url(#SVGID_24_);}
	.st3{clip-path:url(#SVGID_78_);}
	.st4{clip-path:url(#SVGID_118_);}
	.st5{fill:#A2BD7A;}
	.st6{clip-path:url(#SVGID_120_);}
	.st7{clip-path:url(#SVGID_122_);}
	.st8{clip-path:url(#SVGID_124_);}
	.st9{fill:#7CA35C;}
	.st10{clip-path:url(#SVGID_126_);}
	.st11{clip-path:url(#SVGID_128_);}
	.st12{clip-path:url(#SVGID_130_);}
	.st13{clip-path:url(#SVGID_132_);}
	.st14{clip-path:url(#SVGID_134_);}
	.st15{clip-path:url(#SVGID_136_);}
	.st16{clip-path:url(#SVGID_138_);}
	.st17{clip-path:url(#SVGID_140_);}
	.st18{clip-path:url(#SVGID_142_);}
	.st19{clip-path:url(#SVGID_144_);}
	.st20{fill:#57843E;}
	.st21{clip-path:url(#SVGID_146_);}
	.st22{clip-path:url(#SVGID_148_);}
	.st23{clip-path:url(#SVGID_150_);}
	.st24{clip-path:url(#SVGID_152_);}
	.st25{clip-path:url(#SVGID_154_);}
	.st26{fill:#365E1E;}
	.st27{clip-path:url(#SVGID_156_);}
	.st28{clip-path:url(#SVGID_158_);}
	.st29{clip-path:url(#SVGID_160_);}
	.st30{clip-path:url(#SVGID_162_);}
	.st31{fill:#193B1D;}
	.st32{clip-path:url(#SVGID_164_);}
	.st33{fill:#193B1D;stroke:#193B1D;stroke-miterlimit:10;}
	.st34{clip-path:url(#SVGID_174_);}
	.st35{fill:#A0C1D6;}
	.st36{clip-path:url(#SVGID_180_);}
	.st37{fill:none;}
	.st38{fill:#1E1E1E;}
	.st39{font-family:'Futura-Medium';}
	.st40{font-size:371px;}
	.st41{font-size:119px;}
</style>
<g id="Layer_3">
	<g id="Layer_2_1_">
		<g>
			<defs>
				<rect id="SVGID_1_" x="-16.5" y="0" width="576" height="576"/>
			</defs>
			<clipPath id="SVGID_2_">
				<use xlink:href="#SVGID_1_"  style="overflow:visible;"/>
			</clipPath>
		</g>
		<g>
			<defs>
				<rect id="SVGID_3_" x="-16.5" y="0" width="576" height="576"/>
			</defs>
			<clipPath id="SVGID_4_">
				<use xlink:href="#SVGID_3_"  style="overflow:visible;"/>
			</clipPath>
		</g>
		<g>
			<defs>
				<rect id="SVGID_5_" x="-16.5" y="0" width="576" height="576"/>
			</defs>
			<clipPath id="SVGID_6_">
				<use xlink:href="#SVGID_5_"  style="overflow:visible;"/>
			</clipPath>
		</g>
		<g>
			<defs>
				<rect id="SVGID_7_" x="-16.5" y="0" width="576" height="576"/>
			</defs>
			<clipPath id="SVGID_8_">
				<use xlink:href="#SVGID_7_"  style="overflow:visible;"/>
			</clipPath>
		</g>
		<g>
			<defs>
				<rect id="SVGID_9_" x="-16.5" y="0" width="576" height="576"/>
			</defs>
			<clipPath id="SVGID_10_">
				<use xlink:href="#SVGID_9_"  style="overflow:visible;"/>
			</clipPath>
		</g>
		<g>
			<defs>
				<rect id="SVGID_11_" x="-16.5" y="0" width="576" height="576"/>
			</defs>
			<clipPath id="SVGID_12_">
				<use xlink:href="#SVGID_11_"  style="overflow:visible;"/>
			</clipPath>
		</g>
		<g>
			<defs>
				<rect id="SVGID_13_" x="-16.5" y="0" width="576" height="576"/>
			</defs>
			<clipPath id="SVGID_14_">
				<use xlink:href="#SVGID_13_"  style="overflow:visible;"/>
			</clipPath>
		</g>
		<g>
			<defs>
				<rect id="SVGID_15_" x="-16.5" y="0" width="576" height="576"/>
			</defs>
			<clipPath id="SVGID_16_">
				<use xlink:href="#SVGID_15_"  style="overflow:visible;"/>
			</clipPath>
		</g>
		<g>
			<defs>
				<rect id="SVGID_17_" x="-16.5" y="0" width="576" height="576"/>
			</defs>
			<clipPath id="SVGID_18_">
				<use xlink:href="#SVGID_17_"  style="overflow:visible;"/>
			</clipPath>
			<g class="st0">
				<g>
					<path class="st1" d="M-17.9,460.9c0.3,0,0.5,0,0.8,0.1c-2.2-9.9-5.8-19.6-7.2-29.8c-1.8-12.8-1.8-25.7-0.9-38.6
						c0.6-8.6,1.6-17.2,2.7-25.8c-0.7,0.3-1.4,0.7-2,1.1c-1.2,0.7-2.3,1.5-3.3,2.5c-1.3,0.6-2.4,1.5-3.2,2.6c-1.6,2-3.1,4-4.7,6.1
						c-1.1,2.5-2.1,5-3.2,7.5c-0.1,0.4-0.2,0.9-0.2,1.3c-0.3,0.9-0.5,1.7-0.7,2.6c-0.5,2.7-1,6-1.2,8.8c0,0.3,0,0.7-0.1,1
						c0,0.8,0,1.7,0,2.5c0,3.6,0,7.1,0.1,10.7c0,2.4,0.1,4.8,0.1,7.3c-1.5,3.6-2.3,7.4-2.3,11.5c0.1,3.6,0.7,7.3,1.3,10.8
						c0.2,1.1,0.4,2.2,0.8,3.2c1,2.4,2,4.8,3,7.2c1.9,3.5,4.5,6.3,7.7,8.4c1.9,1.9,4.1,3.1,6.6,3.9c0.3,0.2,0.7,0.3,1,0.5
						C-22.8,463.5-21.2,460.9-17.9,460.9z"/>
				</g>
			</g>
		</g>
		<g>
			<defs>
				<rect id="SVGID_19_" x="-16.5" y="0" width="576" height="576"/>
			</defs>
			<clipPath id="SVGID_20_">
				<use xlink:href="#SVGID_19_"  style="overflow:visible;"/>
			</clipPath>
		</g>
		<g>
			<defs>
				<rect id="SVGID_21_" x="-16.5" y="0" width="576" height="576"/>
			</defs>
			<clipPath id="SVGID_22_">
				<use xlink:href="#SVGID_21_"  style="overflow:visible;"/>
			</clipPath>
		</g>
		<g>
			<defs>
				<rect id="SVGID_23_" x="-16.5" y="0" width="576" height="576"/>
			</defs>
			<clipPath id="SVGID_24_">
				<use xlink:href="#SVGID_23_"  style="overflow:visible;"/>
			</clipPath>
			<g class="st2">
				<g>
					<path class="st1" d="M568.7,441.6c0,3.8-0.1,7.7-0.1,11.5c0,2,0,4.1,0.1,6.1c0.6-0.4,1.3-0.9,1.8-1.4c1.8-1.8,3.2-4.8,3.1-7.4
						C573.3,446.7,571.5,443.5,568.7,441.6z"/>
				</g>
			</g>
		</g>
		<g>
			<defs>
				<rect id="SVGID_25_" x="-16.5" y="0" width="576" height="576"/>
			</defs>
			<clipPath id="SVGID_26_">
				<use xlink:href="#SVGID_25_"  style="overflow:visible;"/>
			</clipPath>
		</g>
		<g>
			<defs>
				<rect id="SVGID_27_" x="-16.5" y="0" width="576" height="576"/>
			</defs>
			<clipPath id="SVGID_28_">
				<use xlink:href="#SVGID_27_"  style="overflow:visible;"/>
			</clipPath>
		</g>
		<g>
			<defs>
				<rect id="SVGID_29_" x="-16.5" y="0" width="576" height="576"/>
			</defs>
			<clipPath id="SVGID_30_">
				<use xlink:href="#SVGID_29_"  style="overflow:visible;"/>
			</clipPath>
		</g>
		<g>
			<defs>
				<rect id="SVGID_31_" x="-16.5" y="0" width="576" height="576"/>
			</defs>
			<clipPath id="SVGID_32_">
				<use xlink:href="#SVGID_31_"  style="overflow:visible;"/>
			</clipPath>
		</g>
		<g>
			<defs>
				<rect id="SVGID_33_" x="-16.5" y="0" width="576" height="576"/>
			</defs>
			<clipPath id="SVGID_34_">
				<use xlink:href="#SVGID_33_"  style="overflow:visible;"/>
			</clipPath>
		</g>
		<g>
			<defs>
				<rect id="SVGID_35_" x="-16.5" y="0" width="576" height="576"/>
			</defs>
			<clipPath id="SVGID_36_">
				<use xlink:href="#SVGID_35_"  style="overflow:visible;"/>
			</clipPath>
		</g>
		<g>
			<defs>
				<rect id="SVGID_37_" x="-16.5" y="0" width="576" height="576"/>
			</defs>
			<clipPath id="SVGID_38_">
				<use xlink:href="#SVGID_37_"  style="overflow:visible;"/>
			</clipPath>
		</g>
		<g>
			<defs>
				<rect id="SVGID_39_" x="-16.5" y="0" width="576" height="576"/>
			</defs>
			<clipPath id="SVGID_40_">
				<use xlink:href="#SVGID_39_"  style="overflow:visible;"/>
			</clipPath>
		</g>
		<g>
			<defs>
				<rect id="SVGID_41_" x="-16.5" y="0" width="576" height="576"/>
			</defs>
			<clipPath id="SVGID_42_">
				<use xlink:href="#SVGID_41_"  style="overflow:visible;"/>
			</clipPath>
		</g>
		<g>
			<defs>
				<rect id="SVGID_43_" x="-16.5" y="0" width="576" height="576"/>
			</defs>
			<clipPath id="SVGID_44_">
				<use xlink:href="#SVGID_43_"  style="overflow:visible;"/>
			</clipPath>
		</g>
		<g>
			<defs>
				<rect id="SVGID_45_" x="-16.5" y="0" width="576" height="576"/>
			</defs>
			<clipPath id="SVGID_46_">
				<use xlink:href="#SVGID_45_"  style="overflow:visible;"/>
			</clipPath>
		</g>
		<g>
			<defs>
				<rect id="SVGID_47_" x="-16.5" y="0" width="576" height="576"/>
			</defs>
			<clipPath id="SVGID_48_">
				<use xlink:href="#SVGID_47_"  style="overflow:visible;"/>
			</clipPath>
		</g>
		<g>
			<defs>
				<rect id="SVGID_49_" x="-16.5" y="0" width="576" height="576"/>
			</defs>
			<clipPath id="SVGID_50_">
				<use xlink:href="#SVGID_49_"  style="overflow:visible;"/>
			</clipPath>
		</g>
		<g>
			<defs>
				<rect id="SVGID_51_" x="-16.5" y="0" width="576" height="576"/>
			</defs>
			<clipPath id="SVGID_52_">
				<use xlink:href="#SVGID_51_"  style="overflow:visible;"/>
			</clipPath>
		</g>
		<g>
			<defs>
				<rect id="SVGID_53_" x="-16.5" y="0" width="576" height="576"/>
			</defs>
			<clipPath id="SVGID_54_">
				<use xlink:href="#SVGID_53_"  style="overflow:visible;"/>
			</clipPath>
		</g>
		<g>
			<defs>
				<rect id="SVGID_55_" x="-16.5" y="0" width="576" height="576"/>
			</defs>
			<clipPath id="SVGID_56_">
				<use xlink:href="#SVGID_55_"  style="overflow:visible;"/>
			</clipPath>
		</g>
		<g>
			<defs>
				<rect id="SVGID_57_" x="-16.5" y="0" width="576" height="576"/>
			</defs>
			<clipPath id="SVGID_58_">
				<use xlink:href="#SVGID_57_"  style="overflow:visible;"/>
			</clipPath>
		</g>
		<g>
			<defs>
				<rect id="SVGID_59_" x="-16.5" y="0" width="576" height="576"/>
			</defs>
			<clipPath id="SVGID_60_">
				<use xlink:href="#SVGID_59_"  style="overflow:visible;"/>
			</clipPath>
		</g>
		<g>
			<defs>
				<rect id="SVGID_61_" x="-16.5" y="0" width="576" height="576"/>
			</defs>
			<clipPath id="SVGID_62_">
				<use xlink:href="#SVGID_61_"  style="overflow:visible;"/>
			</clipPath>
		</g>
		<g>
			<defs>
				<rect id="SVGID_63_" x="-16.5" y="0" width="576" height="576"/>
			</defs>
			<clipPath id="SVGID_64_">
				<use xlink:href="#SVGID_63_"  style="overflow:visible;"/>
			</clipPath>
		</g>
		<g>
			<defs>
				<rect id="SVGID_65_" x="-16.5" y="0" width="576" height="576"/>
			</defs>
			<clipPath id="SVGID_66_">
				<use xlink:href="#SVGID_65_"  style="overflow:visible;"/>
			</clipPath>
		</g>
		<g>
			<defs>
				<rect id="SVGID_67_" x="-16.5" y="0" width="576" height="576"/>
			</defs>
			<clipPath id="SVGID_68_">
				<use xlink:href="#SVGID_67_"  style="overflow:visible;"/>
			</clipPath>
		</g>
		<g>
			<defs>
				<rect id="SVGID_69_" x="-16.5" y="0" width="576" height="576"/>
			</defs>
			<clipPath id="SVGID_70_">
				<use xlink:href="#SVGID_69_"  style="overflow:visible;"/>
			</clipPath>
		</g>
		<g>
			<defs>
				<rect id="SVGID_71_" x="-16.5" y="0" width="576" height="576"/>
			</defs>
			<clipPath id="SVGID_72_">
				<use xlink:href="#SVGID_71_"  style="overflow:visible;"/>
			</clipPath>
		</g>
		<g>
			<defs>
				<rect id="SVGID_73_" x="-16.5" y="0" width="576" height="576"/>
			</defs>
			<clipPath id="SVGID_74_">
				<use xlink:href="#SVGID_73_"  style="overflow:visible;"/>
			</clipPath>
		</g>
		<g>
			<defs>
				<rect id="SVGID_75_" x="-16.5" y="0" width="576" height="576"/>
			</defs>
			<clipPath id="SVGID_76_">
				<use xlink:href="#SVGID_75_"  style="overflow:visible;"/>
			</clipPath>
		</g>
		<g>
			<defs>
				<rect id="SVGID_77_" x="-16.5" y="0" width="576" height="576"/>
			</defs>
			<clipPath id="SVGID_78_">
				<use xlink:href="#SVGID_77_"  style="overflow:visible;"/>
			</clipPath>
			<g class="st3">
				<g>
					<path class="st1" d="M568.5,425.3c0.6-1.3,0.7-2.7,0.3-4c-0.1-0.4-0.3-0.8-0.5-1.2C568.4,421.8,568.4,423.5,568.5,425.3z"/>
				</g>
			</g>
		</g>
		<g>
			<defs>
				<rect id="SVGID_79_" x="-16.5" y="0" width="576" height="576"/>
			</defs>
			<clipPath id="SVGID_80_">
				<use xlink:href="#SVGID_79_"  style="overflow:visible;"/>
			</clipPath>
		</g>
		<g>
			<defs>
				<rect id="SVGID_81_" x="-16.5" y="0" width="576" height="576"/>
			</defs>
			<clipPath id="SVGID_82_">
				<use xlink:href="#SVGID_81_"  style="overflow:visible;"/>
			</clipPath>
		</g>
		<g>
			<defs>
				<rect id="SVGID_83_" x="-16.5" y="0" width="576" height="576"/>
			</defs>
			<clipPath id="SVGID_84_">
				<use xlink:href="#SVGID_83_"  style="overflow:visible;"/>
			</clipPath>
		</g>
		<g>
			<defs>
				<rect id="SVGID_85_" x="-16.5" y="0" width="576" height="576"/>
			</defs>
			<clipPath id="SVGID_86_">
				<use xlink:href="#SVGID_85_"  style="overflow:visible;"/>
			</clipPath>
		</g>
		<g>
			<defs>
				<rect id="SVGID_87_" x="-16.5" y="0" width="576" height="576"/>
			</defs>
			<clipPath id="SVGID_88_">
				<use xlink:href="#SVGID_87_"  style="overflow:visible;"/>
			</clipPath>
		</g>
		<g>
			<defs>
				<rect id="SVGID_89_" x="-16.5" y="0" width="576" height="576"/>
			</defs>
			<clipPath id="SVGID_90_">
				<use xlink:href="#SVGID_89_"  style="overflow:visible;"/>
			</clipPath>
		</g>
		<g>
			<defs>
				<rect id="SVGID_91_" x="-16.5" y="0" width="576" height="576"/>
			</defs>
			<clipPath id="SVGID_92_">
				<use xlink:href="#SVGID_91_"  style="overflow:visible;"/>
			</clipPath>
		</g>
		<g>
			<defs>
				<rect id="SVGID_93_" x="-16.5" y="0" width="576" height="576"/>
			</defs>
			<clipPath id="SVGID_94_">
				<use xlink:href="#SVGID_93_"  style="overflow:visible;"/>
			</clipPath>
		</g>
		<g>
			<defs>
				<rect id="SVGID_95_" x="-16.5" y="0" width="576" height="576"/>
			</defs>
			<clipPath id="SVGID_96_">
				<use xlink:href="#SVGID_95_"  style="overflow:visible;"/>
			</clipPath>
		</g>
		<g>
			<defs>
				<rect id="SVGID_97_" x="-16.5" y="0" width="576" height="576"/>
			</defs>
			<clipPath id="SVGID_98_">
				<use xlink:href="#SVGID_97_"  style="overflow:visible;"/>
			</clipPath>
		</g>
		<g>
			<defs>
				<rect id="SVGID_99_" x="-16.5" y="0" width="576" height="576"/>
			</defs>
			<clipPath id="SVGID_100_">
				<use xlink:href="#SVGID_99_"  style="overflow:visible;"/>
			</clipPath>
		</g>
		<g>
			<defs>
				<rect id="SVGID_101_" x="-16.5" y="0" width="576" height="576"/>
			</defs>
			<clipPath id="SVGID_102_">
				<use xlink:href="#SVGID_101_"  style="overflow:visible;"/>
			</clipPath>
		</g>
		<g>
			<defs>
				<rect id="SVGID_103_" x="-16.5" y="0" width="576" height="576"/>
			</defs>
			<clipPath id="SVGID_104_">
				<use xlink:href="#SVGID_103_"  style="overflow:visible;"/>
			</clipPath>
		</g>
		<g>
			<defs>
				<rect id="SVGID_105_" x="-16.5" y="0" width="576" height="576"/>
			</defs>
			<clipPath id="SVGID_106_">
				<use xlink:href="#SVGID_105_"  style="overflow:visible;"/>
			</clipPath>
		</g>
		<g>
			<defs>
				<rect id="SVGID_107_" x="-16.5" y="0" width="576" height="576"/>
			</defs>
			<clipPath id="SVGID_108_">
				<use xlink:href="#SVGID_107_"  style="overflow:visible;"/>
			</clipPath>
		</g>
		<g>
			<defs>
				<rect id="SVGID_109_" x="-16.5" y="0" width="576" height="576"/>
			</defs>
			<clipPath id="SVGID_110_">
				<use xlink:href="#SVGID_109_"  style="overflow:visible;"/>
			</clipPath>
		</g>
		<g>
			<defs>
				<rect id="SVGID_111_" x="-16.5" y="0" width="576" height="576"/>
			</defs>
			<clipPath id="SVGID_112_">
				<use xlink:href="#SVGID_111_"  style="overflow:visible;"/>
			</clipPath>
		</g>
		<g>
			<defs>
				<rect id="SVGID_113_" x="-16.5" y="0" width="576" height="576"/>
			</defs>
			<clipPath id="SVGID_114_">
				<use xlink:href="#SVGID_113_"  style="overflow:visible;"/>
			</clipPath>
		</g>
		<g>
			<defs>
				<rect id="SVGID_115_" x="-16.5" y="0" width="576" height="576"/>
			</defs>
			<clipPath id="SVGID_116_">
				<use xlink:href="#SVGID_115_"  style="overflow:visible;"/>
			</clipPath>
		</g>
		<g>
			<defs>
				<rect id="SVGID_117_" x="-16.5" y="0" width="576" height="576"/>
			</defs>
			<clipPath id="SVGID_118_">
				<use xlink:href="#SVGID_117_"  style="overflow:visible;"/>
			</clipPath>
			<g class="st4">
				<g>
					<path class="st5" d="M122.8,277.8c-7.7,4.6-15.4,9.2-23.1,13.8c-7.6,4.6-15.1,9.7-20.9,16.5c-5.8,6.8-10.2,14.4-14.6,22.1
						c-4.6,8-8.9,16.2-12.2,24.9c-6.2,16.8-7,35.2-6.6,52.9c0,2.1,0,4.2,0.2,6.2c0.2,2.5,0.6,4.6,1.8,6.9c1.1,2.2,3,3.9,5,5.2
						c1.7,1.1,3.7,2,5.6,2.8c2.6,1.1,5.3,2.3,8.1,3c6.6,1.6,14.6,1.5,19.9-3.3c4.3-4,4.4-10.3,5.3-15.7c1.5-8.9,3.3-17.7,5.5-26.4
						c2.1-8.6,4.4-17.1,7.4-25.4c0.8-2.1,1.6-4.2,2.4-6.2c-0.3,0.8-0.7,1.7-1.1,2.5c4.4-10.4,9.6-20.4,14.5-30.5
						c4.5-9.3,8.9-18.7,14-27.6c2.8-4.9,5.9-9.7,9.3-14.2c-0.6,0.7-1.1,1.4-1.6,2.1c1.6-2.1,3.3-4.1,5.1-6c1.9-2,3.1-4.6,3.1-7.4
						c0-2.6-1.1-5.6-3.1-7.4c-2-1.8-4.6-3.2-7.4-3.1c-2.7,0.1-5.5,1-7.4,3.1c-14.2,15.3-22.6,34.8-31.6,53.3
						c-5.1,10.4-10.3,20.7-14.7,31.4c-4,10-6.8,20.4-9.3,30.8c-1.4,5.8-2.7,11.7-3.8,17.6c-0.6,3-1.1,6-1.6,9.1
						c-0.2,1.4-0.5,2.9-0.7,4.3c-0.2,1.4-0.3,2.9-0.8,4.2c0.3-0.8,0.7-1.7,1.1-2.5c-0.2,0.4-0.3,0.6-0.5,1c0.6-0.7,1.1-1.4,1.6-2.1
						c-0.2,0.2-0.3,0.4-0.5,0.5c0.7-0.5,1.4-1.1,2.1-1.6c-0.2,0.1-0.4,0.2-0.6,0.3c0.8-0.4,1.7-0.7,2.5-1.1
						c-0.8,0.3-1.5,0.5-2.3,0.6c0.9-0.1,1.9-0.2,2.8-0.4c-1.5,0.2-2.9,0.2-4.4,0c0.9,0.1,1.9,0.2,2.8,0.4c-2.4-0.4-4.7-1.1-6.9-2
						c0.8,0.4,1.7,0.7,2.5,1.1c-2.3-1-4.8-1.9-6.8-3.4c0.7,0.5,1.4,1.1,2.1,1.6c-0.2-0.2-0.4-0.4-0.6-0.6c0.6,0.7,1.1,1.4,1.6,2.1
						c-0.1-0.2-0.3-0.4-0.4-0.6c0.3,0.8,0.7,1.7,1.1,2.5c-0.2-0.5-0.3-0.9-0.3-1.4c0.1,0.9,0.2,1.9,0.4,2.8
						c-0.5-5.9-0.4-11.9-0.3-17.8c0.1-6,0.5-12,1.3-18c-0.1,0.9-0.2,1.9-0.4,2.8c1.2-8.4,3.2-16.6,6.5-24.4
						c-0.3,0.8-0.7,1.7-1.1,2.5c2.8-6.6,6.3-12.9,9.9-19.1c3.4-5.9,6.7-11.8,10.8-17.2c-0.6,0.7-1.1,1.4-1.6,2.1
						c3-3.8,6.3-7.2,10.2-10.2c-0.7,0.5-1.4,1.1-2.1,1.6c5-3.9,10.5-7,15.9-10.2c5.9-3.5,11.8-7,17.7-10.6c2.3-1.4,4.1-3.7,4.8-6.3
						c0.7-2.5,0.4-5.9-1.1-8.1C134.1,276.9,127.8,274.8,122.8,277.8L122.8,277.8z"/>
				</g>
			</g>
		</g>
		<g>
			<defs>
				<rect id="SVGID_119_" x="-16.5" y="0" width="576" height="576"/>
			</defs>
			<clipPath id="SVGID_120_">
				<use xlink:href="#SVGID_119_"  style="overflow:visible;"/>
			</clipPath>
			<g class="st6">
				<g>
					<path class="st5" d="M110.5,291.5c-3.3,2.5-6.4,5-9.3,7.9c-2.9,3-5.5,6.2-7.9,9.5c-4,5.3-7.2,11.2-10,17.3
						c-3.2,7.1-5.8,14.4-7.8,21.9c-2.1,7.7-3.6,15.5-5.1,23.3c-1.6,8.9-3.1,17.9-5.1,26.8c5.1-2.1,10.3-4.2,15.4-6.3
						c-0.3-0.1-0.5-0.3-0.8-0.5c0.7,0.5,1.4,1.1,2.1,1.6c-0.2-0.2-0.4-0.4-0.6-0.6c0.6,0.7,1.1,1.4,1.6,2.1
						c-0.2-0.4-0.4-0.7-0.6-1.1c0.3,0.8,0.7,1.7,1.1,2.5c-0.4-1.1-0.6-2.2-0.8-3.3c0.1,0.9,0.2,1.9,0.4,2.8
						c-1.1-8.1-1.1-16.3,0-24.4c-0.1,0.9-0.2,1.9-0.4,2.8c0.5-3.9,1.3-7.7,2.3-11.5c-6.8-1.9-13.5-3.7-20.2-5.6
						c-2,8.8-4.1,17.6-6.1,26.4c-2.2,9.5-4.8,20,0.9,28.8c1.5,2.3,3.6,4.1,6.3,4.8c2.5,0.7,5.9,0.4,8.1-1.1c2.2-1.5,4.2-3.6,4.8-6.3
						c0.6-2.7,0.5-5.7-1.1-8.1c-0.3-0.5-0.7-1.1-0.9-1.7c0.3,0.8,0.7,1.7,1.1,2.5c-0.5-1.2-0.8-2.4-1-3.7c0.1,0.9,0.2,1.9,0.4,2.8
						c-0.2-2-0.1-4,0.1-6c-0.1,0.9-0.2,1.9-0.4,2.8c0.8-5.8,2.5-11.6,3.8-17.3c1.4-6.2,2.8-12.3,4.3-18.5c0.6-2.7,0.4-5.6-1.1-8.1
						c-1.3-2.2-3.8-4.3-6.3-4.8c-5.5-1.3-11.4,1.7-12.9,7.3c-2.3,8.4-3.5,17.3-3.5,26c0,3.9,0.2,7.9,0.7,11.7
						c0.3,2.4,0.4,4.8,1.3,7.1c1.3,3.4,3.4,6.9,6.9,8.5c1.6,1,3.4,1.4,5.3,1.4c1.4,0,2.8-0.2,4.1-0.9c2.9-1.2,5.4-3.6,6.1-6.8
						c4-18.2,6.1-36.9,11.5-54.8c1.3-4.3,2.8-8.5,4.5-12.6c-0.3,0.8-0.7,1.7-1.1,2.5c3.1-7.2,6.9-14.1,11.7-20.4
						c-0.6,0.7-1.1,1.4-1.6,2.1c3.5-4.5,7.5-8.6,11.9-12.1c-0.7,0.5-1.4,1.1-2.1,1.6c0.2-0.2,0.4-0.3,0.6-0.5c2.3-1.7,4-3.4,4.8-6.3
						c0.7-2.5,0.4-5.9-1.1-8.1c-1.4-2.2-3.6-4.2-6.3-4.8C116,289.8,112.7,289.8,110.5,291.5L110.5,291.5z"/>
				</g>
			</g>
		</g>
		<g>
			<defs>
				<rect id="SVGID_121_" x="-16.5" y="0" width="576" height="576"/>
			</defs>
			<clipPath id="SVGID_122_">
				<use xlink:href="#SVGID_121_"  style="overflow:visible;"/>
			</clipPath>
			<g class="st7">
				<g>
					<path class="st5" d="M104.4,416.3c-0.4-20.6-0.3-41.1,0.1-61.7c0.1-5.8,0.3-11.6,0.5-17.4c-6.9,0.9-13.8,1.9-20.6,2.8
						c3.6,21,7.2,42,10.8,63.1c1,5.9,2,11.8,3.1,17.7c5.8-3.4,11.7-6.8,17.6-10.2c-0.4-0.3-0.7-0.6-1-1c0.6,0.7,1.1,1.4,1.6,2.1
						c-0.4-0.6-0.8-1.1-1.1-1.8c0.4,0.8,0.7,1.7,1.1,2.5c-0.5-1.1-0.8-2.3-0.9-3.5c0.1,0.9,0.2,1.9,0.4,2.8
						c-0.6-4.7-0.2-9.7-0.1-14.4c0.1-5.4,0.3-10.7,0.6-16.1c0.6-10.6,1.4-21.2,2.5-31.8c0.6-6,1.3-11.9,2.1-17.8
						c-0.1,0.9-0.2,1.9-0.4,2.8c1-7.7,2.4-15.4,5.4-22.6c-0.4,0.8-0.7,1.7-1.1,2.5c1.3-3.1,3-6.1,5.1-8.8c-0.6,0.7-1.1,1.4-1.6,2.1
						c1-1.3,2.1-2.5,3.3-3.6c-5.9-3.4-11.7-6.8-17.6-10.2c-5.7,16.3-8.3,33.4-10.1,50.5c-0.9,8-1.6,15.9-2.2,23.9
						c-0.6,7.5-0.9,15.1-0.2,22.6c0.9,9.9,3.1,19.5,7.9,28.3c2.6,4.8,9.7,6.8,14.4,3.8c4.9-3.2,6.6-9.2,3.8-14.4
						c-0.7-1.4-1.4-2.8-2-4.2c0.4,0.8,0.7,1.7,1.1,2.5c-2.1-4.9-3.4-10.1-4.1-15.4c0.1,0.9,0.2,1.9,0.4,2.8
						c-1-7.4-0.9-14.9-0.4-22.3c0.5-7.9,1.3-15.8,2.1-23.6c0.5-4.6,1-9.2,1.6-13.8c-0.1,0.9-0.2,1.9-0.4,2.8
						c1.7-12.9,4.3-25.6,8.6-37.9c0.1-0.9,0.2-1.9,0.4-2.8c0.1-1.5-0.2-2.8-0.9-4c-0.9-2-2.3-4-4.3-5c-4.2-2.2-9.2-1.7-12.7,1.6
						c-13,12.4-15.4,30.9-17.5,47.8c-2.3,18.7-3.8,37.4-4.4,56.2c-0.2,5-0.3,10.1-0.3,15.1c0.1,6.2,1.5,12.9,6.3,17.2
						c3.3,3,8.7,4.2,12.7,1.6c1.5-1,2.8-2.2,3.8-3.8c1.6-2.5,1.5-5.4,1.1-8.1c-3.6-21-7.2-42-10.8-63.1c-1-5.9-2-11.8-3.1-17.7
						c-0.4-2.4-2.8-5.2-4.8-6.3c-2.1-1.1-4.3-1.6-6.7-1.2c-5.2,0.7-8.9,5-9.1,10.3c-0.7,20.5-1,41.1-0.8,61.7
						c0,5.8,0.1,11.6,0.2,17.4c0.1,2.7,1.1,5.5,3.1,7.4c1.8,1.8,4.8,3.2,7.4,3.1C99.5,426.5,104.5,422.1,104.4,416.3L104.4,416.3z"
						/>
				</g>
			</g>
		</g>
		<g>
			<defs>
				<rect id="SVGID_123_" x="-16.5" y="0" width="576" height="576"/>
			</defs>
			<clipPath id="SVGID_124_">
				<use xlink:href="#SVGID_123_"  style="overflow:visible;"/>
			</clipPath>
			<g class="st8">
				<g>
					<path class="st9" d="M141,284.8c-9.5,15.1-16.3,32-20.9,49.3c-4.6,17.5-7,35.5-8.1,53.5c-0.6,9.8-0.9,19.6-0.8,29.4
						c6.9-0.9,13.7-1.9,20.6-2.8c-0.9-4.2-1.7-8.5-2.3-12.8c0.1,0.9,0.2,1.9,0.4,2.8c-1.9-14.3-1.9-28.8,0.1-43
						c-0.1,0.9-0.2,1.9-0.4,2.8c2-14.5,5.9-28.8,11.6-42.3c-0.4,0.8-0.7,1.7-1.1,2.5c5-11.8,11.3-22.9,19-33.1
						c1.5-2,1.7-5.8,1.1-8.1c-0.7-2.4-2.6-5.1-4.8-6.3c-2.4-1.3-5.4-1.9-8.1-1.1c-0.8,0.4-1.7,0.7-2.5,1.1c-1.6,0.9-2.8,2.2-3.8,3.8
						c-11.4,15.2-19.9,32.5-25.5,50.5c-5.6,18-8.3,37.1-7.9,56c0.3,11,1.7,22.1,4,32.9c0.5,2.4,2.7,5.1,4.8,6.3
						c2.1,1.1,4.3,1.6,6.7,1.2c5.1-0.7,9.1-5,9.1-10.3c0-17,0.7-34.1,2.9-51c-0.1,0.9-0.2,1.9-0.4,2.8c1.9-14.3,4.9-28.6,9.6-42.3
						c1.3-3.9,2.8-7.7,4.4-11.5c-0.4,0.8-0.7,1.7-1.1,2.5c3.2-7.7,7.1-15.1,11.5-22.2c2.9-4.7,1.1-11.8-3.8-14.4
						C150.2,278.3,144.1,279.8,141,284.8L141,284.8z"/>
				</g>
			</g>
		</g>
		<g>
			<defs>
				<rect id="SVGID_125_" x="-16.5" y="0" width="576" height="576"/>
			</defs>
			<clipPath id="SVGID_126_">
				<use xlink:href="#SVGID_125_"  style="overflow:visible;"/>
			</clipPath>
			<g class="st10">
				<g>
					<path class="st9" d="M119.7,420.1c0.8-7.8,1.7-15.5,2.7-23.3c-0.1,0.9-0.2,1.9-0.4,2.8c2-15,4.7-29.9,9.4-44.3
						c1.3-4.1,2.8-8.2,4.5-12.1c-0.4,0.8-0.7,1.7-1.1,2.5c1.2-2.8,2.4-5.5,3.8-8.1c1.3-2.5,1.8-5.3,1.1-8.1
						c-0.7-2.4-2.6-5.1-4.8-6.3c-2.4-1.3-5.4-1.9-8.1-1.1c-2.5,0.8-5.1,2.4-6.3,4.8c-5.7,11.4-9.9,23.4-13,35.7
						c-3,12.3-4.9,24.8-6.5,37.4c-0.9,6.7-1.6,13.4-2.3,20.2c-0.3,2.5,1.4,5.7,3.1,7.4c1.8,1.8,4.8,3.2,7.4,3.1
						c2.7-0.1,5.5-1,7.4-3.1c0.6-0.7,1.1-1.4,1.6-2.1C119.2,423.8,119.7,422,119.7,420.1L119.7,420.1z"/>
				</g>
			</g>
		</g>
		<g>
			<defs>
				<rect id="SVGID_127_" x="-16.5" y="0" width="576" height="576"/>
			</defs>
			<clipPath id="SVGID_128_">
				<use xlink:href="#SVGID_127_"  style="overflow:visible;"/>
			</clipPath>
			<g class="st11">
				<g>
					<path class="st9" d="M139.2,287.6c-15.5,8-21.7,25.6-27.5,40.9c-3.3,8.6-5.9,17.3-7.5,26.3c-1.7,9.7-2.6,19.5-3,29.3
						c-0.3,10.2-0.1,20.4,0.1,30.5c0.1,2.7,1.1,5.5,3.1,7.4c1.8,1.8,4.8,3.2,7.4,3.1c5.6-0.2,10.6-4.6,10.5-10.5
						c-0.4-16.8-0.7-33.8,1.5-50.5c-0.1,0.9-0.2,1.9-0.4,2.8c1.1-7.8,2.7-15.5,5.1-23c2.3-7.1,5-14,7.9-20.9
						c-0.4,0.8-0.7,1.7-1.1,2.5c2.2-5.2,4.8-10.4,8.2-14.9c-0.6,0.7-1.1,1.4-1.6,2.1c1.7-2.2,3.6-4.2,5.8-5.9
						c-0.7,0.5-1.4,1.1-2.1,1.6c1.4-1,2.8-1.9,4.3-2.7c4.9-2.5,6.7-9.8,3.8-14.4C150.4,286.4,144.5,284.9,139.2,287.6L139.2,287.6z"
						/>
				</g>
			</g>
		</g>
		<g>
			<defs>
				<rect id="SVGID_129_" x="-16.5" y="0" width="576" height="576"/>
			</defs>
			<clipPath id="SVGID_130_">
				<use xlink:href="#SVGID_129_"  style="overflow:visible;"/>
			</clipPath>
			<g class="st12">
				<g>
					<path class="st9" d="M139,285.7c-8.9,4.5-13.7,13.6-17.8,22.2c-0.7,1.5-0.4,3.2,1.1,4.1c1.3,0.8,3.4,0.4,4.1-1.1
						c2.1-4.3,4.2-8.5,7-12.4c2.2-3.1,5.2-5.8,8.7-7.6c1.4-0.7,1.9-2.8,1.1-4.1C142.3,285.3,140.5,285,139,285.7L139,285.7z"/>
				</g>
			</g>
		</g>
		<g>
			<defs>
				<rect id="SVGID_131_" x="-16.5" y="0" width="576" height="576"/>
			</defs>
			<clipPath id="SVGID_132_">
				<use xlink:href="#SVGID_131_"  style="overflow:visible;"/>
			</clipPath>
			<g class="st13">
				<g>
					<path class="st9" d="M103.8,418.1c0.7-8.9,1.4-17.9,2.1-26.8c0.6-7.8,0.9-15.8,2.8-23.4c1-4.1,2.6-8,4.9-11.6
						c0.9-1.4,0.3-3.3-1.1-4.1c-1.4-0.9-3.2-0.3-4.1,1.1c-4.5,6.9-6.2,15-7.2,23c-1.1,8.6-1.5,17.4-2.2,26.1
						c-0.4,5.2-0.8,10.5-1.2,15.7c-0.1,1.6,1.5,3,3,3C102.5,421.1,103.6,419.7,103.8,418.1L103.8,418.1z"/>
				</g>
			</g>
		</g>
		<g>
			<defs>
				<rect id="SVGID_133_" x="-16.5" y="0" width="576" height="576"/>
			</defs>
			<clipPath id="SVGID_134_">
				<use xlink:href="#SVGID_133_"  style="overflow:visible;"/>
			</clipPath>
			<g class="st14">
				<g>
					<path class="st9" d="M137.7,418.1c-0.4-19.1,0.6-38.2,2.9-57.2c1.1-9.3,2.6-18.5,4.4-27.7c1.7-8.9,3.6-17.8,6.4-26.4
						c3-9.1,7.3-18,13.8-25.2c1.1-1.2,1.2-3.1,0-4.2c-1.1-1.1-3.1-1.2-4.2,0c-12.5,13.6-17.2,32-20.9,49.6c-4,19.1-6.6,38.5-7.8,58
						c-0.7,11-0.9,22-0.7,33C131.8,422,137.8,422,137.7,418.1L137.7,418.1z"/>
				</g>
			</g>
		</g>
		<g>
			<defs>
				<rect id="SVGID_135_" x="-16.5" y="0" width="576" height="576"/>
			</defs>
			<clipPath id="SVGID_136_">
				<use xlink:href="#SVGID_135_"  style="overflow:visible;"/>
			</clipPath>
			<g class="st15">
				<g>
					<path class="st9" d="M140.7,282.6c-8,4.2-14,11.4-18.6,19.1c-4.9,8.1-8.8,16.9-12.5,25.6c-3.8,9.1-7,18.4-9.1,28
						c-2.3,10.4-3.1,21.1-4.1,31.7c-1.1,11.7-2.1,23.5-3.2,35.2c-0.3,3.1,3,6.1,6,6c3.5-0.2,5.7-2.6,6-6c0.9-10.2,1.8-20.4,2.8-30.5
						c0.5-5.1,0.9-10.1,1.4-15.2c0.2-2.5,0.5-5,0.8-7.5c0-0.2,0.2-1.2,0.1-0.4c-0.1,0.8,0-0.2,0.1-0.4c0.1-0.6,0.2-1.1,0.2-1.7
						c0.2-1.3,0.4-2.6,0.6-3.8c1.7-9.4,4.5-18.5,8-27.4c0.4-1.1,0.9-2.1,1.3-3.2c0.1-0.3,0.2-0.6,0.4-0.9c0.3-0.6-0.1,0.3-0.2,0.4
						c0.2-0.6,0.5-1.3,0.8-1.9c0.9-2.2,1.9-4.4,3-6.5c1.9-4,3.8-8,6-11.9c1.1-2,2.3-4,3.5-5.9c0.6-0.9,1.2-1.8,1.9-2.7
						c0.1-0.2,0.3-0.4,0.5-0.6c0.6-0.9-0.6,0.7-0.1,0.1c0.4-0.5,0.7-0.9,1.1-1.3c1.4-1.6,2.9-3.2,4.6-4.6c0.2-0.2,0.4-0.3,0.6-0.5
						c0.8-0.7-0.8,0.5-0.2,0.1c0.5-0.3,0.9-0.7,1.4-1c1-0.6,1.9-1.2,3-1.8c2.8-1.5,3.9-5.6,2.1-8.2
						C147,281.9,143.6,281.1,140.7,282.6L140.7,282.6z"/>
				</g>
			</g>
		</g>
		<g>
			<defs>
				<rect id="SVGID_137_" x="-16.5" y="0" width="576" height="576"/>
			</defs>
			<clipPath id="SVGID_138_">
				<use xlink:href="#SVGID_137_"  style="overflow:visible;"/>
			</clipPath>
			<g class="st16">
				<g>
					<path class="st9" d="M105.6,422.6c0.2-6.3,0.3-12.7,0.5-19c0.1-3.1-2.8-6.1-6-6c-3.3,0.1-5.9,2.6-6,6c-0.2,6.3-0.3,12.7-0.5,19
						c-0.1,3.1,2.8,6.1,6,6C102.9,428.4,105.5,425.9,105.6,422.6L105.6,422.6z"/>
				</g>
			</g>
		</g>
		<g>
			<defs>
				<rect id="SVGID_139_" x="-16.5" y="0" width="576" height="576"/>
			</defs>
			<clipPath id="SVGID_140_">
				<use xlink:href="#SVGID_139_"  style="overflow:visible;"/>
			</clipPath>
			<g class="st17">
				<g>
					<path class="st9" d="M104.1,422c-0.1-13.1-0.2-26.3,1.5-39.3c0-0.3,0.1-0.6,0.1-1c-0.2,1.5,0-0.1,0.1-0.3
						c0.1-0.7,0.2-1.4,0.3-2.2c0.2-1.6,0.5-3.1,0.8-4.7c0.6-2.7,1.2-5.5,1.9-8.1c0.8-2.7,1.6-5.4,2.6-8c0.2-0.6,0.5-1.3,0.8-2
						c0.1-0.3,0.3-0.6,0.4-1c0.3-0.8-0.6,1.4,0,0.1c0.6-1.3,1.1-2.5,1.8-3.8c1.4-2.9,3-5.6,4.8-8.3c0.8-1.2,1.7-2.6,2.7-3.7
						c-1.1,1.2-0.1,0.1,0.1-0.1c0.3-0.3,0.5-0.6,0.8-1c0.5-0.6,1.1-1.3,1.6-1.9c2.1-2.3,2.5-6.2,0-8.5c-2.3-2.1-6.2-2.5-8.5,0
						c-17.4,19.3-22.6,45.5-23.5,70.8c-0.3,7.6-0.2,15.2-0.2,22.9c0,3.1,2.8,6.1,6,6C101.3,427.8,104.1,425.3,104.1,422L104.1,422z"
						/>
				</g>
			</g>
		</g>
		<g>
			<defs>
				<rect id="SVGID_141_" x="-16.5" y="0" width="576" height="576"/>
			</defs>
			<clipPath id="SVGID_142_">
				<use xlink:href="#SVGID_141_"  style="overflow:visible;"/>
			</clipPath>
			<g class="st18">
				<g>
					<path class="st9" d="M134.2,287.9c-18.8,19.4-31.6,44.5-36.1,71.1c-1.3,7.7-2,15.4-2,23.2c0,3.1,2.8,6.1,6,6c3.2-0.1,6-2.6,6-6
						c0-3.3,0.1-6.5,0.3-9.8c0.1-1.5,0.2-3,0.4-4.5c0.1-0.7,0-1.8,0.3-2.4c0,0.1-0.2,1.5-0.1,0.4c0.1-0.5,0.2-1.1,0.2-1.6
						c1-6.3,2.4-12.6,4.3-18.7c0.9-3,2-6,3.1-8.9c0.3-0.8,0.6-1.5,0.9-2.3c0.5-1.3-0.5,1.2,0-0.1c0.1-0.2,0.2-0.5,0.3-0.8
						c0.7-1.6,1.4-3.1,2.1-4.7c2.8-5.7,5.9-11.2,9.5-16.5c1-1.5,2-2.9,3.1-4.3c0.2-0.3,0.5-0.7,0.7-1c0.2-0.2,0.3-0.4,0.5-0.6
						c-0.5,0.7-0.6,0.8-0.2,0.2c0.5-0.6,1-1.3,1.5-1.9c2.3-2.9,4.8-5.6,7.4-8.3c2.2-2.3,2.4-6.3,0-8.5
						C140.4,285.7,136.6,285.5,134.2,287.9L134.2,287.9z"/>
				</g>
			</g>
		</g>
		<g>
			<defs>
				<rect id="SVGID_143_" x="-16.5" y="0" width="576" height="576"/>
			</defs>
			<clipPath id="SVGID_144_">
				<use xlink:href="#SVGID_143_"  style="overflow:visible;"/>
			</clipPath>
			<g class="st19">
				<g>
					<path class="st20" d="M159.3,286.8c-10.7,13.5-14.2,30.8-17.3,47.4c-3.3,18.4-5.3,37.1-5.8,55.8c-0.3,10.4-0.1,20.7,0.5,31.1
						c0.1,2.4,2,4.6,4.5,4.5c2.3-0.1,4.6-2,4.5-4.5c-1.1-18-0.8-36.1,0.8-54.1c0.4-4.5,0.9-9,1.5-13.5c0-0.2,0.1-0.5,0.1-0.7
						c0-0.1,0.1-0.9,0-0.2c0.1-0.5,0.1-1,0.2-1.4c0.2-1.2,0.3-2.4,0.5-3.6c0.3-2.2,0.7-4.5,1.1-6.7c1.4-8.3,3-16.7,5.2-24.9
						c0.6-2.1,1.2-4.2,1.9-6.3c0.4-1.1,0.8-2.1,1.2-3.2c0.1-0.2,0.1-0.4,0.2-0.6c0-0.1,0.4-1.1,0.2-0.6c-0.2,0.4,0.1-0.2,0.1-0.2
						c0.1-0.3,0.3-0.6,0.4-1c0.9-2,1.9-3.9,3-5.8c0.5-0.9,1.1-1.8,1.7-2.7c0.3-0.5,0.6-0.9,1-1.4c0.1-0.2,0.2-0.3,0.4-0.5
						c0.8-1.1-0.5,0.7,0.3-0.4c1.5-1.8,1.9-4.6,0-6.4C164.1,285.3,160.9,284.9,159.3,286.8L159.3,286.8z"/>
				</g>
			</g>
		</g>
		<g>
			<defs>
				<rect id="SVGID_145_" x="-16.5" y="0" width="576" height="576"/>
			</defs>
			<clipPath id="SVGID_146_">
				<use xlink:href="#SVGID_145_"  style="overflow:visible;"/>
			</clipPath>
			<g class="st21">
				<g>
					<path class="st20" d="M154.2,285c-8.3,13.9-13.7,29.5-16.8,45.4c-3.3,17.1-4.2,34.5-4.1,51.8c0.1,10.1,0.5,20.1,0.9,30.2
						c0.1,2.4,2,4.6,4.5,4.5c2.4-0.1,4.6-2,4.5-4.5c-0.7-17.5-1.4-34.9-0.4-52.4c0.2-4.3,0.6-8.6,1.1-12.9c0.1-1,0.2-1.9,0.3-2.9
						c0.1-0.4,0.1-0.9,0.2-1.3c0,0.1-0.1,0.6,0,0.1c0.1-0.4,0.1-0.7,0.2-1.1c0.3-1.9,0.6-3.8,0.9-5.7c1.4-7.8,3.2-15.5,5.7-23
						c0.7-2.1,1.5-4.2,2.3-6.3c0.4-1,0.8-2.1,1.2-3.1c0.2-0.5,0,0,0,0c0.1-0.3,0.2-0.5,0.4-0.8c0.2-0.5,0.5-1.1,0.7-1.6
						c1.8-4.1,3.9-8,6.2-11.8c1.2-2,0.5-5-1.6-6.2C158.2,282.3,155.5,282.9,154.2,285L154.2,285z"/>
				</g>
			</g>
		</g>
		<g>
			<defs>
				<rect id="SVGID_147_" x="-16.5" y="0" width="576" height="576"/>
			</defs>
			<clipPath id="SVGID_148_">
				<use xlink:href="#SVGID_147_"  style="overflow:visible;"/>
			</clipPath>
			<g class="st22">
				<g>
					<path class="st20" d="M159.6,291.1c1.1,1.8,2,3.6,2.9,5.4c0.4,0.9,0.9,1.8,1.2,2.7c0.2,0.5,0.4,1,0.6,1.5c0.2,0.5,0,0.1,0,0
						c0.1,0.3,0.2,0.6,0.4,0.8c1.5,3.8,2.9,7.7,4.2,11.6c2.8,8.3,5.6,16.6,7.9,25.1c1.2,4.2,2.2,8.4,3.1,12.7
						c0.4,2.1,0.8,4.3,1.2,6.5c0.2,1,0.3,2.1,0.5,3.1c0.1,0.6,0.2,1.1,0.2,1.7c0,0.2,0.1,0.5,0.1,0.7c0.1,0.8-0.1-0.5,0,0.2
						c1.1,8.8,1.7,17.6,2.1,26.5c0.2,4.8,0.4,9.7,0.6,14.5c0.1,2.4,0.1,4.8-0.1,7.1c0,0.5-0.1,1.1-0.1,1.6c0-0.2,0.1-0.8,0,0.2
						c-0.1,0.3-0.1,0.6-0.2,0.9c-0.2,1.2-0.6,2.4-1,3.5c-0.8,2.2,0.9,5,3.1,5.5c2.5,0.6,4.7-0.8,5.5-3.1c1.5-4.3,1.8-8.9,1.8-13.4
						c-0.1-4.4-0.3-8.8-0.5-13.2c-0.4-9-0.9-18-1.9-27c-1.1-9.1-2.6-18.1-4.9-27c-2.3-8.7-5.1-17.2-7.9-25.7
						c-3.1-9.2-6.2-18.6-11.2-27c-1.2-2-4.1-2.9-6.2-1.6C159.2,286.2,158.4,288.9,159.6,291.1L159.6,291.1z"/>
				</g>
			</g>
		</g>
		<g>
			<defs>
				<rect id="SVGID_149_" x="-16.5" y="0" width="576" height="576"/>
			</defs>
			<clipPath id="SVGID_150_">
				<use xlink:href="#SVGID_149_"  style="overflow:visible;"/>
			</clipPath>
			<g class="st23">
				<g>
					<path class="st20" d="M155.5,297c5.1,15.9,9.3,32.1,12.4,48.6c0.8,4.1,1.5,8.1,2.1,12.2c0.3,2,0.6,4.1,0.9,6.1
						c0.1,0.5,0.1,1.1,0.2,1.7c0.1,0.5,0,0.1,0,0c0,0.2,0.1,0.5,0.1,0.7c0.1,1.1,0.3,2.2,0.4,3.3c1,8.3,1.8,16.6,2.3,25
						c0.3,4.4,0.3,8.9,0.6,13.3c0.3,4.8,1.1,9.4,3.4,13.6c0.9,1.7,3.2,2.7,5.1,2.1c2-0.6,3.2-2.3,3.3-4.3
						c0.9-15.1,1.1-30.3-0.3-45.5c-1.4-15.2-4.2-30.4-9.8-44.6c-3.2-8-7.1-15.8-11.9-22.9c-1-1.5-2.6-2.4-4.5-2.1
						c-1.9,0.3-3.1,1.5-3.7,3.2c-3.4,8.5-5,17.5-6.5,26.5c-1.5,9.6-3,19.2-4.5,28.8c-1.5,9.5-3.1,19-4.4,28.6
						c-1.2,9-1.6,19.7,4.5,27.1c3.5,4.2,9,4.6,14.1,5.3c5.4,0.8,10.9,1.5,16.3,2.3c1.5,0.2,2.7,0.1,3.9-0.8c1.1-0.9,1.8-2.1,1.8-3.5
						c-0.1-14.1-0.7-28.3-1.4-42.4c-0.4-7-0.7-14-1.1-21.1c-0.4-6.8-0.7-13.6-1.4-20.3c-0.8-7.6-2.1-15.1-4.9-22.2
						c-0.6-1.5-1.5-2.7-3.1-3.1c-1.5-0.4-3.2,0-4.4,1.2c-4.9,5-6.5,11.8-7,18.6c-0.6,7.4-0.5,14.9-0.7,22.3c-0.2,8-0.4,16-0.6,24
						c-0.2,7.9-0.6,16,1.3,23.8c1.8,7.5,6,14.5,12.6,18.7c2.1,1.3,4.9,0.4,6.2-1.6c5.1-8.2,3.8-18.2,2.5-27.3
						c-1.5-10.1-2.9-20.3-4.4-30.5c-0.8-5.8-1.7-11.6-2.5-17.4c-0.3-2.2-3-3.5-4.9-3.2c-2.4,0.3-3.6,2.2-3.9,4.4
						c-2.3,17.8-1.9,35.9,0.8,53.6c0.8,5,1.7,9.9,2.9,14.8c2.7-1.2,5.5-2.3,8.2-3.5c-4.2-6.3-13.2-8.7-19.7-4.5
						c-1.5,1-2.4,2.6-2.1,4.5c0.2,1.9,1.5,3.1,3.2,3.7c0.5,0.2,0.5,0.2-0.1,0c0.2,0.1,0.4,0.2,0.7,0.3c0.4,0.2,0.9,0.5,1.3,0.7
						c0.2,0.1,0.4,0.3,0.6,0.4c-0.4-0.3-0.4-0.3-0.1,0c0.3,0.3,0.6,0.6,0.9,0.9c0.3,0.3,0.6,0.6,0.9,1c-0.7-0.8,0.2,0.4,0.4,0.6
						c0.3,0.4,0.5,0.9,0.7,1.3c0.2,0.5,0.2,0.4,0-0.1c0.1,0.2,0.2,0.5,0.2,0.7c1.4-1.9,2.9-3.8,4.3-5.7c-0.3,0-0.6,0-0.9,0
						c-0.7,0,1.1,0.3,0,0c-0.5-0.1-1-0.3-1.5-0.4c-0.6-0.2,0.9,0.5,0,0c-0.2-0.1-0.4-0.2-0.6-0.3s-0.4-0.2-0.6-0.4
						c-0.2-0.1-0.4-0.3-0.6-0.4c0.4,0.3,0.5,0.4,0.2,0.2c-0.4-0.4-0.8-0.7-1.2-1.1c-0.2-0.2-0.3-0.4-0.5-0.5
						c-0.1-0.1-0.8-1.1-0.2-0.2c-0.6-1-1.2-1.9-1.7-3c-0.3-0.6,0.3,1,0-0.1c-0.1-0.2-0.2-0.5-0.2-0.7c-0.2-0.7-0.4-1.4-0.5-2.1
						c-0.1-0.3-0.1-0.6-0.2-0.9c0.1,0.7,0-0.2,0-0.4c-0.1-0.9-0.1-1.7-0.1-2.6c0-3,0.3-6,0.7-8.9c1.6-12.4,2.9-24.9,3.8-37.4
						c0.5-7.1,0.9-14.2,1.1-21.4c-2.3,1.3-4.5,2.6-6.8,3.9c-0.6-0.5-0.1-0.1,0.1,0c0.2,0.2,0.4,0.4,0.6,0.5c0.4,0.3,0.7,0.6,1,1
						s0.6,0.7,1,1c0.2,0.2,0.4,0.4,0.5,0.6c-0.4-0.5,0,0,0.1,0.2c0.6,0.8,1.2,1.8,1.6,2.7c-0.1-0.4-0.2-0.1-0.1,0
						c0,0.1,0,0.1,0.1,0.2c0-0.4-0.1-0.4-0.1-0.1c0.1,0.5,0,0,0-0.1c0,0-0.4,1.1-0.2,0.7c0.2-0.5-0.2,0.4-0.2,0.5
						c-0.1,0.3-0.3,0.5-0.4,0.8c-0.2,0.5-0.5,1-0.7,1.4c-0.5,1.1-1,2.2-1.5,3.3c-1,2.3-2,4.6-2.9,7c-3.3,8.7-5.7,17.7-7.2,26.8
						c-0.9,5.5-1.5,11-1.8,16.6c-0.1,2.4,2.1,4.6,4.5,4.5c2.5-0.1,4.4-2,4.5-4.5c0.1-2.4,0.3-4.9,0.5-7.3c0.1-1.2,0.3-2.4,0.4-3.6
						c0-0.1,0.1-0.9,0-0.2c0-0.3,0.1-0.6,0.1-0.9c0.1-0.6,0.2-1.2,0.3-1.8c0.8-4.9,1.8-9.7,3.1-14.5c1.3-4.7,2.8-9.3,4.6-13.9
						c0.4-1.1,0.8-2.1,1.3-3.2c-0.2,0.6,0-0.1,0.1-0.2c0.1-0.3,0.2-0.6,0.4-0.8c0.3-0.6,0.6-1.2,0.8-1.9c1.1-2.5,2.7-5,3.1-7.7
						c0.8-6.2-4.6-11.8-9.1-15.2c-1.2-0.9-3.3-0.7-4.5,0c-1.4,0.8-2.2,2.3-2.2,3.9c-0.5,13.4-1.4,26.9-2.8,40.2
						c-0.7,6.5-1.5,13-2.3,19.4c-0.8,6.6-1,13.3,1.8,19.5c2.7,5.9,8.5,10.4,15.1,10.5c2.8,0,5.3-2.9,4.3-5.7c-2-5.7-6.2-9.9-11.8-12
						c0.4,2.7,0.7,5.5,1.1,8.2c0.3-0.2,0.6-0.3,0.8-0.5c0.6-0.3-0.1-0.1-0.2,0.1c0.3-0.3,1.3-0.4,1.7-0.5c0.5-0.2-0.9,0-0.1,0
						c0.3,0,0.5,0,0.8,0s0.5,0,0.8,0c1,0.1-0.9-0.2,0.1,0c0.3,0.1,1.4,0.2,1.5,0.5c-0.2-0.3-0.7-0.4-0.1,0c0.2,0.1,0.5,0.2,0.7,0.4
						c0.3,0.2,1.1,0.4,0.1,0c0.2,0.1,0.4,0.4,0.6,0.5c0.2,0.2,0.4,0.4,0.6,0.6c0.6,0.6-0.5-0.7,0.1,0.1c1.2,1.9,3.5,2.7,5.6,1.8
						c2.1-0.9,3.1-3.1,2.6-5.3c-1-4.3-1.9-8.6-2.6-13c-0.2-1-0.3-2.1-0.5-3.1c-0.1-0.5-0.1-1-0.2-1.4c0,0-0.1-0.8-0.1-0.4
						c0.1,0.4-0.1-0.7-0.1-0.8c-0.3-2.1-0.5-4.3-0.7-6.5c-0.8-8.7-1-17.4-0.6-26.1c0.2-5,0.7-9.9,1.3-14.8c-2.9,0.4-5.9,0.8-8.8,1.2
						c1.4,9.8,2.8,19.6,4.2,29.5c0.7,4.9,1.4,9.8,2.1,14.7c0.2,1.1,0.3,2.3,0.5,3.4c0.1,0.6,0.2,1.2,0.3,1.8c0,0.2,0.1,0.4,0.1,0.6
						c0.1,0.5-0.1-0.6,0,0.2c0.2,2.1,0.5,4.1,0.5,6.2c0,1.2,0,2.3,0,3.5c0,0.5-0.1,1.1-0.1,1.6c-0.1,0.7,0.1-0.7,0,0
						c-0.1,0.3-0.1,0.7-0.2,1c-0.2,1-0.5,2.1-0.8,3.1c-0.1,0.2-0.2,0.5-0.3,0.7c0.2-0.6,0-0.1-0.1,0.2c-0.3,0.5-0.6,1.1-0.9,1.6
						c2.1-0.5,4.1-1.1,6.2-1.6c-0.3-0.2-0.6-0.4-1-0.6c-1-0.7,0.6,0.6-0.3-0.2c-0.5-0.4-1-0.8-1.4-1.3c-0.5-0.5-1-1.1-1.5-1.7
						c0.6,0.6,0.1,0.1,0,0c-0.3-0.4-0.6-0.8-0.9-1.3c-0.8-1.2-1.4-2.5-2-3.8c0.4,0.8,0,0-0.1-0.2c-0.1-0.3-0.2-0.6-0.3-0.9
						c-0.3-0.8-0.5-1.6-0.8-2.4c-0.4-1.5-0.7-3.1-0.9-4.7c0.1,0.8-0.1-0.7-0.1-0.7c-0.1-0.5-0.1-1-0.1-1.4c-0.1-1-0.1-1.9-0.2-2.9
						c-0.1-3.7,0-7.4,0.1-11.1c0.4-14.8,0.6-29.6,1.2-44.4c0.1-1.7,0.2-3.3,0.3-5c0-0.2,0.1-0.5,0.1-0.8c-0.1,1.1,0.1-0.5,0.1-0.7
						c0.1-0.7,0.3-1.5,0.5-2.2c0.2-0.8,0.4-1.6,0.7-2.3c0.1-0.3,0.2-0.6,0.3-0.9c-0.4,1,0.2-0.4,0.3-0.6c0.3-0.6,0.7-1.3,1.1-1.9
						c0.1-0.1,0.9-1,0.2-0.3c0.3-0.4,0.6-0.7,1-1.1c-2.5-0.7-5-1.3-7.5-2c1.2,3.1,2.2,6.2,2.9,9.4c0.4,1.6,0.7,3.1,0.9,4.7
						c0.1,0.8,0.2,1.5,0.4,2.3c0,0.1,0.1,0.9,0,0.2c0.1,0.5,0.1,1.1,0.2,1.6c0.8,6.6,1.1,13.3,1.4,20c0.8,13.9,1.6,27.8,2.1,41.6
						c0.3,7.9,0.5,15.9,0.6,23.8c1.9-1.5,3.8-2.9,5.7-4.3c-4.6-0.6-9.2-1.3-13.9-1.9c-2.3-0.3-4.5-0.6-6.8-0.9
						c-0.9-0.1-1.8-0.2-2.6-0.5c-0.5-0.1-0.9-0.3-1.4-0.4c-0.6-0.2,0.5,0.3,0,0c-0.2-0.1-0.5-0.3-0.7-0.4c-0.6-0.2,0.4,0.5,0,0
						c-0.1-0.1-0.3-0.2-0.4-0.4s-0.2-0.3-0.4-0.4c-0.5-0.4,0.3,0.6,0,0c-0.2-0.4-0.5-0.7-0.7-1.1c-0.1-0.2-0.7-1.5-0.4-0.6
						c-0.8-1.9-1.3-3.9-1.6-5.9c0.1,0.7,0-0.4-0.1-0.6c-0.1-0.5-0.1-1-0.1-1.6c-0.1-1.1-0.1-2.2,0-3.4c0.1-2.1,0.3-4.2,0.5-6.3
						c0-0.1,0.1-0.9,0-0.2c0-0.2,0.1-0.5,0.1-0.7c0.1-0.5,0.1-1,0.2-1.6c0.2-1.1,0.3-2.1,0.5-3.2c0.4-2.4,0.7-4.7,1.1-7.1
						c0.7-4.6,1.4-9.2,2.1-13.7c1.4-9.2,2.9-18.5,4.4-27.7c1.5-9.8,3.1-19.6,6.8-28.9c-2.7,0.4-5.5,0.7-8.2,1.1c2.1,3,4,6.2,5.8,9.5
						c0.9,1.6,1.7,3.2,2.5,4.9c0.4,0.8,0.8,1.6,1.1,2.4c0.2,0.4,0.3,0.7,0.5,1.1c0.1,0.2,0.2,0.4,0.2,0.6c0.2,0.5-0.2-0.5,0.1,0.2
						c2.8,6.7,5,13.7,6.6,20.8c0.8,3.6,1.6,7.2,2.1,10.9c0.1,0.9,0.3,1.8,0.4,2.7c0.1,0.4,0.1,0.8,0.2,1.2c0,0.3,0.1,0.5,0.1,0.8
						c-0.1-0.5-0.1-0.4,0,0c0.2,1.9,0.4,3.7,0.6,5.6c0.8,7.4,1.1,14.9,1.2,22.3c0.1,8.5-0.2,17-0.7,25.4c2.8-0.8,5.6-1.5,8.4-2.3
						c-0.2-0.4-0.4-0.8-0.6-1.1c0,0-0.3-0.7-0.1-0.2c0.2,0.5-0.1-0.3-0.1-0.4c-0.3-0.9-0.6-1.7-0.8-2.6c-0.1-0.4-0.2-0.8-0.2-1.2
						c0-0.2-0.1-0.4-0.1-0.6c0-0.1-0.1-1-0.1-0.5c0.1,0.4-0.1-0.7-0.1-0.9c-0.1-0.5-0.1-1-0.1-1.5c-0.3-3.9-0.3-7.9-0.6-11.8
						c-0.5-8.3-1.2-16.5-2.2-24.7c-2-16.7-4.9-33.2-9-49.6c-2.2-9.1-4.8-18.2-7.7-27.1c-0.7-2.2-3.1-3.9-5.5-3.1
						C156.4,292.2,154.7,294.6,155.5,297L155.5,297z"/>
				</g>
			</g>
		</g>
		<g>
			<defs>
				<rect id="SVGID_151_" x="-16.5" y="0" width="576" height="576"/>
			</defs>
			<clipPath id="SVGID_152_">
				<use xlink:href="#SVGID_151_"  style="overflow:visible;"/>
			</clipPath>
			<g class="st24">
				<g>
					<path class="st20" d="M142.7,422.9c-0.8-11.3-1.7-22.6-1.9-34c-0.1-5.6-0.1-11.2,0.2-16.7c0.1-2.8,0.3-5.6,0.6-8.4
						c0.1-1.3,0.3-2.6,0.4-4c0.1-0.7,0.2-1.4,0.3-2.1c0.1-0.8-0.1,0.6,0-0.2c0.1-0.5,0.1-0.9,0.2-1.4c0.9-6.3,2.2-12.5,4-18.5
						c0.7-2.3-0.8-5-3.1-5.5c-2.4-0.5-4.8,0.7-5.5,3.1c-6.5,22.2-6.7,45.5-5.4,68.4c0.4,6.5,0.8,12.9,1.3,19.3
						c0.2,2.3,1.9,4.6,4.5,4.5C140.5,427.3,142.9,425.4,142.7,422.9L142.7,422.9z"/>
				</g>
			</g>
		</g>
		<g>
			<defs>
				<rect id="SVGID_153_" x="-16.5" y="0" width="576" height="576"/>
			</defs>
			<clipPath id="SVGID_154_">
				<use xlink:href="#SVGID_153_"  style="overflow:visible;"/>
			</clipPath>
			<g class="st25">
				<g>
					<path class="st26" d="M166.5,286.8c0.5,1.1,0.9,2.1,1.4,3.2c0.2,0.5,0,0.1,0,0c0.1,0.3,0.2,0.6,0.4,0.9
						c0.3,0.6,0.5,1.3,0.8,1.9c0.9,2.1,1.7,4.3,2.6,6.5c1.7,4.4,3.3,8.8,4.7,13.3c2.9,9,5.5,18,7.6,27.2c1,4.5,2,9.1,2.8,13.6
						c0.4,2.4,0.8,4.7,1.2,7.1c0.2,1.1,0.3,2.1,0.5,3.2c0.1,0.6,0.2,1.2,0.3,1.8c0,0.2,0.1,0.5,0.1,0.7c-0.1-0.7,0,0.3,0.1,0.4
						c1.2,9.3,2,18.8,2.4,28.2c0.2,4.9,0.3,9.8-0.3,14.7c0,0.2-0.1,0.4-0.1,0.6c0.1-1-0.1,0.4-0.1,0.5c-0.1,0.6-0.2,1.1-0.3,1.7
						c-0.2,1.2-0.5,2.3-0.8,3.5s-0.7,2.3-1.2,3.4c0.3-0.8-0.3,0.6-0.4,0.8c-0.3,0.6-0.6,1.2-1,1.9c2.7,1.2,5.5,2.3,8.2,3.5
						c3.4-18.8,4.8-38,3.7-57.1c-0.3-5.3-0.8-10.6-1.4-15.9c-0.3-2.3-1.9-4.6-4.5-4.5c-2.2,0.1-4.8,2-4.5,4.5
						c2.3,18.4,2.4,37.1,0.4,55.6c-0.1,1.4-0.3,2.7-0.5,4.1c0,0.2-0.1,0.5-0.1,0.7c0.1-0.6,0,0.3-0.1,0.5c-0.1,0.6-0.2,1.3-0.3,1.9
						c-0.4,2.6-0.8,5.3-1.3,7.9c-0.4,2.2,0.4,4.4,2.6,5.3c2,0.9,4.5,0.1,5.6-1.8c4.7-8.2,5.6-17.9,5.5-27.2
						c-0.1-9.6-0.9-19.1-2-28.6c-2.3-19.4-6.3-38.5-12.2-57.1c-3.4-10.6-7.3-21-11.8-31.2c-0.9-2.2-4.3-2.8-6.2-1.6
						C165.9,282.1,165.5,284.5,166.5,286.8L166.5,286.8z"/>
				</g>
			</g>
		</g>
		<g>
			<defs>
				<rect id="SVGID_155_" x="-16.5" y="0" width="576" height="576"/>
			</defs>
			<clipPath id="SVGID_156_">
				<use xlink:href="#SVGID_155_"  style="overflow:visible;"/>
			</clipPath>
			<g class="st27">
				<g>
					<path class="st26" d="M178.4,289.4c3.4,2.8,6.5,5.8,9.4,9.1c1.4,1.6,2.8,3.2,4.1,4.9c0.4,0.6-0.4-0.5,0.1,0.1
						c0.2,0.2,0.3,0.4,0.5,0.6c0.3,0.4,0.6,0.8,0.9,1.1c0.7,0.9,1.4,1.9,2,2.9c2.4,3.6,4.6,7.3,6.6,11.1c1,2,2,3.9,2.9,5.9
						c0.4,0.9,0.8,1.9,1.2,2.8c0.3,0.6-0.2-0.6,0,0.1c0.1,0.2,0.2,0.5,0.3,0.8c0.2,0.6,0.5,1.1,0.7,1.7
						c7.3,18.5,10.8,38.2,13.8,57.8c0.9,6,1.7,10.7,2.3,16.5c0.6,5.8,0.8,11.7,0.3,17.5c-0.2,2.4,2.2,4.6,4.5,4.5
						c2.6-0.1,4.3-2,4.5-4.5c0.8-10.8-0.6-21.5-2.2-32.1c-1.6-10.1-3.2-20.3-5.3-30.3c-4-18.8-9.9-37.5-20.2-53.8
						c-5.5-8.6-12.1-16.6-20-23c-1.8-1.5-4.6-1.9-6.4,0C176.8,284.7,176.4,287.9,178.4,289.4L178.4,289.4z"/>
				</g>
			</g>
		</g>
		<g>
			<defs>
				<rect id="SVGID_157_" x="-16.5" y="0" width="576" height="576"/>
			</defs>
			<clipPath id="SVGID_158_">
				<use xlink:href="#SVGID_157_"  style="overflow:visible;"/>
			</clipPath>
			<g class="st28">
				<g>
					<path class="st26" d="M185.8,291c-0.7-1.2-1.5-2.5-2.2-3.7c-1.2-2-4.1-2.9-6.2-1.6c-2.1,1.3-2.9,4-1.6,6.2
						c0.9,1.7,1.8,3.4,2.7,5.1c0.4,0.8,0.8,1.6,1.1,2.4c0.2,0.4,0.4,0.8,0.5,1.2c0.1,0.2,0.2,0.4,0.3,0.6c0.1,0.1,0.4,1,0.1,0.3
						c1.4,3.5,2.7,7,3.8,10.5c2.2,7.3,3.9,14.7,5.1,22.2c0.3,1.9,0.6,3.8,0.9,5.7c0,0,0.1,0.8,0,0.3c-0.1-0.5,0,0.3,0,0.3
						c0.1,0.4,0.1,0.9,0.2,1.3c0.1,1,0.2,1.9,0.4,2.9c0.5,4,0.9,8,1.2,12c0.8,8.4,1.3,16.9,1.6,25.4c0.4,9.5,0.4,19.1,0.2,28.6
						c0,1.9,1.4,3.9,3.3,4.3c6.6,1.6,13.4,2.5,20.3,2.6c2.2,0,4.8-2.1,4.5-4.5c-3.3-30.2-8.8-60.2-16.6-89.5
						c-1.1-4-2.2-8.1-3.4-12.1c-1.2-4.1-2.5-8.1-5.5-11.3c-1.7-1.8-4.7-1.7-6.4,0c-3.2,3.1-2.7,7.4-2,11.4c0.7,3.9,1.5,7.8,2.3,11.7
						c1.6,7.9,3.3,15.7,4.9,23.5c0.7,3.8,1.4,7.6,2,11.5c0.1,1,0.3,1.9,0.4,2.9c0.1,0.5,0.1,1,0.2,1.4c0,0,0.2,1.5,0.1,0.7
						c0.3,2,0.5,4,0.7,6c0.8,7.6,1.1,15.2,0.7,22.8c-0.4,8.3-1.7,15.9-4.4,24.3c-0.9,2.8,1.5,5.8,4.3,5.7c3.4-0.1,6.7-0.1,10.1-0.2
						c1.6,0,3.1,0,4.7-0.1c1.8,0,3.6,0,5.4-0.3c1.9-0.4,3.6-1.6,4.5-3.2c1-1.7,1.1-3.7,1.2-5.6c0.2-3,0.2-6.1,0.1-9.1
						c-0.6-12.5-3.7-24.8-6.7-36.9c-1.7-6.9-3.3-13.8-4.4-20.9c-0.3-2.2-2.9-3.5-4.9-3.2c-2.1,0.3-4.1,2.2-3.9,4.4
						c1.5,17.8,1.5,35.7,0,53.6c-0.4,5.1-0.9,10.1-1.6,15.2c3,0,6,0,9,0c1.3-20.7,2.7-41.5,2-62.2c-0.2-5.9-0.6-11.8-1.1-17.7
						c-3,0-6,0-9,0c0.2,1.8,0.4,3.5,0.6,5.2c0.3,2.3,1.9,4.6,4.5,4.5c2.2-0.1,4.8-2,4.5-4.5c-0.2-1.8-0.4-3.5-0.6-5.2
						c-0.3-2.3-1.9-4.6-4.5-4.5c-2.2,0.1-4.7,2-4.5,4.5c2,20.7,1.4,41.5,0.2,62.2c-0.3,5.9-0.7,11.8-1.1,17.8
						c-0.1,2.4,2.2,4.6,4.5,4.5c2.7-0.1,4.2-2,4.5-4.5c2.3-17.7,3.1-35.6,2.5-53.5c-0.2-5.1-0.5-10.2-0.9-15.2
						c-2.9,0.4-5.9,0.8-8.8,1.2c1.8,11.5,5,22.6,7.6,33.9c0.6,2.9,1.2,5.7,1.8,8.6c0.2,1.4,0.5,2.7,0.7,4.1c0.1,0.9,0.3,2.2,0.5,3.8
						c0.3,2.9,0.5,5.8,0.5,8.6c0,1.4,0,2.7-0.1,4.1c0,0.6-0.1,1.2-0.1,1.8c0,0.4-0.1,0.7-0.1,1.1c0,0.3,0,0.2,0-0.3
						c-0.1,0.4-0.1,0.4,0,0.1c0.6-0.7,0.2-0.8,1.5-1.3c-0.8,0.3,0.7,0.1-0.2,0c-0.8,0-1.6,0-2.3,0c-1.7,0-3.4,0.1-5.2,0.1
						c-3.5,0.1-7.1,0.1-10.6,0.2c1.4,1.9,2.9,3.8,4.3,5.7c9.7-30,3-61.7-3.3-91.6c-0.9-4.3-1.8-8.6-2.6-12.9
						c-0.4-2.2-0.8-4.4-1.2-6.5c-0.2-1.1,0,1,0-0.2c0-0.3-0.2-1.2,0-1.4c0,0.2-0.1,0.4-0.1,0.5c0-0.2,0.1-0.4,0.1-0.6
						c-0.3,0.6-0.3,0.6-0.1,0.2c-0.4,0.5-0.4,0.5-0.1,0.2c-2.1,0-4.2,0-6.4,0c0.1,0.1,0.9,1.1,0.3,0.3c0.2,0.3,0.4,0.7,0.7,1
						c0.2,0.4,0.4,0.7,0.6,1.1c0.1,0.1,0.3,0.8,0,0c0.6,1.6,1.1,3.2,1.6,4.8c1,3.6,2,7.1,3,10.7c1.9,7.1,3.7,14.2,5.3,21.4
						c3.3,14.3,6,28.7,8.2,43.2c1.3,8.3,2.2,15.4,3.1,24c1.5-1.5,3-3,4.5-4.5c-3.1,0-6.3-0.3-9.4-0.6c-0.3,0-0.3,0-0.1,0
						c0.3,0,0.2,0-0.4,0c-0.3,0-0.6-0.1-0.9-0.1c-0.8-0.1-1.6-0.3-2.4-0.4c-1.6-0.3-3.1-0.6-4.7-1c1.1,1.5,2.2,2.9,3.3,4.3
						c0.4-17.2-0.2-34.4-1.6-51.5c-1.3-15.9-3.2-31.9-7.6-47.2c-2.5-8.5-5.8-16.9-10.2-24.6c-2.6,1.5-5.2,3-7.8,4.5
						c0.7,1.2,1.5,2.5,2.2,3.7c1.2,2,4.1,2.9,6.2,1.6C186.2,295.8,187,293.1,185.8,291L185.8,291z"/>
				</g>
			</g>
		</g>
		<g>
			<defs>
				<rect id="SVGID_159_" x="-16.5" y="0" width="576" height="576"/>
			</defs>
			<clipPath id="SVGID_160_">
				<use xlink:href="#SVGID_159_"  style="overflow:visible;"/>
			</clipPath>
			<g class="st29">
				<g>
					<path class="st26" d="M164.4,289.2c0.4,1,0.9,2,1.3,3c0.1,0.1,0.5,1.2,0.3,0.7c0.2,0.6,0.5,1.2,0.7,1.7c0.8,2,1.7,4.1,2.5,6.1
						c1.6,4.2,3.2,8.3,4.7,12.6c2.9,8.4,5.5,16.8,7.6,25.4c1.1,4.2,2,8.5,2.8,12.8c0.4,2.2,0.8,4.4,1.2,6.6c0.2,1.1,0.4,2.2,0.5,3.3
						c0.1,0.5,0.1,1,0.2,1.4c0,0.1,0.1,0.9,0,0.2c0,0.3,0.1,0.6,0.1,1c1.1,9,1.7,18.1,1.6,27.2c-0.1,5.1-0.3,10.1-0.8,15.2
						c-0.1,1.3-0.3,2.6-0.4,3.8c-0.1,0.6-0.1,1.3-0.2,1.9c0,0-0.1,0.8-0.1,0.4c0.1-0.4-0.1,0.9-0.1,0.8c-0.4,2.5-0.8,5.1-1.3,7.6
						c-0.4,2.3,0.6,5,3.1,5.5c2.2,0.5,5.1-0.7,5.5-3.1c3.5-18.5,4-37.4,2-56c-2-18.3-6.3-36.3-12.2-53.7
						c-3.3-9.9-7.2-19.6-11.4-29.1c-0.9-2.2-4.3-2.8-6.2-1.6C163.8,284.5,163.4,286.9,164.4,289.2L164.4,289.2z"/>
				</g>
			</g>
		</g>
		<g>
			<defs>
				<rect id="SVGID_161_" x="-16.5" y="0" width="576" height="576"/>
			</defs>
			<clipPath id="SVGID_162_">
				<use xlink:href="#SVGID_161_"  style="overflow:visible;"/>
			</clipPath>
			<g class="st30">
				<g>
					<path class="st31" d="M187.4,289.5c0.7,0.8,1.4,1.7,2.1,2.5c0.2,0.2,0.3,0.4,0.5,0.6c0,0,0.8,1,0.4,0.5
						c-0.3-0.4,0.2,0.3,0.3,0.4c0.2,0.3,0.4,0.5,0.6,0.8c1.4,1.9,2.7,3.8,4.1,5.7c2.6,3.8,5,7.8,7.3,11.9c2.2,4,4.2,8.1,6.1,12.3
						c0.5,1.1,0.9,2.1,1.4,3.2c-0.4-0.8,0.3,0.6,0.3,0.8c0.2,0.6,0.5,1.1,0.7,1.7c0.9,2.2,1.7,4.3,2.5,6.5
						c3.1,8.8,5.6,17.8,7.4,26.9c0.9,4.6,1.8,9.2,2.4,13.9c0.1,0.5,0.2,1.1,0.2,1.6c0,0.2,0.1,0.9,0,0c0,0.3,0.1,0.5,0.1,0.8
						c0.2,1.2,0.3,2.5,0.4,3.7c0.3,2.3,0.5,4.7,0.7,7c0.4,5.2,0.7,10.4,0.9,15.6c0.1,2.9,0.1,5.8-0.2,8.7c-0.1,0.7-0.1,1.4-0.2,2
						c0.1-0.7,0,0,0,0.2c-0.1,0.5-0.1,0.9-0.2,1.3c-0.3,1.5-0.7,3-1.2,4.4c-0.8,2.2,0.9,5,3.1,5.5c2.5,0.6,4.7-0.8,5.5-3.1
						c1.8-5.3,2.2-11,2.2-16.5c0-4.9-0.3-9.8-0.6-14.6c-0.7-9.8-1.9-19.5-3.8-29.2c-3.6-18.9-9.6-37.5-18.6-54.5
						c-5.1-9.7-11.2-18.7-18.2-27.1c-1.5-1.8-4.8-1.7-6.4,0C185.6,285,185.7,287.5,187.4,289.5L187.4,289.5z"/>
				</g>
			</g>
		</g>
		<g>
			<defs>
				<rect id="SVGID_163_" x="-16.5" y="0" width="576" height="576"/>
			</defs>
			<clipPath id="SVGID_164_">
				<use xlink:href="#SVGID_163_"  style="overflow:visible;"/>
			</clipPath>
			<g class="st32">
				<g>
					<path class="st33" d="M236.7,419.1c7.5,0,15,0,22.5,0c2.2,0,4.8-2.1,4.5-4.5c-1.1-9.2-1.6-18.5-1.7-27.8
						c0-4.8-0.1-9.5-0.8-14.2c-0.7-4.4-2.2-8.6-4-12.7c-3.4-8.2-6.9-16.4-11.3-24.1c-4.3-7.7-9.8-14.6-15.9-20.9
						c-7-7.1-14.5-13.8-21.8-20.6c-1.5,2.5-2.9,5-4.4,7.5c2.3,0.8,4.6,1.6,6.8,2.4c1.1,0.4,2.1,0.8,3.2,1.2c0.3,0.1,0.5,0.2,0.8,0.3
						c0,0,0.7,0.3,0.2,0.1c-0.5-0.2,0.3,0.1,0.4,0.2c0.3,0.1,0.6,0.3,1,0.4c2.2,1,4.3,2.1,6.4,3.3c1,0.6,1.9,1.2,2.8,1.8
						c0.5,0.3,0.9,0.6,1.4,1c0.1,0.1,0.7,0.5,0.1,0.1c0.3,0.2,0.6,0.4,0.8,0.7c1.7,1.4,3.3,3,4.8,4.7c0.4,0.4,0.7,0.8,1,1.2
						c0.1,0.1,0.5,0.7,0,0c0.2,0.2,0.3,0.4,0.5,0.6c0.7,0.9,1.3,1.9,1.9,2.8c1.2,1.9,2.3,3.8,3.3,5.8c0.5,1,1,2,1.4,3
						c0.2,0.5,0.4,1,0.7,1.5c0.4,0.8,0.1,0.2,0,0.1c0.2,0.4,0.3,0.8,0.5,1.1c3.7,9.1,6.7,18.7,9.3,28.2c1.4,5.1,2.6,10.2,3.6,15.3
						c0.2,1.2,0.5,2.5,0.6,3.8c0.1,0.6,0.2,1.3,0.3,1.9c0,0.3,0.1,0.6,0.1,0.9c-0.1-0.8,0.1,0.7,0.1,0.7c0.3,2.4,0.6,4.7,0.6,7.1
						c0,0.7,0,1.4-0.1,2.1c0,0.2-0.1,0.9,0,0c-0.1,0.3-0.1,0.7-0.2,1c-0.1,0.3-0.1,0.5-0.2,0.8c-0.1,0.3-0.3,0.8,0,0.2
						c-0.1,0.2-0.2,0.5-0.4,0.7c-0.1,0.1-0.8,1.2-0.1,0.3c-0.3,0.4-0.7,0.8-1.1,1.2c-0.1,0.1-0.7,0.6-0.2,0.2
						c0.5-0.4-0.4,0.2-0.5,0.3c-0.5,0.3-1.1,0.6-1.6,0.9c-0.2,0.1-0.8,0.3,0,0c-0.3,0.1-0.6,0.2-0.9,0.3c-5.1,1.8-10.6,2-15.5,4.8
						c-1.7,1-2.7,3.2-2.1,5.1c0.6,2,2.3,3.1,4.3,3.3c6.1,0.6,12.1,1.1,18.2,1.7c2.4,0.2,4.6-2.2,4.5-4.5
						c-0.7-16.9-1.5-33.9-5.5-50.4c-3.4-14-9.4-27.5-18.7-38.6c-5-6-11.1-11.2-17.9-15c-3.4-1.9-7.6,1.3-6.6,5.1
						c3.2,12.2,6.5,24.4,10.1,36.5c1.8,6.1,3.6,12.3,5.5,18.4c1.8,5.8,3.7,11.7,5.2,17.6c0.4,1.7,0.8,3.4,1.1,5.1
						c0.2,0.9,0.3,1.7,0.4,2.6c0,0.2,0.2,1.2,0.1,0.5c0.1,0.5,0.1,0.9,0.2,1.4c0.4,3.5,0.4,6.9,0,10.4c1.9-1.5,3.8-2.9,5.7-4.3
						c0.6,0.2,1.1,0.5,1.4,1c0.2,0.2,0.3,0.4,0.4,0.7c0,0-0.5-1.6-0.1-0.1c-0.2-0.8-0.2-1.8-0.2-2.7c-0.2-1.9-0.4-3.7-0.5-5.6
						c-0.4-3.7-0.7-7.4-1-11.2c-2.8,0.8-5.6,1.5-8.4,2.3c3.6,7.1,8,13.6,13.1,19.6c1.6,1.9,4.7,1.6,6.4,0c0.9-0.9,1.9-1.7,2.7-2.6
						c1.1-1.1,1.6-2.4,1.4-3.9c-0.1-0.9-0.3-1.8-0.5-2.7c-0.6-2.6-1.1-5.3-1.7-7.9c-1.2-5.3-2.5-10.6-3.9-15.9
						c-2.9-10.8-6.7-21.3-11.4-31.5c-2.6-5.7-5.4-11.3-8.1-16.9c-2.1,2-4.1,4.1-6.2,6.2c0.2,0.1,0.3,0.2,0.5,0.4
						c0.6,0.4-0.5-0.4,0.1,0c0.3,0.3,0.6,0.5,0.9,0.8c0.8,0.7,1.5,1.4,2.1,2.1c0.6,0.6,1.1,1.3,1.7,2c0.3,0.4,0,0-0.1-0.1
						c0.2,0.2,0.3,0.4,0.5,0.6c0.3,0.4,0.6,0.8,0.8,1.2c2.2,3.1,4,6.5,5.8,9.9c0.2,0.4,0.4,0.8,0.6,1.1c0.1,0.2,0.6,1.4,0.3,0.7
						c0.1,0.4,0.3,0.8,0.4,1.2c0.1,0.3,0.1,0.5,0.2,0.8c0.1,0.2,0.1,0.6,0,0.2c0.2,2.2-0.2,4.5-0.4,6.6c-0.4,4.3-0.4,8.7,0,13
						c0.4,5.2,1.3,10.4,2.8,15.4c2.9-0.8,5.8-1.6,8.7-2.4c-4.9-13.3-9.1-26.9-12.3-40.7c-2.7,1.2-5.5,2.3-8.2,3.5
						c2.1,4.5,3.7,8.2,5.3,13.2c1.6,4.7,2.9,9.5,4,14.4c0.5,2.3,3.3,3.9,5.5,3.1c2.4-0.8,3.7-3.1,3.1-5.5
						c-2.2-10.3-5.7-20.2-10.2-29.7c-1-2-3.7-2.6-5.6-1.8c-2.1,0.9-3.1,3.1-2.6,5.3c3.3,13.8,7.4,27.4,12.3,40.7
						c0.8,2.2,3.1,3.9,5.5,3.1c2.3-0.8,3.8-3.1,3.1-5.5c-0.6-2.2-1.1-4.4-1.6-6.7c-0.2-1.1-0.4-2.2-0.5-3.3c-0.1-0.5,0-0.1,0,0
						c0-0.3-0.1-0.6-0.1-0.9c-0.1-0.6-0.1-1.3-0.2-1.9c-0.4-4.5-0.4-9,0-13.5c0.2-2.3,0.6-4.6,0.4-6.9c-0.3-2.6-1.1-5-2.4-7.3
						c-1.8-3.5-3.7-6.9-5.9-10.1c-2.8-4.1-6-7.8-10.1-10.7c-1.6-1.1-4.2-0.7-5.4,0.7c-1.4,1.5-1.6,3.6-0.7,5.5
						c2.2,4.5,4.5,9,6.6,13.6c1.1,2.3,2.1,4.6,3.2,7c0.2,0.5,0.4,1,0.7,1.5c0.4,0.9,0.2,0.4,0.1,0.2c0.1,0.3,0.2,0.6,0.4,0.9
						c0.5,1.2,1,2.4,1.4,3.6c3.6,9.3,6.3,18.9,8.6,28.6c1.3,5.5,2.5,11.1,3.7,16.7c0.4-1.5,0.8-2.9,1.2-4.4c-1,0.9-1.9,1.9-2.9,2.8
						c2.1,0,4.2,0,6.4,0c-4.3-5.1-8.4-11.3-11.7-17.8c-0.9-1.7-3.3-2.6-5.1-2.1c-1.8,0.6-3.5,2.3-3.3,4.3c0.4,4.5,0.9,9.1,1.3,13.6
						c0.4,4.4-0.1,11.6,5.5,12.9c3.1,0.7,5.4-1.4,5.7-4.3c1.4-12.7-2.8-25.1-6.5-37.1c-3.8-12.2-7.4-24.5-10.8-36.8
						c-1.9-7-3.8-13.9-5.6-20.9c-2.2,1.7-4.4,3.4-6.6,5.1c1.4,0.8,2.9,1.7,4.2,2.6c0.6,0.4,1.2,0.9,1.9,1.3c0.2,0.2,0.9,0.7,0.3,0.2
						c0.4,0.3,0.7,0.5,1,0.8c2.5,2,4.8,4.3,7,6.7c0.5,0.6,1,1.1,1.5,1.7c0.3,0.3,0.6,0.7,0.9,1c0.2,0.2,0.9,1.1,0.4,0.4
						c1,1.3,1.9,2.6,2.8,3.9c1.8,2.7,3.5,5.6,5,8.5c0.8,1.5,1.5,3,2.2,4.5c0.2,0.4,0.3,0.7,0.5,1.1c-0.3-0.7,0,0.1,0.1,0.4
						c0.3,0.8,0.6,1.5,0.9,2.3c1.2,3.3,2.3,6.7,3.2,10.1c1,4,1.9,8,2.6,12c0.2,0.9,0.3,1.9,0.5,2.8c0.1,0.5,0.1,0.9,0.2,1.4
						c0,0.2,0.1,0.5,0.1,0.7c0,0.1,0.1,0.9,0.1,0.6c-0.1-0.4,0,0.3,0,0.3c0,0.2,0.1,0.5,0.1,0.7c0.1,0.5,0.1,0.9,0.2,1.4
						c0.1,1.1,0.2,2.2,0.4,3.3c0.9,9.1,1.3,18.2,1.7,27.3c1.5-1.5,3-3,4.5-4.5c-6.1-0.6-12.1-1.1-18.2-1.7c0.8,2.8,1.5,5.6,2.3,8.4
						c0.2-0.1,0.5-0.3,0.7-0.4c-0.1,0,1.2-0.6,0.6-0.3c-0.5,0.2,0.3-0.1,0.4-0.2c0.3-0.1,0.5-0.2,0.8-0.3c1.2-0.4,2.5-0.7,3.7-1
						c2.3-0.5,4.6-0.9,6.9-1.7c5.3-1.8,9.8-5.2,11.4-10.8c1.6-5.3,0.4-11.3-0.3-16.7c-0.8-5.5-1.9-11-3.2-16.4
						c-2.5-10.3-5.7-20.5-9.5-30.4c-3.5-9.2-7.9-18.3-14.9-25.4c-8.4-8.4-19.6-12.4-30.6-16.2c-4.3-1.5-7.6,4.5-4.4,7.5
						c6.4,6,13,11.9,19.2,18c2.9,2.9,5.8,5.9,8.5,9c0.7,0.8,1.3,1.6,2,2.4c0.3,0.4,0,0.1,0,0c0.1,0.2,0.3,0.4,0.4,0.5
						c0.4,0.5,0.7,1,1.1,1.5c1.2,1.7,2.4,3.5,3.5,5.3c4.4,7.2,7.8,15,11.1,22.8c0.4,0.9,0.8,1.9,1.2,2.8c0-0.1-0.2-0.5,0,0
						c0.1,0.3,0.2,0.6,0.4,0.9c0.2,0.5,0.4,1,0.6,1.5c0.8,2,1.5,4.1,2,6.2c1,4,1.1,7.8,1.2,12.5c0.1,10.3,0.6,20.5,1.7,30.7
						c1.5-1.5,3-3,4.5-4.5c-7.5,0-15,0-22.5,0c-2.4,0-4.6,2.1-4.5,4.5C232.4,417.1,234.2,419.1,236.7,419.1L236.7,419.1z"/>
				</g>
			</g>
		</g>
		<g>
			<defs>
				<rect id="SVGID_165_" x="-16.5" y="0" width="576" height="576"/>
			</defs>
			<clipPath id="SVGID_166_">
				<use xlink:href="#SVGID_165_"  style="overflow:visible;"/>
			</clipPath>
		</g>
		<g>
			<defs>
				<rect id="SVGID_167_" x="-16.5" y="0" width="576" height="576"/>
			</defs>
			<clipPath id="SVGID_168_">
				<use xlink:href="#SVGID_167_"  style="overflow:visible;"/>
			</clipPath>
		</g>
		<g>
			<defs>
				<rect id="SVGID_169_" x="-16.5" y="0" width="576" height="576"/>
			</defs>
			<clipPath id="SVGID_170_">
				<use xlink:href="#SVGID_169_"  style="overflow:visible;"/>
			</clipPath>
		</g>
		<g>
			<defs>
				<rect id="SVGID_171_" x="-16.5" y="0" width="576" height="576"/>
			</defs>
			<clipPath id="SVGID_172_">
				<use xlink:href="#SVGID_171_"  style="overflow:visible;"/>
			</clipPath>
		</g>
		<g>
			<defs>
				<rect id="SVGID_173_" x="-16.5" y="0" width="576" height="576"/>
			</defs>
			<clipPath id="SVGID_174_">
				<use xlink:href="#SVGID_173_"  style="overflow:visible;"/>
			</clipPath>
			<g class="st34">
				<g>
					<path class="st35" d="M-24.8,387.5c0.2-2.3,0.4-4.6,0.7-6.9c-0.2,0.2-0.4,0.3-0.6,0.5c-1.4,1.5-1.6,3.6-0.7,5.5
						C-25.3,386.9-25.1,387.2-24.8,387.5z"/>
				</g>
			</g>
		</g>
		<g>
			<defs>
				<rect id="SVGID_175_" x="-16.5" y="0" width="576" height="576"/>
			</defs>
			<clipPath id="SVGID_176_">
				<use xlink:href="#SVGID_175_"  style="overflow:visible;"/>
			</clipPath>
		</g>
		<g>
			<defs>
				<rect id="SVGID_177_" x="-16.5" y="0" width="576" height="576"/>
			</defs>
			<clipPath id="SVGID_178_">
				<use xlink:href="#SVGID_177_"  style="overflow:visible;"/>
			</clipPath>
		</g>
		<g>
			<defs>
				<rect id="SVGID_179_" x="-16.5" y="0" width="576" height="576"/>
			</defs>
			<clipPath id="SVGID_180_">
				<use xlink:href="#SVGID_179_"  style="overflow:visible;"/>
			</clipPath>
			<g class="st36">
				<g>
					<path class="st35" d="M-25.2,392.6c0-0.2,0-0.5,0.1-0.7c-0.3,0.3-0.5,0.7-0.7,1c-0.9,1.7-1.4,3.8-0.8,5.8c0.3,0.7,0.6,1.4,1,2
						C-25.6,398-25.4,395.3-25.2,392.6z"/>
				</g>
			</g>
		</g>
		<g>
			<defs>
				<rect id="SVGID_181_" x="-16.5" y="0" width="576" height="576"/>
			</defs>
			<clipPath id="SVGID_182_">
				<use xlink:href="#SVGID_181_"  style="overflow:visible;"/>
			</clipPath>
		</g>
		<g>
			<defs>
				<rect id="SVGID_183_" x="-16.5" y="0" width="576" height="576"/>
			</defs>
			<clipPath id="SVGID_184_">
				<use xlink:href="#SVGID_183_"  style="overflow:visible;"/>
			</clipPath>
		</g>
		<g>
			<defs>
				<rect id="SVGID_185_" x="-16.5" y="0" width="576" height="576"/>
			</defs>
			<clipPath id="SVGID_186_">
				<use xlink:href="#SVGID_185_"  style="overflow:visible;"/>
			</clipPath>
		</g>
		<g>
			<defs>
				<rect id="SVGID_187_" x="-16.5" y="0" width="576" height="576"/>
			</defs>
			<clipPath id="SVGID_188_">
				<use xlink:href="#SVGID_187_"  style="overflow:visible;"/>
			</clipPath>
		</g>
		<g>
			<defs>
				<rect id="SVGID_189_" x="-16.5" y="0" width="576" height="576"/>
			</defs>
			<clipPath id="SVGID_190_">
				<use xlink:href="#SVGID_189_"  style="overflow:visible;"/>
			</clipPath>
		</g>
		<g>
			<defs>
				<rect id="SVGID_191_" x="-16.5" y="0" width="576" height="576"/>
			</defs>
			<clipPath id="SVGID_192_">
				<use xlink:href="#SVGID_191_"  style="overflow:visible;"/>
			</clipPath>
		</g>
		<g>
			<defs>
				<rect id="SVGID_193_" x="-16.5" y="0" width="576" height="576"/>
			</defs>
			<clipPath id="SVGID_194_">
				<use xlink:href="#SVGID_193_"  style="overflow:visible;"/>
			</clipPath>
		</g>
		<g>
			<defs>
				<rect id="SVGID_195_" x="-16.5" y="0" width="576" height="576"/>
			</defs>
			<clipPath id="SVGID_196_">
				<use xlink:href="#SVGID_195_"  style="overflow:visible;"/>
			</clipPath>
		</g>
		<g>
			<defs>
				<rect id="SVGID_197_" x="-16.5" y="0" width="576" height="576"/>
			</defs>
			<clipPath id="SVGID_198_">
				<use xlink:href="#SVGID_197_"  style="overflow:visible;"/>
			</clipPath>
		</g>
		<ellipse class="st20" cx="158" cy="404.3" rx="1.3" ry="2.4"/>
	</g>
	<g id="Layer_1">
		<g>
			<rect x="-12.8" y="198.3" class="st37" width="351.2" height="294.5"/>
			<text transform="matrix(4.489659e-11 -1 1 4.489659e-11 293.1889 492.8086)" class="st38 st39 st40">D</text>
		</g>
		<path class="st37" d="M536.8,434.6c-0.1-3-0.3-6-0.4-9.1c-0.9-0.6-1.6-1.5-1.8-2.8c-0.5-2.8-0.9-5.5-1.2-8.3
			c-2.1-10.6-6.1-20.8-7.6-31.6c-1.4-9.8-1.7-19.7-1.4-29.6h-219v110.5h237.3v-24.5C540,439.7,536.9,438.1,536.8,434.6z"/>
		<text transform="matrix(1 0 0 1 305.4005 451.436)" class="st38 st39 st41">ome</text>
		<g>
			<g>
				<path class="st20" d="M153.1,398.3c-1.9,0-3.8,0-5.7,0c-1.1,0-2.1,0-3.1,0.1c-0.6,0.1-1.1,0.1-1.7,0.4c-0.7,0.3-1.3,0.6-2,0.9
					c0.4-0.1,0.7-0.3,1.1-0.5c-0.2,0.1-0.3,0.1-0.5,0.1c0.4,0,0.8-0.1,1.2-0.2c-0.1,0-0.2,0-0.3,0c-2.4-0.1-4.6,2.1-4.5,4.5
					c0.1,2.5,2,4.4,4.5,4.5c1.5,0.1,2.7-0.6,4-1.2c-0.4,0.1-0.7,0.3-1.1,0.5c0.4-0.1,0.7-0.2,1.1-0.3c-0.4,0-0.8,0.1-1.2,0.2
					c1.3-0.1,2.7,0,4,0c1.4,0,2.8,0,4.2,0c1.1,0,2.4-0.5,3.2-1.3c0.8-0.8,1.4-2.1,1.3-3.2C157.4,400.4,155.6,398.3,153.1,398.3
					L153.1,398.3z"/>
			</g>
		</g>
	</g>
	<circle class="st26" cx="207.4" cy="331.5" r="0.7"/>
</g>
<g id="Layer_2">
</g>
</svg>
