<?xml version="1.0" encoding="utf-8"?>
<!-- Generator: Adobe Illustrator 24.1.2, SVG Export Plug-In . SVG Version: 6.00 Build 0)  -->
<svg version="1.1" xmlns="http://www.w3.org/2000/svg" xmlns:xlink="http://www.w3.org/1999/xlink" x="0px" y="0px"
	 viewBox="0 0 576 288" style="enable-background:new 0 0 576 288;" xml:space="preserve">
<style type="text/css">
	.st0{clip-path:url(#SVGID_18_);}
	.st1{fill:#C7B5A5;}
	.st2{clip-path:url(#SVGID_24_);}
	.st3{clip-path:url(#SVGID_78_);}
	.st4{clip-path:url(#SVGID_118_);}
	.st5{fill:#A2BD7A;}
	.st6{clip-path:url(#SVGID_120_);}
	.st7{clip-path:url(#SVGID_122_);}
	.st8{clip-path:url(#SVGID_124_);}
	.st9{fill:#7CA35C;}
	.st10{clip-path:url(#SVGID_126_);}
	.st11{clip-path:url(#SVGID_128_);}
	.st12{clip-path:url(#SVGID_130_);}
	.st13{clip-path:url(#SVGID_132_);}
	.st14{clip-path:url(#SVGID_134_);}
	.st15{clip-path:url(#SVGID_136_);}
	.st16{clip-path:url(#SVGID_138_);}
	.st17{clip-path:url(#SVGID_140_);}
	.st18{clip-path:url(#SVGID_142_);}
	.st19{clip-path:url(#SVGID_144_);}
	.st20{fill:#57843E;}
	.st21{clip-path:url(#SVGID_146_);}
	.st22{clip-path:url(#SVGID_148_);}
	.st23{clip-path:url(#SVGID_150_);}
	.st24{clip-path:url(#SVGID_152_);}
	.st25{clip-path:url(#SVGID_154_);}
	.st26{fill:#365E1E;}
	.st27{clip-path:url(#SVGID_156_);}
	.st28{clip-path:url(#SVGID_158_);}
	.st29{clip-path:url(#SVGID_160_);}
	.st30{clip-path:url(#SVGID_162_);}
	.st31{fill:#193B1D;}
	.st32{clip-path:url(#SVGID_164_);}
	.st33{fill:#193B1D;stroke:#193B1D;stroke-miterlimit:10;}
	.st34{clip-path:url(#SVGID_174_);}
	.st35{fill:#A0C1D6;}
	.st36{clip-path:url(#SVGID_180_);}
	.st37{fill:none;}
	.st38{fill:#1E1E1E;}
	.st39{font-family:'Futura-Medium';}
	.st40{font-size:371px;}
	.st41{font-size:119px;}
</style>
<g id="Layer_1">
</g>
<g id="Layer_2">
	<g id="Layer_2_1_">
		<g>
			<defs>
				<rect id="SVGID_1_" x="-4.05" y="-186.08" width="576" height="576"/>
			</defs>
			<clipPath id="SVGID_2_">
				<use xlink:href="#SVGID_1_"  style="overflow:visible;"/>
			</clipPath>
		</g>
		<g>
			<defs>
				<rect id="SVGID_3_" x="-4.05" y="-186.08" width="576" height="576"/>
			</defs>
			<clipPath id="SVGID_4_">
				<use xlink:href="#SVGID_3_"  style="overflow:visible;"/>
			</clipPath>
		</g>
		<g>
			<defs>
				<rect id="SVGID_5_" x="-4.05" y="-186.08" width="576" height="576"/>
			</defs>
			<clipPath id="SVGID_6_">
				<use xlink:href="#SVGID_5_"  style="overflow:visible;"/>
			</clipPath>
		</g>
		<g>
			<defs>
				<rect id="SVGID_7_" x="-4.05" y="-186.08" width="576" height="576"/>
			</defs>
			<clipPath id="SVGID_8_">
				<use xlink:href="#SVGID_7_"  style="overflow:visible;"/>
			</clipPath>
		</g>
		<g>
			<defs>
				<rect id="SVGID_9_" x="-4.05" y="-186.08" width="576" height="576"/>
			</defs>
			<clipPath id="SVGID_10_">
				<use xlink:href="#SVGID_9_"  style="overflow:visible;"/>
			</clipPath>
		</g>
		<g>
			<defs>
				<rect id="SVGID_11_" x="-4.05" y="-186.08" width="576" height="576"/>
			</defs>
			<clipPath id="SVGID_12_">
				<use xlink:href="#SVGID_11_"  style="overflow:visible;"/>
			</clipPath>
		</g>
		<g>
			<defs>
				<rect id="SVGID_13_" x="-4.05" y="-186.08" width="576" height="576"/>
			</defs>
			<clipPath id="SVGID_14_">
				<use xlink:href="#SVGID_13_"  style="overflow:visible;"/>
			</clipPath>
		</g>
		<g>
			<defs>
				<rect id="SVGID_15_" x="-4.05" y="-186.08" width="576" height="576"/>
			</defs>
			<clipPath id="SVGID_16_">
				<use xlink:href="#SVGID_15_"  style="overflow:visible;"/>
			</clipPath>
		</g>
		<g>
			<defs>
				<rect id="SVGID_17_" x="-4.05" y="-186.08" width="576" height="576"/>
			</defs>
			<clipPath id="SVGID_18_">
				<use xlink:href="#SVGID_17_"  style="overflow:visible;"/>
			</clipPath>
			<g class="st0">
				<g>
					<path class="st1" d="M-5.44,274.79c0.27,0,0.53,0.02,0.77,0.06c-2.16-9.94-5.79-19.59-7.19-29.75
						c-1.77-12.81-1.81-25.73-0.9-38.61c0.61-8.64,1.61-17.24,2.73-25.83c-0.68,0.33-1.36,0.68-2.02,1.07
						c-1.2,0.69-2.29,1.52-3.3,2.5c-1.31,0.62-2.39,1.48-3.22,2.58c-1.56,2.02-3.13,4.05-4.69,6.07c-1.06,2.48-2.11,4.97-3.15,7.46
						c-0.08,0.43-0.16,0.87-0.23,1.3c-0.3,0.86-0.55,1.74-0.73,2.65c-0.54,2.72-0.96,6.02-1.17,8.78c-0.03,0.34-0.05,0.68-0.06,1.02
						c-0.03,0.82-0.02,1.65-0.02,2.47c-0.01,3.56,0.01,7.12,0.07,10.68c0.04,2.43,0.09,4.85,0.1,7.26
						c-1.51,3.61-2.27,7.43-2.28,11.45c0.08,3.62,0.72,7.31,1.3,10.82c0.18,1.1,0.44,2.17,0.78,3.23c1.01,2.39,2.02,4.78,3.02,7.17
						c1.89,3.5,4.46,6.3,7.73,8.42c1.87,1.86,4.08,3.14,6.62,3.86c0.33,0.18,0.68,0.32,1.01,0.48
						C-10.32,277.39-8.72,274.79-5.44,274.79z"/>
				</g>
			</g>
		</g>
		<g>
			<defs>
				<rect id="SVGID_19_" x="-4.05" y="-186.08" width="576" height="576"/>
			</defs>
			<clipPath id="SVGID_20_">
				<use xlink:href="#SVGID_19_"  style="overflow:visible;"/>
			</clipPath>
		</g>
		<g>
			<defs>
				<rect id="SVGID_21_" x="-4.05" y="-186.08" width="576" height="576"/>
			</defs>
			<clipPath id="SVGID_22_">
				<use xlink:href="#SVGID_21_"  style="overflow:visible;"/>
			</clipPath>
		</g>
		<g>
			<defs>
				<rect id="SVGID_23_" x="-4.05" y="-186.08" width="576" height="576"/>
			</defs>
			<clipPath id="SVGID_24_">
				<use xlink:href="#SVGID_23_"  style="overflow:visible;"/>
			</clipPath>
			<g class="st2">
				<g>
					<path class="st1" d="M581.15,255.5c-0.02,3.83-0.06,7.66-0.1,11.48c-0.02,2.02,0.01,4.07,0.05,6.11
						c0.65-0.4,1.25-0.87,1.79-1.41c1.82-1.82,3.19-4.81,3.08-7.42C585.81,260.63,583.98,257.38,581.15,255.5z"/>
				</g>
			</g>
		</g>
		<g>
			<defs>
				<rect id="SVGID_25_" x="-4.05" y="-186.08" width="576" height="576"/>
			</defs>
			<clipPath id="SVGID_26_">
				<use xlink:href="#SVGID_25_"  style="overflow:visible;"/>
			</clipPath>
		</g>
		<g>
			<defs>
				<rect id="SVGID_27_" x="-4.05" y="-186.08" width="576" height="576"/>
			</defs>
			<clipPath id="SVGID_28_">
				<use xlink:href="#SVGID_27_"  style="overflow:visible;"/>
			</clipPath>
		</g>
		<g>
			<defs>
				<rect id="SVGID_29_" x="-4.05" y="-186.08" width="576" height="576"/>
			</defs>
			<clipPath id="SVGID_30_">
				<use xlink:href="#SVGID_29_"  style="overflow:visible;"/>
			</clipPath>
		</g>
		<g>
			<defs>
				<rect id="SVGID_31_" x="-4.05" y="-186.08" width="576" height="576"/>
			</defs>
			<clipPath id="SVGID_32_">
				<use xlink:href="#SVGID_31_"  style="overflow:visible;"/>
			</clipPath>
		</g>
		<g>
			<defs>
				<rect id="SVGID_33_" x="-4.05" y="-186.08" width="576" height="576"/>
			</defs>
			<clipPath id="SVGID_34_">
				<use xlink:href="#SVGID_33_"  style="overflow:visible;"/>
			</clipPath>
		</g>
		<g>
			<defs>
				<rect id="SVGID_35_" x="-4.05" y="-186.08" width="576" height="576"/>
			</defs>
			<clipPath id="SVGID_36_">
				<use xlink:href="#SVGID_35_"  style="overflow:visible;"/>
			</clipPath>
		</g>
		<g>
			<defs>
				<rect id="SVGID_37_" x="-4.05" y="-186.08" width="576" height="576"/>
			</defs>
			<clipPath id="SVGID_38_">
				<use xlink:href="#SVGID_37_"  style="overflow:visible;"/>
			</clipPath>
		</g>
		<g>
			<defs>
				<rect id="SVGID_39_" x="-4.05" y="-186.08" width="576" height="576"/>
			</defs>
			<clipPath id="SVGID_40_">
				<use xlink:href="#SVGID_39_"  style="overflow:visible;"/>
			</clipPath>
		</g>
		<g>
			<defs>
				<rect id="SVGID_41_" x="-4.05" y="-186.08" width="576" height="576"/>
			</defs>
			<clipPath id="SVGID_42_">
				<use xlink:href="#SVGID_41_"  style="overflow:visible;"/>
			</clipPath>
		</g>
		<g>
			<defs>
				<rect id="SVGID_43_" x="-4.05" y="-186.08" width="576" height="576"/>
			</defs>
			<clipPath id="SVGID_44_">
				<use xlink:href="#SVGID_43_"  style="overflow:visible;"/>
			</clipPath>
		</g>
		<g>
			<defs>
				<rect id="SVGID_45_" x="-4.05" y="-186.08" width="576" height="576"/>
			</defs>
			<clipPath id="SVGID_46_">
				<use xlink:href="#SVGID_45_"  style="overflow:visible;"/>
			</clipPath>
		</g>
		<g>
			<defs>
				<rect id="SVGID_47_" x="-4.05" y="-186.08" width="576" height="576"/>
			</defs>
			<clipPath id="SVGID_48_">
				<use xlink:href="#SVGID_47_"  style="overflow:visible;"/>
			</clipPath>
		</g>
		<g>
			<defs>
				<rect id="SVGID_49_" x="-4.05" y="-186.08" width="576" height="576"/>
			</defs>
			<clipPath id="SVGID_50_">
				<use xlink:href="#SVGID_49_"  style="overflow:visible;"/>
			</clipPath>
		</g>
		<g>
			<defs>
				<rect id="SVGID_51_" x="-4.05" y="-186.08" width="576" height="576"/>
			</defs>
			<clipPath id="SVGID_52_">
				<use xlink:href="#SVGID_51_"  style="overflow:visible;"/>
			</clipPath>
		</g>
		<g>
			<defs>
				<rect id="SVGID_53_" x="-4.05" y="-186.08" width="576" height="576"/>
			</defs>
			<clipPath id="SVGID_54_">
				<use xlink:href="#SVGID_53_"  style="overflow:visible;"/>
			</clipPath>
		</g>
		<g>
			<defs>
				<rect id="SVGID_55_" x="-4.05" y="-186.08" width="576" height="576"/>
			</defs>
			<clipPath id="SVGID_56_">
				<use xlink:href="#SVGID_55_"  style="overflow:visible;"/>
			</clipPath>
		</g>
		<g>
			<defs>
				<rect id="SVGID_57_" x="-4.05" y="-186.08" width="576" height="576"/>
			</defs>
			<clipPath id="SVGID_58_">
				<use xlink:href="#SVGID_57_"  style="overflow:visible;"/>
			</clipPath>
		</g>
		<g>
			<defs>
				<rect id="SVGID_59_" x="-4.05" y="-186.08" width="576" height="576"/>
			</defs>
			<clipPath id="SVGID_60_">
				<use xlink:href="#SVGID_59_"  style="overflow:visible;"/>
			</clipPath>
		</g>
		<g>
			<defs>
				<rect id="SVGID_61_" x="-4.05" y="-186.08" width="576" height="576"/>
			</defs>
			<clipPath id="SVGID_62_">
				<use xlink:href="#SVGID_61_"  style="overflow:visible;"/>
			</clipPath>
		</g>
		<g>
			<defs>
				<rect id="SVGID_63_" x="-4.05" y="-186.08" width="576" height="576"/>
			</defs>
			<clipPath id="SVGID_64_">
				<use xlink:href="#SVGID_63_"  style="overflow:visible;"/>
			</clipPath>
		</g>
		<g>
			<defs>
				<rect id="SVGID_65_" x="-4.05" y="-186.08" width="576" height="576"/>
			</defs>
			<clipPath id="SVGID_66_">
				<use xlink:href="#SVGID_65_"  style="overflow:visible;"/>
			</clipPath>
		</g>
		<g>
			<defs>
				<rect id="SVGID_67_" x="-4.05" y="-186.08" width="576" height="576"/>
			</defs>
			<clipPath id="SVGID_68_">
				<use xlink:href="#SVGID_67_"  style="overflow:visible;"/>
			</clipPath>
		</g>
		<g>
			<defs>
				<rect id="SVGID_69_" x="-4.05" y="-186.08" width="576" height="576"/>
			</defs>
			<clipPath id="SVGID_70_">
				<use xlink:href="#SVGID_69_"  style="overflow:visible;"/>
			</clipPath>
		</g>
		<g>
			<defs>
				<rect id="SVGID_71_" x="-4.05" y="-186.08" width="576" height="576"/>
			</defs>
			<clipPath id="SVGID_72_">
				<use xlink:href="#SVGID_71_"  style="overflow:visible;"/>
			</clipPath>
		</g>
		<g>
			<defs>
				<rect id="SVGID_73_" x="-4.05" y="-186.08" width="576" height="576"/>
			</defs>
			<clipPath id="SVGID_74_">
				<use xlink:href="#SVGID_73_"  style="overflow:visible;"/>
			</clipPath>
		</g>
		<g>
			<defs>
				<rect id="SVGID_75_" x="-4.05" y="-186.08" width="576" height="576"/>
			</defs>
			<clipPath id="SVGID_76_">
				<use xlink:href="#SVGID_75_"  style="overflow:visible;"/>
			</clipPath>
		</g>
		<g>
			<defs>
				<rect id="SVGID_77_" x="-4.05" y="-186.08" width="576" height="576"/>
			</defs>
			<clipPath id="SVGID_78_">
				<use xlink:href="#SVGID_77_"  style="overflow:visible;"/>
			</clipPath>
			<g class="st3">
				<g>
					<path class="st1" d="M580.97,239.18c0.58-1.27,0.75-2.71,0.32-4.03c-0.14-0.43-0.32-0.83-0.53-1.21
						C580.85,235.69,580.92,237.44,580.97,239.18z"/>
				</g>
			</g>
		</g>
		<g>
			<defs>
				<rect id="SVGID_79_" x="-4.05" y="-186.08" width="576" height="576"/>
			</defs>
			<clipPath id="SVGID_80_">
				<use xlink:href="#SVGID_79_"  style="overflow:visible;"/>
			</clipPath>
		</g>
		<g>
			<defs>
				<rect id="SVGID_81_" x="-4.05" y="-186.08" width="576" height="576"/>
			</defs>
			<clipPath id="SVGID_82_">
				<use xlink:href="#SVGID_81_"  style="overflow:visible;"/>
			</clipPath>
		</g>
		<g>
			<defs>
				<rect id="SVGID_83_" x="-4.05" y="-186.08" width="576" height="576"/>
			</defs>
			<clipPath id="SVGID_84_">
				<use xlink:href="#SVGID_83_"  style="overflow:visible;"/>
			</clipPath>
		</g>
		<g>
			<defs>
				<rect id="SVGID_85_" x="-4.05" y="-186.08" width="576" height="576"/>
			</defs>
			<clipPath id="SVGID_86_">
				<use xlink:href="#SVGID_85_"  style="overflow:visible;"/>
			</clipPath>
		</g>
		<g>
			<defs>
				<rect id="SVGID_87_" x="-4.05" y="-186.08" width="576" height="576"/>
			</defs>
			<clipPath id="SVGID_88_">
				<use xlink:href="#SVGID_87_"  style="overflow:visible;"/>
			</clipPath>
		</g>
		<g>
			<defs>
				<rect id="SVGID_89_" x="-4.05" y="-186.08" width="576" height="576"/>
			</defs>
			<clipPath id="SVGID_90_">
				<use xlink:href="#SVGID_89_"  style="overflow:visible;"/>
			</clipPath>
		</g>
		<g>
			<defs>
				<rect id="SVGID_91_" x="-4.05" y="-186.08" width="576" height="576"/>
			</defs>
			<clipPath id="SVGID_92_">
				<use xlink:href="#SVGID_91_"  style="overflow:visible;"/>
			</clipPath>
		</g>
		<g>
			<defs>
				<rect id="SVGID_93_" x="-4.05" y="-186.08" width="576" height="576"/>
			</defs>
			<clipPath id="SVGID_94_">
				<use xlink:href="#SVGID_93_"  style="overflow:visible;"/>
			</clipPath>
		</g>
		<g>
			<defs>
				<rect id="SVGID_95_" x="-4.05" y="-186.08" width="576" height="576"/>
			</defs>
			<clipPath id="SVGID_96_">
				<use xlink:href="#SVGID_95_"  style="overflow:visible;"/>
			</clipPath>
		</g>
		<g>
			<defs>
				<rect id="SVGID_97_" x="-4.05" y="-186.08" width="576" height="576"/>
			</defs>
			<clipPath id="SVGID_98_">
				<use xlink:href="#SVGID_97_"  style="overflow:visible;"/>
			</clipPath>
		</g>
		<g>
			<defs>
				<rect id="SVGID_99_" x="-4.05" y="-186.08" width="576" height="576"/>
			</defs>
			<clipPath id="SVGID_100_">
				<use xlink:href="#SVGID_99_"  style="overflow:visible;"/>
			</clipPath>
		</g>
		<g>
			<defs>
				<rect id="SVGID_101_" x="-4.05" y="-186.08" width="576" height="576"/>
			</defs>
			<clipPath id="SVGID_102_">
				<use xlink:href="#SVGID_101_"  style="overflow:visible;"/>
			</clipPath>
		</g>
		<g>
			<defs>
				<rect id="SVGID_103_" x="-4.05" y="-186.08" width="576" height="576"/>
			</defs>
			<clipPath id="SVGID_104_">
				<use xlink:href="#SVGID_103_"  style="overflow:visible;"/>
			</clipPath>
		</g>
		<g>
			<defs>
				<rect id="SVGID_105_" x="-4.05" y="-186.08" width="576" height="576"/>
			</defs>
			<clipPath id="SVGID_106_">
				<use xlink:href="#SVGID_105_"  style="overflow:visible;"/>
			</clipPath>
		</g>
		<g>
			<defs>
				<rect id="SVGID_107_" x="-4.05" y="-186.08" width="576" height="576"/>
			</defs>
			<clipPath id="SVGID_108_">
				<use xlink:href="#SVGID_107_"  style="overflow:visible;"/>
			</clipPath>
		</g>
		<g>
			<defs>
				<rect id="SVGID_109_" x="-4.05" y="-186.08" width="576" height="576"/>
			</defs>
			<clipPath id="SVGID_110_">
				<use xlink:href="#SVGID_109_"  style="overflow:visible;"/>
			</clipPath>
		</g>
		<g>
			<defs>
				<rect id="SVGID_111_" x="-4.05" y="-186.08" width="576" height="576"/>
			</defs>
			<clipPath id="SVGID_112_">
				<use xlink:href="#SVGID_111_"  style="overflow:visible;"/>
			</clipPath>
		</g>
		<g>
			<defs>
				<rect id="SVGID_113_" x="-4.05" y="-186.08" width="576" height="576"/>
			</defs>
			<clipPath id="SVGID_114_">
				<use xlink:href="#SVGID_113_"  style="overflow:visible;"/>
			</clipPath>
		</g>
		<g>
			<defs>
				<rect id="SVGID_115_" x="-4.05" y="-186.08" width="576" height="576"/>
			</defs>
			<clipPath id="SVGID_116_">
				<use xlink:href="#SVGID_115_"  style="overflow:visible;"/>
			</clipPath>
		</g>
		<g>
			<defs>
				<rect id="SVGID_117_" x="-4.05" y="-186.08" width="576" height="576"/>
			</defs>
			<clipPath id="SVGID_118_">
				<use xlink:href="#SVGID_117_"  style="overflow:visible;"/>
			</clipPath>
			<g class="st4">
				<g>
					<path class="st5" d="M135.25,91.76c-7.71,4.6-15.44,9.16-23.13,13.81c-7.6,4.59-15.13,9.7-20.91,16.52
						c-5.76,6.8-10.22,14.42-14.62,22.13c-4.59,8.04-8.93,16.19-12.16,24.89c-6.21,16.76-7.05,35.19-6.61,52.88
						c0.05,2.07,0.05,4.17,0.22,6.24c0.22,2.54,0.61,4.62,1.79,6.89c1.14,2.18,2.98,3.87,5.02,5.19c1.73,1.11,3.73,1.96,5.61,2.78
						c2.63,1.15,5.3,2.34,8.1,3.02c6.58,1.6,14.6,1.54,19.88-3.29c4.34-3.98,4.38-10.33,5.31-15.73c1.52-8.87,3.35-17.68,5.48-26.42
						c2.09-8.57,4.37-17.11,7.38-25.41c0.76-2.1,1.58-4.18,2.44-6.25c-0.35,0.84-0.71,1.67-1.06,2.51
						c4.38-10.37,9.59-20.41,14.51-30.53c4.51-9.28,8.85-18.68,13.95-27.65c2.8-4.93,5.86-9.72,9.32-14.22
						c-0.55,0.71-1.09,1.42-1.64,2.13c1.61-2.07,3.29-4.06,5.08-5.98c1.88-2.02,3.08-4.63,3.08-7.42c0-2.58-1.14-5.65-3.08-7.42
						c-2-1.84-4.63-3.2-7.42-3.08c-2.73,0.12-5.52,1.02-7.42,3.08c-14.24,15.33-22.6,34.76-31.62,53.34
						c-5.05,10.4-10.33,20.71-14.66,31.44c-4.02,9.96-6.81,20.4-9.32,30.83c-1.4,5.83-2.68,11.69-3.81,17.58
						c-0.58,3.02-1.13,6.05-1.64,9.09c-0.24,1.44-0.48,2.88-0.7,4.32c-0.22,1.41-0.33,2.88-0.78,4.24c0.35-0.84,0.71-1.67,1.06-2.51
						c-0.15,0.36-0.31,0.64-0.53,0.96c0.55-0.71,1.09-1.42,1.64-2.13c-0.15,0.19-0.33,0.35-0.52,0.49c0.71-0.55,1.42-1.09,2.13-1.64
						c-0.19,0.13-0.4,0.24-0.61,0.34c0.84-0.35,1.67-0.71,2.51-1.06c-0.75,0.29-1.53,0.45-2.33,0.57c0.93-0.13,1.86-0.25,2.79-0.38
						c-1.47,0.19-2.92,0.17-4.4-0.01c0.93,0.12,1.86,0.25,2.79,0.38c-2.4-0.35-4.69-1.09-6.93-2.01c0.84,0.35,1.67,0.71,2.51,1.06
						c-2.27-0.96-4.78-1.94-6.78-3.38c0.71,0.55,1.42,1.09,2.13,1.64c-0.21-0.17-0.4-0.35-0.56-0.57c0.55,0.71,1.09,1.42,1.64,2.13
						c-0.14-0.19-0.26-0.4-0.36-0.62c0.35,0.84,0.71,1.67,1.06,2.51c-0.17-0.47-0.27-0.92-0.34-1.41c0.13,0.93,0.25,1.86,0.38,2.79
						c-0.53-5.87-0.41-11.91-0.3-17.79c0.11-6.01,0.48-12.02,1.28-17.98c-0.13,0.93-0.25,1.86-0.38,2.79
						c1.15-8.38,3.19-16.58,6.47-24.39c-0.35,0.84-0.71,1.67-1.06,2.51c2.81-6.61,6.31-12.89,9.88-19.13
						c3.37-5.9,6.72-11.83,10.84-17.24c-0.55,0.71-1.09,1.42-1.64,2.13c2.97-3.83,6.33-7.24,10.16-10.22
						c-0.71,0.55-1.42,1.09-2.13,1.64c5.01-3.85,10.5-7.01,15.92-10.25c5.91-3.53,11.82-7.05,17.73-10.58
						c2.28-1.36,4.12-3.71,4.83-6.28c0.69-2.51,0.38-5.86-1.06-8.09C146.56,90.78,140.3,88.75,135.25,91.76L135.25,91.76z"/>
				</g>
			</g>
		</g>
		<g>
			<defs>
				<rect id="SVGID_119_" x="-4.05" y="-186.08" width="576" height="576"/>
			</defs>
			<clipPath id="SVGID_120_">
				<use xlink:href="#SVGID_119_"  style="overflow:visible;"/>
			</clipPath>
			<g class="st6">
				<g>
					<path class="st5" d="M122.97,105.4c-3.26,2.46-6.4,5-9.26,7.92c-2.89,2.95-5.46,6.18-7.92,9.49
						c-3.97,5.34-7.24,11.18-9.96,17.26c-3.17,7.1-5.8,14.37-7.83,21.88c-2.08,7.68-3.63,15.5-5.07,23.32
						c-1.64,8.93-3.14,17.9-5.09,26.77c5.14-2.09,10.28-4.18,15.42-6.28c-0.3-0.13-0.54-0.27-0.8-0.46
						c0.71,0.55,1.42,1.09,2.13,1.64c-0.24-0.21-0.43-0.41-0.64-0.65c0.55,0.71,1.09,1.42,1.64,2.13c-0.25-0.35-0.44-0.71-0.62-1.1
						c0.35,0.84,0.71,1.67,1.06,2.51c-0.43-1.08-0.63-2.19-0.79-3.34c0.13,0.93,0.25,1.86,0.38,2.79c-1.07-8.1-1.06-16.3,0.02-24.4
						c-0.13,0.93-0.25,1.86-0.38,2.79c0.54-3.89,1.32-7.73,2.34-11.52c-6.75-1.86-13.5-3.72-20.25-5.58
						c-2.03,8.8-4.07,17.6-6.1,26.4c-2.19,9.46-4.77,20,0.89,28.83c1.46,2.28,3.62,4.1,6.28,4.83c2.51,0.69,5.86,0.38,8.09-1.06
						c2.24-1.45,4.22-3.6,4.83-6.28c0.61-2.69,0.47-5.7-1.06-8.09c-0.35-0.55-0.66-1.11-0.93-1.71c0.35,0.84,0.71,1.67,1.06,2.51
						c-0.5-1.19-0.81-2.41-0.99-3.7c0.13,0.93,0.25,1.86,0.38,2.79c-0.23-1.99-0.13-3.96,0.13-5.95c-0.13,0.93-0.25,1.86-0.38,2.79
						c0.82-5.83,2.47-11.58,3.79-17.31c1.42-6.16,2.85-12.32,4.27-18.48c0.63-2.72,0.37-5.64-1.06-8.09
						c-1.27-2.18-3.77-4.26-6.28-4.83c-5.52-1.26-11.39,1.66-12.92,7.33c-2.27,8.44-3.49,17.3-3.54,26.05
						c-0.02,3.92,0.2,7.85,0.69,11.74c0.29,2.35,0.43,4.83,1.28,7.06c1.3,3.42,3.38,6.92,6.89,8.49c1.64,0.95,3.4,1.43,5.3,1.43
						c1.45,0.05,2.79-0.25,4.05-0.9c2.86-1.21,5.39-3.65,6.08-6.8c3.99-18.23,6.08-36.9,11.5-54.8c1.3-4.29,2.8-8.51,4.54-12.64
						c-0.35,0.84-0.71,1.67-1.06,2.51c3.07-7.23,6.88-14.15,11.67-20.39c-0.55,0.71-1.09,1.42-1.64,2.13
						c3.49-4.49,7.46-8.57,11.95-12.06c-0.71,0.55-1.42,1.09-2.13,1.64c0.21-0.16,0.42-0.32,0.63-0.48
						c2.27-1.72,4.04-3.42,4.83-6.28c0.69-2.51,0.38-5.86-1.06-8.09c-1.45-2.24-3.6-4.22-6.28-4.83
						C128.5,103.76,125.17,103.74,122.97,105.4L122.97,105.4z"/>
				</g>
			</g>
		</g>
		<g>
			<defs>
				<rect id="SVGID_121_" x="-4.05" y="-186.08" width="576" height="576"/>
			</defs>
			<clipPath id="SVGID_122_">
				<use xlink:href="#SVGID_121_"  style="overflow:visible;"/>
			</clipPath>
			<g class="st7">
				<g>
					<path class="st5" d="M116.88,230.18c-0.38-20.56-0.34-41.12,0.12-61.67c0.13-5.8,0.3-11.6,0.49-17.4
						c-6.87,0.93-13.75,1.86-20.62,2.79c3.61,21.02,7.23,42.05,10.84,63.07c1.02,5.91,2.03,11.83,3.05,17.74
						c5.85-3.41,11.7-6.81,17.55-10.22c-0.35-0.32-0.67-0.65-0.97-1.02c0.55,0.71,1.09,1.42,1.64,2.13
						c-0.42-0.56-0.77-1.15-1.06-1.79c0.35,0.84,0.71,1.67,1.06,2.51c-0.47-1.11-0.75-2.26-0.93-3.46c0.13,0.93,0.25,1.86,0.38,2.79
						c-0.62-4.73-0.18-9.68-0.06-14.44c0.14-5.36,0.34-10.72,0.62-16.07c0.55-10.63,1.38-21.24,2.48-31.82
						c0.62-5.95,1.33-11.89,2.13-17.83c-0.13,0.93-0.25,1.86-0.38,2.79c1.04-7.67,2.36-15.4,5.35-22.59
						c-0.35,0.84-0.71,1.67-1.06,2.51c1.33-3.14,2.98-6.11,5.05-8.81c-0.55,0.71-1.09,1.42-1.64,2.13c1.02-1.3,2.12-2.51,3.32-3.65
						c-5.85-3.41-11.7-6.81-17.55-10.22c-5.72,16.26-8.26,33.4-10.12,50.48c-0.87,7.96-1.63,15.94-2.24,23.92
						c-0.57,7.52-0.89,15.09-0.22,22.62c0.88,9.93,3.12,19.45,7.9,28.28c2.62,4.84,9.71,6.77,14.37,3.77
						c4.91-3.16,6.57-9.19,3.77-14.37c-0.74-1.37-1.42-2.76-2.03-4.19c0.35,0.84,0.71,1.67,1.06,2.51
						c-2.08-4.93-3.35-10.12-4.06-15.41c0.13,0.93,0.25,1.86,0.38,2.79c-0.96-7.4-0.87-14.89-0.4-22.32
						c0.49-7.88,1.28-15.75,2.08-23.61c0.47-4.6,0.99-9.2,1.6-13.79c-0.13,0.93-0.25,1.86-0.38,2.79
						c1.74-12.85,4.25-25.62,8.56-37.88c0.13-0.93,0.25-1.86,0.38-2.79c0.05-1.45-0.25-2.79-0.9-4.05c-0.85-2.02-2.31-3.97-4.3-5.02
						c-4.21-2.23-9.23-1.68-12.72,1.64c-13.03,12.38-15.37,30.88-17.48,47.77c-2.34,18.66-3.81,37.43-4.42,56.22
						c-0.16,5.04-0.35,10.09-0.29,15.13c0.07,6.2,1.47,12.85,6.27,17.2c3.34,3.03,8.7,4.23,12.72,1.64
						c1.52-0.98,2.79-2.25,3.77-3.77c1.58-2.45,1.53-5.36,1.06-8.09c-3.61-21.02-7.23-42.05-10.84-63.07
						c-1.02-5.91-2.03-11.83-3.05-17.74c-0.4-2.35-2.77-5.19-4.83-6.28c-2.12-1.12-4.31-1.57-6.7-1.25
						c-5.23,0.7-8.92,5.04-9.1,10.31c-0.7,20.55-0.98,41.11-0.84,61.67c0.04,5.8,0.12,11.61,0.22,17.41
						c0.05,2.72,1.14,5.49,3.08,7.42c1.82,1.82,4.81,3.19,7.42,3.08C111.98,240.43,116.99,236.06,116.88,230.18L116.88,230.18z"/>
				</g>
			</g>
		</g>
		<g>
			<defs>
				<rect id="SVGID_123_" x="-4.05" y="-186.08" width="576" height="576"/>
			</defs>
			<clipPath id="SVGID_124_">
				<use xlink:href="#SVGID_123_"  style="overflow:visible;"/>
			</clipPath>
			<g class="st8">
				<g>
					<path class="st9" d="M153.44,98.69c-9.49,15.15-16.31,32.04-20.85,49.31c-4.59,17.45-6.97,35.5-8.13,53.49
						c-0.63,9.78-0.86,19.57-0.85,29.37c6.87-0.93,13.75-1.86,20.62-2.79c-0.94-4.24-1.7-8.52-2.28-12.83
						c0.13,0.93,0.25,1.86,0.38,2.79c-1.9-14.27-1.85-28.75,0.05-43.02c-0.13,0.93-0.25,1.86-0.38,2.79
						c1.97-14.54,5.86-28.78,11.56-42.3c-0.35,0.84-0.71,1.67-1.06,2.51c4.99-11.75,11.34-22.89,18.99-33.11
						c1.53-2.04,1.7-5.75,1.06-8.09c-0.67-2.44-2.55-5.07-4.83-6.28c-2.44-1.29-5.39-1.93-8.09-1.06c-0.84,0.35-1.67,0.71-2.51,1.06
						c-1.58,0.93-2.83,2.19-3.77,3.77c-11.35,15.17-19.86,32.46-25.52,50.52c-5.64,17.99-8.35,37.14-7.88,55.98
						c0.27,11.02,1.65,22.09,4.02,32.85c0.53,2.39,2.67,5.13,4.83,6.28c2.12,1.12,4.31,1.57,6.7,1.25c5.1-0.69,9.11-5.05,9.1-10.31
						c-0.03-17.03,0.71-34.08,2.95-50.97c-0.13,0.93-0.25,1.86-0.38,2.79c1.93-14.34,4.94-28.57,9.61-42.28
						c1.32-3.87,2.77-7.68,4.35-11.45c-0.35,0.84-0.71,1.67-1.06,2.51c3.24-7.68,7.06-15.1,11.48-22.17
						c2.92-4.66,1.14-11.77-3.77-14.37C162.64,92.2,156.55,93.72,153.44,98.69L153.44,98.69z"/>
				</g>
			</g>
		</g>
		<g>
			<defs>
				<rect id="SVGID_125_" x="-4.05" y="-186.08" width="576" height="576"/>
			</defs>
			<clipPath id="SVGID_126_">
				<use xlink:href="#SVGID_125_"  style="overflow:visible;"/>
			</clipPath>
			<g class="st10">
				<g>
					<path class="st9" d="M132.12,234.01c0.83-7.77,1.68-15.55,2.71-23.3c-0.13,0.93-0.25,1.86-0.38,2.79
						c2.02-14.98,4.74-29.94,9.43-44.34c1.34-4.11,2.84-8.16,4.51-12.14c-0.35,0.84-0.71,1.67-1.06,2.51
						c1.17-2.75,2.41-5.46,3.75-8.14c1.27-2.54,1.83-5.29,1.06-8.09c-0.67-2.44-2.55-5.08-4.83-6.28c-2.44-1.29-5.39-1.93-8.09-1.06
						c-2.51,0.81-5.06,2.39-6.28,4.83c-5.68,11.35-9.95,23.37-13,35.68c-3.04,12.29-4.94,24.81-6.54,37.36
						c-0.86,6.71-1.59,13.44-2.3,20.16c-0.27,2.51,1.36,5.71,3.08,7.42c1.82,1.82,4.81,3.19,7.42,3.08
						c2.72-0.12,5.53-1.01,7.42-3.08c0.55-0.71,1.09-1.42,1.64-2.13C131.64,237.67,132.12,235.91,132.12,234.01L132.12,234.01z"/>
				</g>
			</g>
		</g>
		<g>
			<defs>
				<rect id="SVGID_127_" x="-4.05" y="-186.08" width="576" height="576"/>
			</defs>
			<clipPath id="SVGID_128_">
				<use xlink:href="#SVGID_127_"  style="overflow:visible;"/>
			</clipPath>
			<g class="st11">
				<g>
					<path class="st9" d="M151.69,101.52c-15.48,8-21.72,25.64-27.51,40.88c-3.26,8.58-5.93,17.27-7.54,26.31
						c-1.72,9.66-2.64,19.46-2.98,29.26c-0.35,10.18-0.14,20.36,0.08,30.54c0.06,2.73,1.13,5.48,3.08,7.42
						c1.82,1.82,4.81,3.19,7.42,3.08c5.59-0.25,10.63-4.62,10.5-10.5c-0.37-16.84-0.7-33.76,1.52-50.5
						c-0.13,0.93-0.25,1.86-0.38,2.79c1.05-7.79,2.66-15.5,5.07-22.99c2.27-7.07,4.98-14.05,7.85-20.9
						c-0.35,0.84-0.71,1.67-1.06,2.51c2.22-5.25,4.76-10.4,8.25-14.94c-0.55,0.71-1.09,1.42-1.64,2.13
						c1.71-2.18,3.61-4.16,5.79-5.87c-0.71,0.55-1.42,1.09-2.13,1.64c1.35-1.03,2.77-1.94,4.28-2.72c4.89-2.53,6.73-9.77,3.77-14.37
						C162.84,100.3,156.92,98.82,151.69,101.52L151.69,101.52z"/>
				</g>
			</g>
		</g>
		<g>
			<defs>
				<rect id="SVGID_129_" x="-4.05" y="-186.08" width="576" height="576"/>
			</defs>
			<clipPath id="SVGID_130_">
				<use xlink:href="#SVGID_129_"  style="overflow:visible;"/>
			</clipPath>
			<g class="st12">
				<g>
					<path class="st9" d="M151.5,99.63c-8.87,4.5-13.65,13.6-17.82,22.16c-0.71,1.46-0.4,3.24,1.08,4.1
						c1.32,0.77,3.39,0.39,4.1-1.08c2.07-4.26,4.16-8.55,6.97-12.4c2.23-3.06,5.19-5.84,8.7-7.62c1.44-0.73,1.86-2.77,1.08-4.1
						C154.74,99.24,152.95,98.9,151.5,99.63L151.5,99.63z"/>
				</g>
			</g>
		</g>
		<g>
			<defs>
				<rect id="SVGID_131_" x="-4.05" y="-186.08" width="576" height="576"/>
			</defs>
			<clipPath id="SVGID_132_">
				<use xlink:href="#SVGID_131_"  style="overflow:visible;"/>
			</clipPath>
			<g class="st13">
				<g>
					<path class="st9" d="M116.23,232.03c0.69-8.94,1.37-17.87,2.06-26.81c0.6-7.82,0.92-15.78,2.84-23.42
						c1.03-4.12,2.56-8.02,4.87-11.61c0.88-1.36,0.28-3.31-1.08-4.1c-1.45-0.85-3.22-0.29-4.1,1.08
						c-4.46,6.92-6.24,14.99-7.22,23.05c-1.06,8.65-1.49,17.39-2.16,26.08c-0.4,5.25-0.81,10.49-1.21,15.74c-0.12,1.62,1.47,3,3,3
						C114.96,235.03,116.1,233.65,116.23,232.03L116.23,232.03z"/>
				</g>
			</g>
		</g>
		<g>
			<defs>
				<rect id="SVGID_133_" x="-4.05" y="-186.08" width="576" height="576"/>
			</defs>
			<clipPath id="SVGID_134_">
				<use xlink:href="#SVGID_133_"  style="overflow:visible;"/>
			</clipPath>
			<g class="st14">
				<g>
					<path class="st9" d="M150.15,232.06c-0.36-19.1,0.6-38.21,2.93-57.17c1.14-9.29,2.63-18.54,4.42-27.73
						c1.73-8.86,3.62-17.76,6.44-26.35c2.99-9.13,7.26-18.02,13.79-25.16c1.09-1.19,1.18-3.06,0-4.24c-1.11-1.11-3.14-1.2-4.24,0
						c-12.48,13.63-17.2,32-20.86,49.63c-3.97,19.12-6.57,38.53-7.77,58.02c-0.68,10.99-0.91,22-0.7,33
						C144.22,235.92,150.22,235.93,150.15,232.06L150.15,232.06z"/>
				</g>
			</g>
		</g>
		<g>
			<defs>
				<rect id="SVGID_135_" x="-4.05" y="-186.08" width="576" height="576"/>
			</defs>
			<clipPath id="SVGID_136_">
				<use xlink:href="#SVGID_135_"  style="overflow:visible;"/>
			</clipPath>
			<g class="st15">
				<g>
					<path class="st9" d="M153.13,96.54c-8.03,4.21-13.95,11.44-18.55,19.09c-4.87,8.12-8.82,16.86-12.49,25.58
						c-3.81,9.06-7,18.39-9.1,28.01c-2.28,10.42-3.1,21.09-4.05,31.7c-1.06,11.74-2.11,23.48-3.17,35.23c-0.28,3.13,2.96,6.14,6,6
						c3.49-0.16,5.7-2.64,6-6c0.92-10.18,1.83-20.36,2.75-30.55c0.46-5.07,0.89-10.14,1.39-15.21c0.25-2.52,0.52-5.04,0.84-7.55
						c0.03-0.2,0.16-1.24,0.05-0.42c-0.11,0.83,0.03-0.22,0.06-0.42c0.08-0.57,0.16-1.13,0.25-1.7c0.2-1.28,0.41-2.56,0.64-3.84
						c1.72-9.37,4.53-18.51,8.01-27.37c0.42-1.07,0.85-2.14,1.29-3.21c0.12-0.28,0.24-0.57,0.35-0.85c0.26-0.63-0.14,0.33-0.16,0.37
						c0.24-0.65,0.54-1.28,0.82-1.91c0.95-2.19,1.94-4.36,2.96-6.52c1.89-4.01,3.84-8,5.98-11.89c1.1-2,2.26-3.98,3.51-5.9
						c0.6-0.93,1.23-1.84,1.88-2.73c0.15-0.21,0.31-0.42,0.46-0.62c0.64-0.88-0.58,0.71-0.11,0.14c0.37-0.45,0.72-0.9,1.1-1.34
						c1.4-1.65,2.92-3.21,4.57-4.61c0.19-0.16,0.39-0.32,0.58-0.49c0.82-0.71-0.76,0.55-0.17,0.12c0.46-0.34,0.92-0.67,1.4-0.99
						c0.96-0.64,1.95-1.22,2.97-1.76c2.78-1.46,3.85-5.57,2.15-8.21C159.51,95.86,156.11,94.98,153.13,96.54L153.13,96.54z"/>
				</g>
			</g>
		</g>
		<g>
			<defs>
				<rect id="SVGID_137_" x="-4.05" y="-186.08" width="576" height="576"/>
			</defs>
			<clipPath id="SVGID_138_">
				<use xlink:href="#SVGID_137_"  style="overflow:visible;"/>
			</clipPath>
			<g class="st16">
				<g>
					<path class="st9" d="M118.06,236.51c0.16-6.33,0.31-12.66,0.47-18.99c0.08-3.14-2.82-6.14-6-6c-3.32,0.15-5.92,2.64-6,6
						c-0.16,6.33-0.31,12.66-0.47,18.99c-0.08,3.14,2.82,6.14,6,6C115.38,242.36,117.98,239.87,118.06,236.51L118.06,236.51z"/>
				</g>
			</g>
		</g>
		<g>
			<defs>
				<rect id="SVGID_139_" x="-4.05" y="-186.08" width="576" height="576"/>
			</defs>
			<clipPath id="SVGID_140_">
				<use xlink:href="#SVGID_139_"  style="overflow:visible;"/>
			</clipPath>
			<g class="st17">
				<g>
					<path class="st9" d="M116.56,235.9c-0.08-13.12-0.16-26.3,1.46-39.34c0.04-0.32,0.07-0.64,0.12-0.96
						c-0.25,1.55,0.01-0.07,0.05-0.33c0.1-0.72,0.21-1.44,0.33-2.16c0.25-1.57,0.53-3.13,0.84-4.69c0.55-2.74,1.19-5.46,1.95-8.15
						c0.75-2.69,1.62-5.35,2.6-7.97c0.24-0.65,0.5-1.3,0.76-1.95c0.13-0.32,0.26-0.64,0.4-0.97c0.34-0.84-0.6,1.37-0.03,0.09
						c0.56-1.27,1.14-2.54,1.76-3.78c1.42-2.86,3-5.63,4.77-8.28c0.84-1.25,1.68-2.57,2.66-3.72c-1.05,1.23-0.11,0.15,0.09-0.09
						c0.26-0.32,0.53-0.65,0.79-0.96c0.54-0.64,1.09-1.26,1.65-1.88c2.1-2.33,2.47-6.22,0-8.49c-2.3-2.11-6.24-2.49-8.49,0
						c-17.44,19.3-22.55,45.53-23.5,70.75c-0.29,7.62-0.24,15.25-0.19,22.88c0.02,3.14,2.75,6.15,6,6
						C113.79,241.76,116.58,239.26,116.56,235.9L116.56,235.9z"/>
				</g>
			</g>
		</g>
		<g>
			<defs>
				<rect id="SVGID_141_" x="-4.05" y="-186.08" width="576" height="576"/>
			</defs>
			<clipPath id="SVGID_142_">
				<use xlink:href="#SVGID_141_"  style="overflow:visible;"/>
			</clipPath>
			<g class="st18">
				<g>
					<path class="st9" d="M146.7,101.83c-18.75,19.35-31.58,44.52-36.11,71.09c-1.31,7.67-2.03,15.42-2.02,23.2
						c0.01,3.14,2.76,6.15,6,6c3.25-0.15,6.01-2.64,6-6c-0.01-3.28,0.11-6.55,0.35-9.82c0.11-1.5,0.25-2.99,0.42-4.49
						c0.08-0.73,0.02-1.76,0.3-2.44c-0.04,0.11-0.21,1.47-0.05,0.38c0.08-0.54,0.16-1.08,0.24-1.62c0.98-6.34,2.43-12.61,4.34-18.74
						c0.93-3,1.97-5.97,3.12-8.89c0.3-0.76,0.61-1.52,0.92-2.28c0.54-1.33-0.54,1.24,0.03-0.08c0.11-0.25,0.22-0.5,0.32-0.75
						c0.68-1.57,1.39-3.12,2.13-4.66c2.76-5.72,5.93-11.24,9.49-16.5c1-1.47,2.02-2.92,3.08-4.34c0.24-0.33,0.49-0.66,0.74-0.98
						c0.16-0.22,0.33-0.44,0.5-0.65c-0.52,0.67-0.58,0.75-0.19,0.24c0.51-0.64,1.01-1.29,1.53-1.92c2.33-2.86,4.78-5.62,7.35-8.26
						c2.19-2.26,2.41-6.27,0-8.49C152.82,99.66,149.03,99.42,146.7,101.83L146.7,101.83z"/>
				</g>
			</g>
		</g>
		<g>
			<defs>
				<rect id="SVGID_143_" x="-4.05" y="-186.08" width="576" height="576"/>
			</defs>
			<clipPath id="SVGID_144_">
				<use xlink:href="#SVGID_143_"  style="overflow:visible;"/>
			</clipPath>
			<g class="st19">
				<g>
					<path class="st20" d="M171.81,100.75c-10.73,13.5-14.25,30.81-17.26,47.39c-3.33,18.4-5.3,37.06-5.8,55.75
						c-0.28,10.36-0.1,20.73,0.52,31.08c0.14,2.35,1.97,4.61,4.5,4.5c2.32-0.1,4.65-1.98,4.5-4.5c-1.07-18.03-0.8-36.13,0.84-54.11
						c0.41-4.52,0.91-9.02,1.49-13.52c0.03-0.24,0.06-0.48,0.09-0.72c0.01-0.08,0.12-0.88,0.03-0.25c0.06-0.48,0.13-0.96,0.2-1.44
						c0.17-1.2,0.34-2.4,0.52-3.61c0.34-2.24,0.69-4.48,1.07-6.72c1.41-8.34,3-16.71,5.24-24.87c0.58-2.11,1.22-4.21,1.93-6.29
						c0.37-1.07,0.75-2.12,1.16-3.17c0.08-0.2,0.15-0.39,0.23-0.59c0.04-0.09,0.45-1.12,0.25-0.63c-0.18,0.44,0.09-0.2,0.1-0.24
						c0.14-0.32,0.28-0.64,0.43-0.96c0.89-1.97,1.88-3.9,2.98-5.77c0.53-0.9,1.09-1.79,1.67-2.66c0.31-0.46,0.63-0.92,0.96-1.38
						c0.12-0.17,0.25-0.34,0.37-0.51c0.82-1.11-0.53,0.66,0.33-0.42c1.46-1.84,1.93-4.59,0-6.36
						C176.55,99.26,173.38,98.78,171.81,100.75L171.81,100.75z"/>
				</g>
			</g>
		</g>
		<g>
			<defs>
				<rect id="SVGID_145_" x="-4.05" y="-186.08" width="576" height="576"/>
			</defs>
			<clipPath id="SVGID_146_">
				<use xlink:href="#SVGID_145_"  style="overflow:visible;"/>
			</clipPath>
			<g class="st21">
				<g>
					<path class="st20" d="M166.68,98.97c-8.33,13.94-13.68,29.53-16.77,45.42c-3.32,17.06-4.2,34.48-4.07,51.82
						c0.07,10.06,0.46,20.11,0.86,30.16c0.09,2.35,2,4.61,4.5,4.5c2.36-0.11,4.6-1.98,4.5-4.5c-0.68-17.45-1.37-34.94-0.37-52.39
						c0.25-4.32,0.6-8.63,1.08-12.93c0.11-0.96,0.22-1.92,0.34-2.88c0.06-0.44,0.11-0.89,0.17-1.33c-0.01,0.09-0.09,0.62-0.01,0.09
						c0.05-0.37,0.1-0.74,0.16-1.11c0.28-1.92,0.58-3.83,0.92-5.74c1.36-7.78,3.23-15.47,5.72-22.97c0.7-2.11,1.46-4.21,2.26-6.29
						c0.4-1.04,0.82-2.07,1.25-3.1c0.2-0.48,0.02-0.04-0.02,0.05c0.12-0.27,0.23-0.55,0.35-0.82c0.24-0.54,0.48-1.09,0.72-1.63
						c1.84-4.06,3.91-8.01,6.19-11.83c1.21-2.02,0.52-5.03-1.61-6.16C170.66,96.21,167.97,96.81,166.68,98.97L166.68,98.97z"/>
				</g>
			</g>
		</g>
		<g>
			<defs>
				<rect id="SVGID_147_" x="-4.05" y="-186.08" width="576" height="576"/>
			</defs>
			<clipPath id="SVGID_148_">
				<use xlink:href="#SVGID_147_"  style="overflow:visible;"/>
			</clipPath>
			<g class="st22">
				<g>
					<path class="st20" d="M172.11,105c1.05,1.76,2.03,3.56,2.93,5.4c0.43,0.89,0.85,1.78,1.25,2.68c0.22,0.48,0.43,0.97,0.64,1.46
						c0.2,0.48,0.03,0.07-0.01-0.03c0.12,0.28,0.23,0.56,0.35,0.84c1.54,3.81,2.88,7.69,4.19,11.59c2.79,8.31,5.59,16.63,7.95,25.07
						c1.18,4.2,2.24,8.44,3.12,12.72c0.44,2.14,0.84,4.3,1.2,6.46c0.17,1.04,0.34,2.08,0.49,3.12c0.08,0.56,0.17,1.12,0.24,1.68
						c0.03,0.24,0.07,0.48,0.1,0.72c0.11,0.8-0.07-0.55,0.03,0.25c1.12,8.78,1.73,17.61,2.14,26.45c0.22,4.84,0.41,9.68,0.57,14.53
						c0.08,2.38,0.12,4.76-0.06,7.13c-0.04,0.53-0.09,1.06-0.15,1.59c0.02-0.2,0.13-0.76-0.03,0.16c-0.05,0.3-0.1,0.6-0.16,0.9
						c-0.24,1.19-0.57,2.36-0.98,3.51c-0.79,2.22,0.89,5.02,3.14,5.54c2.53,0.58,4.69-0.77,5.54-3.14
						c1.52-4.26,1.82-8.88,1.76-13.37c-0.06-4.39-0.28-8.79-0.46-13.18c-0.37-9-0.88-18.01-1.91-26.96
						c-1.05-9.1-2.62-18.11-4.95-26.97c-2.28-8.69-5.11-17.22-7.95-25.73c-3.08-9.22-6.19-18.56-11.2-26.95
						c-1.21-2.02-4.1-2.94-6.16-1.61C171.7,100.15,170.82,102.83,172.11,105L172.11,105z"/>
				</g>
			</g>
		</g>
		<g>
			<defs>
				<rect id="SVGID_149_" x="-4.05" y="-186.08" width="576" height="576"/>
			</defs>
			<clipPath id="SVGID_150_">
				<use xlink:href="#SVGID_149_"  style="overflow:visible;"/>
			</clipPath>
			<g class="st23">
				<g>
					<path class="st20" d="M167.93,110.9c5.13,15.91,9.27,32.14,12.38,48.57c0.77,4.07,1.47,8.15,2.11,12.24
						c0.32,2.05,0.63,4.09,0.91,6.14c0.08,0.55,0.15,1.1,0.23,1.66c0.07,0.53,0.01,0.09,0-0.01c0.03,0.24,0.06,0.47,0.09,0.71
						c0.15,1.11,0.29,2.21,0.42,3.32c1.02,8.3,1.78,16.63,2.28,24.97c0.26,4.42,0.33,8.86,0.64,13.28
						c0.33,4.76,1.15,9.41,3.44,13.64c0.91,1.68,3.25,2.66,5.08,2.07c1.97-0.64,3.19-2.28,3.3-4.34c0.85-15.13,1.06-30.34-0.3-45.45
						c-1.37-15.19-4.21-30.36-9.81-44.59c-3.17-8.04-7.07-15.75-11.94-22.89c-1.04-1.52-2.6-2.4-4.48-2.15
						c-1.91,0.26-3.05,1.51-3.74,3.22c-3.45,8.49-5.03,17.53-6.46,26.54c-1.52,9.6-3.01,19.21-4.52,28.82
						c-1.49,9.52-3.14,19.04-4.43,28.6c-1.2,8.96-1.6,19.68,4.51,27.08c3.51,4.25,9.02,4.56,14.07,5.26
						c5.44,0.75,10.88,1.51,16.32,2.26c1.49,0.21,2.69,0.14,3.92-0.81c1.1-0.85,1.79-2.11,1.77-3.53
						c-0.13-14.15-0.66-28.28-1.37-42.41c-0.35-7.02-0.74-14.05-1.14-21.07c-0.39-6.78-0.68-13.57-1.39-20.32
						c-0.8-7.57-2.09-15.12-4.9-22.23c-0.59-1.51-1.5-2.69-3.14-3.14c-1.54-0.42-3.25,0.02-4.38,1.16
						c-4.93,4.99-6.49,11.81-7.03,18.58c-0.59,7.4-0.51,14.9-0.71,22.32c-0.21,7.99-0.43,15.99-0.64,23.98
						c-0.21,7.94-0.6,16.02,1.27,23.81c1.8,7.51,6.02,14.55,12.65,18.72c2.1,1.32,4.9,0.4,6.16-1.61
						c5.14-8.23,3.83-18.16,2.52-27.26c-1.46-10.15-2.93-20.31-4.39-30.46c-0.84-5.81-1.68-11.63-2.51-17.44
						c-0.32-2.21-2.97-3.49-4.94-3.22c-2.39,0.32-3.61,2.16-3.9,4.42c-2.28,17.83-1.93,35.85,0.79,53.61
						c0.76,4.99,1.73,9.94,2.89,14.84c2.74-1.16,5.48-2.31,8.22-3.47c-4.18-6.34-13.2-8.69-19.73-4.48
						c-1.54,0.99-2.4,2.65-2.15,4.48c0.25,1.88,1.5,3.09,3.22,3.74c0.48,0.18,0.46,0.17-0.06-0.04c0.22,0.1,0.44,0.21,0.66,0.32
						c0.43,0.23,0.85,0.47,1.26,0.74c0.2,0.13,0.4,0.27,0.6,0.42c-0.43-0.33-0.44-0.34-0.05-0.02c0.31,0.29,0.63,0.57,0.93,0.88
						c0.3,0.31,0.58,0.63,0.85,0.95c-0.7-0.82,0.25,0.39,0.36,0.57c0.26,0.41,0.47,0.85,0.71,1.27c0.21,0.46,0.21,0.44-0.01-0.07
						c0.09,0.23,0.17,0.45,0.25,0.69c1.45-1.9,2.89-3.8,4.34-5.7c-0.29-0.01-0.58-0.03-0.88-0.04c-0.68-0.02,1.06,0.26,0-0.02
						c-0.5-0.13-0.99-0.28-1.48-0.44c-0.63-0.2,0.9,0.52-0.03-0.03c-0.2-0.12-0.41-0.21-0.61-0.33s-0.4-0.24-0.59-0.36
						c-0.19-0.13-0.38-0.26-0.57-0.4c0.4,0.31,0.48,0.37,0.22,0.16c-0.38-0.37-0.79-0.7-1.16-1.09c-0.16-0.17-0.32-0.35-0.48-0.53
						c-0.13-0.15-0.78-1.09-0.19-0.21c-0.65-0.96-1.2-1.92-1.7-2.96c-0.31-0.64,0.34,1-0.02-0.09c-0.07-0.23-0.16-0.45-0.23-0.67
						c-0.22-0.71-0.4-1.43-0.54-2.15c-0.06-0.3-0.11-0.61-0.16-0.91c0.12,0.74-0.02-0.23-0.04-0.42c-0.08-0.85-0.12-1.7-0.12-2.56
						c-0.03-2.98,0.32-5.95,0.7-8.91c1.6-12.42,2.92-24.87,3.81-37.37c0.51-7.12,0.89-14.24,1.15-21.37
						c-2.26,1.3-4.51,2.59-6.77,3.89c-0.63-0.47-0.07-0.06,0.05,0.04c0.2,0.18,0.41,0.35,0.61,0.53c0.35,0.31,0.69,0.64,1.02,0.98
						s0.65,0.68,0.96,1.04c0.17,0.2,0.35,0.41,0.51,0.62c-0.39-0.5-0.04-0.04,0.14,0.23c0.57,0.83,1.21,1.75,1.57,2.69
						c-0.14-0.38-0.18-0.06-0.07-0.03c0.02,0.07,0.04,0.14,0.06,0.21c-0.03-0.39-0.05-0.43-0.05-0.1c0.07,0.48-0.03,0.03,0.01-0.11
						c0.01-0.02-0.37,1.09-0.22,0.72c0.18-0.45-0.19,0.39-0.24,0.48c-0.13,0.27-0.26,0.54-0.39,0.82c-0.23,0.48-0.46,0.96-0.68,1.44
						c-0.51,1.1-1.01,2.21-1.5,3.33c-1,2.31-1.96,4.64-2.86,6.99c-3.29,8.67-5.69,17.67-7.17,26.83c-0.89,5.5-1.49,11.04-1.76,16.61
						c-0.11,2.35,2.15,4.61,4.5,4.5c2.53-0.11,4.38-1.98,4.5-4.5c0.12-2.43,0.29-4.86,0.53-7.28c0.12-1.21,0.26-2.42,0.41-3.62
						c0.01-0.12,0.12-0.88,0.02-0.16c0.04-0.3,0.08-0.6,0.13-0.9c0.09-0.6,0.18-1.2,0.27-1.8c0.77-4.88,1.8-9.72,3.1-14.49
						c1.27-4.69,2.79-9.32,4.55-13.86c0.41-1.06,0.84-2.12,1.28-3.17c-0.25,0.61,0.04-0.1,0.08-0.18c0.12-0.28,0.24-0.56,0.36-0.84
						c0.27-0.63,0.55-1.25,0.84-1.87c1.12-2.47,2.72-4.95,3.08-7.67c0.83-6.18-4.55-11.83-9.13-15.23c-1.25-0.93-3.27-0.74-4.54,0
						c-1.41,0.82-2.17,2.28-2.23,3.89c-0.49,13.44-1.41,26.86-2.78,40.24c-0.66,6.49-1.49,12.96-2.3,19.44
						c-0.82,6.59-1.03,13.32,1.82,19.48c2.73,5.9,8.53,10.42,15.15,10.54c2.76,0.05,5.31-2.94,4.34-5.7
						c-2.01-5.68-6.17-9.86-11.79-11.99c0.36,2.74,0.72,5.48,1.07,8.22c0.27-0.18,0.55-0.32,0.83-0.49c0.55-0.33-0.09-0.07-0.2,0.06
						c0.28-0.33,1.29-0.35,1.68-0.47c0.51-0.16-0.93,0.02-0.09,0.02c0.27,0,0.53-0.02,0.8-0.02s0.53,0.02,0.8,0.04
						c1.04,0.06-0.93-0.25,0.07,0.03c0.31,0.09,1.35,0.18,1.54,0.45c-0.18-0.26-0.73-0.37-0.05,0c0.23,0.13,0.47,0.25,0.7,0.39
						c0.28,0.17,1.06,0.44,0.13,0.03c0.22,0.1,0.43,0.37,0.6,0.53c0.19,0.18,0.36,0.38,0.55,0.58c0.62,0.65-0.48-0.7,0.06,0.12
						c1.24,1.88,3.49,2.74,5.62,1.84c2.1-0.88,3.13-3.1,2.61-5.31c-1.01-4.28-1.88-8.6-2.59-12.95c-0.17-1.03-0.33-2.06-0.48-3.08
						c-0.07-0.48-0.14-0.95-0.2-1.43c0,0.01-0.1-0.77-0.05-0.35c0.05,0.41-0.09-0.73-0.11-0.83c-0.27-2.14-0.5-4.29-0.7-6.45
						c-0.79-8.69-0.97-17.43-0.55-26.15c0.24-4.96,0.69-9.9,1.32-14.83c-2.95,0.4-5.89,0.8-8.84,1.2
						c1.42,9.83,2.83,19.65,4.25,29.48c0.71,4.91,1.42,9.83,2.12,14.74c0.17,1.15,0.33,2.29,0.5,3.44c0.09,0.6,0.17,1.2,0.26,1.79
						c0.03,0.2,0.06,0.41,0.09,0.61c0.08,0.53-0.07-0.63,0.03,0.24c0.25,2.07,0.47,4.14,0.54,6.22c0.04,1.17,0.04,2.33-0.03,3.5
						c-0.03,0.54-0.1,1.08-0.13,1.62c-0.05,0.71,0.13-0.69,0,0c-0.06,0.33-0.11,0.66-0.17,0.99c-0.21,1.04-0.48,2.07-0.84,3.07
						c-0.09,0.25-0.18,0.5-0.29,0.74c0.25-0.6,0.03-0.12-0.13,0.2c-0.27,0.54-0.58,1.07-0.9,1.58c2.05-0.54,4.1-1.08,6.16-1.61
						c-0.33-0.21-0.64-0.43-0.97-0.64c-1.04-0.66,0.62,0.58-0.31-0.23c-0.48-0.42-0.96-0.84-1.41-1.29
						c-0.54-0.54-1.03-1.13-1.54-1.71c0.55,0.62,0.11,0.15,0,0c-0.3-0.42-0.59-0.84-0.87-1.27c-0.77-1.2-1.42-2.46-2.01-3.76
						c0.37,0.82,0.01,0.03-0.07-0.18c-0.12-0.3-0.23-0.61-0.34-0.91c-0.28-0.79-0.53-1.6-0.75-2.41c-0.42-1.54-0.73-3.12-0.95-4.71
						c0.12,0.83-0.08-0.72-0.07-0.71c-0.05-0.48-0.09-0.95-0.13-1.43c-0.08-0.96-0.13-1.92-0.16-2.88c-0.13-3.71,0-7.42,0.09-11.13
						c0.39-14.78,0.63-29.58,1.19-44.35c0.06-1.66,0.16-3.32,0.34-4.98c0.03-0.25,0.06-0.51,0.09-0.76
						c-0.13,1.14,0.08-0.49,0.12-0.69c0.13-0.74,0.28-1.49,0.46-2.22c0.19-0.78,0.42-1.56,0.68-2.32c0.1-0.29,0.21-0.58,0.32-0.86
						c-0.39,1.04,0.2-0.4,0.3-0.59c0.33-0.65,0.7-1.28,1.11-1.88c0.1-0.15,0.87-1.04,0.18-0.26c0.33-0.37,0.65-0.74,1-1.09
						c-2.51-0.66-5.01-1.32-7.52-1.99c1.21,3.07,2.16,6.22,2.89,9.43c0.36,1.57,0.66,3.15,0.93,4.74c0.13,0.76,0.24,1.52,0.35,2.28
						c0.02,0.11,0.12,0.88,0.03,0.18c0.07,0.53,0.14,1.07,0.2,1.6c0.78,6.62,1.07,13.29,1.45,19.95c0.8,13.88,1.57,27.76,2.07,41.65
						c0.29,7.94,0.48,15.88,0.56,23.82c1.9-1.45,3.8-2.89,5.7-4.34c-4.63-0.64-9.25-1.28-13.88-1.92c-2.26-0.31-4.52-0.62-6.78-0.94
						c-0.88-0.12-1.77-0.25-2.63-0.46c-0.47-0.11-0.91-0.28-1.37-0.4c-0.62-0.17,0.49,0.34-0.04-0.03c-0.2-0.14-0.47-0.3-0.69-0.4
						c-0.56-0.25,0.43,0.47,0.02,0.02c-0.13-0.14-0.28-0.25-0.41-0.38s-0.25-0.29-0.38-0.41c-0.47-0.43,0.34,0.57,0.01,0.02
						c-0.23-0.38-0.49-0.74-0.7-1.13c-0.13-0.23-0.73-1.53-0.36-0.65c-0.77-1.89-1.26-3.89-1.57-5.9c0.11,0.72-0.03-0.35-0.05-0.57
						c-0.05-0.52-0.08-1.04-0.11-1.56c-0.06-1.12-0.06-2.25-0.03-3.37c0.06-2.12,0.27-4.23,0.52-6.34c0.01-0.12,0.11-0.88,0.02-0.16
						c0.03-0.23,0.06-0.45,0.09-0.68c0.07-0.53,0.15-1.05,0.23-1.58c0.16-1.07,0.33-2.15,0.5-3.22c0.37-2.37,0.74-4.74,1.12-7.11
						c0.72-4.58,1.44-9.16,2.15-13.74c1.45-9.24,2.9-18.48,4.35-27.72c1.53-9.78,3.08-19.64,6.82-28.87
						c-2.74,0.36-5.48,0.72-8.22,1.07c2.08,3.05,4,6.2,5.76,9.46c0.87,1.61,1.7,3.25,2.49,4.9c0.38,0.8,0.75,1.6,1.11,2.4
						c0.17,0.37,0.33,0.74,0.49,1.12c0.08,0.19,0.16,0.37,0.24,0.56c0.21,0.47-0.22-0.54,0.1,0.24c2.78,6.73,4.96,13.68,6.61,20.77
						c0.84,3.61,1.55,7.25,2.15,10.9c0.14,0.88,0.28,1.77,0.41,2.66c0.06,0.41,0.12,0.82,0.18,1.23c0.04,0.27,0.08,0.55,0.11,0.82
						c-0.06-0.46-0.05-0.37,0,0.04c0.24,1.85,0.45,3.71,0.64,5.57c0.75,7.42,1.1,14.87,1.18,22.32c0.09,8.48-0.18,16.95-0.66,25.41
						c2.8-0.76,5.59-1.51,8.39-2.27c-0.2-0.37-0.39-0.75-0.57-1.13c-0.02-0.04-0.28-0.67-0.11-0.23c0.19,0.49-0.11-0.33-0.15-0.44
						c-0.3-0.86-0.55-1.73-0.75-2.62c-0.09-0.41-0.18-0.82-0.25-1.24c-0.04-0.21-0.07-0.42-0.11-0.63c-0.02-0.12-0.14-1-0.07-0.45
						c0.05,0.39-0.07-0.69-0.09-0.88c-0.05-0.5-0.09-0.99-0.12-1.49c-0.28-3.94-0.34-7.9-0.56-11.84
						c-0.46-8.27-1.19-16.52-2.16-24.74c-1.99-16.69-4.94-33.25-8.97-49.57c-2.25-9.12-4.82-18.16-7.71-27.1
						c-0.72-2.24-3.15-3.91-5.54-3.14C168.84,106.09,167.16,108.5,167.93,110.9L167.93,110.9z"/>
				</g>
			</g>
		</g>
		<g>
			<defs>
				<rect id="SVGID_151_" x="-4.05" y="-186.08" width="576" height="576"/>
			</defs>
			<clipPath id="SVGID_152_">
				<use xlink:href="#SVGID_151_"  style="overflow:visible;"/>
			</clipPath>
			<g class="st24">
				<g>
					<path class="st20" d="M155.21,236.85c-0.84-11.32-1.67-22.65-1.89-34.01c-0.11-5.58-0.06-11.16,0.2-16.74
						c0.13-2.81,0.32-5.62,0.58-8.43c0.12-1.32,0.26-2.64,0.41-3.96c0.08-0.7,0.17-1.39,0.26-2.09c0.09-0.78-0.08,0.58,0.02-0.2
						c0.06-0.46,0.13-0.93,0.2-1.39c0.92-6.26,2.24-12.46,4.02-18.54c0.66-2.26-0.8-5-3.14-5.54c-2.41-0.55-4.83,0.72-5.54,3.14
						c-6.49,22.16-6.72,45.52-5.44,68.4c0.36,6.45,0.83,12.9,1.31,19.34c0.17,2.34,1.94,4.61,4.5,4.5
						C153,241.24,155.4,239.36,155.21,236.85L155.21,236.85z"/>
				</g>
			</g>
		</g>
		<g>
			<defs>
				<rect id="SVGID_153_" x="-4.05" y="-186.08" width="576" height="576"/>
			</defs>
			<clipPath id="SVGID_154_">
				<use xlink:href="#SVGID_153_"  style="overflow:visible;"/>
			</clipPath>
			<g class="st25">
				<g>
					<path class="st26" d="M179.01,100.73c0.46,1.06,0.93,2.12,1.38,3.19c0.2,0.48,0.04,0.09,0-0.01c0.12,0.28,0.24,0.57,0.36,0.86
						c0.27,0.64,0.53,1.28,0.8,1.93c0.88,2.15,1.73,4.3,2.56,6.47c1.68,4.4,3.26,8.84,4.73,13.32c2.95,8.95,5.47,18.04,7.57,27.23
						c1.03,4.52,1.96,9.06,2.78,13.62c0.43,2.36,0.82,4.72,1.19,7.08c0.17,1.07,0.33,2.14,0.48,3.21c0.09,0.61,0.18,1.22,0.26,1.84
						c0.03,0.23,0.06,0.46,0.1,0.69c-0.1-0.72,0.04,0.28,0.05,0.41c1.23,9.34,2.02,18.75,2.36,28.16c0.18,4.89,0.26,9.81-0.28,14.69
						c-0.02,0.21-0.05,0.42-0.07,0.64c0.1-0.95-0.06,0.41-0.07,0.49c-0.09,0.56-0.18,1.12-0.29,1.67c-0.23,1.17-0.5,2.34-0.83,3.48
						s-0.71,2.27-1.16,3.37c0.31-0.75-0.3,0.63-0.41,0.84c-0.31,0.63-0.65,1.25-1,1.86c2.74,1.16,5.48,2.31,8.22,3.47
						c3.45-18.83,4.75-38.03,3.66-57.14c-0.3-5.32-0.79-10.63-1.45-15.92c-0.29-2.33-1.86-4.62-4.5-4.5c-2.19,0.1-4.81,2-4.5,4.5
						c2.3,18.43,2.43,37.11,0.36,55.57c-0.15,1.36-0.32,2.73-0.5,4.09c-0.03,0.24-0.06,0.48-0.09,0.72c0.08-0.6-0.04,0.28-0.07,0.48
						c-0.09,0.64-0.18,1.28-0.28,1.92c-0.39,2.64-0.83,5.26-1.31,7.88c-0.41,2.23,0.43,4.39,2.61,5.31c2.03,0.86,4.5,0.12,5.62-1.84
						c4.73-8.24,5.61-17.87,5.47-27.19c-0.14-9.57-0.87-19.15-1.99-28.65c-2.28-19.36-6.3-38.48-12.19-57.07
						c-3.36-10.61-7.33-21.01-11.79-31.21c-0.95-2.16-4.28-2.83-6.16-1.61C178.38,96.02,178,98.42,179.01,100.73L179.01,100.73z"/>
				</g>
			</g>
		</g>
		<g>
			<defs>
				<rect id="SVGID_155_" x="-4.05" y="-186.08" width="576" height="576"/>
			</defs>
			<clipPath id="SVGID_156_">
				<use xlink:href="#SVGID_155_"  style="overflow:visible;"/>
			</clipPath>
			<g class="st27">
				<g>
					<path class="st26" d="M190.83,103.37c3.37,2.78,6.52,5.81,9.44,9.06c1.41,1.57,2.76,3.2,4.06,4.86
						c0.44,0.56-0.37-0.51,0.05,0.06c0.16,0.22,0.33,0.44,0.49,0.65c0.29,0.38,0.57,0.77,0.85,1.15c0.68,0.94,1.35,1.89,2,2.86
						c2.42,3.58,4.61,7.31,6.6,11.14c1.01,1.95,1.98,3.93,2.89,5.93c0.43,0.94,0.83,1.88,1.25,2.83c0.29,0.65-0.25-0.6,0.03,0.06
						c0.11,0.25,0.21,0.51,0.32,0.76c0.23,0.57,0.47,1.14,0.69,1.72c7.32,18.48,10.76,38.2,13.83,57.75
						c0.94,5.95,1.71,10.73,2.27,16.47c0.57,5.83,0.78,11.7,0.33,17.55c-0.18,2.35,2.2,4.6,4.5,4.5c2.59-0.12,4.3-1.98,4.5-4.5
						c0.83-10.75-0.61-21.49-2.24-32.1c-1.56-10.14-3.17-20.28-5.29-30.32c-3.96-18.77-9.88-37.45-20.21-53.75
						c-5.46-8.61-12.09-16.56-19.98-23.05c-1.81-1.49-4.61-1.91-6.36,0C189.31,98.66,188.89,101.78,190.83,103.37L190.83,103.37z"/>
				</g>
			</g>
		</g>
		<g>
			<defs>
				<rect id="SVGID_157_" x="-4.05" y="-186.08" width="576" height="576"/>
			</defs>
			<clipPath id="SVGID_158_">
				<use xlink:href="#SVGID_157_"  style="overflow:visible;"/>
			</clipPath>
			<g class="st28">
				<g>
					<path class="st26" d="M198.22,104.89c-0.73-1.24-1.46-2.48-2.2-3.72c-1.2-2.03-4.11-2.94-6.16-1.61
						c-2.08,1.34-2.85,3.96-1.61,6.16c0.94,1.67,1.83,3.36,2.67,5.08c0.39,0.79,0.76,1.59,1.13,2.39c0.18,0.4,0.36,0.8,0.54,1.2
						c0.09,0.2,0.18,0.4,0.26,0.6c0.05,0.12,0.43,1.02,0.15,0.34c1.44,3.45,2.7,6.98,3.8,10.55c2.25,7.27,3.85,14.72,5.07,22.22
						c0.31,1.9,0.59,3.81,0.86,5.72c0,0.03,0.1,0.75,0.04,0.28c-0.06-0.47,0.03,0.26,0.04,0.28c0.06,0.44,0.12,0.88,0.17,1.32
						c0.12,0.96,0.24,1.91,0.35,2.87c0.47,3.99,0.87,7.99,1.22,11.99c0.75,8.44,1.28,16.91,1.59,25.38
						c0.35,9.54,0.42,19.09,0.23,28.63c-0.04,1.92,1.42,3.88,3.3,4.34c6.63,1.61,13.44,2.49,20.26,2.61c2.24,0.04,4.76-2.1,4.5-4.5
						c-3.32-30.21-8.83-60.16-16.63-89.54c-1.08-4.05-2.19-8.09-3.35-12.12c-1.17-4.08-2.47-8.11-5.46-11.26
						c-1.69-1.77-4.66-1.67-6.36,0c-3.19,3.13-2.71,7.43-1.98,11.42c0.72,3.9,1.49,7.79,2.3,11.68c1.62,7.85,3.34,15.68,4.87,23.55
						c0.74,3.81,1.43,7.63,2.04,11.47c0.15,0.96,0.3,1.92,0.44,2.88c0.07,0.48,0.14,0.96,0.21,1.44c0-0.03,0.21,1.54,0.1,0.73
						c0.27,2,0.5,4.01,0.71,6.01c0.77,7.58,1.08,15.21,0.67,22.82c-0.45,8.33-1.69,15.92-4.4,24.29c-0.9,2.77,1.51,5.75,4.34,5.7
						c3.37-0.06,6.73-0.12,10.1-0.18c1.56-0.03,3.12-0.05,4.68-0.08c1.8-0.03,3.64,0.05,5.41-0.31c1.86-0.38,3.56-1.57,4.51-3.22
						c0.99-1.7,1.07-3.71,1.21-5.62c0.22-3.04,0.24-6.09,0.1-9.14c-0.59-12.55-3.74-24.78-6.73-36.92
						c-1.7-6.9-3.34-13.82-4.44-20.85c-0.34-2.2-2.95-3.49-4.94-3.22c-2.06,0.28-4.09,2.18-3.9,4.42
						c1.47,17.82,1.49,35.74,0.03,53.56c-0.42,5.07-0.95,10.12-1.6,15.16c3,0,6,0,9,0c1.33-20.7,2.67-41.45,1.99-62.2
						c-0.19-5.92-0.55-11.83-1.11-17.73c-3,0-6,0-9,0c0.21,1.75,0.41,3.49,0.62,5.24c0.28,2.33,1.87,4.62,4.5,4.5
						c2.2-0.1,4.8-2,4.5-4.5c-0.21-1.75-0.41-3.49-0.62-5.24c-0.28-2.33-1.87-4.62-4.5-4.5c-2.25,0.1-4.74,1.99-4.5,4.5
						c1.96,20.67,1.38,41.46,0.22,62.16c-0.33,5.92-0.71,11.84-1.1,17.76c-0.15,2.35,2.18,4.6,4.5,4.5c2.7-0.12,4.18-1.99,4.5-4.5
						c2.29-17.73,3.13-35.64,2.48-53.51c-0.18-5.08-0.49-10.16-0.91-15.22c-2.95,0.4-5.89,0.8-8.84,1.2
						c1.79,11.47,5.04,22.62,7.59,33.93c0.64,2.85,1.24,5.71,1.75,8.58c0.24,1.35,0.47,2.71,0.67,4.07c0.14,0.93,0.3,2.18,0.46,3.79
						c0.29,2.87,0.46,5.76,0.47,8.65c0,1.37-0.03,2.74-0.1,4.11c-0.03,0.61-0.07,1.22-0.12,1.83c-0.03,0.36-0.07,0.73-0.1,1.09
						c-0.04,0.34-0.02,0.23,0.04-0.34c-0.12,0.41-0.12,0.44,0.02,0.1c0.63-0.66,0.23-0.76,1.48-1.26c-0.8,0.32,0.73,0.08-0.22,0.04
						c-0.77-0.03-1.56,0.03-2.33,0.04c-1.72,0.03-3.45,0.06-5.17,0.09c-3.53,0.06-7.06,0.12-10.59,0.19c1.45,1.9,2.89,3.8,4.34,5.7
						c9.7-29.96,3.01-61.66-3.29-91.55c-0.9-4.28-1.8-8.56-2.64-12.85c-0.43-2.18-0.8-4.37-1.23-6.54c-0.22-1.14,0.01,0.97-0.02-0.2
						c-0.01-0.26-0.2-1.2-0.02-1.4c-0.03,0.17-0.06,0.35-0.08,0.52c0.04-0.22,0.09-0.43,0.15-0.64c-0.27,0.56-0.29,0.63-0.06,0.19
						c-0.4,0.46-0.42,0.52-0.07,0.16c-2.12,0-4.24,0-6.36,0c0.07,0.08,0.9,1.09,0.34,0.32c0.24,0.32,0.45,0.67,0.66,1.01
						c0.2,0.35,0.38,0.72,0.57,1.07c0.07,0.14,0.34,0.79,0.04,0.05c0.63,1.57,1.08,3.2,1.55,4.83c1.03,3.56,2.02,7.13,2.98,10.72
						c1.9,7.08,3.67,14.2,5.3,21.35c3.27,14.3,6.02,28.72,8.24,43.22c1.27,8.33,2.2,15.43,3.14,23.97c1.5-1.5,3-3,4.5-4.5
						c-3.13-0.05-6.26-0.26-9.36-0.65c-0.28-0.04-0.32-0.04-0.12-0.01c0.28,0.04,0.16,0.02-0.36-0.05
						c-0.32-0.05-0.64-0.09-0.95-0.14c-0.79-0.12-1.58-0.26-2.37-0.41c-1.58-0.29-3.15-0.64-4.71-1.02c1.1,1.45,2.2,2.89,3.3,4.34
						c0.35-17.2-0.18-34.41-1.61-51.55c-1.33-15.87-3.16-31.88-7.59-47.22c-2.47-8.54-5.8-16.89-10.16-24.64
						c-2.59,1.51-5.18,3.03-7.77,4.54c0.73,1.24,1.46,2.48,2.2,3.72c1.2,2.03,4.11,2.94,6.16,1.61
						C198.65,109.73,199.5,107.06,198.22,104.89L198.22,104.89z"/>
				</g>
			</g>
		</g>
		<g>
			<defs>
				<rect id="SVGID_159_" x="-4.05" y="-186.08" width="576" height="576"/>
			</defs>
			<clipPath id="SVGID_160_">
				<use xlink:href="#SVGID_159_"  style="overflow:visible;"/>
			</clipPath>
			<g class="st29">
				<g>
					<path class="st26" d="M176.86,103.15c0.44,1.01,0.87,2.01,1.3,3.02c0.06,0.15,0.5,1.18,0.28,0.66
						c0.24,0.58,0.48,1.16,0.73,1.74c0.84,2.03,1.67,4.06,2.47,6.1c1.64,4.16,3.2,8.34,4.68,12.56c2.92,8.35,5.49,16.83,7.62,25.42
						c1.05,4.25,2,8.54,2.83,12.84c0.42,2.19,0.81,4.38,1.16,6.58c0.18,1.11,0.35,2.23,0.51,3.34c0.07,0.48,0.14,0.96,0.2,1.44
						c0.01,0.08,0.12,0.88,0.03,0.24c0.04,0.32,0.08,0.64,0.12,0.96c1.15,9.03,1.73,18.14,1.65,27.24
						c-0.05,5.07-0.3,10.13-0.78,15.18c-0.12,1.28-0.26,2.56-0.41,3.84c-0.08,0.64-0.15,1.28-0.24,1.92c0-0.01-0.1,0.77-0.05,0.36
						c0.05-0.35-0.12,0.85-0.12,0.84c-0.37,2.55-0.8,5.09-1.29,7.62c-0.44,2.3,0.65,4.97,3.14,5.54c2.22,0.51,5.06-0.67,5.54-3.14
						c3.54-18.45,4.04-37.35,1.96-56.01c-2.04-18.3-6.31-36.26-12.21-53.69c-3.34-9.87-7.2-19.56-11.35-29.12
						c-0.94-2.17-4.28-2.82-6.16-1.61C176.22,98.44,175.85,100.83,176.86,103.15L176.86,103.15z"/>
				</g>
			</g>
		</g>
		<g>
			<defs>
				<rect id="SVGID_161_" x="-4.05" y="-186.08" width="576" height="576"/>
			</defs>
			<clipPath id="SVGID_162_">
				<use xlink:href="#SVGID_161_"  style="overflow:visible;"/>
			</clipPath>
			<g class="st30">
				<g>
					<path class="st31" d="M199.82,103.41c0.7,0.84,1.4,1.69,2.08,2.55c0.17,0.21,0.34,0.43,0.51,0.64
						c-0.04-0.05,0.79,1.01,0.41,0.52c-0.32-0.41,0.21,0.27,0.27,0.36c0.21,0.27,0.41,0.54,0.62,0.82c1.39,1.86,2.74,3.75,4.05,5.67
						c2.6,3.84,5.02,7.8,7.27,11.85c2.21,4,4.25,8.1,6.11,12.27c0.47,1.06,0.94,2.12,1.39,3.19c-0.35-0.82,0.27,0.65,0.34,0.82
						c0.23,0.57,0.46,1.14,0.69,1.71c0.86,2.16,1.68,4.34,2.46,6.54c3.11,8.76,5.56,17.75,7.44,26.85c0.95,4.6,1.76,9.24,2.43,13.89
						c0.08,0.55,0.16,1.1,0.23,1.64c0.02,0.16,0.11,0.89,0.01,0.04c0.04,0.27,0.07,0.55,0.11,0.82c0.16,1.23,0.31,2.47,0.45,3.71
						c0.26,2.34,0.5,4.67,0.69,7.02c0.44,5.19,0.73,10.39,0.87,15.59c0.07,2.9,0.08,5.81-0.16,8.71c-0.06,0.68-0.12,1.36-0.21,2.04
						c0.1-0.72-0.01,0.04-0.03,0.16c-0.08,0.45-0.15,0.9-0.24,1.34c-0.3,1.49-0.69,2.95-1.19,4.39c-0.76,2.23,0.87,5.02,3.14,5.54
						c2.5,0.57,4.72-0.76,5.54-3.14c1.81-5.28,2.23-10.96,2.19-16.51c-0.03-4.87-0.29-9.75-0.63-14.6
						c-0.7-9.78-1.93-19.53-3.75-29.16c-3.57-18.91-9.58-37.46-18.55-54.52c-5.08-9.66-11.18-18.73-18.17-27.12
						c-1.51-1.82-4.82-1.68-6.36,0C198.04,98.97,198.2,101.47,199.82,103.41L199.82,103.41z"/>
				</g>
			</g>
		</g>
		<g>
			<defs>
				<rect id="SVGID_163_" x="-4.05" y="-186.08" width="576" height="576"/>
			</defs>
			<clipPath id="SVGID_164_">
				<use xlink:href="#SVGID_163_"  style="overflow:visible;"/>
			</clipPath>
			<g class="st32">
				<g>
					<path class="st33" d="M249.21,233.04c7.5,0,14.99,0.01,22.49,0.01c2.23,0,4.78-2.07,4.5-4.5c-1.06-9.23-1.62-18.51-1.7-27.8
						c-0.04-4.77-0.11-9.51-0.84-14.23c-0.68-4.42-2.24-8.61-3.97-12.72c-3.44-8.17-6.92-16.4-11.27-24.14
						c-4.33-7.71-9.78-14.63-15.95-20.94c-6.97-7.14-14.46-13.77-21.76-20.56c-1.46,2.51-2.92,5.01-4.38,7.52
						c2.29,0.79,4.57,1.58,6.84,2.43c1.07,0.4,2.13,0.81,3.19,1.23c0.26,0.11,0.53,0.21,0.79,0.32c0.03,0.01,0.68,0.28,0.25,0.1
						c-0.47-0.2,0.34,0.15,0.44,0.19c0.33,0.14,0.65,0.28,0.97,0.43c2.19,0.99,4.34,2.07,6.4,3.29c0.97,0.57,1.92,1.18,2.84,1.81
						c0.46,0.32,0.92,0.65,1.37,0.98c0.11,0.08,0.66,0.53,0.09,0.07c0.27,0.22,0.55,0.44,0.82,0.67c1.71,1.43,3.3,3.02,4.75,4.71
						c0.35,0.41,0.69,0.82,1.02,1.24c0.1,0.12,0.51,0.68,0.04,0.04c0.16,0.21,0.32,0.43,0.48,0.64c0.67,0.92,1.31,1.86,1.92,2.82
						c1.2,1.88,2.28,3.82,3.27,5.81c0.49,0.97,0.95,1.95,1.4,2.95c0.22,0.5,0.44,1,0.66,1.5c0.35,0.81,0.1,0.23,0.03,0.06
						c0.16,0.38,0.31,0.76,0.47,1.14c3.7,9.14,6.67,18.67,9.28,28.18c1.39,5.06,2.61,10.17,3.56,15.33c0.23,1.25,0.45,2.5,0.64,3.76
						c0.1,0.63,0.19,1.26,0.28,1.88c0.05,0.31,0.09,0.63,0.13,0.94c-0.1-0.75,0.09,0.7,0.08,0.69c0.29,2.35,0.57,4.72,0.59,7.09
						c0.01,0.69-0.03,1.37-0.07,2.06c-0.01,0.19-0.15,0.86,0.01,0.02c-0.06,0.33-0.12,0.66-0.2,0.99c-0.06,0.26-0.13,0.52-0.21,0.77
						c-0.11,0.34-0.32,0.82-0.05,0.24c-0.12,0.24-0.24,0.48-0.37,0.72c-0.07,0.12-0.8,1.16-0.15,0.34
						c-0.34,0.43-0.73,0.82-1.13,1.18c-0.1,0.09-0.71,0.56-0.25,0.23c0.5-0.36-0.35,0.22-0.45,0.28c-0.53,0.33-1.08,0.61-1.63,0.9
						c-0.17,0.09-0.79,0.34,0.04,0c-0.29,0.12-0.59,0.23-0.88,0.34c-5.14,1.84-10.64,2.04-15.47,4.81
						c-1.66,0.95-2.67,3.21-2.07,5.08c0.65,2.02,2.28,3.11,4.34,3.3c6.06,0.57,12.12,1.13,18.18,1.7c2.36,0.22,4.6-2.24,4.5-4.5
						c-0.71-16.87-1.47-33.91-5.48-50.39c-3.41-14.03-9.43-27.46-18.72-38.61c-4.99-5.99-11.05-11.16-17.85-15
						c-3.43-1.94-7.6,1.26-6.61,5.08c3.18,12.21,6.53,24.38,10.05,36.5c1.79,6.14,3.62,12.26,5.49,18.37
						c1.79,5.84,3.72,11.66,5.21,17.59c0.43,1.7,0.81,3.41,1.14,5.13c0.16,0.86,0.31,1.72,0.45,2.58c0.03,0.17,0.17,1.17,0.07,0.45
						c0.06,0.47,0.12,0.94,0.17,1.41c0.36,3.46,0.39,6.93,0.02,10.39c1.9-1.45,3.8-2.89,5.7-4.34c0.59,0.2,1.06,0.54,1.39,1.02
						c0.19,0.2,0.32,0.44,0.38,0.71c0.02,0.01-0.47-1.61-0.09-0.08c-0.21-0.83-0.17-1.81-0.25-2.67c-0.17-1.86-0.35-3.72-0.52-5.58
						c-0.35-3.72-0.7-7.44-1.05-11.17c-2.8,0.76-5.59,1.51-8.39,2.27c3.55,7.06,7.98,13.61,13.07,19.64c1.59,1.88,4.73,1.58,6.36,0
						c0.91-0.87,1.85-1.72,2.73-2.63c1.06-1.11,1.61-2.38,1.4-3.93c-0.12-0.91-0.34-1.79-0.53-2.69c-0.57-2.63-1.14-5.26-1.73-7.89
						c-1.2-5.33-2.45-10.65-3.88-15.92c-2.92-10.84-6.74-21.33-11.39-31.55c-2.59-5.68-5.37-11.27-8.15-16.85
						c-2.05,2.05-4.1,4.1-6.16,6.16c0.16,0.12,0.33,0.24,0.49,0.35c0.58,0.38-0.48-0.42,0.05,0.03c0.31,0.26,0.62,0.51,0.92,0.78
						c0.75,0.66,1.47,1.37,2.15,2.1c0.59,0.64,1.14,1.32,1.7,1.98c0.33,0.39-0.03-0.05-0.08-0.11c0.16,0.21,0.32,0.43,0.48,0.65
						c0.28,0.38,0.55,0.77,0.82,1.16c2.17,3.15,4.03,6.51,5.84,9.87c0.2,0.38,0.4,0.76,0.6,1.14c0.1,0.2,0.58,1.38,0.33,0.68
						c0.14,0.4,0.29,0.8,0.41,1.21c0.08,0.27,0.14,0.55,0.2,0.83c0.05,0.24,0.06,0.62,0.03,0.17c0.17,2.22-0.25,4.45-0.45,6.65
						c-0.39,4.34-0.39,8.71-0.02,13.04c0.44,5.21,1.34,10.39,2.76,15.42c2.89-0.8,5.79-1.6,8.68-2.39
						c-4.94-13.31-9.06-26.92-12.31-40.74c-2.74,1.16-5.48,2.31-8.22,3.47c2.14,4.51,3.66,8.21,5.34,13.18
						c1.6,4.71,2.91,9.52,3.96,14.38c0.5,2.3,3.31,3.86,5.54,3.14c2.43-0.79,3.67-3.07,3.14-5.54c-2.21-10.28-5.69-20.22-10.2-29.71
						c-0.96-2.02-3.72-2.64-5.62-1.84c-2.1,0.88-3.13,3.1-2.61,5.31c3.26,13.82,7.37,27.43,12.31,40.74
						c0.82,2.2,3.08,3.94,5.54,3.14c2.31-0.75,3.83-3.11,3.14-5.54c-0.62-2.21-1.15-4.44-1.58-6.7c-0.2-1.09-0.39-2.18-0.54-3.28
						c-0.07-0.53-0.01-0.08,0,0.02c-0.04-0.31-0.08-0.63-0.11-0.94c-0.07-0.63-0.13-1.26-0.19-1.89c-0.39-4.49-0.39-9.02,0.03-13.52
						c0.21-2.29,0.64-4.59,0.38-6.89c-0.29-2.64-1.14-4.98-2.35-7.34c-1.78-3.46-3.72-6.9-5.9-10.13
						c-2.79-4.14-6.01-7.78-10.11-10.67c-1.56-1.1-4.19-0.67-5.45,0.7c-1.42,1.55-1.63,3.59-0.7,5.45
						c2.25,4.51,4.49,9.03,6.64,13.59c1.09,2.32,2.15,4.64,3.17,6.99c0.22,0.51,0.45,1.03,0.67,1.54c0.36,0.85,0.19,0.44,0.11,0.25
						c0.12,0.29,0.25,0.59,0.37,0.89c0.49,1.18,0.96,2.37,1.43,3.56c3.6,9.31,6.28,18.94,8.59,28.64
						c1.32,5.55,2.53,11.12,3.73,16.69c0.39-1.46,0.77-2.92,1.16-4.38c-0.96,0.93-1.92,1.86-2.89,2.78c2.12,0,4.24,0,6.36,0
						c-4.29-5.08-8.38-11.29-11.67-17.82c-0.85-1.7-3.29-2.65-5.08-2.07c-1.77,0.57-3.49,2.33-3.3,4.34
						c0.42,4.53,0.85,9.06,1.27,13.59c0.41,4.38-0.11,11.59,5.46,12.85c3.09,0.7,5.37-1.37,5.7-4.34
						c1.38-12.72-2.8-25.15-6.51-37.13c-3.78-12.21-7.38-24.48-10.79-36.8c-1.93-6.95-3.8-13.91-5.62-20.89
						c-2.2,1.69-4.41,3.39-6.61,5.08c1.44,0.81,2.85,1.68,4.22,2.62c0.63,0.43,1.25,0.87,1.86,1.33c0.25,0.18,0.9,0.7,0.3,0.22
						c0.35,0.28,0.69,0.55,1.04,0.83c2.5,2.05,4.83,4.31,6.99,6.72c0.51,0.57,1.01,1.15,1.5,1.73c0.29,0.34,0.57,0.69,0.85,1.03
						c0.18,0.22,0.87,1.11,0.36,0.44c0.97,1.27,1.9,2.57,2.8,3.9c1.83,2.72,3.48,5.56,4.97,8.48c0.76,1.49,1.48,3.01,2.16,4.54
						c0.16,0.35,0.31,0.71,0.46,1.06c-0.31-0.72,0.03,0.07,0.14,0.35c0.32,0.78,0.62,1.55,0.92,2.34c1.25,3.31,2.31,6.69,3.22,10.11
						c1.05,3.96,1.9,7.97,2.59,12.01c0.16,0.93,0.31,1.87,0.45,2.8c0.07,0.47,0.14,0.94,0.21,1.4c0.03,0.23,0.07,0.47,0.1,0.7
						c0.01,0.08,0.13,0.93,0.08,0.57c-0.06-0.43,0.04,0.34,0.04,0.34c0.03,0.24,0.06,0.47,0.09,0.71c0.06,0.47,0.12,0.94,0.17,1.41
						c0.13,1.1,0.25,2.2,0.36,3.3c0.93,9.06,1.32,18.17,1.7,27.26c1.5-1.5,3-3,4.5-4.5c-6.06-0.57-12.12-1.13-18.18-1.7
						c0.76,2.8,1.51,5.59,2.27,8.39c0.25-0.14,0.49-0.28,0.74-0.41c-0.06,0.03,1.18-0.56,0.61-0.31c-0.47,0.21,0.33-0.12,0.44-0.16
						c0.26-0.1,0.53-0.19,0.8-0.28c1.21-0.39,2.46-0.7,3.7-0.97c2.3-0.51,4.63-0.93,6.85-1.71c5.26-1.84,9.76-5.2,11.38-10.76
						c1.56-5.33,0.42-11.32-0.33-16.7c-0.77-5.51-1.89-10.96-3.23-16.36c-2.55-10.28-5.75-20.49-9.49-30.4
						c-3.48-9.22-7.85-18.33-14.91-25.38c-8.36-8.35-19.62-12.42-30.56-16.2c-4.26-1.47-7.59,4.54-4.38,7.52
						c6.43,5.97,12.96,11.86,19.22,18.01c2.94,2.89,5.8,5.88,8.46,9.04c0.68,0.8,1.34,1.62,1.99,2.44c0.32,0.4,0.04,0.06-0.02-0.02
						c0.14,0.18,0.27,0.36,0.41,0.54c0.36,0.48,0.72,0.97,1.06,1.45c1.23,1.72,2.38,3.49,3.48,5.29
						c4.39,7.24,7.79,15.03,11.15,22.79c0.4,0.92,0.8,1.85,1.19,2.78c-0.04-0.1-0.2-0.47,0,0c0.12,0.29,0.24,0.58,0.36,0.87
						c0.21,0.51,0.41,1.01,0.61,1.52c0.79,2.03,1.5,4.1,2.03,6.22c1.01,4.03,1.14,7.83,1.19,12.45c0.11,10.26,0.56,20.46,1.73,30.66
						c1.5-1.5,3-3,4.5-4.5c-7.5,0-14.99-0.01-22.49-0.01c-2.35,0-4.61,2.07-4.5,4.5C244.82,230.98,246.68,233.04,249.21,233.04
						L249.21,233.04z"/>
				</g>
			</g>
		</g>
		<g>
			<defs>
				<rect id="SVGID_165_" x="-4.05" y="-186.08" width="576" height="576"/>
			</defs>
			<clipPath id="SVGID_166_">
				<use xlink:href="#SVGID_165_"  style="overflow:visible;"/>
			</clipPath>
		</g>
		<g>
			<defs>
				<rect id="SVGID_167_" x="-4.05" y="-186.08" width="576" height="576"/>
			</defs>
			<clipPath id="SVGID_168_">
				<use xlink:href="#SVGID_167_"  style="overflow:visible;"/>
			</clipPath>
		</g>
		<g>
			<defs>
				<rect id="SVGID_169_" x="-4.05" y="-186.08" width="576" height="576"/>
			</defs>
			<clipPath id="SVGID_170_">
				<use xlink:href="#SVGID_169_"  style="overflow:visible;"/>
			</clipPath>
		</g>
		<g>
			<defs>
				<rect id="SVGID_171_" x="-4.05" y="-186.08" width="576" height="576"/>
			</defs>
			<clipPath id="SVGID_172_">
				<use xlink:href="#SVGID_171_"  style="overflow:visible;"/>
			</clipPath>
		</g>
		<g>
			<defs>
				<rect id="SVGID_173_" x="-4.05" y="-186.08" width="576" height="576"/>
			</defs>
			<clipPath id="SVGID_174_">
				<use xlink:href="#SVGID_173_"  style="overflow:visible;"/>
			</clipPath>
			<g class="st34">
				<g>
					<path class="st35" d="M-12.35,201.46c0.2-2.3,0.43-4.59,0.67-6.88c-0.21,0.15-0.42,0.33-0.61,0.53
						c-1.41,1.54-1.64,3.6-0.7,5.45C-12.83,200.86-12.6,201.16-12.35,201.46z"/>
				</g>
			</g>
		</g>
		<g>
			<defs>
				<rect id="SVGID_175_" x="-4.05" y="-186.08" width="576" height="576"/>
			</defs>
			<clipPath id="SVGID_176_">
				<use xlink:href="#SVGID_175_"  style="overflow:visible;"/>
			</clipPath>
		</g>
		<g>
			<defs>
				<rect id="SVGID_177_" x="-4.05" y="-186.08" width="576" height="576"/>
			</defs>
			<clipPath id="SVGID_178_">
				<use xlink:href="#SVGID_177_"  style="overflow:visible;"/>
			</clipPath>
		</g>
		<g>
			<defs>
				<rect id="SVGID_179_" x="-4.05" y="-186.08" width="576" height="576"/>
			</defs>
			<clipPath id="SVGID_180_">
				<use xlink:href="#SVGID_179_"  style="overflow:visible;"/>
			</clipPath>
			<g class="st36">
				<g>
					<path class="st35" d="M-12.76,206.49c0.02-0.23,0.04-0.47,0.06-0.7c-0.28,0.33-0.52,0.67-0.71,1.03
						c-0.92,1.74-1.38,3.85-0.76,5.78c0.26,0.75,0.58,1.39,0.98,1.97C-13.08,211.87-12.95,209.18-12.76,206.49z"/>
				</g>
			</g>
		</g>
		<g>
			<defs>
				<rect id="SVGID_181_" x="-4.05" y="-186.08" width="576" height="576"/>
			</defs>
			<clipPath id="SVGID_182_">
				<use xlink:href="#SVGID_181_"  style="overflow:visible;"/>
			</clipPath>
		</g>
		<g>
			<defs>
				<rect id="SVGID_183_" x="-4.05" y="-186.08" width="576" height="576"/>
			</defs>
			<clipPath id="SVGID_184_">
				<use xlink:href="#SVGID_183_"  style="overflow:visible;"/>
			</clipPath>
		</g>
		<g>
			<defs>
				<rect id="SVGID_185_" x="-4.05" y="-186.08" width="576" height="576"/>
			</defs>
			<clipPath id="SVGID_186_">
				<use xlink:href="#SVGID_185_"  style="overflow:visible;"/>
			</clipPath>
		</g>
		<g>
			<defs>
				<rect id="SVGID_187_" x="-4.05" y="-186.08" width="576" height="576"/>
			</defs>
			<clipPath id="SVGID_188_">
				<use xlink:href="#SVGID_187_"  style="overflow:visible;"/>
			</clipPath>
		</g>
		<g>
			<defs>
				<rect id="SVGID_189_" x="-4.05" y="-186.08" width="576" height="576"/>
			</defs>
			<clipPath id="SVGID_190_">
				<use xlink:href="#SVGID_189_"  style="overflow:visible;"/>
			</clipPath>
		</g>
		<g>
			<defs>
				<rect id="SVGID_191_" x="-4.05" y="-186.08" width="576" height="576"/>
			</defs>
			<clipPath id="SVGID_192_">
				<use xlink:href="#SVGID_191_"  style="overflow:visible;"/>
			</clipPath>
		</g>
		<g>
			<defs>
				<rect id="SVGID_193_" x="-4.05" y="-186.08" width="576" height="576"/>
			</defs>
			<clipPath id="SVGID_194_">
				<use xlink:href="#SVGID_193_"  style="overflow:visible;"/>
			</clipPath>
		</g>
		<g>
			<defs>
				<rect id="SVGID_195_" x="-4.05" y="-186.08" width="576" height="576"/>
			</defs>
			<clipPath id="SVGID_196_">
				<use xlink:href="#SVGID_195_"  style="overflow:visible;"/>
			</clipPath>
		</g>
		<g>
			<defs>
				<rect id="SVGID_197_" x="-4.05" y="-186.08" width="576" height="576"/>
			</defs>
			<clipPath id="SVGID_198_">
				<use xlink:href="#SVGID_197_"  style="overflow:visible;"/>
			</clipPath>
		</g>
		<ellipse class="st20" cx="170.44" cy="218.25" rx="1.25" ry="2.45"/>
	</g>
	<g id="Layer_1_1_">
		<g>
			<rect x="-0.3" y="12.19" class="st37" width="351.22" height="294.53"/>
			<text transform="matrix(4.489659e-11 -1 1 4.489659e-11 305.6606 306.7236)" class="st38 st39 st40">D</text>
		</g>
		<path class="st37" d="M549.24,248.48c-0.13-3.02-0.27-6.03-0.41-9.05c-0.9-0.58-1.58-1.49-1.8-2.77
			c-0.47-2.76-0.87-5.51-1.22-8.27c-2.09-10.6-6.09-20.81-7.58-31.6c-1.35-9.82-1.69-19.69-1.36-29.57H317.87v110.49h237.35v-24.46
			C552.51,253.64,549.4,252.05,549.24,248.48z"/>
		<text transform="matrix(1 0 0 1 317.8722 265.3512)" class="st38 st39 st41">ome</text>
		<g>
			<g>
				<path class="st20" d="M165.53,212.23c-1.89-0.01-3.78-0.02-5.67-0.03c-1.05,0-2.07-0.02-3.11,0.12
					c-0.59,0.08-1.13,0.15-1.69,0.36c-0.72,0.27-1.33,0.61-2.02,0.93c0.36-0.15,0.72-0.3,1.07-0.45c-0.16,0.07-0.31,0.11-0.49,0.15
					c0.4-0.05,0.8-0.11,1.2-0.16c-0.11,0.02-0.22,0.02-0.34,0.01c-2.35-0.12-4.61,2.15-4.5,4.5c0.11,2.54,1.98,4.37,4.5,4.5
					c1.5,0.07,2.73-0.64,4.04-1.25c-0.36,0.15-0.72,0.3-1.07,0.45c0.36-0.14,0.71-0.23,1.09-0.28c-0.4,0.05-0.8,0.11-1.2,0.16
					c1.32-0.13,2.68-0.04,4.01-0.04c1.39,0.01,2.78,0.01,4.18,0.02c1.15,0.01,2.37-0.51,3.18-1.32c0.78-0.78,1.37-2.06,1.32-3.18
					C169.92,214.28,168.05,212.24,165.53,212.23L165.53,212.23z"/>
			</g>
		</g>
	</g>
	<circle class="st26" cx="219.87" cy="145.45" r="0.69"/>
</g>
</svg>
