<?xml version="1.0" encoding="utf-8"?>
<!-- Generator: Adobe Illustrator 23.0.6, SVG Export Plug-In . SVG Version: 6.00 Build 0)  -->
<svg version="1.1" id="Layer_1" xmlns="http://www.w3.org/2000/svg" xmlns:xlink="http://www.w3.org/1999/xlink" x="0px" y="0px"
	 viewBox="0 0 720 720" style="enable-background:new 0 0 720 720;" xml:space="preserve">
<style type="text/css">
	.st0{fill:#5D8C98;}
	.st1{fill:#48642C;}
</style>
<circle class="st0" cx="360" cy="360.9" r="206.62"/>
<g>
	<g>
		<path class="st1" d="M290.01,169.93c2.48,6.2,8,9.79,13.43,13.21c4.34,2.73,10.42,6.01,10.79,11.78c0.24-0.59,0.49-1.18,0.73-1.77
			c-9.34,9.91-24.92,7.52-36.91,11.15c-6.14,1.86-11.66,5.22-15.06,10.79c-3.07,5.03-3.89,11.17-1.11,16.49
			c0.41,0.78,1.31,1.22,2.16,1.24c7.85,0.18,15.75-0.88,23.26-3.22c3.49-1.09,6.76-2.81,10.25-3.85c1.5-0.45,3.08-0.73,4.39,0.34
			c1.33,1.1,2.24,3.01,3.18,4.44c3.49,5.27,7.96,10.81,8.86,17.29c0.31,2.23,0.07,4.71-1.66,6.33c-2.4,2.25-6.31,2.27-9.39,2.74
			c-15.06,2.27-30.49,6.28-44.23,12.99c-6.21,3.04-11.81,7.11-16.03,12.64c-3.84,5.02-6.41,10.92-8,17.02
			c-1.83,7.02-2.44,14.38-2.28,21.62c0.14,6.23,1.27,14.24-3.84,18.92c1.42,0.59,2.85,1.18,4.27,1.77
			c0.22-11.99-7.73-23.28-18.96-27.38c-1.38-0.5-2.88-1.14-4.3-0.47c-1.62,0.75-3.18,1.99-4.68,2.96c-2.81,1.83-5.55,3.78-8.11,5.95
			c-5.14,4.36-9.4,9.9-11.16,16.5c-1.72,6.46-0.7,13.11,3.34,18.48c4.11,5.47,9.6,9.82,13.96,15.11c4.32,5.24,8.06,10.97,11.2,16.98
			c1.6,3.06,3.05,6.19,4.31,9.4c1.14,2.9,1.85,6.2,3.52,8.86c1.71,2.73,4.53,4.26,7.77,3.98c3.42-0.29,6.52-2.02,9.81-2.85
			c6.03-1.53,12.44-1.39,18.42,0.26c6.18,1.7,11.61,4.97,16.12,9.5c4.4,4.42,8,9.56,12.35,14.03c4.71,4.85,10.21,8.25,16.69,10.24
			c6.45,1.98,13.21,2.7,19.61,4.86c5.57,1.88,11.23,5.01,13.95,10.47c2.91,5.84,1.32,12.8-1.4,18.39
			c-5.84,11.98-17.47,20.03-22.31,32.64c-4.85,12.63,1.05,27.71-6.45,39.5c-1.48,2.33-3.48,4.09-5.98,5.26c0.84,0,1.68,0,2.52,0
			c-15.29-10.51-20.48-29.93-24.12-47.09c-1.06-5-1.77-10.17-3.9-14.86c-1.75-3.85-4.57-6.99-7.95-9.49
			c-6.51-4.82-14.55-6.9-21.81-10.27c-3.62-1.68-7.14-3.66-10.02-6.45c-3.12-3.02-5.42-6.8-6.93-10.86
			c-3.22-8.62-3.61-17.99-3.6-27.1c0-2.32,0.11-4.68-0.36-6.97c-0.57-2.77-2.18-4.88-4.22-6.75c-1.69-1.55-3.28-3.02-4.49-4.99
			c-1.42-2.31-2.42-4.84-3.41-7.36c-1.85-4.69-3.99-9.14-6.84-13.32c-2.76-4.06-5.9-7.84-9.08-11.57c-3.6-4.22-7.3-8.38-10.54-12.89
			c-3.23-4.51-5.57-10.03-9.98-13.56c-2.22-1.78-4.82-2.82-7.25-4.24c-2.31-1.35-4.02-3.16-5.18-5.57
			c-2.15-4.47-2.25-9.75-2.33-14.61c-0.05-3.21-5.05-3.22-5,0c0.08,4.94,0.28,10.12,2.02,14.8c1.93,5.19,5.4,8.42,10.25,10.92
			c2.52,1.29,4.79,2.62,6.59,4.85c1.71,2.11,2.98,4.55,4.44,6.83c3,4.67,6.56,8.97,10.16,13.18c3.59,4.21,7.29,8.35,10.51,12.86
			c3.26,4.55,5.7,9.35,7.75,14.53c2.07,5.23,4.4,9.67,8.61,13.47c2.41,2.18,3.31,4.08,3.36,7.36c0.04,2.55-0.02,5.09,0.04,7.64
			c0.24,9.99,1.33,20.52,6.27,29.41c4.78,8.61,12.77,13.2,21.6,16.81c7.7,3.15,17.15,5.9,21.79,13.4
			c2.91,4.71,3.51,10.52,4.64,15.84c1.06,5.02,2.23,10.02,3.69,14.93c2.86,9.6,6.85,19.03,13.28,26.8c1.53,1.84,3.19,3.57,5,5.15
			c1.52,1.33,4.22,4.26,6.43,3.72c2.17-0.52,4.45-2.55,5.92-4.12c1.58-1.69,2.87-3.66,3.85-5.75c2.16-4.64,3.03-9.65,3.24-14.74
			c0.27-6.41-0.37-12.98,1.07-19.29c2.48-10.89,11.29-18.65,17.82-27.2c6.44-8.43,11.68-20.18,7.14-30.65
			c-4.24-9.79-15.13-13.71-24.79-15.85c-5.67-1.25-11.58-2.17-16.89-4.61c-4.89-2.25-8.74-5.85-12.26-9.85
			c-3.47-3.94-6.62-8.16-10.37-11.85c-3.72-3.66-8.03-6.58-12.84-8.6c-10.03-4.21-20.96-4.13-31.1-0.4
			c-2.32,0.85-5.32,2.07-6.98-0.46c-1.41-2.15-1.97-4.98-2.89-7.36c-2.03-5.23-4.45-10.3-7.28-15.14c-2.89-4.93-6.2-9.6-9.84-14
			c-3.65-4.4-7.93-8.15-11.73-12.4c-3.77-4.21-5.55-9.26-4.36-14.88c1.15-5.43,4.25-9.99,8.24-13.77c4.1-3.89,8.93-6.87,13.7-9.85
			c-0.64,0.08-1.28,0.17-1.93,0.25c10.33,2.69,17.85,12.62,17.66,23.29c-0.04,2.25,2.72,3.19,4.27,1.77
			c4.91-4.5,5.54-11.37,5.44-17.65c-0.11-6.77-0.28-13.46,0.9-20.17c1.14-6.5,3.23-12.87,6.89-18.4c4.05-6.13,9.95-10.35,16.5-13.47
			c7.29-3.48,15.13-5.98,22.92-8.1c7.84-2.13,15.74-3.29,23.71-4.73c6.41-1.15,11.02-5.66,10.6-12.44
			c-0.42-6.72-4.19-12.45-7.8-17.88c-2.23-3.37-4.43-8.33-8.43-9.88c-3.93-1.52-7.87,0.5-11.47,1.96
			c-8.68,3.53-17.96,5.19-27.32,4.97c0.72,0.41,1.44,0.83,2.16,1.24c-3.52-6.75,1.95-14.53,7.82-17.74c7.87-4.3,17.3-4.11,25.9-5.72
			c4-0.75,7.95-1.87,11.59-3.71c1.74-0.88,3.37-1.96,4.88-3.2c1.7-1.41,3.03-2.56,2.74-4.91c-0.73-5.94-5.34-9.85-10.04-12.97
			c-4.94-3.29-11.89-6.33-14.25-12.21C293.65,165.65,288.81,166.94,290.01,169.93L290.01,169.93z"/>
	</g>
</g>
<g>
	<g>
		<path class="st1" d="M199.62,326.89c4.9-2.49,10.96-1.45,15.39,1.75c2.06,1.49,3.82,3.63,4.7,6.01c1.31,3.54,1.57,7.62,4.35,10.45
			c2.75,2.79,7.53,3.78,10.51,0.81c2.28-2.27-1.25-5.81-3.54-3.54c-0.52,0.52-1.18,0.52-2.13,0.11c-1.33-0.58-2.05-1.72-2.56-3.03
			c-1.28-3.25-1.62-6.71-3.55-9.71c-3.42-5.3-9.31-8.53-15.53-9.14c-3.51-0.34-7.04,0.37-10.17,1.97
			C194.23,324.03,196.76,328.34,199.62,326.89L199.62,326.89z"/>
	</g>
</g>
<g>
	<g>
		<path class="st1" d="M340.54,168.93c1.64-0.32,3.32,0.75,4.72,1.59c1.92,1.16,3.79,2.42,5.95,3.12c2.67,0.86,5.42,0.47,8.13,0.1
			c2.6-0.36,4.95-0.3,7.46,0.55c2.26,0.76,4.82,1.87,6.75,3.29c0.2,0.15-0.04-0.07-0.02-0.22c-0.11,0.74,0.06,0.02-0.09,0.49
			c-0.14,0.44-0.47,0.86-0.72,1.24c-0.64,0.94-1.42,1.77-2.06,2.7c-2.51,3.65-3.26,8.14-3.71,12.45c-0.43,4.15-0.48,8.39-1.74,12.4
			c-0.55,1.75-1.38,3.67-2.77,4.91c-0.39,0.35-1.18,0.99-1.72,0.82c-0.74-0.23-1.25-1.72-1.52-2.36c-0.98-2.38-0.93-4.63-1.03-7.14
			c-0.12-2.94-1.56-4.85-4.12-6.17c-3.35-1.73-6.22-4.14-8.35-7.26c-4.74-6.94-6.14-16.35-2.37-24c0.6-1.21,0.33-2.71-0.9-3.42
			c-1.1-0.64-2.82-0.32-3.42,0.9c-4.15,8.43-3.53,18.48,0.92,26.67c2.18,4.02,5.33,7.51,9.15,10.03c0.89,0.59,1.83,1.07,2.78,1.57
			c1.17,0.62,1.33,0.94,1.33,2.31c-0.02,3.09,0.38,5.98,1.62,8.83c1.17,2.68,3.16,5.28,6.41,5.02c2.88-0.23,5.12-2.27,6.63-4.59
			c2.73-4.2,3.3-9.34,3.72-14.2c0.38-4.37,0.49-9.16,2.68-13.09c1.25-2.23,3.35-3.94,4.07-6.47c0.36-1.27,0.26-2.7-0.39-3.86
			c-0.85-1.5-2.39-2.24-3.85-3.01c-3.04-1.6-6.19-3.07-9.62-3.5c-3.44-0.44-6.75,0.76-10.17,0.54c-2.55-0.16-4.68-1.88-6.8-3.14
			c-2.58-1.54-5.25-2.5-8.27-1.91c-1.33,0.26-2.08,1.84-1.75,3.08C337.85,168.57,339.21,169.19,340.54,168.93L340.54,168.93z"/>
	</g>
</g>
<g>
	<g>
		<path class="st1" d="M343.52,166.96c0.22-0.19,0.23-0.21,0.04-0.04c0.13-0.08,0.27-0.16,0.41-0.23c-0.57,0.25,0.58-0.1,0.19-0.03
			c-0.23,0.04,0.49,0,0.6,0.01c-0.53-0.07,0.35,0.16,0.46,0.21c1.14,0.46,2.53-0.41,2.95-1.45c0.49-1.22,0.02-2.39-1.02-3.12
			c-1.44-1.01-3.26-1.24-4.95-0.81c0.44,1.61,0.89,3.21,1.33,4.82c0.16-0.06,0.33-0.11,0.5-0.14c-0.24,0.04-0.21,0.05,0.1,0.03
			c0.31,0.02,0.34,0.02,0.11,0c0.17,0.04,0.34,0.08,0.51,0.13c0.2,0.05,1.04,0.54,1.22,0.68c1.2,0.92,2.22,2.05,3.45,2.96
			c2.46,1.82,5.45,2.77,8.35,3.66c1.25,0.39,2.78-0.46,3.08-1.75c0.31-1.36-0.41-2.66-1.75-3.08c-0.73-0.22-1.45-0.45-2.17-0.69
			c-0.41-0.14-0.81-0.28-1.21-0.43c-0.18-0.07-0.35-0.13-0.53-0.21c-0.43-0.17,0.24,0.11-0.19-0.08c-0.69-0.3-1.36-0.65-2-1.04
			c-0.73-0.44-1.04-0.7-1.62-1.22c-1.17-1.05-2.31-2.23-3.72-2.98c-1.67-0.88-3.62-1.28-5.45-0.69c-1.29,0.41-2.11,1.73-1.75,3.08
			c0.36,1.33,1.76,2.08,3.08,1.75c0.12-0.03,0.38-0.12,0.12-0.04c0.09,0,0.18,0,0.27,0c-0.18-0.04-0.18-0.04-0.01,0
			c0.06,0.01,0.46,0.15,0.33,0.09c-0.14-0.06,0.38,0.26,0.39,0.27c0.64-1.52,1.28-3.05,1.93-4.57c-2.25-0.92-4.82-0.21-6.57,1.37
			c-1,0.91-0.92,2.61,0,3.54C340.98,167.96,342.52,167.87,343.52,166.96L343.52,166.96z"/>
	</g>
</g>
<g>
	<g>
		<path class="st1" d="M234.95,344.78c0.37-0.84,0.7-1.67,0.86-2.57c0.16-0.95,0.24-1.89,0.26-2.85c0.03-1.62,0.05-3.25,0.08-4.87
			c0.02-1.31-1.17-2.56-2.5-2.5c-1.37,0.06-2.48,1.1-2.5,2.5c-0.02,1.51-0.05,3.02-0.07,4.53c-0.01,0.34-0.01,0.68-0.03,1.01
			c-0.01,0.2-0.02,0.39-0.03,0.59c-0.01,0.08-0.01,0.17-0.02,0.25c-0.03,0.28-0.02,0.22,0.03-0.16c-0.03,0-0.17,0.83-0.2,0.94
			c-0.04,0.15-0.09,0.31-0.14,0.46c-0.05,0.15-0.35,0.84-0.04,0.14c-0.28,0.64-0.44,1.23-0.25,1.93c0.16,0.58,0.61,1.21,1.15,1.49
			C232.61,346.25,234.38,346.06,234.95,344.78L234.95,344.78z"/>
	</g>
</g>
<g>
	<g>
		<path class="st1" d="M476.33,193.83c-8.48-1.36-16.97-2.73-25.45-4.09c-1.87-0.3-4.27,1.72-2.82,3.67
			c6.23,8.41,14.25,15.45,19.85,24.32c5.66,8.97,7.31,19.54,3.76,29.65c-3.38,9.62-11.6,17.04-21.33,19.9
			c-2.36,0.69-4.76,1.11-7.22,1.25c-2.33,0.14-4.78,0.3-6.71,1.75c-4.22,3.18-2.74,9.92-0.44,13.83
			c5.25,8.94,16.53,11.56,25.89,8.26c5.18-1.83,9.79-4.98,13.72-8.79c3.36-3.26,6.78-7.94,11.74-8.65c1.75-0.25,3.84-0.01,5.21,1.21
			c1.64,1.47,1.77,4.12,2.86,5.97c1.35,2.29,3.58,3.37,6.12,3.81c2.22,0.39,4.1,0.71,5.88,2.2c3.58,3,5.87,7.29,10.13,9.51
			c4.66,2.43,10.34,1.95,14.86,4.56c1.69,0.97,3.55,2.54,3.73,4.62c0.15,1.67-0.95,3-2.29,3.82c-3.99,2.45-9.34,2.25-13.83,2.29
			c-6.23,0.05-12.48-0.42-18.62-1.48c-3.18-0.55-6.34-1.24-9.46-2.07c-2.91-0.78-5.79-1.67-8.78-2.07c-2.92-0.4-5.89-0.28-8.67,0.76
			c-2.8,1.06-5.39,2.63-8.01,4.06c-5.66,3.09-11.37,6.12-16.99,9.29c-2.33,1.31-4.33,2.94-5.35,5.47c-0.92,2.28-0.97,4.82-1.57,7.2
			c-1.05,4.23-3,8.12-5.27,11.82c-4.62,7.53-10.54,14.21-14.72,22.01c-2.01,3.74-3.63,7.76-4.28,11.97
			c-0.74,4.77-0.92,10.76,3.94,13.43c2.5,1.37,5.51,1.77,8.28,2.26c3.11,0.56,6.24,1,9.39,1.33c6.23,0.66,12.51,0.82,18.77,0.52
			c9.98-0.49,21.94-2.36,30.41,4.32c6.77,5.34,8.94,14.48,8.52,22.72c-0.51,10.09-5.37,19.07-10.85,27.32
			c-6.31,9.5-13.39,18.39-18.56,28.62c-5.3,10.47-9.12,21.62-12.32,32.89c-1.58,5.56-3.01,11.15-4.42,16.75
			c-0.58,2.3,1.74,3.65,3.67,2.82c21.76-9.28,41.98-21.89,59.96-37.26c2.45-2.09-1.1-5.62-3.54-3.54
			c-17.65,15.09-37.59,27.38-58.95,36.48c1.22,0.94,2.45,1.88,3.67,2.82c2.88-11.49,5.88-22.97,10.01-34.08
			c4.07-10.97,9.49-21.13,16.19-30.71c6.42-9.18,13.33-18.14,17.35-28.7c3.17-8.33,3.88-18.04,1.23-26.61
			c-2.85-9.21-9.78-16.1-19.24-18.32c-5.43-1.28-11.07-1.19-16.61-0.9c-5.95,0.31-11.86,0.66-17.81,0.41
			c-6.41-0.28-12.79-1.07-19.07-2.4c-2.31-0.49-4.82-0.94-5.3-3.62c-0.36-2.01-0.1-4.3,0.28-6.29c1.63-8.53,7.13-15.71,12.09-22.6
			c5.18-7.19,10.6-14.78,12.34-23.66c0.45-2.31,0.34-5.18,2.26-6.84c2.1-1.82,5.01-2.96,7.44-4.29c5.61-3.07,11.16-6.33,16.88-9.19
			c5.75-2.88,11.43-0.63,17.24,0.86c6.16,1.58,12.46,2.61,18.8,3.13c5.87,0.48,11.97,0.67,17.83-0.06
			c4.22-0.53,8.85-1.88,11.43-5.52c2.92-4.12,1.31-9.42-2.34-12.46c-4.31-3.58-9.58-3.73-14.72-5.26
			c-4.74-1.41-7.11-5.27-10.42-8.59c-1.62-1.63-3.47-3-5.64-3.79c-1.9-0.7-5.15-0.3-6.52-1.96c-0.65-0.79-0.89-1.94-1.23-2.88
			c-0.42-1.17-0.9-2.3-1.65-3.3c-1.37-1.83-3.4-3.06-5.63-3.55c-5.12-1.14-9.81,1.01-13.65,4.29c-4.07,3.47-7.31,7.63-11.91,10.48
			c-4.31,2.67-9.54,4.52-14.67,3.76c-4.3-0.63-8.5-3.18-10.77-6.92c-1.08-1.78-1.82-3.95-1.61-6.06c0.25-2.46,3.2-2.11,5.08-2.24
			c10.22-0.74,20.13-5.78,26.55-13.82c6.78-8.49,9.47-19.63,7.55-30.31c-1.9-10.56-8.78-19.03-15.71-26.82
			c-3.38-3.8-6.85-7.55-9.88-11.65c-0.94,1.22-1.88,2.45-2.82,3.67c8.48,1.36,16.97,2.73,25.45,4.09c1.34,0.22,2.67-0.35,3.08-1.75
			C478.42,195.72,477.66,194.05,476.33,193.83L476.33,193.83z"/>
	</g>
</g>
<g>
	<g>
		<path class="st1" d="M456.92,526.95c-3.39,2.08-7.69,2.4-11.37,0.86c-1.79-0.75-3.6-2.01-4.62-3.69c-0.68-1.12-1.14-3.06,0.18-3.9
			c0.81-0.52,2.07-0.35,3-0.64c1.06-0.32,2.07-0.95,2.81-1.76c1.51-1.66,2.13-3.89,2.23-6.09c0.11-2.53-0.81-4.92-1.15-7.4
			c-0.32-2.32,0.3-3.97,2.01-5.52c1.84-1.67,4.09-2.95,6.16-4.33c2.18-1.46,4.24-3.04,4.8-5.76c0.83-4.05-2.14-8.83,0.89-12.29
			c2.91-3.33,7.61-4.29,11.24-6.6c2.17-1.38,3.95-3.16,5.22-5.41c1.22-2.17,2.23-4.42,3.56-6.52c5.88-9.24,14.74-16.15,23.24-22.85
			c1.06-0.84,0.88-2.66,0-3.54c-1.05-1.05-2.47-0.84-3.54,0c-8.25,6.51-16.54,13.17-22.65,21.83c-1.46,2.07-2.75,4.24-3.88,6.51
			c-1.1,2.22-2.18,4.17-4.31,5.55c-4.08,2.65-9.06,3.74-12.41,7.49c-1.75,1.96-2.82,4.31-2.87,6.96c-0.05,2.4,0.89,4.76,0.72,7.16
			c-0.16,2.33-2.88,3.39-4.59,4.54c-2.14,1.44-4.5,2.84-6.18,4.84c-1.92,2.28-2.75,4.98-2.41,7.95c0.28,2.52,1.26,4.95,1.16,7.4
			c-0.07,1.73-0.6,2.93-2.19,3.21c-1.26,0.23-2.4,0.33-3.52,1.04c-1.08,0.69-1.93,1.73-2.46,2.89c-2.6,5.73,2.36,11.24,7.37,13.4
			c5.16,2.23,11.26,1.96,16.09-1C462.18,529.59,459.67,525.26,456.92,526.95L456.92,526.95z"/>
	</g>
</g>
<g>
	<g>
		<path class="st1" d="M474.05,310.35c-7.51,2.17-15.01,4.34-22.52,6.5c-5.5,1.59-11.15,3.27-15.65,6.96
			c-2.18,1.79-3.84,4.13-4.82,6.78c-1.07,2.91-1.13,6.11-1.29,9.18c-0.14,2.76-0.34,5.72-2.07,8.01c-1.95,2.57-4.72,4.25-6.28,7.16
			c-3.39,6.31-1.8,13.85-0.07,20.4c0.82,3.11,5.65,1.79,4.82-1.33c-1.31-4.94-2.93-10.94-0.77-15.88c1.18-2.69,3.64-4.29,5.52-6.44
			c2.12-2.43,3.14-5.25,3.55-8.41c0.66-5.12-0.24-10.79,3.7-14.8c3.48-3.54,8.61-5.05,13.24-6.39c7.98-2.32,15.97-4.61,23.96-6.92
			C478.46,314.28,477.15,309.46,474.05,310.35L474.05,310.35z"/>
	</g>
</g>
<g>
	<g>
		<path class="st1" d="M285.49,170.36c-4.4,0.35-8.7,1.05-12.81,2.65c-4.09,1.6-8.04,3.42-11.87,5.57
			c-5.92,3.32-11.81,6.75-17.49,10.47c-12.19,7.98-22.83,17.8-32.7,28.45c-9.49,10.24-18.44,21.07-26.31,32.61
			c-7.97,11.68-14.45,24.27-19.27,37.57c-2.52,6.95-4.45,14.13-5.64,21.43c-1.37,8.48-2.19,17-1.72,25.58
			c0.22,3.97,1.53,7.74,4.39,10.61c2.6,2.6,6.87,4.56,10.61,4.39c3.88-0.17,7.9-1.45,10.61-4.39c2.61-2.84,4.61-6.63,4.39-10.61
			c-0.34-6.32-0.05-12.65,0.79-18.92c-0.18,1.33-0.36,2.66-0.54,3.99c1.45-10.49,4.43-20.7,8.52-30.45
			c-0.5,1.19-1.01,2.39-1.51,3.58c5.74-13.54,13.61-26.04,22.57-37.67c-0.78,1.01-1.56,2.02-2.35,3.04
			c5.61-7.25,11.64-14.18,17.9-20.87c6.42-6.86,13.14-13.47,20.58-19.23c-1.01,0.78-2.02,1.56-3.04,2.35
			c5.13-3.94,10.59-7.4,16.15-10.69c5.3-3.14,10.61-6.46,16.28-8.9c-1.19,0.5-2.39,1.01-3.58,1.51c2.68-1.12,5.43-1.99,8.31-2.43
			c-1.33,0.18-2.66,0.36-3.99,0.54c0.58-0.08,1.15-0.14,1.73-0.19c2.07,0.08,3.99-0.35,5.78-1.29c1.86-0.6,3.47-1.64,4.83-3.1
			c2.6-2.6,4.56-6.87,4.39-10.61c-0.17-3.88-1.45-7.9-4.39-10.61C293.3,172.19,289.42,170.05,285.49,170.36L285.49,170.36z"/>
	</g>
</g>
<g>
	<g>
		<path class="st1" d="M185.86,323.61c-0.02-0.08-0.03-0.15-0.05-0.23c0.18,1.33,0.36,2.66,0.54,3.99
			c-0.04-0.32-0.03-0.61,0.01-0.93c-0.18,1.33-0.36,2.66-0.54,3.99c0.05-0.24,0.11-0.45,0.19-0.67c-0.5,1.19-1.01,2.39-1.51,3.58
			c0.1-0.22,0.21-0.41,0.35-0.61c-9.32-2.52-18.63-5.05-27.95-7.57c0.03,0.35,0.03,0.69,0,1.05c0.18-1.33,0.36-2.66,0.54-3.99
			c-0.06,0.44-0.16,0.85-0.32,1.27c0.5-1.19,1.01-2.39,1.51-3.58c-0.03,0.08-0.07,0.16-0.1,0.24c9.14,1.19,18.28,2.39,27.42,3.58
			c-0.05-0.18-0.09-0.36-0.11-0.54c0.18,1.33,0.36,2.66,0.54,3.99c-0.1-0.74-0.07-1.46,0.01-2.2c-0.18,1.33-0.36,2.66-0.54,3.99
			c0.28-2.07,0.76-4.12,1.16-6.17c0.38-1.97,0.72-3.96,1.48-5.82c-0.5,1.19-1.01,2.39-1.51,3.58c0.07-0.17,0.15-0.34,0.23-0.5
			c1.1-1.72,1.69-3.58,1.78-5.58c0.45-1.99,0.36-3.99-0.27-5.98c-0.46-1.95-1.36-3.65-2.68-5.1c-1.06-1.63-2.46-2.92-4.21-3.86
			c-1.19-0.5-2.39-1.01-3.58-1.51c-2.66-0.71-5.32-0.71-7.98,0c-1.19,0.5-2.39,1.01-3.58,1.51c-2.25,1.33-4.05,3.13-5.38,5.38
			c-1.1,2.37-2.13,4.71-2.69,7.26c-0.29,1.32-0.53,2.64-0.78,3.96c-0.26,1.34-0.54,2.68-0.78,4.03c-0.75,4.3-1.05,7.26-0.03,11.55
			c0.5,1.19,1.01,2.39,1.51,3.58c0.78,1.01,1.56,2.02,2.35,3.04c1.01,0.78,2.02,1.56,3.04,2.35c1.72,1.1,3.58,1.69,5.58,1.78
			c1.33,0.36,2.66,0.36,3.99,0c1.35,0,2.62-0.35,3.79-1.02c1.27-0.36,2.37-1,3.31-1.93c1.63-1.06,2.92-2.46,3.86-4.21
			c1.44-3.32,2.79-6.36,2.47-10.13c-0.18-1.33-0.36-2.66-0.54-3.99c-0.46-1.95-1.36-3.65-2.68-5.1c-0.67-1.13-1.56-2.02-2.69-2.69
			c-1.45-1.33-3.15-2.22-5.1-2.68c-1.33-0.18-2.66-0.36-3.99-0.54c-1.33,0.18-2.66,0.36-3.99,0.54c-1.95,0.46-3.65,1.36-5.1,2.68
			c-1.63,1.06-2.92,2.46-3.86,4.21c-0.99,1.45-1.64,3.16-2.05,4.87c-0.82,3.44-0.65,5.68,0.04,9.14c0.46,1.95,1.36,3.65,2.68,5.1
			c1.06,1.63,2.46,2.92,4.21,3.86c1.72,1.1,3.58,1.69,5.58,1.78c1.99,0.45,3.99,0.36,5.98-0.27c1.19-0.5,2.39-1.01,3.58-1.51
			c2.25-1.33,4.05-3.13,5.38-5.38c0.5-1.19,1.01-2.39,1.51-3.58C186.57,328.92,186.57,326.27,185.86,323.61L185.86,323.61z"/>
	</g>
</g>
<g>
	<g>
		<path class="st1" d="M276.05,188.9c0.96-0.34,1.97-0.71,2.82-1.28c0.41-0.27,0.79-0.58,1.21-0.84c0.87-0.55,1.8-0.97,2.74-1.37
			c-0.6,0.25-1.19,0.5-1.79,0.76c1.59-0.67,3.2-1.28,4.75-2.02c1.03-0.49,1.94-1.21,2.97-1.68c-0.6,0.25-1.19,0.5-1.79,0.76
			c0.16-0.07,0.33-0.12,0.5-0.15c-0.66,0.09-1.33,0.18-1.99,0.27c1.18-0.16,2.38-0.13,3.53-0.48c1.17-0.36,2.02-0.96,3.09-1.41
			c-0.6,0.25-1.19,0.5-1.79,0.76c0.36-0.13,0.72-0.21,1.1-0.26c-0.66,0.09-1.33,0.18-1.99,0.27c0.38-0.03,0.75-0.02,1.13,0.03
			c-1.26-4.66-2.52-9.32-3.79-13.98c-0.17,0.09-0.34,0.17-0.52,0.24c0.6-0.25,1.19-0.5,1.79-0.76c-1.43,0.57-2.94,0.73-4.45,1.01
			c-1.41,0.27-2.77,0.69-4.09,1.24c-3.7,1.53-7.03,3.54-9.83,6.47c-1.86,1.94-2.65,4.67-1.93,7.3c0.67,2.44,2.72,4.66,5.24,5.24
			c1.63,0.38,3.37,0.63,5.05,0.45c1.03,0.04,2-0.18,2.89-0.65c0.93-0.3,1.73-0.82,2.41-1.55c1.3-1.3,2.28-3.44,2.2-5.3
			c-0.09-1.94-0.72-3.95-2.2-5.3c-1.37-1.26-3.37-2.41-5.3-2.2c-0.72,0.08-1.42,0.08-2.15,0c0.66,0.09,1.33,0.18,1.99,0.27
			c-0.31-0.05-0.6-0.1-0.91-0.17c1.1,4.18,2.21,8.36,3.31,12.54c0.68-0.71,1.4-1.36,2.17-1.97c-0.51,0.39-1.01,0.78-1.52,1.17
			c1.34-1.03,2.8-1.89,4.35-2.57c-0.6,0.25-1.19,0.5-1.79,0.76c1.46-0.61,2.96-1.05,4.51-1.32c2.27-0.4,4.22-0.9,6.33-1.94
			c0.51-0.39,1.01-0.78,1.52-1.17c0.73-0.68,1.25-1.48,1.55-2.41c0.63-1.49,0.89-3.3,0.38-4.88c-0.4-1.24-1.05-2.35-1.93-3.31
			c-0.68-0.73-1.48-1.25-2.41-1.55c-0.89-0.47-1.86-0.68-2.89-0.65c-2.6-0.33-4.96,0.71-7.19,1.87c0.6-0.25,1.19-0.5,1.79-0.76
			c-0.16,0.08-0.33,0.13-0.51,0.16c0.66-0.09,1.33-0.18,1.99-0.27c-1.13,0.13-2.28,0.13-3.39,0.44c-1.07,0.3-2.14,0.83-3.08,1.43
			c-0.98,0.63-2.01,1.14-3.08,1.6c0.6-0.25,1.19-0.5,1.79-0.76c-1.71,0.72-3.47,1.37-5.13,2.2c-1.12,0.56-2.07,1.44-3.21,1.95
			c0.6-0.25,1.19-0.5,1.79-0.76c-0.08,0.03-0.16,0.06-0.24,0.09c-1.86,0.65-3.46,1.71-4.48,3.45c-0.94,1.61-1.34,3.98-0.76,5.78
			c0.59,1.81,1.71,3.57,3.45,4.48C271.99,189.05,274.16,189.57,276.05,188.9L276.05,188.9z"/>
	</g>
</g>
<g>
	<g>
		<path class="st1" d="M285.08,184.98c4.71,3.15,9.79,5.24,14.99,7.41c-0.6-0.25-1.19-0.5-1.79-0.76c1.29,0.55,2.53,1.17,3.71,1.94
			c1.03,0.67-1.36-1.27-0.46-0.34c0.1,0.1,0.74,0.64,0.7,0.7c-0.02,0.04-1.2-1.8-0.48-0.6c0.2,0.34,0.38,0.68,0.55,1.04
			c-0.25-0.6-0.5-1.19-0.76-1.79c0.03,0.1,0.07,0.19,0.1,0.29c-0.09-0.66-0.18-1.33-0.27-1.99c0,0.1,0.01,0.2,0.01,0.3
			c0.34-1.26,0.68-2.52,1.02-3.79c0.69-0.7,1.37-1.39,2.06-2.09c0.6-0.25,1.19-0.5,1.79-0.76c-0.4,0.12-0.79,0.19-1.2,0.26
			c0.66-0.09,1.33-0.18,1.99-0.27c-1.83,0.23-3.64,0.06-5.46-0.1c-2.32-0.2-4.44-0.13-6.75,0.25c-3.51,0.58-6.68,2.41-9.93,3.78
			c0.6-0.25,1.19-0.5,1.79-0.76c-1.29,0.53-2.6,0.97-3.98,1.2c0.66-0.09,1.33-0.18,1.99-0.27c-0.63,0.08-1.25,0.11-1.88,0.1
			c0.66,4.91,1.33,9.82,1.99,14.73c0.32-0.05,0.64-0.1,0.96-0.14c-0.66,0.09-1.33,0.18-1.99,0.27c3.98-0.53,7.88-0.41,11.88-0.3
			c4.97,0.14,9.51-0.94,13.33-4.25c2.4-2.08,2.87-6.45,1.17-9.09c-1.9-2.94-5.07-4.13-8.47-3.45c-4.78,0.96-9.56,1.91-14.34,2.87
			c-4.61,0.92-9.37,1.6-13.81,3.17c-8.45,2.98-15.45,8.49-20.58,15.81c-2.62,3.74-4.55,8.09-5.68,12.51
			c-0.97,3.8,1.24,8.31,5.24,9.23c3.9,0.89,8.19-1.17,9.23-5.24c0.39-1.54,0.89-3.03,1.49-4.5c-0.25,0.6-0.5,1.19-0.76,1.79
			c0.81-1.91,1.78-3.73,2.92-5.46c0.3-0.46,0.62-0.91,0.94-1.35c0.92-1.25-1.04,1.27-0.05,0.07c0.69-0.85,1.43-1.66,2.2-2.44
			c0.73-0.73,1.49-1.44,2.28-2.1c0.19-0.16,0.38-0.31,0.56-0.46c0.78-0.65-0.53,0.47-0.65,0.5c0.43-0.11,0.96-0.7,1.34-0.95
			c1.76-1.2,3.64-2.2,5.6-3.04c-0.6,0.25-1.19,0.5-1.79,0.76c4.55-1.88,9.49-2.62,14.3-3.58c5.19-1.04,10.37-2.08,15.56-3.11
			c-2.43-4.18-4.86-8.36-7.3-12.54c-0.43,0.37-0.37,0.33,0.19-0.13c0.57-0.43,0.63-0.49,0.16-0.18c-0.33,0.14-0.64,0.33-0.97,0.47
			c0.6-0.25,1.19-0.5,1.79-0.76c-0.81,0.3-1.62,0.49-2.47,0.61c0.66-0.09,1.33-0.18,1.99-0.27c-2.51,0.29-5.02,0-7.54-0.04
			c-3.6-0.06-7.16,0.34-10.72,0.88c-1.66,0.25-3.72,2.01-4.48,3.45c-0.8,1.51-1.12,3.08-0.89,4.78c0.5,3.72,3.6,6.4,7.37,6.5
			c4.95,0.14,9.16-2.16,13.56-4.05c-0.6,0.25-1.19,0.5-1.79,0.76c1.43-0.59,2.87-1.09,4.41-1.32c-0.66,0.09-1.33,0.18-1.99,0.27
			c2.98-0.34,5.93,0.41,8.91,0.26c2.88-0.15,5.72-0.68,7.91-2.71c3.05-2.82,2.99-6.97,1.27-10.45c-2.89-5.86-9.34-7.79-14.88-10.13
			c0.6,0.25,1.19,0.5,1.79,0.76c-3.27-1.41-6.4-3.11-9.36-5.1c-3.27-2.19-8.45-0.74-10.26,2.69
			C280.39,178.5,281.59,182.64,285.08,184.98L285.08,184.98z"/>
	</g>
</g>
<g>
	<g>
		<path class="st1" d="M290.74,236.18c3.28,5.85,7.14,11.32,11.39,16.51c1.01,1.23,2.81,1.86,4.31,2.06
			c1.6,0.21,3.39,0.01,4.78-0.89c1.08-0.7,1.99-1.61,2.69-2.69c0.92-1.42,1.41-4.16,0.76-5.78c-2.2-5.44-4.4-10.89-6.6-16.33
			c-4.57,1.93-9.14,3.85-13.71,5.78c0.94,2.01,1.84,4.03,2.7,6.07c-0.25-0.6-0.5-1.19-0.76-1.79c0.83,1.97,1.62,3.95,2.38,5.95
			c0.7,1.85,1.56,3.76,1.97,5.7c-0.09-0.66-0.18-1.33-0.27-1.99c0.04,0.23,0.05,0.45,0.04,0.68c0.09-0.66,0.18-1.33,0.27-1.99
			c-0.01,0.22-0.07,0.43-0.16,0.63c0.25-0.6,0.5-1.19,0.76-1.79c0.67-0.68,1.34-1.35,2.01-2.03c0.6-0.25,1.19-0.5,1.79-0.76
			c-1.22,0.5-2.68,0.52-3.98,0.7c-1.56,0.22-3.12,0.44-4.68,0.65c-3.12,0.44-6.24,0.87-9.36,1.31c-6.13,0.86-12.26,1.74-18.39,2.57
			c0.66-0.09,1.33-0.18,1.99-0.27c-4.91,0.65-9.9,1.13-14.84,0.49c0.66,0.09,1.33,0.18,1.99,0.27c-2.11-0.3-4.17-0.81-6.14-1.64
			c0.6,0.25,1.19,0.5,1.79,0.76c-0.97-0.43-1.9-0.91-2.79-1.5c-0.23-0.15-0.6-0.32-0.77-0.54c0.1,0.12,1.38,1.15,0.62,0.46
			c-0.44-0.4-0.88-0.79-1.3-1.22c-0.25-0.26-1.37-1.62-0.57-0.59c0.82,1.07,0-0.02-0.12-0.19c-0.15-0.22-0.29-0.44-0.43-0.66
			c-0.63-1.01-1.17-2.08-1.64-3.18c0.25,0.6,0.5,1.19,0.76,1.79c-0.89-2.16-1.49-4.42-1.81-6.73c0.09,0.66,0.18,1.33,0.27,1.99
			c-0.25-2.03-0.24-4.05,0.03-6.08c-0.09,0.66-0.18,1.33-0.27,1.99c0.25-1.66,0.67-3.26,1.32-4.81c-0.25,0.6-0.5,1.19-0.76,1.79
			c0.31-0.69,0.65-1.36,1.05-2c0.17-0.27,0.37-0.52,0.54-0.79c-1.19,1.95-0.76,0.95-0.26,0.43c0.25-0.27,0.53-0.51,0.79-0.77
			c0.86-0.83-1.59,1.07-0.52,0.39c0.68-0.42,1.34-0.8,2.08-1.12c-0.6,0.25-1.19,0.5-1.79,0.76c0.67-0.25,1.33-0.42,2.03-0.52
			c-0.66,0.09-1.33,0.18-1.99,0.27c0.43-0.03,0.82-0.03,1.24,0c-0.66-0.09-1.33-0.18-1.99-0.27c0.42,0.07,0.79,0.16,1.2,0.3
			c-0.6-0.25-1.19-0.5-1.79-0.76c0.34,0.15,1.52,0.95,0.43,0.12c-1.06-0.81-0.13,0.01,0.12,0.25c0.47,0.45-0.63-0.82-0.63-0.82
			c0,0.08,0.32,0.49,0.39,0.6c0.22,0.36,0.43,0.73,0.62,1.1c0.81,1.52,1.55,3.06,2.38,4.56c1.84,3.3,4.03,6.59,6.77,9.21
			c3.18,3.03,7.22,5.41,11.61,6.07c4.78,0.72,9.43,0.14,14.06-1.22c4.24-1.24,8.35-2.92,12.72-3.66c-1.33-4.82-2.66-9.64-3.99-14.46
			c-3.97,0.8-7.97,1.47-11.99,2.02c0.66-0.09,1.33-0.18,1.99-0.27c-4.18,0.56-8.37,0.99-12.58,1.28c-3.05,0.21-5.63,1.72-6.85,4.61
			c-1.06,2.52-0.76,6.34,1.55,8.19c2.69,2.16,5.48,3.82,8.86,4.73c2.74,0.74,5.66,1.01,8.5,1.07c4.91,0.1,9.83-0.48,14.73,0.14
			c-0.66-0.09-1.33-0.18-1.99-0.27c1.69,0.24,3.32,0.62,4.92,1.23c0.66-4.91,1.33-9.82,1.99-14.73c-7.98-0.44-15.97-0.47-23.95-0.06
			c-3.95,0.2-7.89,0.51-11.82,0.93c-3.67,0.39-7.41,1.16-11.11,0.72c0.66,0.09,1.33,0.18,1.99,0.27c-1-0.15-1.95-0.4-2.89-0.78
			c0.6,0.25,1.19,0.5,1.79,0.76c-0.5-0.23-0.95-0.5-1.43-0.77c-0.63-0.44-0.44-0.28,0.57,0.47c-0.2-0.17-0.4-0.34-0.59-0.52
			c-0.29-0.27-0.57-0.55-0.84-0.84c-0.42-0.45-1.38-1.97-0.11-0.02c-1.02-1.56-2.2-2.97-2.94-4.7c0.25,0.6,0.5,1.19,0.76,1.79
			c-0.24-0.62-0.42-1.25-0.53-1.91c0.09,0.66,0.18,1.33,0.27,1.99c-0.04-0.41-0.04-0.79,0-1.2c-0.09,0.66-0.18,1.33-0.27,1.99
			c0.03-0.19,0.07-0.37,0.14-0.54c-0.25,0.6-0.5,1.19-0.76,1.79c0.14-0.34,0.64-1.02-0.17,0.05c-0.23,0.4-0.54,0.71-0.93,0.95
			c-0.64,0.44-0.7,0.52-0.2,0.25c-0.6,0.25-1.19,0.5-1.79,0.76c0.21-0.09,0.43-0.14,0.65-0.17c-0.66,0.09-1.33,0.18-1.99,0.27
			c0.22-0.02,0.44-0.02,0.66,0.01c-0.66-0.09-1.33-0.18-1.99-0.27c0.35,0.07,0.65,0.16,0.98,0.3c-0.6-0.25-1.19-0.5-1.79-0.76
			c0.82,0.43,0.68,0.79-0.28-0.35c0.16,0.19,0.38,0.37,0.57,0.54c0.38,0.44,0.36,0.38-0.08-0.17c-0.41-0.56-0.45-0.61-0.12-0.14
			c0.17,0.29,0.37,0.57,0.54,0.87c0.77,1.3,1.44,2.66,2.03,4.05c-0.25-0.6-0.5-1.19-0.76-1.79c1.04,2.54,1.76,5.18,2.16,7.9
			c0.25,1.73,2.01,3.64,3.45,4.48c1.61,0.94,3.98,1.34,5.78,0.76c1.81-0.59,3.57-1.71,4.48-3.45c1.01-1.9,1.07-3.67,0.76-5.78
			c-0.54-3.68-1.74-7.09-3.26-10.48c-1.57-3.51-3.74-6.95-7.06-9.02c-4.87-3.04-11.95-1.81-14.58,3.63
			c-2.03,4.19-1.16,8.84,1.14,12.73c1.68,2.85,3.8,5.77,6.38,7.85c3.62,2.92,7.75,4.32,12.42,4.33c3.39,0.01,6.8-0.64,10.17-0.98
			c3.44-0.34,6.89-0.61,10.34-0.79c8.06-0.42,16.14-0.4,24.19,0.04c3.72,0.21,6.9-3.01,7.37-6.5c0.53-3.91-1.83-6.87-5.37-8.23
			c-8.19-3.15-16.96-0.85-25.4-1.91c0.66,0.09,1.33,0.18,1.99,0.27c-1.61-0.22-3.17-0.59-4.69-1.19c0.6,0.25,1.19,0.5,1.79,0.76
			c-0.58-0.25-1.15-0.52-1.7-0.83c-0.59-0.34-2.35-1.72-0.37-0.14c-1.77,4.27-3.54,8.54-5.3,12.8c8.91-0.62,17.8-1.81,26.55-3.57
			c3.85-0.77,6.42-5.56,5.24-9.23c-0.59-1.81-1.71-3.57-3.45-4.48c-1.88-0.99-3.69-1.11-5.78-0.76c-6.15,1.05-11.81,3.97-17.99,4.84
			c0.66-0.09,1.33-0.18,1.99-0.27c-1.61,0.2-3.2,0.24-4.81,0.04c0.66,0.09,1.33,0.18,1.99,0.27c-1.19-0.18-2.33-0.48-3.45-0.92
			c0.6,0.25,1.19,0.5,1.79,0.76c-0.55-0.23-1.08-0.49-1.6-0.78c-0.39-0.22-1.28-0.59-1.48-0.96c-0.01-0.02,1.56,1.28,0.68,0.52
			c-0.18-0.16-0.36-0.31-0.54-0.47c-0.53-0.48-1.03-0.99-1.51-1.52c-0.25-0.28-1.44-1.76-0.57-0.64c0.87,1.13-0.28-0.41-0.5-0.73
			c-0.7-1.02-1.35-2.08-1.96-3.16c-1.2-2.11-2.13-4.43-3.47-6.45c-2.56-3.86-6.3-6.57-11.1-6.57c-6.63-0.01-12.73,4.81-15.43,10.66
			c-2.62,5.67-3.08,11.69-2.02,17.79c1.03,5.94,3.96,12.11,8.51,16.15c5.03,4.46,11.12,6.43,17.72,7.01
			c5.66,0.49,11.35-0.37,16.95-1.15c6.4-0.9,12.81-1.79,19.21-2.69c3.61-0.51,7.22-1.01,10.84-1.52c1.55-0.22,3.24-0.26,4.72-0.81
			c3.83-1.42,6.39-4.7,6.35-8.86c-0.02-2.13-0.82-4.08-1.53-6.04c-0.59-1.63-1.21-3.26-1.86-4.88c-1.47-3.69-3.04-7.34-4.72-10.93
			c-0.72-1.54-2.85-3.08-4.48-3.45c-1.68-0.38-3.29-0.29-4.88,0.38c-1.44,0.61-2.84,1.65-3.59,3.07c-0.88,1.67-1.5,3.95-0.76,5.78
			c2.2,5.44,4.4,10.89,6.6,16.33c4.18-2.43,8.36-4.86,12.54-7.3c-0.48-0.59-0.95-1.18-1.42-1.77c-0.83-1.04,0.75,1,0.2,0.26
			c-0.23-0.3-0.46-0.6-0.68-0.91c-0.86-1.15-1.69-2.33-2.5-3.52c-1.66-2.44-3.2-4.96-4.64-7.54c-1.92-3.43-6.9-4.86-10.26-2.69
			C289.97,228.15,288.69,232.51,290.74,236.18L290.74,236.18z"/>
	</g>
</g>
<g>
	<g>
		<path class="st1" d="M229.94,271.45c6.28-6.82,11.64-14.52,15.65-22.88c1.07-2.23,1.36-4.36,0.38-6.67
			c-0.86-2.03-2.61-3.87-4.86-4.34c-8.21-1.74-16.18,2.48-20.41,9.57c-3.9,6.54-4.13,14.43-4.6,21.81
			c-0.92,14.37-1.15,28.69,0.55,43.01c1.02,8.57,2.44,17.09,3.98,25.58c0.3,1.68,1.96,3.7,3.45,4.48c1.51,0.8,3.08,1.12,4.78,0.89
			c3.35-0.45,6.92-3.65,6.5-7.37c-1.15-10.3-1.99-20.75-0.64-31.07c-0.09,0.66-0.18,1.33-0.27,1.99c0.68-4.99,1.9-9.89,3.85-14.54
			c-0.25,0.6-0.5,1.19-0.76,1.79c2.35-5.49,5.89-10.31,8.59-15.62c1.51-2.97,2.87-6.13,3.6-9.39c0.91-4.03,0.97-7.89,0.2-11.94
			c-0.55-2.88-3.53-5.01-6.24-5.37c-2.96-0.4-5.92,0.98-7.47,3.58c-0.98,1.64-2,3.25-3.09,4.82c-0.5,0.72-1.02,1.44-1.54,2.15
			c-0.26,0.35-0.55,0.69-0.8,1.06c1.26-1.84,0.28-0.37-0.05,0.04c-2.36,2.92-4.92,5.66-7.65,8.23c-2.73,2.56-2.79,6.99-0.59,9.85
			c2.1,2.72,6.63,4.13,9.68,1.93c9.75-7.05,20.19-13.12,31.14-18.11c-2.52-4.32-5.05-8.63-7.57-12.95
			c-4.98,3.23-9.96,6.45-14.94,9.68c-3.3,2.14-6.44,4.52-7.68,8.45c-0.6,1.91-0.72,4.22-0.16,6.16c0.77,2.68,2.31,4.46,4.52,6.07
			c1.31,0.96,3.26,1.09,4.78,0.89c1.64-0.22,3.1-0.88,4.31-2.06c1.62-1.58,3.3-3.09,5.05-4.52c0.21-0.17,0.43-0.35,0.64-0.52
			c0.94-0.75-0.02-0.06-0.38,0.29c0.39-0.37,0.89-0.67,1.32-0.98c0.94-0.69,1.9-1.35,2.87-1.99c3.83-2.53,7.9-4.7,12.12-6.51
			c-0.6,0.25-1.19,0.5-1.79,0.76c4.81-2.02,9.8-3.55,14.92-4.55c3.86-0.75,6.42-5.58,5.24-9.23c-1.33-4.11-5.09-6.04-9.23-5.24
			c-15.52,3.02-30.07,10.85-41.36,21.88c3.03-0.39,6.06-0.78,9.09-1.17c0.6,0.31,1.09,0.74,1.46,1.3c0.43,0.62,0.53,0.7,0.29,0.24
			c0.25,0.6,0.5,1.19,0.76,1.79c-0.11-0.31-0.17-0.58-0.21-0.9c0.09,0.66,0.18,1.33,0.27,1.99c-0.02-0.33-0.01-0.62,0.03-0.95
			c-0.09,0.66-0.18,1.33-0.27,1.99c0.06-0.32,0.15-0.61,0.26-0.92c-0.25,0.6-0.5,1.19-0.76,1.79c0.09-0.22,0.21-0.42,0.34-0.62
			c-0.24,0.3-0.47,0.6-0.71,0.9c0.09-0.35,0.65-0.52,0.83-0.81c-1.01,0.76-1.2,0.91-0.58,0.46c0.11-0.07,0.22-0.15,0.33-0.22
			c0.35-0.24,0.71-0.47,1.07-0.7c1.71-1.11,3.41-2.21,5.12-3.31c3.34-2.17,6.69-4.33,10.03-6.5c3.29-2.13,4.95-6.75,2.69-10.26
			c-1.03-1.6-2.57-3.01-4.48-3.45c-2.08-0.47-3.85-0.12-5.78,0.76c-10.95,5-21.38,11.06-31.14,18.11c3.03,3.93,6.06,7.85,9.09,11.78
			c6.02-5.66,11.25-12.24,15.48-19.33c-4.57-0.6-9.14-1.19-13.71-1.79c0.06,0.29,0.11,0.59,0.15,0.88
			c-0.09-0.66-0.18-1.33-0.27-1.99c0.24,1.78,0.21,3.53-0.03,5.31c0.09-0.66,0.18-1.33,0.27-1.99c-0.37,2.39-1.09,4.67-2.02,6.9
			c0.25-0.6,0.5-1.19,0.76-1.79c-1.84,4.23-4.4,8.06-6.69,12.04c-2.41,4.19-4.39,8.66-5.75,13.3c-2.58,8.76-3.13,18.13-2.76,27.21
			c0.2,4.99,0.68,9.96,1.24,14.92c4.91-0.66,9.82-1.33,14.73-1.99c-1.2-6.62-2.35-13.25-3.25-19.92c0.09,0.66,0.18,1.33,0.27,1.99
			c-1.25-9.37-1.88-18.77-1.78-28.22c0.05-4.68,0.24-9.36,0.5-14.03c0.25-4.5,0.43-9.04,1.03-13.51c-0.09,0.66-0.18,1.33-0.27,1.99
			c0.33-2.29,0.83-4.53,1.7-6.68c-0.25,0.6-0.5,1.19-0.76,1.79c0.38-0.89,0.8-1.76,1.31-2.58c0.2-0.32,0.43-0.61,0.63-0.92
			c-1.28,1.91-0.52,0.69-0.08,0.23c0.3-0.32,0.63-0.6,0.95-0.91c0.93-0.89-1.5,0.98-0.34,0.26c0.74-0.46,1.45-0.89,2.25-1.23
			c-0.6,0.25-1.19,0.5-1.79,0.76c0.79-0.31,1.58-0.54,2.42-0.68c-0.66,0.09-1.33,0.18-1.99,0.27c0.85-0.11,1.66-0.11,2.5-0.01
			c-0.66-0.09-1.33-0.18-1.99-0.27c0.24,0.03,0.48,0.08,0.72,0.14c-1.49-3.67-2.99-7.35-4.48-11.02c-1.84,3.83-3.94,7.52-6.31,11.04
			c-0.57,0.85-1.16,1.69-1.76,2.52c-0.34,0.47-0.7,0.94-1.05,1.41c-0.84,1.13,1.05-1.31,0.1-0.13c-1.38,1.71-2.79,3.38-4.28,5
			c-2.66,2.89-3.07,7.79,0,10.61C222.22,274.11,227.1,274.54,229.94,271.45L229.94,271.45z"/>
	</g>
</g>
<g>
	<g>
		<path class="st1" d="M214.57,323.34c0.79,0,1.58,0.05,2.37,0.13c-0.66-0.09-1.33-0.18-1.99-0.27c1.19,0.16,2.41,0.38,3.52,0.85
			c-0.6-0.25-1.19-0.5-1.79-0.76c-0.64-0.65-1.28-1.3-1.92-1.95c-0.25-0.6-0.5-1.19-0.76-1.79c0.03,0.1,0.05,0.21,0.08,0.31
			c-0.09-0.66-0.18-1.33-0.27-1.99c0,0.1-0.01,0.21-0.01,0.31c0.09-0.66,0.18-1.33,0.27-1.99c-0.03,0.09-0.07,0.19-0.1,0.28
			c0.64-1.1,1.29-2.21,1.93-3.31c-0.07,0.07-0.14,0.15-0.21,0.22c3.03-0.39,6.06-0.78,9.09-1.17c-3.23-2.14-6.64-3.99-10.19-5.53
			c-2-0.87-3.27-1.39-5.45-1.56c-1.36-0.11-2.72,0.13-4.04,0.44c-1.97,0.46-3.91,1.11-5.82,1.77c-4.01,1.39-8.07,2.96-11.8,4.99
			c-3.93,2.14-7.77,5.72-8.59,10.32c-0.36,2.03-0.32,3.95,0.76,5.78c0.91,1.56,2.69,3.04,4.48,3.45c3.66,0.83,8.49-1.11,9.23-5.24
			c0.08-0.46,0.2-0.89,0.37-1.32c-0.25,0.6-0.5,1.19-0.76,1.79c0.19-0.41,0.48-0.77,0.66-1.18c-0.85,1.05-1.02,1.29-0.52,0.72
			c0.08-0.08,0.16-0.17,0.24-0.25c0.17-0.17,0.34-0.32,0.52-0.48c0.58-0.48,0.36-0.31-0.67,0.51c0.37-0.19,0.71-0.48,1.06-0.7
			c1.74-1.05,3.64-1.86,5.51-2.66c-0.6,0.25-1.19,0.5-1.79,0.76c3.8-1.6,7.86-3.25,11.93-3.97c-0.66,0.09-1.33,0.18-1.99,0.27
			c0.43-0.04,0.8-0.05,1.22,0c-0.66-0.09-1.33-0.18-1.99-0.27c0.52,0.11,0.99,0.26,1.48,0.46c-0.6-0.25-1.19-0.5-1.79-0.76
			c3.62,1.55,7.08,3.44,10.37,5.61c2.69,1.77,6.91,1.14,9.09-1.17c4.22-4.48,2.74-11.61-2.94-14.01c-2.76-1.16-5.79-1.62-8.78-1.63
			c-3.92-0.01-7.68,3.45-7.5,7.5C207.25,319.91,210.36,323.33,214.57,323.34L214.57,323.34z"/>
	</g>
</g>
<g>
	<g>
		<path class="st1" d="M178.81,322.9c-0.17,0.96-0.42,1.86-0.78,2.77c0.25-0.6,0.5-1.19,0.76-1.79c-0.22,0.51-0.45,1-0.72,1.48
			c-0.27,0.48-1.45,2.06,0.02,0.18c3.93,3.03,7.85,6.06,11.78,9.09c3.98-9.37,8.14-18.66,12.5-27.85c2.14-4.53,4.33-9.03,6.57-13.51
			c1.34-2.69,2.75-5.34,3.89-8.12c1.11-2.73,1.3-5.61,1.65-8.52c-0.09,0.66-0.18,1.33-0.27,1.99c0.54-3.99,2.05-7.74,3.59-11.43
			c-0.25,0.6-0.5,1.19-0.76,1.79c0.39-0.91,0.87-1.72,1.34-2.59c0.35-0.65-1.12,1.18-0.57,0.72c0.13-0.11,0.35-0.32,0.45-0.47
			c0.24-0.37-1.18,0.66-0.77,0.59c0.19-0.03,0.52-0.28,0.69-0.36c-0.6,0.25-1.19,0.5-1.79,0.76c0.32-0.11,0.6-0.18,0.93-0.23
			c-3.16-2.41-6.33-4.82-9.49-7.23c0.09,1.86-0.01,3.7-0.25,5.54c0.09-0.66,0.18-1.33,0.27-1.99c-0.99,6.92-3.83,13.4-4.98,20.28
			c-0.74,4.43-0.94,8.57-0.22,13.01c0.63,3.84,2.52,7.22,4.06,10.74c-0.25-0.6-0.5-1.19-0.76-1.79c0.39,0.92,0.72,1.84,0.97,2.81
			c2.41-3.16,4.82-6.33,7.23-9.49c-0.77-0.08-1.53-0.17-2.29-0.27c0.66,0.09,1.33,0.18,1.99,0.27c-5.2-0.71-10.28-2-15.19-3.85
			c-0.66,4.91-1.33,9.82-1.99,14.73c0.58,0.02,1.16,0.06,1.73,0.13c-0.66-0.09-1.33-0.18-1.99-0.27c1.59,0.22,3.12,0.62,4.62,1.21
			c-0.6-0.25-1.19-0.5-1.79-0.76c0.94,0.4,1.83,0.86,2.7,1.39c3.35,2.05,8.4,0.84,10.26-2.69c1.93-3.65,0.89-8.07-2.69-10.26
			c-3.89-2.38-8.3-3.59-12.84-3.76c-3.73-0.14-6.89,2.96-7.37,6.5c-0.52,3.9,1.83,6.89,5.37,8.23c6.28,2.37,12.8,3.71,19.47,4.39
			c2.29,0.23,4.57-1.24,5.89-2.96c1.46-1.9,1.95-4.19,1.34-6.54c-0.8-3.11-2.42-5.94-3.69-8.87c0.25,0.6,0.5,1.19,0.76,1.79
			c-0.69-1.66-1.15-3.35-1.41-5.12c0.09,0.66,0.18,1.33,0.27,1.99c-0.3-2.41-0.22-4.81,0.08-7.22c-0.09,0.66-0.18,1.33-0.27,1.99
			c1.36-9.87,6.18-19.02,5.7-29.18c-0.11-2.41-1.04-4.41-2.96-5.89c-2.02-1.56-4.08-1.73-6.54-1.34
			c-5.92,0.94-8.59,6.78-10.58,11.66c-0.86,2.1-1.68,4.21-2.28,6.4c-0.74,2.71-0.95,5.51-1.31,8.29c0.09-0.66,0.18-1.33,0.27-1.99
			c-0.2,1.35-0.55,2.61-1.07,3.86c0.25-0.6,0.5-1.19,0.76-1.79c-1.73,3.92-3.82,7.7-5.71,11.54c-1.95,3.99-3.87,8-5.75,12.02
			c-3.73,7.98-7.31,16.02-10.75,24.13c-0.79,1.85-1.42,3.74-0.76,5.78c0.51,1.58,1.37,2.88,2.69,3.9c2.66,2.06,7.55,2.36,9.85-0.59
			c2.17-2.78,3.95-5.72,4.58-9.26c0.36-2.03,0.32-3.94-0.76-5.78c-0.91-1.56-2.69-3.04-4.48-3.45
			C184.39,316.83,179.54,318.77,178.81,322.9L178.81,322.9z"/>
	</g>
</g>
<g>
	<g>
		<path class="st1" d="M179.52,348.26c-1.03-0.2-2.07-0.41-3.1-0.61c-1.23-0.24-2.44,0.25-2.95,1.45c-0.47,1.11-0.07,2.52,1.02,3.12
			c0.96,0.53,1.9,1.08,2.88,1.57c0.77,0.39,1.51,0.66,2.38,0.71c1.03,0.06,1.96-0.35,2.73-0.99c0.84-0.7,1.4-1.8,1.94-2.74
			c0.56-0.98,1.08-1.97,1.56-2.99c0.54-1.14,0.39-2.42-0.64-3.23c-1.02-0.79-2.33-0.63-3.28,0.2c-0.11,0.09-0.21,0.18-0.33,0.27
			c0.17-0.13,0.34-0.26,0.51-0.39c-1.26,0.95-2.9,1.26-3.96,2.51c-0.44,0.51-0.73,1.07-0.73,1.77c0,0.61,0.27,1.35,0.73,1.77
			c0.93,0.85,2.63,1.06,3.54,0c0.13-0.16,0.28-0.29,0.43-0.42c-0.17,0.13-0.34,0.26-0.51,0.39c0.51-0.39,1.11-0.63,1.69-0.9
			c0.8-0.37,1.5-0.87,2.16-1.45c-1.31-1.01-2.62-2.02-3.93-3.03c-0.41,0.85-0.84,1.7-1.3,2.52c-0.43,0.77-0.86,1.58-1.39,2.28
			c0.13-0.17,0.26-0.34,0.39-0.51c-0.13,0.16-0.26,0.29-0.42,0.42c0.17-0.13,0.34-0.26,0.51-0.39c-0.1,0.07-0.2,0.12-0.31,0.17
			c0.2-0.08,0.4-0.17,0.6-0.25c-0.08,0.03-0.17,0.06-0.26,0.07c0.22-0.03,0.44-0.06,0.66-0.09c-0.18,0.02-0.35,0.02-0.53,0
			c0.22,0.03,0.44,0.06,0.66,0.09c-0.23-0.04-0.45-0.11-0.66-0.2c0.2,0.08,0.4,0.17,0.6,0.25c-1.1-0.49-2.14-1.15-3.2-1.73
			c-0.64,1.52-1.28,3.05-1.93,4.57c1.03,0.2,2.07,0.41,3.1,0.61c0.67,0.13,1.32,0.1,1.93-0.25c0.52-0.3,1.01-0.9,1.15-1.49
			C181.55,350.1,180.89,348.53,179.52,348.26L179.52,348.26z"/>
	</g>
</g>
<g>
	<g>
		<path class="st1" d="M181.37,342.87c-0.24,3.76-0.71,7.58-0.71,11.35c0.01,3.55,2.07,6.64,5.56,7.6c1.53,0.42,3.22-0.78,3.16-2.41
			c-0.09-2.91-1.1-5.62-2.92-7.88c-0.79-0.98-1.86-2.17-3.11-2.5c-2-0.54-3.15,1.08-4.14,2.5c-0.77,1.11-1.65,2.37-2.07,3.66
			c-0.56,1.75,0.25,3.05,1.38,4.32c1.87,2.12,3.36,4.52,4.56,7.07c0.57,1.22,2.33,1.53,3.42,0.9c1.25-0.73,1.47-2.19,0.9-3.42
			c-1.13-2.42-2.54-4.64-4.2-6.72c-0.35-0.44-0.7-1-1.14-1.36c-0.39-0.33-0.28-0.55-0.24,0.31c0.05,1.11,0.17,0.29,0.39-0.1
			c0.31-0.56,0.65-1.11,1-1.65c0.14-0.21,0.29-0.43,0.44-0.64c0.11-0.16,0.22-0.31,0.34-0.47c0.2-0.26,0.15-0.21-0.14,0.14
			c-0.64,0.08-1.28,0.17-1.93,0.25c-0.47-0.31-0.57-0.35-0.31-0.14c0.13,0.11,0.26,0.23,0.39,0.35c0.25,0.24,0.5,0.49,0.71,0.76
			c0.34,0.42,0.61,0.9,0.86,1.37c0.52,1,0.78,2.12,0.81,3.25c1.05-0.8,2.11-1.61,3.16-2.41c-0.73-0.2-1.34-0.63-1.67-1.36
			c-0.43-0.94-0.17-2.46-0.1-3.58c0.2-3.07,0.4-6.13,0.59-9.2c0.09-1.35-1.21-2.5-2.5-2.5
			C182.44,340.37,181.45,341.52,181.37,342.87L181.37,342.87z"/>
	</g>
</g>
<g>
	<g>
		<path class="st1" d="M194.09,362.22c-1.51-2.01-3.02-4.02-4.54-6.04c-2.62,2.02-5.24,4.04-7.85,6.06c1.82,2.15,3.6,4.33,5.35,6.53
			c0.44,0.55,0.87,1.1,1.31,1.66c0.19,0.24,0.65,0.84,0.22,0.29c0.19,0.25,0.38,0.5,0.57,0.74c0.9,1.18,1.8,2.37,2.68,3.56
			c3.39,4.59,6.64,9.29,9.74,14.08c1.42,2.19,4.5,3.3,6.84,1.79c2.41-1.55,3.03-4.32,1.79-6.84c-2.19-4.45-4.38-8.9-6.57-13.36
			c-2.88,1.68-5.76,3.36-8.63,5.05c2.56,3.39,5.11,6.78,7.67,10.17c1.25,1.66,2.51,3.32,3.76,4.98c0.54,0.71,1.07,1.43,1.52,2.2
			c0.1,0.18,0.19,0.37,0.29,0.54c-0.05-0.08-0.24-0.77-0.09-0.22c0.14,0.49,0.3,0.97,0.41,1.46c1.65,7.3,2.09,16.48,8.48,21.5
			c3.18,2.5,7.07,3.61,10.35,5.93c2.14,1.52,5.65,0.45,6.84-1.79c1.36-2.57,0.49-5.22-1.79-6.84c-1.68-1.19-3.54-2.02-5.39-2.9
			c-0.92-0.44-1.83-0.89-2.7-1.41c-0.21-0.13-1.66-0.98-0.53-0.29c-0.42-0.26-0.74-0.69-1.11-1.02c-0.37-0.43-0.36-0.4,0.01,0.08
			c-0.16-0.22-0.31-0.44-0.45-0.66c-0.29-0.46-0.52-0.94-0.77-1.41c-0.23-0.52-0.23-0.49,0.02,0.08c-0.1-0.25-0.19-0.51-0.28-0.77
			c-0.18-0.51-0.34-1.04-0.5-1.56c-0.67-2.27-1.2-4.58-1.66-6.9c-0.45-2.26-0.66-4.6-1.52-6.76c-1-2.53-2.68-4.55-4.3-6.7
			c-3.21-4.25-6.41-8.5-9.62-12.76c-1.57-2.08-4.39-3.38-6.84-1.79c-2.41,1.55-3.03,4.32-1.79,6.84c2.19,4.45,4.38,8.9,6.57,13.36
			c2.88-1.68,5.76-3.36,8.63-5.05c-6.52-10.08-13.69-19.72-21.43-28.89c-1.6-1.9-4.74-1.8-6.57-0.39c-1.78,1.38-2.79,4.45-1.29,6.45
			c1.51,2.01,3.02,4.02,4.54,6.04c1.57,2.08,4.39,3.37,6.84,1.79C194.35,367.73,195.77,364.45,194.09,362.22L194.09,362.22z"/>
	</g>
</g>
<g>
	<g>
		<path class="st1" d="M274.72,505.6c-0.14-0.94,0.04,0.52,0.06,0.79c0.04,0.55,0.07,1.11,0.08,1.66c0.02,1.11-0.02,2.22-0.12,3.32
			c-0.03,0.31-0.06,0.63-0.1,0.94c0.01-0.1,0.14-0.73,0.01-0.16c-0.12,0.54-0.2,1.09-0.32,1.63c-0.32,1.43-0.63,2.83-0.77,4.3
			c-0.27,2.82,0.75,5.4,2.53,7.53c1.03,1.24,2.4,2.09,3.6,3.14c0.29,0.25,0.57,0.53,0.84,0.8c0.08,0.08,0.29,0.26,0.33,0.37
			c0,0-0.46-0.82-0.27-0.28c0.06,0.16,0.35,0.9,0.16,0.25c-0.19-0.64-0.01,0.03,0,0.12c0.12,0.82,0.06-0.22,0.02-0.21
			c0,0,0.02,0.7,0.02,0.76c0.03,0.83-0.13-0.21,0.04-0.2c0,0-0.14,0.51-0.15,0.55c-0.09,0.62,0.12-0.39,0.15-0.32
			c0.03,0.05-0.32,0.6-0.38,0.7c-0.75,1.39-1.33,2.74-1.46,4.33c-0.26,3.23,2.07,5.38,4.06,7.56c1.54,1.69,3.07,3.37,4.61,5.06
			c3.59,3.94,8.61,11.15,14.77,7.35c2.22-1.37,3.28-4.53,1.79-6.84c-1.44-2.23-4.46-3.26-6.84-1.79c0.74-0.45,2.05-0.38,2.79-0.01
			c-0.78-0.39,0.4,0.5-0.24-0.13c-0.75-0.73-1.44-1.53-2.14-2.3c-1.35-1.48-2.69-2.95-4.04-4.43c-1.43-1.57-2.86-3.13-4.29-4.7
			c-0.32-0.35-0.63-0.78-0.99-1.08c-0.45-0.39,0.07,0.07,0.12,0.22c0.17,0.53,0.4,1.2,0.34,1.76c-0.02,0.16-0.25,0.65-0.23,0.77
			c-0.02-0.1,0.31-0.58,0.38-0.72c0.29-0.54,0.55-1.08,0.79-1.64c1.82-4.3,0.72-9.33-2.63-12.57c-1.04-1.01-2.28-1.78-3.33-2.77
			c-0.06-0.05-0.67-0.69-0.67-0.7c-0.01,0.01,0.64,0.79,0.31,0.37c-0.02-0.03-0.24-0.41-0.24-0.41c0.05-0.02,0.37,1.07,0.19,0.38
			c-0.15-0.57-0.01,0.13-0.01,0.22c0-0.22,0.03-0.47,0-0.68c-0.07-0.67-0.17,0.62-0.01-0.05c1.31-5.19,1.6-10.28,0.84-15.56
			c-0.37-2.6-3.81-4.25-6.15-3.49C275.37,500.37,274.32,502.82,274.72,505.6L274.72,505.6z"/>
	</g>
</g>
<g>
	<g>
		<path class="st1" d="M227.68,426.03c0.45,1.5,0.79,3.01,1,4.57c-0.12-0.89-0.24-1.77-0.36-2.66c0.11,0.93,0.19,1.86,0.22,2.8
			c6.21-1.68,12.42-3.36,18.63-5.05c-0.92-1.44-1.84-2.88-2.77-4.32c-0.85-1.33-1.82-2.63-2.47-4.07c0.34,0.8,0.67,1.59,1.01,2.39
			c-0.14-0.38-0.23-0.71-0.29-1.11c0.12,0.89,0.24,1.77,0.36,2.66c0-0.12,0-0.24,0-0.37c-0.12,0.89-0.24,1.77-0.36,2.66
			c0.02-0.25,0.08-0.49,0.19-0.72c-0.34,0.8-0.67,1.59-1.01,2.39c0.05-0.09,0.1-0.18,0.15-0.27c-0.52,0.67-1.04,1.35-1.56,2.02
			c0.11-0.17,0.25-0.31,0.4-0.44c-0.67,0.52-1.35,1.04-2.02,1.56c0.26-0.19,0.5-0.33,0.79-0.46c-0.8,0.34-1.59,0.67-2.39,1.01
			c1.06-0.39,2.19-0.49,3.31-0.64c-0.89,0.12-1.77,0.24-2.66,0.36c3.96-0.53,7.94-0.93,11.93-0.45c-0.89-0.12-1.77-0.24-2.66-0.36
			c2.11,0.3,4.12,0.86,6.09,1.67c-0.8-0.34-1.59-0.67-2.39-1.01c3.98,1.72,7.59,4.23,11.01,6.86c-0.67-0.52-1.35-1.04-2.02-1.56
			c3.49,2.71,6.73,5.72,9.45,9.23c-0.52-0.67-1.04-1.35-1.56-2.02c0.83,1.1,1.61,2.23,2.32,3.41c1.32,2.17,3.51,3.92,5.98,4.6
			c2.39,0.66,5.58,0.36,7.71-1.01c4.79-3.09,6.11-8.67,3.59-13.68c-4.76-9.46-12.41-17.46-21.41-22.98
			c-3.36,5.76-6.73,11.51-10.09,17.27c0.81,0.48,1.58,1,2.33,1.57c-0.67-0.52-1.35-1.04-2.02-1.56c2.99,2.33,5.41,5.24,7.72,8.22
			c-0.52-0.67-1.04-1.35-1.56-2.02c4.8,6.23,9.32,12.72,16.25,16.79c4.13,2.42,8.84,3.76,13.4,5.14c4.23,1.28,8.47,2.56,12.7,3.84
			c4.36,1.32,8.86,2.42,13.09,4.13c-0.8-0.34-1.59-0.67-2.39-1.01c1.33,0.56,2.59,1.22,3.76,2.09c-0.67-0.52-1.35-1.04-2.02-1.56
			c0.65,0.51,1.22,1.06,1.74,1.7c-0.52-0.67-1.04-1.35-1.56-2.02c0.46,0.6,0.83,1.22,1.14,1.9c-0.34-0.8-0.67-1.59-1.01-2.39
			c0.3,0.75,0.51,1.51,0.64,2.31c-0.12-0.89-0.24-1.77-0.36-2.66c0.13,1.09,0.12,2.15,0,3.24c0.12-0.89,0.24-1.77,0.36-2.66
			c-0.25,1.8-0.76,3.51-1.44,5.19c-0.12,0.89-0.24,1.77-0.36,2.66c-0.05,1.38,0.24,2.66,0.86,3.85c0.81,1.92,2.2,3.78,4.09,4.78
			c4.08,2.16,8.7,1.53,12.12-1.56c3.01-2.72,5.2-6.52,6.23-10.43c-6.43-1.77-12.86-3.54-19.29-5.32c-0.39,1.71-0.93,3.36-1.61,4.98
			c0.34-0.8,0.67-1.59,1.01-2.39c-1.67,3.88-4.03,7.38-6.6,10.72c0.52-0.67,1.04-1.35,1.56-2.02c-5.11,6.59-11.05,12.7-15.13,20.02
			c-5.41,9.69-6.34,20.81-7.5,31.65c-0.62,5.8-0.94,11.63-0.39,17.45c6.21-1.68,12.42-3.36,18.63-5.05
			c-1.52-2.04-2.74-4.25-3.75-6.58c0.34,0.8,0.67,1.59,1.01,2.39c-2.47-5.89-3.62-12.24-4.8-18.48c-1.31-6.95-2.44-13.94-3.39-20.95
			c0.12,0.89,0.24,1.77,0.36,2.66c-0.47-3.47-0.96-6.96-0.56-10.46c-0.12,0.89-0.24,1.77-0.36,2.66c0.26-1.86,0.78-3.63,1.51-5.35
			c-0.34,0.8-0.67,1.59-1.01,2.39c1.28-2.9,3.04-5.51,4.97-8.01c-0.52,0.67-1.04,1.35-1.56,2.02c3.22-4.11,6.91-7.79,11.01-11.01
			c-0.67,0.52-1.35,1.04-2.02,1.56c1.36-1.05,2.73-2.14,4.3-2.85c-0.8,0.34-1.59,0.67-2.39,1.01c0.55-0.22,1.09-0.39,1.67-0.49
			c-0.89,0.12-1.77,0.24-2.66,0.36c0.33-0.03,0.63-0.04,0.97-0.02c-0.89-0.12-1.77-0.24-2.66-0.36c0.32,0.05,0.58,0.13,0.88,0.25
			c-0.8-0.34-1.59-0.67-2.39-1.01c0.19,0.09,0.36,0.21,0.52,0.35c-0.67-0.52-1.35-1.04-2.02-1.56c0.17,0.15,0.33,0.32,0.46,0.51
			c-0.52-0.67-1.04-1.35-1.56-2.02c0.06,0.1,0.12,0.2,0.17,0.3c-0.34-0.8-0.67-1.59-1.01-2.39c0.14,0.34,0.22,0.63,0.27,0.99
			c-0.12-0.89-0.24-1.77-0.36-2.66c0.02,0.37,0.01,0.71-0.03,1.08c0.12-0.89,0.24-1.77,0.36-2.66c-0.13,0.76-0.35,1.46-0.64,2.18
			c0.34-0.8,0.67-1.59,1.01-2.39c-1.97,4.67-4.25,9.23-6.7,13.66c-2.38,4.3-4.87,8.63-7.84,12.56c0.52-0.67,1.04-1.35,1.56-2.02
			c-1.29,1.67-2.7,3.21-4.35,4.52c0.67-0.52,1.35-1.04,2.02-1.56c-1.09,0.83-2.25,1.53-3.5,2.09c0.8-0.34,1.59-0.67,2.39-1.01
			c-1.13,0.47-2.28,0.8-3.49,0.98c0.89-0.12,1.77-0.24,2.66-0.36c-0.95,0.11-1.86,0.11-2.81,0c3.21,2.45,6.43,4.89,9.64,7.34
			c-2.47-8.29-6.86-15.9-12.8-22.2c-5.76-6.12-13.05-10.24-20.36-14.2c-3.77-2.04-7.51-4.14-10.92-6.75
			c0.67,0.52,1.35,1.04,2.02,1.56c-2.35-1.84-4.51-3.88-6.36-6.22c0.52,0.67,1.04,1.35,1.56,2.02c-1.31-1.71-2.43-3.54-3.28-5.52
			c0.34,0.8,0.67,1.59,1.01,2.39c-0.63-1.55-1.07-3.14-1.32-4.8c0.12,0.89,0.24,1.77,0.36,2.66c-0.74-5.76,0.33-11.7-1.74-17.29
			c-0.78-2.1-1.77-3.8-3.58-5.19c-1.69-1.3-3.87-2.25-6.06-2.15c-1.78,0.08-3.48,0.54-5.05,1.37c-2.04,1.08-4.12,3.71-4.6,5.98
			c-0.74,3.52-1.3,7.11-1.57,10.7c-0.27,3.55,0.04,6.98,0.56,10.5c0.9,6,3.62,11.42,7.4,16.1c4.01,4.96,9.91,7.88,15.98,9.48
			c5.42,1.43,10.97,2.47,16.51,3.35c7.13,1.13,14.3,1.97,21.5,2.43c3.1,0.2,6.04-1.59,7.85-3.94c2-2.58,2.51-5.54,1.79-8.72
			c-1.76-7.82-5.82-14.95-11.12-20.91c-5.33-6-12.25-10.35-19.75-13.09c-3.86-1.41-8.04-1.57-11.86-3.04
			c0.8,0.34,1.59,0.67,2.39,1.01c-0.87-0.37-1.65-0.79-2.4-1.37c0.67,0.52,1.35,1.04,2.02,1.56c-0.49-0.41-0.92-0.85-1.33-1.34
			c0.52,0.67,1.04,1.35,1.56,2.02c-0.38-0.5-0.68-1.02-0.95-1.59c0.34,0.8,0.67,1.59,1.01,2.39c-0.18-0.46-0.3-0.9-0.39-1.38
			c0.12,0.89,0.24,1.77,0.36,2.66c-0.05-0.49-0.04-0.94,0.02-1.43c-0.12,0.89-0.24,1.77-0.36,2.66c0.03-0.12,0.05-0.24,0.08-0.36
			c-6.09,0.8-12.18,1.59-18.28,2.39c4.98,7.62,10.7,14.91,17.32,21.18c6.49,6.16,13.92,11.68,22.13,15.32
			c4.99,2.21,10.05,4.05,15.45,4.98c2.29,0.4,4.31,0.42,6.51-0.5c1.92-0.81,3.78-2.2,4.78-4.09c0.83-1.57,1.29-3.27,1.37-5.05
			c0.1-2.21-1.13-5.65-2.93-7.07c-5.31-4.19-10.62-8.38-15.92-12.57c-2.36,5.69-4.71,11.38-7.07,17.07
			c1.04,0.01,2.07,0.08,3.11,0.21c-0.89-0.12-1.77-0.24-2.66-0.36c2.07,0.3,4.06,0.84,6,1.63c-0.8-0.34-1.59-0.67-2.39-1.01
			c2.04,0.87,3.95,1.97,5.71,3.32c-0.67-0.52-1.35-1.04-2.02-1.56c1.54,1.22,2.91,2.58,4.12,4.12c-0.52-0.67-1.04-1.35-1.56-2.02
			c0.08,0.1,0.16,0.21,0.24,0.31c1.65,2.16,3.25,3.84,5.98,4.6c2.39,0.66,5.58,0.36,7.71-1.01c2.14-1.38,4.01-3.43,4.6-5.98
			c0.56-2.44,0.58-5.62-1.01-7.71c-3.3-4.34-7.11-8.14-12.06-10.61c-4.95-2.48-10.19-3.89-15.75-3.93
			c-3.99-0.03-7.62,2.54-9.14,6.15c-0.72,1.7-0.93,3.35-0.68,5.18c0.27,1.98,1.12,4.45,2.75,5.74c5.31,4.19,10.62,8.38,15.92,12.57
			c3.24-5.57,6.49-11.14,9.73-16.71c-4.13-0.71-8.15-1.91-12.02-3.52c0.8,0.34,1.59,0.67,2.39,1.01c-5.27-2.24-10.17-5.2-14.71-8.68
			c0.67,0.52,1.35,1.04,2.02,1.56c-6.35-4.92-11.92-10.76-16.83-17.1c0.52,0.67,1.04,1.35,1.56,2.02c-1.89-2.46-3.68-4.99-5.37-7.58
			c-2.23-3.41-5.85-5.33-9.96-4.77c-3.7,0.5-7.5,3.31-8.31,7.16c-0.9,4.27-0.4,8.86,2.25,12.47c1.65,2.25,3.04,3.64,5.37,5.26
			c1.52,1.06,3.41,1.75,5.13,2.33c2.2,0.74,4.52,0.98,6.78,1.49c2.04,0.46,4.02,1.11,5.95,1.91c-0.8-0.34-1.59-0.67-2.39-1.01
			c2.97,1.27,5.74,2.9,8.31,4.86c-0.67-0.52-1.35-1.04-2.02-1.56c2.65,2.06,5.02,4.42,7.08,7.07c-0.52-0.67-1.04-1.35-1.56-2.02
			c1.96,2.56,3.6,5.34,4.87,8.3c-0.34-0.8-0.67-1.59-1.01-2.39c0.83,1.99,1.48,4.03,1.96,6.12c3.21-4.22,6.43-8.44,9.64-12.66
			c-4.69-0.3-9.37-0.75-14.03-1.37c0.89,0.12,1.77,0.24,2.66,0.36c-4.42-0.6-8.82-1.33-13.19-2.21c-4.17-0.84-8.47-1.64-12.42-3.24
			c0.8,0.34,1.59,0.67,2.39,1.01c-1.53-0.66-2.94-1.46-4.26-2.47c0.67,0.52,1.35,1.04,2.02,1.56c-1.17-0.94-2.2-2-3.14-3.17
			c0.52,0.67,1.04,1.35,1.56,2.02c-1.23-1.6-2.22-3.34-3.01-5.2c0.34,0.8,0.67,1.59,1.01,2.39c-0.86-2.12-1.42-4.31-1.74-6.57
			c0.12,0.89,0.24,1.77,0.36,2.66c-0.44-3.49-0.32-6.98,0.13-10.46c-0.12,0.89-0.24,1.77-0.36,2.66c0.24-1.74,0.55-3.47,0.91-5.19
			c-6.43,0-12.86,0-19.29,0c0.41,1.12,0.68,2.25,0.86,3.43c-0.12-0.89-0.24-1.77-0.36-2.66c0.27,2.16,0.25,4.32,0.26,6.49
			c0.02,2.87,0.24,5.75,0.83,8.57c0.96,4.64,3.32,8.83,6.18,12.53c5.53,7.16,13.21,11.83,21.06,16.07c4.26,2.3,8.51,4.61,12.36,7.56
			c-0.67-0.52-1.35-1.04-2.02-1.56c2.94,2.3,5.56,4.94,7.84,7.88c-0.52-0.67-1.04-1.35-1.56-2.02c2.34,3.07,4.28,6.4,5.79,9.95
			c-0.34-0.8-0.67-1.59-1.01-2.39c0.61,1.47,1.14,2.97,1.6,4.5c0.63,2.11,1.85,3.86,3.58,5.19c1.89,1.46,3.67,1.87,6.06,2.15
			c7.04,0.82,14.28-3.03,19.05-7.96c4.08-4.21,7.19-9.47,10.1-14.52c2.75-4.76,5.25-9.66,7.48-14.68c1.89-4.25,3.64-8.51,2.24-13.24
			c-0.91-3.09-3.02-5.7-5.74-7.37c-2.91-1.79-6.43-1.96-9.69-1.32c-3.02,0.59-5.61,2.26-8.02,4.09c-2.58,1.96-5.11,3.97-7.44,6.23
			c-4.14,4-8.01,8.62-10.91,13.59c-3.5,6-5.08,12.69-4.4,19.62c0.63,6.44,1.68,12.87,2.74,19.26c1.02,6.16,2.09,12.34,3.56,18.41
			c1.49,6.18,3.7,12.54,7.54,17.68c1.35,1.8,2.65,3.19,4.78,4.09c1.99,0.84,4.4,1.19,6.51,0.5c1.65-0.53,3.14-1.4,4.41-2.57
			c1.67-1.54,3.15-4.76,2.93-7.07c-0.87-9.04,0.38-18.08,1.58-27.03c-0.12,0.89-0.24,1.77-0.36,2.66c0.62-4.62,1.41-9.22,3.23-13.54
			c-0.34,0.8-0.67,1.59-1.01,2.39c1.7-3.92,4.09-7.47,6.69-10.85c-0.52,0.67-1.04,1.35-1.56,2.02c7.43-9.59,16.56-18.49,19.37-30.74
			c0.6-2.6,0.36-5.37-1.01-7.71c-1.21-2.07-3.59-4.05-5.98-4.6c-5.24-1.19-10.88,1.57-12.3,6.98c-0.17,0.64-0.38,1.26-0.64,1.88
			c0.34-0.8,0.67-1.59,1.01-2.39c-0.39,0.85-0.85,1.64-1.4,2.39c0.52-0.67,1.04-1.35,1.56-2.02c-0.49,0.63-1.03,1.2-1.62,1.74
			c5.57,3.24,11.14,6.49,16.71,9.73c1.88-4.66,2.61-10.23,1.14-15.11c-1.55-5.17-5.28-9.49-10.09-11.93
			c-3.9-1.98-8.1-3.14-12.26-4.4c-4.08-1.23-8.15-2.47-12.23-3.7c-4.47-1.35-9.08-2.5-13.39-4.31c0.8,0.34,1.59,0.67,2.39,1.01
			c-1.83-0.8-3.52-1.76-5.11-2.96c0.67,0.52,1.35,1.04,2.02,1.56c-2.99-2.33-5.41-5.24-7.72-8.22c0.52,0.67,1.04,1.35,1.56,2.02
			c-4.83-6.26-9.32-12.65-16.25-16.79c-4.5-2.68-11.18-1.16-13.68,3.59c-2.58,4.88-1.18,10.76,3.59,13.68
			c1.47,0.9,2.89,1.88,4.27,2.93c-0.67-0.52-1.35-1.04-2.02-1.56c3.26,2.53,6.17,5.45,8.7,8.71c-0.52-0.67-1.04-1.35-1.56-2.02
			c1.86,2.43,3.48,5.02,4.85,7.75c5.76-3.36,11.51-6.73,17.27-10.09c-2.64-4.35-6.02-8.35-9.82-11.74
			c-3.93-3.5-8.25-6.81-12.82-9.45c-5.54-3.21-11.55-5.02-17.96-5.15c-2.56-0.05-5.12,0.2-7.65,0.52
			c-3.55,0.45-7.09,0.62-10.22,2.54c-3.19,1.96-5.15,5.16-5.64,8.82c-0.42,3.11,0.37,6.04,1.93,8.74c1.48,2.56,3.19,5.01,4.78,7.51
			c2.31,3.61,6.99,5.99,11.29,4.6c4.1-1.33,7.5-5.13,7.34-9.64c-0.12-3.37-0.61-6.79-1.58-10.02c-0.74-2.45-2.37-4.67-4.6-5.98
			c-2.14-1.25-5.3-1.79-7.71-1.01C229.61,415.37,226.06,420.67,227.68,426.03L227.68,426.03z"/>
	</g>
</g>
<g>
	<g>
		<path class="st1" d="M339.43,162.13c-3.14,3.22-3.1,7.82-1.14,11.64c1.55,3.01,4.64,5.3,7.66,6.68c3.21,1.47,7.09,3.14,10.67,3.15
			c1.13,0.01,2.28-0.22,3.39-0.41c0.16-0.03,1.49-0.27,0.94-0.18c-0.62,0.1,0.61-0.06,0.73-0.07c0.39-0.03,2.55-0.34,2.74-0.04
			c-0.18-0.03-0.36-0.06-0.54-0.09c0.54,0.15,0.52,0.1-0.07-0.14c-0.8-0.5-1.24-1.49-1.27-2.41c0.14,3.79,4.14,6.22,7.52,4.32
			c0.51-0.26,0.51-0.28-0.02-0.06c0.2-0.08,0.41-0.14,0.62-0.2c0.21-0.06,0.42-0.11,0.63-0.15c-0.61,0.08-0.62,0.1-0.03,0.07
			c-1.44-2.51-2.88-5.02-4.32-7.52c-1.63,2.71-3.16,5.43-4.34,8.37c-1.17,2.92-1.61,5.96-1.92,9.08c-0.07,0.66-0.12,1.31-0.19,1.97
			c-0.04,0.36-0.08,0.73-0.11,1.09c-0.05,0.52-0.05,0.44,0.02-0.03c-0.2,1.36-0.47,2.71-0.92,4c-0.16,0.44-0.38,0.82-0.06,0.18
			c-0.15,0.3-0.3,0.61-0.46,0.91c-0.28,0.54-0.58,1.08-0.85,1.63c-0.91,1.87-1.39,3.51-1.66,5.56c3.33,0,6.67,0,10,0
			c-0.17-1.82-0.35-3.64-0.52-5.46c-0.2-2.09-0.25-4.28-1.32-6.16c-0.87-1.54-2.24-2.6-3.53-3.75c-1.12-1-2.21-2.02-3.28-3.08
			c-2.13-2.11-4.15-4.33-6.01-6.67c-0.26-0.33-0.56-0.73-0.14-0.17c-0.26-0.34-0.51-0.68-0.77-1.03c-0.42-0.57-0.83-1.16-1.23-1.75
			c-0.88-1.3-1.7-2.63-2.48-3.99c-2.28,2.28-4.56,4.56-6.84,6.84c6.35,2.86,12.86,4.61,19.79,5.34c-1.67-1.67-3.33-3.33-5-5
			c0.16,1.39,0.26,2.79,0.25,4.19c0,0.62-0.03,1.25-0.07,1.87c-0.03,0.39-0.06,0.78-0.1,1.16c-0.02,0.19-0.17,1.26-0.03,0.29
			c2.79-0.74,5.57-1.47,8.36-2.21c-2.2-1.82-4.23-3.81-6.09-5.98c-1.71-1.99-5.34-1.89-7.07,0c-1.95,2.12-1.83,4.95,0,7.07
			c1.86,2.17,3.89,4.16,6.09,5.98c1.41,1.17,3.02,1.79,4.86,1.29c1.52-0.42,3.25-1.83,3.49-3.49c0.5-3.41,0.71-6.75,0.3-10.17
			c-0.34-2.91-2.03-4.69-5-5c-0.38-0.04-0.76-0.09-1.14-0.13c-0.8-0.08,0.75,0.13-0.04-0.01c-0.68-0.12-1.36-0.21-2.04-0.34
			c-1.43-0.27-2.86-0.59-4.27-0.97c-1.33-0.36-2.65-0.77-3.96-1.23c-0.65-0.23-1.3-0.47-1.94-0.72c-0.29-0.11-0.57-0.23-0.85-0.35
			c0.94,0.39-0.43-0.2-0.5-0.23c-1.98-0.89-4.46-0.96-6.06,0.78c-1.52,1.65-1.92,4.07-0.78,6.06c3,5.24,6.78,10.07,10.99,14.4
			c1.97,2.03,4.09,3.88,6.18,5.79c0.23,0.21,0.72,0.85,0.08-0.07c0.38,0.55,0.11,0.01-0.03-0.28c-0.25-0.51,0.05,0.5,0.08,0.71
			c0.04,0.41,0.08,0.83,0.12,1.24c0.17,1.74,0.33,3.47,0.5,5.21c0.25,2.6,2.12,5.13,5,5c3-0.13,4.63-2.21,5-5
			c-0.09,0.68-0.06,0.51,0.11-0.04c0.04-0.11,0.35-0.92,0.1-0.34c-0.28,0.65,0.26-0.49,0.26-0.5c0.12-0.24,0.25-0.48,0.38-0.72
			c0.72-1.37,1.39-2.76,1.88-4.23c0.92-2.76,1.13-5.74,1.41-8.61c0.06-0.58,0.12-1.17,0.18-1.75c0.14-1.4-0.12,0.6,0.02-0.19
			c0.05-0.29,0.09-0.58,0.14-0.86c0.24-1.32,0.59-2.6,1.07-3.86c0.13-0.35,0.4-0.91,0.1-0.26c0.13-0.27,0.25-0.55,0.38-0.82
			c0.29-0.61,0.61-1.21,0.93-1.81c0.69-1.26,1.43-2.49,2.17-3.72c1.93-3.21-0.54-7.61-4.32-7.52c-2.24,0.05-4.3,0.6-6.25,1.7
			c2.51,1.44,5.02,2.88,7.52,4.32c-0.1-2.64-1.41-4.87-3.68-6.22c-1.7-1.02-3.84-1.19-5.78-1.16c-2.01,0.03-3.99,0.36-5.96,0.72
			c0.72-0.13,0.14-0.01-0.27,0.01c-0.44,0.01-0.98-0.11-0.27,0.04c-0.79-0.17-1.56-0.43-2.33-0.67c-0.63-0.2-1.25-0.41-1.88-0.63
			c-0.31-0.11-0.62-0.22-0.93-0.34c-0.25-0.1-1.37-0.35-0.27-0.1c-0.58-0.13-1.23-0.59-1.75-0.88c-0.34-0.19-0.66-0.41-0.99-0.61
			c-0.79-0.49,0.36,0.37-0.06-0.03c-0.23-0.22-0.48-0.42-0.71-0.65c-0.14-0.14-0.27-0.28-0.4-0.42c-0.25-0.28-0.18-0.18,0.2,0.3
			c0.02-0.07-0.33-0.5-0.38-0.58c-0.09-0.15-0.17-0.3-0.24-0.46c-0.16-0.34-0.11-0.21,0.17,0.39c-0.11-0.03-0.2-0.75-0.22-0.84
			c-0.18-0.64,0.28,1.07,0.07,0.16c0.03-0.44,0.03-0.44-0.02,0.02c-0.07,0.45-0.05,0.46,0.06,0.04c-0.09,0.31-1.02,1.49-0.41,0.87
			c1.83-1.87,2.01-5.23,0-7.07C344.52,160.31,341.38,160.13,339.43,162.13L339.43,162.13z"/>
	</g>
</g>
<g>
	<g>
		<path class="st1" d="M501.27,428.99c-0.05,0.83-0.12,1.65-0.22,2.47c0.12-0.89,0.24-1.77,0.36-2.66
			c-0.28,2.05-0.75,4.05-1.52,5.97c0.34-0.8,0.67-1.59,1.01-2.39c-0.59,1.39-1.31,2.68-2.22,3.89c0.52-0.67,1.04-1.35,1.56-2.02
			c-2.14,2.71-4.99,4.67-7.67,6.8c-2.7,2.15-5.32,4.42-7.66,6.97c-2.65,2.89-4.95,6.1-6.95,9.47c-1.5,2.54-2.92,5.12-4.7,7.48
			c0.52-0.67,1.04-1.35,1.56-2.02c-1.02,1.31-2.15,2.51-3.46,3.54c0.67-0.52,1.35-1.04,2.02-1.56c-1.37,1.02-2.86,1.67-4.41,2.38
			c-2.77,1.27-5.02,3.26-6.73,5.76c-1.76,2.58-2.46,5.89-2.41,8.97c0.03,1.85,0.4,3.67,0.19,5.52c0.12-0.89,0.24-1.77,0.36-2.66
			c-0.12,0.79-0.33,1.52-0.63,2.26c0.34-0.8,0.67-1.59,1.01-2.39c-0.37,0.82-0.82,1.57-1.36,2.29c0.52-0.67,1.04-1.35,1.56-2.02
			c-1.02,1.29-2.23,2.38-3.52,3.4c0.67-0.52,1.35-1.04,2.02-1.56c-2.83,2.16-6.29,3.78-8.74,6.38c-3.71,3.95-4.75,9.26-4.09,14.49
			c0.35,2.75,0.89,5.03,2.93,7.07c1.73,1.73,4.58,3.04,7.07,2.93c2.59-0.12,5.27-0.97,7.07-2.93c1.66-1.81,3.25-4.51,2.93-7.07
			c-0.18-1.41-0.31-2.8-0.17-4.22c-0.12,0.89-0.24,1.77-0.36,2.66c0.09-0.62,0.23-1.2,0.45-1.79c-0.34,0.8-0.67,1.59-1.01,2.39
			c0.21-0.46,0.45-0.86,0.75-1.27c-0.52,0.67-1.04,1.35-1.56,2.02c0.35-0.39,0.72-0.73,1.14-1.05c-0.67,0.52-1.35,1.04-2.02,1.56
			c1.73-1.24,3.57-2.31,5.28-3.58c2.99-2.24,5.32-4.3,7.54-7.31c2.09-2.83,2.99-6.14,3.36-9.59c0.25-2.36-0.39-4.7-0.11-7.05
			c-0.12,0.89-0.24,1.77-0.36,2.66c0.09-0.5,0.21-0.96,0.4-1.44c-0.34,0.8-0.67,1.59-1.01,2.39c0.17-0.34,0.35-0.65,0.57-0.96
			c-0.52,0.67-1.04,1.35-1.56,2.02c0.3-0.36,0.62-0.67,0.98-0.96c-0.67,0.52-1.35,1.04-2.02,1.56c1.85-1.33,4.11-1.88,5.99-3.18
			c3.23-2.23,5.51-4.7,7.84-7.83c2.83-3.82,4.78-8.21,7.65-12c-0.52,0.67-1.04,1.35-1.56,2.02c4.09-5.26,9.41-8.93,14.42-13.2
			c6.73-5.74,9.54-13.98,10.02-22.6c0.29-5.23-4.8-10.23-10-10C505.6,419.24,501.57,423.38,501.27,428.99L501.27,428.99z"/>
	</g>
</g>
<g>
	<g>
		<path class="st1" d="M450.42,532.15c5.23,0,10.24-4.6,10-10c-0.24-5.42-4.39-10-10-10c-5.23,0-10.24,4.6-10,10
			C440.66,527.57,444.82,532.15,450.42,532.15L450.42,532.15z"/>
	</g>
</g>
<g>
	<g>
		<path class="st1" d="M448.71,532.15c5.23,0,10.24-4.6,10-10c-0.24-5.42-4.39-10-10-10c-5.23,0-10.24,4.6-10,10
			C438.96,527.57,443.11,532.15,448.71,532.15L448.71,532.15z"/>
	</g>
</g>
<g>
	<g>
		<path class="st1" d="M460.53,528.46c14.94-7.17,29.25-15.64,42.7-25.32c4.39-3.16,8.69-6.46,12.93-9.82
			c-5.24-4.04-10.47-8.08-15.71-12.12c-0.3,0.66-0.6,1.31-0.91,1.97c-0.97,2.11-1.5,4.02-1.19,6.38c0.28,2.1,1.14,4.27,2.75,5.74
			c1.28,1.17,2.76,2.04,4.41,2.57c2.19,0.71,5.79,0.36,7.71-1.01c5.05-3.61,9.3-7.9,12.51-13.26c1.56-2.6,2.78-5.44,3.79-8.29
			c1.06-3,1.5-6.04,1.91-9.18c-0.12-0.89-0.24-1.77-0.36-2.66c-0.34-0.8-0.67-1.59-1.01-2.39c-1.1-1.88-2.8-3.25-4.78-4.09
			c-1.7-0.72-3.35-0.93-5.18-0.68c-2.33,0.31-3.91,1.26-5.74,2.75c-7.27,5.92-14.55,11.85-21.96,17.59
			c0.67-0.52,1.35-1.04,2.02-1.56c-3.13,2.42-6.29,4.81-9.49,7.15c-2.94,2.15-5.86,4.42-9.2,5.91c0.8-0.34,1.59-0.67,2.39-1.01
			c-0.88,0.37-1.78,0.71-2.72,0.9c0.89-0.12,1.77-0.24,2.66-0.36c-0.23,0.04-0.46,0.05-0.7,0.03c0.89,0.12,1.77,0.24,2.66,0.36
			c-0.23-0.02-0.44-0.07-0.64-0.17c0.8,0.34,1.59,0.67,2.39,1.01c-0.09-0.06-0.19-0.13-0.28-0.19c0.67,0.52,1.35,1.04,2.02,1.56
			c-0.07-0.08-0.14-0.15-0.21-0.23c0.52,0.67,1.04,1.35,1.56,2.02c-0.05-0.08-0.09-0.17-0.14-0.25c0.34,0.8,0.67,1.59,1.01,2.39
			c-0.03-0.09-0.05-0.18-0.08-0.26c0.12,0.89,0.24,1.77,0.36,2.66c-0.03-0.19-0.03-0.38,0.01-0.57c-0.12,0.89-0.24,1.77-0.36,2.66
			c0.04-0.21,0.1-0.4,0.19-0.59c-0.34,0.8-0.67,1.59-1.01,2.39c0.16-0.32,0.33-0.59,0.54-0.87c-0.52,0.67-1.04,1.35-1.56,2.02
			c0.82-0.99,1.9-1.72,2.9-2.52c1.22-0.98,2.44-1.95,3.66-2.93c2.38-1.9,4.75-3.8,7.13-5.7c1.87-1.49,2.93-4.79,2.93-7.07
			c0-2.45-1.09-5.38-2.93-7.07c-1.91-1.75-4.41-3.05-7.07-2.93c-0.89,0.12-1.77,0.24-2.66,0.36c-1.69,0.48-3.16,1.33-4.41,2.57
			c-2.25,1.8-4.5,3.59-6.74,5.39c-2.13,1.7-4.55,3.3-6.48,5.23c-4.66,4.66-5.76,12.16-0.99,17.22c2.17,2.3,5.56,3.65,8.72,3.51
			c2.54-0.11,4.47-0.82,6.74-1.78c5.19-2.19,9.62-5.81,14.1-9.16c5.08-3.81,10.09-7.71,15.06-11.66c4.94-3.93,9.82-7.91,14.71-11.9
			c-5.69-2.36-11.38-4.71-17.07-7.07c-0.02,0.13-0.03,0.25-0.05,0.38c0.12-0.89,0.24-1.77,0.36-2.66c-0.39,2.67-1.11,5.26-2.13,7.76
			c0.34-0.8,0.67-1.59,1.01-2.39c-1.1,2.61-2.51,5.04-4.21,7.3c0.52-0.67,1.04-1.35,1.56-2.02c-1.73,2.24-3.71,4.24-5.95,5.97
			c0.67-0.52,1.35-1.04,2.02-1.56c-0.31,0.23-0.62,0.46-0.93,0.68c4.56,4.56,9.12,9.12,13.68,13.68c0.3-0.66,0.6-1.31,0.91-1.97
			c1.1-2.39,1.86-5.06,1.01-7.71c-0.68-2.11-1.82-3.83-3.58-5.19c-1.69-1.3-3.87-2.25-6.06-2.15c-0.89,0.12-1.77,0.24-2.66,0.36
			c-1.69,0.48-3.16,1.33-4.41,2.57c-1.07,0.85-2.15,1.7-3.23,2.53c0.67-0.52,1.35-1.04,2.02-1.56
			c-12.16,9.38-25.07,17.78-38.59,25.06c-3.88,2.09-7.81,4.08-11.79,5.99c-2.15,1.03-3.98,3.75-4.6,5.98
			c-0.66,2.39-0.36,5.58,1.01,7.71c1.38,2.14,3.43,4.01,5.98,4.6C455.57,530.09,457.99,529.68,460.53,528.46L460.53,528.46z"/>
	</g>
</g>
<g>
	<g>
		<path class="st1" d="M447.24,194.16c1.08,3.83,2.5,7.56,4.26,11.13c0.85,1.72,1.74,3.48,3.32,4.64c1.47,1.08,3.29,1.39,5.02,1.81
			c0.97,0.23,1.95,0.47,2.92,0.7c0.62,0.15,1.47,0.19,2.03,0.5c0.1,0.05-0.16-0.3-0.15-0.25c0.03,0.3-0.08,0.66-0.12,0.95
			c-0.15,1.01-0.24,1.99,0.08,2.98c0.61,1.94,2.32,3.39,3.68,4.83c1.41,1.5,2.83,3,4.24,4.49c2.21,2.35,5.74-1.2,3.54-3.54
			c-1.36-1.44-2.72-2.88-4.08-4.32c-0.69-0.73-1.42-1.44-2.08-2.2c-0.35-0.4-0.54-0.56-0.53-1.1c0.01-0.82,0.31-1.61,0.26-2.44
			c-0.06-1-0.39-1.96-1.06-2.71c-1.21-1.36-3.02-1.66-4.71-2.07c-1.78-0.43-3.67-0.72-5.4-1.33c-1.34-0.47-1.85-1.88-2.45-3.07
			c-1.66-3.31-2.96-6.77-3.96-10.34C451.19,189.74,446.37,191.05,447.24,194.16L447.24,194.16z"/>
	</g>
</g>
<g>
	<g>
		<path class="st1" d="M453.06,194.64c2.41-0.55,4.89,0.54,7.15,1.27c2.9,0.93,5.77,1.1,8.77,1.4c5.43,0.55,10.81,2.13,15.71,4.53
			c1.21,0.59,2.7,0.33,3.42-0.9c0.64-1.1,0.32-2.83-0.9-3.42c-5.62-2.74-11.57-4.48-17.78-5.16c-1.53-0.17-3.09-0.17-4.61-0.41
			c-1.4-0.22-2.76-0.69-4.11-1.13c-2.95-0.96-5.88-1.71-8.98-1C448.6,190.54,449.92,195.36,453.06,194.64L453.06,194.64z"/>
	</g>
</g>
<g>
	<g>
		<path class="st1" d="M457.35,202.38c-0.06,0.42-0.14,0.86-0.13,1.29c0,0.42,0.07,0.85,0.14,1.27c0.04,0.21,0.09,0.42,0.16,0.63
			c0.14,0.4,0.3,0.8,0.51,1.17c0.5-1.22,1-2.45,1.49-3.67c-0.02,0-0.04,0.01-0.07,0.01c0.22-0.03,0.44-0.06,0.66-0.09
			c-0.13,0.01-0.27,0.01-0.4,0c0.22,0.03,0.44,0.06,0.66,0.09c-0.14-0.02-0.28-0.06-0.42-0.12c0.2,0.08,0.4,0.17,0.6,0.25
			c-0.16-0.07-0.3-0.15-0.44-0.26c0.17,0.13,0.34,0.26,0.51,0.39c-0.13-0.11-0.25-0.23-0.36-0.36c0.13,0.17,0.26,0.34,0.39,0.51
			c-0.09-0.13-0.17-0.26-0.24-0.41c0.08,0.2,0.17,0.4,0.25,0.6c-0.06-0.13-0.09-0.27-0.12-0.42c0.03,0.22,0.06,0.44,0.09,0.66
			c-0.01-0.11-0.02-0.22-0.01-0.34c0.01-0.34-0.06-0.67-0.22-0.96c-0.1-0.31-0.27-0.58-0.52-0.8c-0.23-0.24-0.49-0.42-0.8-0.52
			c-0.3-0.16-0.62-0.23-0.96-0.22c-0.22,0.03-0.44,0.06-0.66,0.09c-0.42,0.12-0.79,0.33-1.1,0.64c-0.13,0.17-0.26,0.34-0.39,0.51
			c-0.23,0.39-0.34,0.81-0.34,1.26c-0.01,0.07-0.01,0.15,0,0.22c0.02,0.28,0.06,0.57,0.11,0.85c0.06,0.33,0.22,0.65,0.36,0.95
			c0.06,0.13,0.13,0.26,0.22,0.38c0.2,0.27,0.4,0.57,0.65,0.79c0.55,0.5,1.07,0.8,1.76,1.04c0.33,0.11,0.7,0.14,1.04,0.17
			c0.35,0.04,0.73-0.05,1.07-0.1c0.42-0.12,0.79-0.33,1.1-0.64c0.24-0.23,0.42-0.49,0.52-0.8c0.16-0.3,0.23-0.62,0.22-0.96
			c0-0.45-0.12-0.87-0.34-1.26c-0.06-0.11-0.11-0.22-0.16-0.34c0.08,0.2,0.17,0.4,0.25,0.6c-0.13-0.32-0.23-0.66-0.27-1.01
			c0.03,0.22,0.06,0.44,0.09,0.66c-0.04-0.33-0.04-0.67,0-1c-0.03,0.22-0.06,0.44-0.09,0.66c0-0.03,0.01-0.06,0.01-0.08
			c0.1-0.33,0.12-0.66,0.04-1c-0.02-0.33-0.11-0.64-0.3-0.93c-0.16-0.29-0.37-0.53-0.64-0.7c-0.24-0.22-0.52-0.37-0.85-0.45
			c-0.22-0.03-0.44-0.06-0.66-0.09c-0.45,0-0.87,0.12-1.26,0.34c-0.17,0.13-0.34,0.26-0.51,0.39
			C457.68,201.59,457.47,201.96,457.35,202.38L457.35,202.38z"/>
	</g>
</g>
<g>
	<g>
		<path class="st1" d="M487.82,206.94c-4.02-2.08-8.06-4.16-11.81-6.71c-1.66-1.13-3.2-2.46-4.94-3.47
			c-1.26-0.73-2.67-1.36-4.07-1.75c-0.8-0.22-1.61-0.32-2.38-0.62c0.6,0.25,1.19,0.5,1.79,0.76c-0.16-0.07-0.31-0.15-0.45-0.24
			c0.51,0.39,1.01,0.78,1.52,1.17c-0.13-0.09-0.25-0.2-0.35-0.32c0.39,0.51,0.78,1.01,1.17,1.52c-0.04-0.06-0.08-0.13-0.13-0.19
			c0.25,0.6,0.5,1.19,0.76,1.79c-0.08-0.15-0.12-0.3-0.14-0.46c-3.08,3.08-6.15,6.15-9.23,9.23c4.18,1.03,8.36,2.05,12.53,3.08
			c2.02,0.5,4.03,0.99,6.05,1.49c1.42,0.35,2.92,0.83,4.39,0.82c3.45-0.03,6.89-2.32,7.66-5.82c0.84-3.82-1.15-8.29-5.24-9.23
			c-3.79-0.86-8.32,1.14-9.23,5.24c-0.01,0.06-0.03,0.12-0.04,0.17c1.15-1.49,2.3-2.99,3.45-4.48c-0.05,0.03-0.11,0.07-0.16,0.1
			c0.6-0.25,1.19-0.5,1.79-0.76c-0.08,0.01-0.15,0.02-0.23,0.04c0.66-0.09,1.33-0.18,1.99-0.27c-0.08-0.01-0.15-0.02-0.23-0.02
			c0.66,0.09,1.33,0.18,1.99,0.27c-6.92-1.7-13.83-3.39-20.75-5.09c-2.62-0.64-5.37,0-7.3,1.93c-1.99,1.99-2.47,4.62-1.93,7.3
			c0.65,3.25,3.37,5.38,6.3,6.46c1.05,0.39,2.17,0.51,3.23,0.9c-0.6-0.25-1.19-0.5-1.79-0.76c3.09,1.3,5.65,3.78,8.48,5.55
			c3.14,1.96,6.42,3.65,9.71,5.34c3.48,1.8,8.3,1.02,10.26-2.69C492.33,213.76,491.55,208.86,487.82,206.94L487.82,206.94z"/>
	</g>
</g>
<g>
	<g>
		<path class="st1" d="M469.66,215.55c3.68,5.36,7.36,10.77,9.92,16.78c-0.25-0.6-0.5-1.19-0.76-1.79c1.31,3.14,2.26,6.38,2.72,9.76
			c-0.09-0.66-0.18-1.33-0.27-1.99c0.31,2.46,0.35,4.92,0.05,7.38c0.09-0.66,0.18-1.33,0.27-1.99c-0.27,2.01-0.77,3.95-1.52,5.84
			c0.25-0.6,0.5-1.19,0.76-1.79c-0.06,0.13-0.11,0.27-0.17,0.4c4.57,0.6,9.14,1.19,13.71,1.79c-1.35-6.28-3.08-12.46-5.19-18.53
			c-1.24-3.55-4.39-5.89-8.23-5.37c-3.47,0.47-6.75,3.63-6.5,7.37c0.34,5.14,0.64,10.3-0.02,15.43c0.09-0.66,0.18-1.33,0.27-1.99
			c-0.42,2.98-1.2,5.84-2.35,8.62c0.25-0.6,0.5-1.19,0.76-1.79c-1.4,3.27-3.2,6.34-5.21,9.27c-0.24,0.35-0.48,0.7-0.73,1.05
			c-0.16,0.22-1.1,1.47-0.28,0.42c0.82-1.05-0.15,0.18-0.33,0.38c-0.27,0.32-0.55,0.63-0.84,0.93c-0.29,0.3-0.59,0.59-0.9,0.86
			c-1.22,1.09,0.84-0.52,0.21-0.15c-0.79,0.47-1.55,0.92-2.39,1.3c0.6-0.25,1.19-0.5,1.79-0.76c-3.2,1.34-6.64,2.19-9.96,3.2
			c-3.45,1.05-6.95,2.43-10.52,2.97c0.66-0.09,1.33-0.18,1.99-0.27c-0.78,0.09-1.53,0.11-2.3,0.05c0.66,4.91,1.33,9.82,1.99,14.73
			c9.69-3.02,19.04-7.31,27.56-12.83c-3.67-2.82-7.35-5.65-11.02-8.47c-0.09,0.23-0.18,0.46-0.28,0.69c0.25-0.6,0.5-1.19,0.76-1.79
			c-0.64,1.48-1.4,2.9-2.29,4.25c-0.21,0.31-0.43,0.61-0.64,0.91c-0.79,1.13,1.23-1.5,0.14-0.2c-0.52,0.62-1.06,1.21-1.63,1.78
			c-0.53,0.52-1.08,1.03-1.64,1.51c-0.19,0.16-0.38,0.32-0.58,0.47c0.98-0.75,1.24-0.95,0.78-0.61c-0.35,0.25-0.7,0.51-1.06,0.75
			c-1.34,0.89-2.77,1.65-4.25,2.29c0.6-0.25,1.19-0.5,1.79-0.76c-0.69,0.28-1.38,0.54-2.09,0.77c-3.57,1.17-5.88,4.44-5.37,8.23
			c0.47,3.53,3.62,6.67,7.37,6.5c8.51-0.38,15.27-5.28,20.93-11.26c2.44-2.57,4.81-5.19,7.39-7.64c1.25-1.19,2.53-2.35,3.83-3.47
			c0.33-0.28,0.66-0.56,0.98-0.84c1.14-0.98-1.48,0.99-0.22,0.16c0.69-0.45,1.35-0.88,2.1-1.23c-0.6,0.25-1.19,0.5-1.79,0.76
			c0.6-0.24,1.18-0.43,1.82-0.54c-0.66,0.09-1.33,0.18-1.99,0.27c0.58-0.07,1.14-0.07,1.72-0.01c-0.66-0.09-1.33-0.18-1.99-0.27
			c0.45,0.08,0.88,0.19,1.31,0.35c-0.6-0.25-1.19-0.5-1.79-0.76c0.33,0.15,1.13,0.73,0.1-0.09c-0.52-0.44-0.65-0.53-0.37-0.28
			c0.42,0.4,0.21,0.11-0.63-0.89c0.9-3.42,1.79-6.84,2.69-10.26c-1.17,0.68-2.37,1.29-3.61,1.83c0.6-0.25,1.19-0.5,1.79-0.76
			c-0.83,0.35-1.67,0.66-2.53,0.95c-3.57,1.19-5.88,4.43-5.37,8.23c0.46,3.4,3.64,6.85,7.37,6.5c1.22-0.11,2.42-0.09,3.63,0.07
			c-0.66-0.09-1.33-0.18-1.99-0.27c1.45,0.22,2.84,0.61,4.19,1.17c-0.6-0.25-1.19-0.5-1.79-0.76c0.89,0.39,1.75,0.84,2.57,1.37
			c0.2,0.13,0.4,0.27,0.6,0.41c0.85,0.58-0.63-0.4-0.65-0.51c0.05,0.24,0.88,0.77,1.08,0.97c0.35,0.34,0.67,0.7,0.99,1.06
			c0.68,0.76-0.5-0.54-0.5-0.66c0,0.14,0.34,0.48,0.42,0.6c0.59,0.9,1,1.89,1.58,2.79c1.09,1.71,2.53,3.3,4.37,4.22
			c2.01,1.01,3.75,1.3,5.96,1.57c1.88,0.23,3.79,0.24,5.67,0.49c-0.66-0.09-1.33-0.18-1.99-0.27c0.86,0.13,1.69,0.32,2.51,0.63
			c-0.6-0.25-1.19-0.5-1.79-0.76c0.37,0.16,0.72,0.42,1.09,0.57c-1.09-0.89-1.35-1.09-0.8-0.59c0.51,0.54,0.32,0.28-0.55-0.79
			c0.25,0.82,0.98,1.83,1.46,2.55c1.79,2.69,4.36,4.26,7.17,5.67c4.45,2.23,8.89,4.47,13.34,6.7c1.93-4.57,3.85-9.14,5.78-13.71
			c-4.02-1.38-8.13-2.61-12.08-4.16c0.6,0.25,1.19,0.5,1.79,0.76c-0.67-0.35-0.44-0.13,0.68,0.64c0.72,1.03,0.91,1.2,0.55,0.51
			c0.25,0.6,0.5,1.19,0.76,1.79c-1.22-3.07-2.37-6.17-3.56-9.26c-0.72-1.88-1.66-3.43-3.45-4.48c-1.61-0.94-3.98-1.34-5.78-0.76
			c-3.56,1.15-6.74,5.3-5.24,9.23c0.85,2.22,1.71,4.44,2.56,6.67c1.27,3.31,2.34,6.58,5.6,8.47c2.19,1.26,4.92,1.89,7.3,2.71
			c2.29,0.79,4.58,1.57,6.87,2.36c3.53,1.21,7.48-1.11,8.85-4.34c1.37-3.24,0.28-7.68-3.07-9.37c-3.21-1.61-6.41-3.22-9.62-4.84
			c-1.6-0.81-3.21-1.61-4.81-2.42c-0.63-0.32-1.23-0.68-1.85-1.03c-0.75-0.43,1.32,1.22,0.48,0.35c-0.38-0.42-0.35-0.36,0.09,0.16
			c0.41,0.56,0.46,0.59,0.14,0.07c-1.56-3.81-5.21-6.59-9.14-7.56c-2.99-0.74-6.1-0.62-9.13-1.02c0.66,0.09,1.33,0.18,1.99,0.27
			c-0.63-0.1-1.23-0.23-1.83-0.45c0.6,0.25,1.19,0.5,1.79,0.76c-0.05-0.02-0.7-0.33-0.68-0.35c0.08-0.14,1.75,1.52,1.62,1.6
			c-0.04,0.02-0.7-1.25-0.76-1.36c-0.46-0.87-0.96-1.7-1.56-2.48c-1.88-2.51-3.9-4.51-6.54-6.26c-4.07-2.71-9.44-4.18-14.32-3.73
			c0.66,4.91,1.33,9.82,1.99,14.73c2.74-0.91,5.43-2.07,7.93-3.53c3.21-1.87,5.12-7.01,2.69-10.26c-1.88-2.52-4.08-4.46-7.25-5.17
			c-2.59-0.58-5.38-0.49-7.86,0.49c-4.49,1.78-8.06,5.18-11.52,8.48c-2.9,2.76-5.53,5.76-8.33,8.62c-0.63,0.65-1.28,1.28-1.94,1.9
			c-0.33,0.31-0.67,0.61-1.01,0.9c-0.23,0.2-0.46,0.39-0.69,0.58c-0.63,0.51-0.47,0.38,0.5-0.38c-0.74,0.34-1.4,0.99-2.11,1.41
			c-0.85,0.5-1.73,0.94-2.64,1.32c0.6-0.25,1.19-0.5,1.79-0.76c-1.31,0.52-2.63,0.88-4.03,1.08c0.66-0.09,1.33-0.18,1.99-0.27
			c-0.42,0.04-0.83,0.08-1.25,0.09c0.66,4.91,1.33,9.82,1.99,14.73c4.92-1.61,9.36-4.21,13.14-7.77c3.8-3.58,6.44-7.96,8.34-12.77
			c0.44-1.11,0.31-2.86,0-3.99c-0.43-1.58-1.41-2.91-2.69-3.9c-2.28-1.76-5.81-2.22-8.33-0.59c-5.08,3.29-10.42,6.13-15.98,8.5
			c0.6-0.25,1.19-0.5,1.79-0.76c-3.2,1.35-6.47,2.54-9.79,3.58c-3.58,1.12-5.88,4.49-5.37,8.23c0.52,3.85,3.6,6.22,7.37,6.5
			c2.91,0.22,5.84-0.55,8.61-1.39c2.47-0.75,4.94-1.51,7.41-2.26c2.4-0.73,4.83-1.4,7.19-2.23c3.13-1.1,5.73-2.47,8.27-4.59
			c2.03-1.69,3.62-3.94,5.13-6.07c1.29-1.83,2.51-3.72,3.61-5.67c2.47-4.39,4.44-9.2,5.21-14.19c0.93-6.06,0.78-12.01,0.38-18.11
			c-4.91,0.66-9.82,1.33-14.73,1.99c2.11,6.06,3.84,12.25,5.19,18.53c0.62,2.88,3.47,5,6.24,5.37c1.37,0.18,2.61,0.03,3.89-0.51
			c1.34-0.57,2.99-1.67,3.59-3.07c1.87-4.42,2.97-8.86,2.92-13.7c-0.04-4.21-0.78-8.53-2.14-12.52c-2.66-7.85-7.14-14.72-11.79-21.5
			c-1.12-1.63-2.53-2.91-4.48-3.45c-1.8-0.49-4.19-0.27-5.78,0.76C469.14,207.36,467.28,212.09,469.66,215.55L469.66,215.55z"/>
	</g>
</g>
<g>
	<g>
		<path class="st1" d="M478.22,209.71c2.12,1.77,4.05,3.77,5.74,5.96c-0.39-0.51-0.78-1.01-1.17-1.52c0.53,0.69,1.04,1.39,1.52,2.11
			c0.24,0.36,0.48,0.73,0.7,1.09c0.4,0.65,0.83,1.29,1.38,1.84c0.94,0.93,2.04,1.57,3.31,1.93c0.67,0.27,1.35,0.36,2.02,0.26
			c0.66-0.09,1.33-0.18,1.99-0.27c0.98-0.23,1.83-0.68,2.55-1.34c0.56-0.33,1.01-0.78,1.35-1.35c0.66-0.72,1.11-1.57,1.34-2.55
			c0.1-0.24,0.29-1.84,0.29-2.1c-0.09-0.66-0.18-1.33-0.27-1.99c0-0.04-0.01-0.08-0.03-0.11c-0.13-0.31-0.26-0.62-0.39-0.93
			c-0.3-0.93-0.82-1.73-1.55-2.41c-0.48-0.49-1.03-0.93-1.64-1.27c-1.71-0.97-3.88-1.28-5.78-0.76c-0.98,0.23-1.83,0.68-2.55,1.34
			c-0.82,0.53-1.46,1.23-1.93,2.1c-0.92,1.74-1.38,3.85-0.76,5.78c0.6,1.85,1.72,3.5,3.45,4.48c0.02,0.01,0.05,0.03,0.07,0.04
			c-0.51-0.39-1.01-0.78-1.52-1.17c0.02,0.02,0.03,0.04,0.05,0.06c-0.64-1.1-1.29-2.21-1.93-3.31c0.02,0.05,0.04,0.1,0.04,0.15
			c-0.09-0.66-0.18-1.33-0.27-1.99c0,0.02,0,0.04,0,0.06c0.09-0.66,0.18-1.33,0.27-1.99c-0.01,0.01-0.01,0.03-0.02,0.04
			c2.41-1.84,4.82-3.67,7.23-5.51c-0.01,0-0.02,0-0.03,0c1.77,0.73,3.54,1.46,5.3,2.2c-0.01-0.01-0.03-0.03-0.04-0.04
			c0.39,0.51,0.78,1.01,1.17,1.52c-1.4-2.3-3.04-4.47-4.8-6.52c-1.38-1.61-2.89-3.09-4.51-4.45c-0.68-0.73-1.48-1.25-2.41-1.55
			c-0.89-0.47-1.86-0.68-2.89-0.65c-1.03-0.04-2,0.18-2.89,0.65c-0.93,0.3-1.73,0.82-2.41,1.55c-1.31,1.43-2.29,3.31-2.2,5.3
			C476.11,206.29,476.72,208.45,478.22,209.71L478.22,209.71z"/>
	</g>
</g>
<g>
	<g>
		<path class="st1" d="M478.38,209.8c7.57,6.23,14.69,12.98,21.29,20.23c3.25,3.57,6.37,7.25,9.36,11.04
			c0.34,0.44,1.51,2.02,0.18,0.21c0.35,0.47,0.71,0.93,1.07,1.39c0.75,0.99,1.49,1.99,2.22,2.99c1.43,1.96,2.83,3.95,4.18,5.97
			c3.3,4.9,6.3,9.97,8.63,15.4c-0.25-0.6-0.5-1.19-0.76-1.79c1.61,3.82,2.98,7.74,4.37,11.65c0.72,2.01,1.43,4.02,2.15,6.03
			c0.65,1.82,1.61,3.77,1.95,5.67c-0.09-0.66-0.18-1.33-0.27-1.99c0,0.1,0,0.19,0.01,0.29c0.09-0.66,0.18-1.33,0.27-1.99
			c-0.02,0.09-0.03,0.17-0.05,0.26c0.25-0.6,0.5-1.19,0.76-1.79c-0.04,0.07-0.08,0.14-0.13,0.21c0.9-0.9,1.79-1.79,2.69-2.69
			c-0.07,0.05-0.14,0.09-0.21,0.14c1.26-0.34,2.52-0.68,3.79-1.02c-0.14,0-0.28,0-0.41,0.01c0.66,0.09,1.33,0.18,1.99,0.27
			c-0.13-0.05-0.27-0.11-0.4-0.16c0.6,0.25,1.19,0.5,1.79,0.76c-3.53-1.79-6.69-4.15-9.82-6.55c-3.35-2.58-6.71-5.16-10.06-7.74
			c-3.36-2.59-6.73-5.18-10.09-7.76c-0.79-0.61-1.56-1.25-2.37-1.83c1.87,1.32,0.44,0.34,0.02,0c-0.38-0.31-0.76-0.63-1.12-0.96
			c-0.31-0.28-0.61-0.57-0.9-0.88c-0.15-0.15-0.29-0.31-0.42-0.47c-0.37-0.43-0.2-0.2,0.52,0.7c-0.1-0.35-0.5-0.75-0.7-1.08
			c-0.28-0.5-0.53-1.01-0.76-1.54c0.25,0.6,0.5,1.19,0.76,1.79c-0.91-2.22-1.45-4.57-2.05-6.88c-0.64-2.49-1.29-4.99-1.93-7.48
			c-1.31-5.07-2.62-10.14-3.92-15.2c-4.82,1.33-9.64,2.66-14.46,3.99c1.03,2.59,2.19,4.97,3.85,7.22c1.68,2.28,3.51,4.41,5.43,6.48
			c1.53,1.65,3.08,3.29,4.49,5.05c1.04,1.3-1.07-1.43-0.08-0.09c0.32,0.43,0.64,0.87,0.94,1.32c0.62,0.89,1.21,1.8,1.77,2.73
			c4.31,7.01,7.36,14.73,11.98,21.56c3.22,4.76,6.92,8.78,11.62,12.11c1.51,1.07,4.06,1.23,5.78,0.76c1.74-0.48,3.62-1.82,4.48-3.45
			c2.04-3.86,0.74-7.83-2.69-10.26c-0.19-0.14-0.39-0.28-0.58-0.42c-0.93-0.65,0.65,0.49,0.67,0.52c-0.26-0.34-0.76-0.62-1.09-0.91
			c-0.79-0.7-1.55-1.43-2.27-2.2c-0.6-0.64-1.18-1.3-1.73-1.98c-1.04-1.28,1.08,1.45,0.09,0.13c-0.32-0.42-0.63-0.85-0.93-1.29
			c-2.26-3.25-4.14-6.75-5.96-10.26c-1.87-3.62-3.68-7.28-5.76-10.79c-2.35-3.97-5.12-7.66-8.23-11.07
			c-1.66-1.82-3.37-3.58-4.94-5.48c-0.17-0.2-0.33-0.41-0.5-0.61c-0.79-0.98,0.85,1.17,0.34,0.43c-0.34-0.48-0.68-0.95-1-1.45
			c-0.71-1.1-1.32-2.25-1.83-3.45c0.25,0.6,0.5,1.19,0.76,1.79c-0.05-0.12-0.1-0.24-0.15-0.37c-0.75-1.88-1.63-3.42-3.45-4.48
			c-1.61-0.94-3.98-1.34-5.78-0.76c-3.92,1.27-6.29,5.15-5.24,9.23c1.68,6.52,3.36,13.03,5.04,19.55c0.77,3,1.41,6.1,2.46,9.02
			c1.36,3.75,3.32,7.06,6.39,9.66c5.3,4.5,11.05,8.56,16.57,12.8c5.06,3.89,10,8.07,15.35,11.56c1.2,0.78,2.44,1.53,3.73,2.17
			c1.59,0.79,3,1.33,4.81,1.28c2.81-0.07,5.43-1.62,6.81-4.07c2.4-4.25-0.02-8.83-1.48-12.93c-2.32-6.52-4.54-13.08-7.32-19.42
			c-2.49-5.67-5.76-10.93-9.26-16.02c-3.63-5.28-7.52-10.41-11.59-15.36c-8.41-10.23-17.81-19.62-28.04-28.03
			c-1.58-1.3-3.18-2.2-5.3-2.2c-1.84,0-4.04,0.82-5.3,2.2C475.85,201.95,475.14,207.14,478.38,209.8L478.38,209.8z"/>
	</g>
</g>
<g>
	<g>
		<path class="st1" d="M504.44,234.62c0.77,0.92,1.54,1.85,2.28,2.8c0.22,0.27,1.02,0.99,1.04,1.33c-0.68-0.88-0.78-1.01-0.29-0.37
			c0.19,0.26,0.39,0.51,0.58,0.77c1.35,1.79,2.68,3.61,4,5.43c2.55,3.51,5.09,7.01,7.56,10.58c4.93,7.12,9.52,14.51,12.93,22.49
			c-0.25-0.6-0.5-1.19-0.76-1.79c2.83,6.71,4.62,13.9,8.38,20.19c2.01,3.37,6.84,4.9,10.26,2.69c3.39-2.19,4.84-6.65,2.69-10.26
			c-0.98-1.65-1.82-3.36-2.57-5.12c0.25,0.6,0.5,1.19,0.76,1.79c-1.66-3.95-2.91-8.06-4.52-12.03c-1.86-4.58-3.97-9.03-6.42-13.32
			c-4.39-7.68-9.6-14.85-14.78-22.01c-3.39-4.67-6.81-9.34-10.52-13.76c-1.17-1.4-3.55-2.2-5.3-2.2c-1.84,0-4.04,0.82-5.3,2.2
			c-1.31,1.43-2.29,3.31-2.2,5.3C502.33,231.4,503.1,233.02,504.44,234.62L504.44,234.62z"/>
	</g>
</g>
<g>
	<g>
		<path class="st1" d="M533.51,279.04c1.34,2.53,2.57,5.11,3.69,7.74c-0.25-0.6-0.5-1.19-0.76-1.79c3.39,8.06,5.71,16.52,6.89,25.19
			c-0.09-0.66-0.18-1.33-0.27-1.99c0.43,3.26,0.99,6.76,0.78,10.05c0.09-0.66,0.18-1.33,0.27-1.99c-0.02,0.2-0.07,0.39-0.15,0.57
			c0.25-0.6,0.5-1.19,0.76-1.79c0.27-0.37,0.54-0.74,0.8-1.11c3.93,0.51,7.85,1.01,11.78,1.52c-0.68-1.13-1.26-2.3-1.77-3.51
			c0.25,0.6,0.5,1.19,0.76,1.79c-3.39-8.23-4.26-17.5-11.02-23.98c-2.84-2.72-7.83-3.03-10.61,0c-2.7,2.94-3.03,7.71,0,10.61
			c0.47,0.45,0.9,0.93,1.33,1.41c0.59,0.66-1.1-1.54-0.43-0.56c0.2,0.29,0.39,0.57,0.58,0.86c0.69,1.08,1.25,2.23,1.75,3.4
			c-0.25-0.6-0.5-1.19-0.76-1.79c2.66,6.37,3.6,13.34,7.22,19.33c1.23,2.03,3.15,3.27,5.48,3.58c2.52,0.34,4.38-0.5,6.3-2.06
			c2.76-2.24,2.82-5.93,2.63-9.14c-0.12-1.95-0.29-3.9-0.52-5.85c-0.56-4.63-1.3-9.23-2.42-13.76c-2.08-8.43-5.3-16.63-9.36-24.3
			c-1.84-3.47-6.95-4.82-10.26-2.69C532.67,271.05,531.54,275.32,533.51,279.04L533.51,279.04z"/>
	</g>
</g>
<g>
	<g>
		<path class="st1" d="M498.97,452.29c-5.83,7.09-10.18,15.2-12.4,24.15c-0.91,3.65,0.88,7.38,4.34,8.85
			c3.48,1.47,7.37,0.13,9.37-3.07c4.74-7.58,9.52-15.13,14.2-22.74c4.68-7.63,8.98-15.43,12.26-23.78
			c1.69-4.29,2.98-8.73,4.77-12.98c-0.25,0.6-0.5,1.19-0.76,1.79c0.76-1.77,1.61-3.48,2.6-5.13c-4.66-1.26-9.32-2.52-13.98-3.79
			c-0.05,0.56-0.11,1.12-0.18,1.68c0.09-0.66,0.18-1.33,0.27-1.99c-0.41,2.95-1.2,5.8-2.34,8.55c0.25-0.6,0.5-1.19,0.76-1.79
			c-1.01,2.34-2.25,4.55-3.75,6.62c-1.07,1.49-1.22,4.08-0.76,5.78c0.48,1.74,1.82,3.62,3.45,4.48c1.74,0.92,3.85,1.38,5.78,0.76
			c1.96-0.63,3.28-1.78,4.48-3.45c4.37-6.06,6.65-13.26,7.29-20.65c0.14-1.61-0.67-3.33-1.61-4.54c-0.96-1.24-2.33-2.33-3.9-2.69
			c-3.28-0.75-6.7,0.5-8.47,3.45c-4.11,6.84-5.93,14.73-9,22.03c0.25-0.6,0.5-1.19,0.76-1.79c-3.13,7.35-7.17,14.25-11.36,21.03
			c-4.46,7.21-8.98,14.38-13.47,21.56c4.57,1.93,9.14,3.85,13.71,5.78c0.65-2.63,1.5-5.2,2.54-7.71c-0.25,0.6-0.5,1.19-0.76,1.79
			c0.97-2.3,2.09-4.53,3.37-6.67c0.62-1.04,1.28-2.06,1.97-3.05c0.33-0.47,0.66-0.93,1-1.39c0.9-1.22-0.83,1.02-0.26,0.33
			c0.23-0.27,0.45-0.56,0.67-0.83c1.3-1.58,2.2-3.18,2.2-5.3c0-1.84-0.82-4.04-2.2-5.3C506.82,449.76,501.63,449.05,498.97,452.29
			L498.97,452.29z"/>
	</g>
</g>
<g>
	<g>
		<path class="st1" d="M434.27,332.16c0.19,1.85,0.17,3.69-0.06,5.54c0.09-0.66,0.18-1.33,0.27-1.99c-0.3,2.11-0.85,4.14-1.65,6.11
			c0.25-0.6,0.5-1.19,0.76-1.79c-0.68,1.58-1.49,3.1-2.48,4.51c-0.15,0.22-0.31,0.43-0.47,0.64c0.78-0.99,0.92-1.19,0.43-0.59
			c-0.27,0.29-0.52,0.6-0.79,0.89c-0.52,0.56-1.07,1.08-1.63,1.61c-3.24,3.03-6.26,6.14-7.58,10.52c-1.3,4.31-0.89,9.29-1,13.75
			c-0.1,4.4-0.2,8.8-0.31,13.2c-0.04,1.81,0.85,4.06,2.2,5.3c1.55,1.42,3.22,1.99,5.3,2.2c17.55,1.76,35.11,3.52,52.66,5.28
			c4.69,0.47,9.4,0.83,14.07,1.46c-0.66-0.09-1.33-0.18-1.99-0.27c2.53,0.36,5.04,0.87,7.41,1.86c-0.6-0.25-1.19-0.5-1.79-0.76
			c0.51,0.23,1.01,0.46,1.5,0.74c0.27,0.15,0.54,0.31,0.8,0.47c0.26,0.17,1.19,0.87,0.15,0.06c-0.99-0.77-0.25-0.18-0.04,0
			c0.23,0.21,0.45,0.44,0.68,0.65c0.81,0.72-0.24-0.49-0.35-0.54c0.21,0.09,0.52,0.93,0.61,1.12c-0.25-0.6-0.5-1.19-0.76-1.79
			c0.14,0.43,0.23,0.83,0.3,1.28c-0.09-0.66-0.18-1.33-0.27-1.99c0.18,2.33-0.27,4.76-0.49,7.07c-0.22,2.28-0.44,4.56-0.66,6.85
			c-0.45,4.73-0.91,9.45-1.36,14.18c4.91-0.66,9.82-1.33,14.73-1.99c-0.76-2.13-1.23-4.32-1.53-6.56c0.09,0.66,0.18,1.33,0.27,1.99
			c-0.88-6.92-0.42-13.97-2.13-20.78c-1.68-6.72-5.47-13.15-11.64-16.63c-3.42-1.93-8.35-0.93-10.26,2.69
			c-1.87,3.55-0.96,8.2,2.69,10.26c0.41,0.23,0.8,0.49,1.2,0.74c1.13,0.71-1.33-1.17-0.41-0.32c0.64,0.6,1.24,1.2,1.81,1.87
			c0.37,0.45,0.15,0.17-0.64-0.83c0.14,0.19,0.27,0.38,0.4,0.57c0.23,0.34,0.44,0.69,0.65,1.05c0.45,0.77,0.83,1.58,1.18,2.4
			c-0.25-0.6-0.5-1.19-0.76-1.79c1.02,2.48,1.65,5.08,2.03,7.73c-0.09-0.66-0.18-1.33-0.27-1.99c1.04,7.85,0.25,16,2.94,23.58
			c1.26,3.55,4.37,5.89,8.23,5.37c1.57-0.21,3.2-0.86,4.31-2.06c1.42-1.54,2-3.22,2.2-5.3c0.75-7.82,1.51-15.65,2.26-23.47
			c0.23-2.39,0.49-4.66-0.07-7.06c-0.61-2.61-2.17-4.99-4.13-6.78c-3-2.75-6.67-4.57-10.61-5.57c-3.62-0.92-7.39-1.23-11.1-1.6
			c-3.79-0.38-7.58-0.76-11.37-1.14c-7.91-0.79-15.82-1.59-23.73-2.38c-8.9-0.89-17.8-1.78-26.7-2.68c2.5,2.5,5,5,7.5,7.5
			c0.09-3.9,0.18-7.8,0.27-11.71c0.09-3.75-0.04-7.58,0.37-11.31c-0.09,0.66-0.18,1.33-0.27,1.99c0.14-1.01,0.36-1.96,0.75-2.91
			c-0.25,0.6-0.5,1.19-0.76,1.79c0.26-0.57,0.58-1.07,0.89-1.61c0.67-1.15-0.92,1.06-0.39,0.49c0.21-0.23,0.4-0.47,0.62-0.7
			c0.86-0.93,1.8-1.77,2.73-2.63c2.33-2.16,4.42-4.6,6.04-7.34c3.23-5.43,4.89-12.13,4.25-18.44c-0.21-2.04-0.7-3.8-2.2-5.3
			c-1.3-1.3-3.44-2.28-5.3-2.2C438.05,324.82,433.84,327.98,434.27,332.16L434.27,332.16z"/>
	</g>
</g>
<g>
	<g>
		<path class="st1" d="M450.65,337.48c5.81-0.83,11.16-3.54,16.51-5.8c-0.6,0.25-1.19,0.5-1.79,0.76c3.26-1.37,6.57-2.64,10.09-3.13
			c-0.66,0.09-1.33,0.18-1.99,0.27c1.57-0.19,3.14-0.22,4.71-0.02c-0.66-0.09-1.33-0.18-1.99-0.27c0.74,0.11,1.47,0.26,2.19,0.46
			c2.32,0.64,4.66,0.11,6.54-1.34c1.71-1.32,3.2-3.61,2.96-5.89c-0.14-1.3-0.27-2.6-0.41-3.9c-2.5,2.5-5,5-7.5,7.5
			c0.93,0.06,1.85,0.15,2.78,0.26c-0.66-0.09-1.33-0.18-1.99-0.27c4.09,0.57,8.06,1.69,12.08,2.58c4.45,0.98,8.98,1.64,13.52,2.04
			c8.59,0.75,17.21,0.2,25.69-1.28c4.51-0.79,8.95-1.92,13.29-3.37c-1.33,0-2.66,0-3.99,0c0.1,0.03,0.19,0.06,0.29,0.09
			c-0.6-0.25-1.19-0.5-1.79-0.76c0.09,0.04,0.18,0.09,0.26,0.13c-0.61-0.32-1.11-0.77-1.48-1.34c-0.8-1.03-0.29-0.32-0.14,0.03
			c-0.25-0.6-0.5-1.19-0.76-1.79c0.18,0.52,0.29,1.04,0.37,1.59c-0.09-0.66-0.18-1.33-0.27-1.99c0.44,4.5,0.19,9.17,0.1,13.68
			c-0.09,4.56-0.28,9.12-0.56,13.67c-0.58,9.28-1.54,18.52-2.77,27.73c0.09-0.66,0.18-1.33,0.27-1.99
			c-1.53,11.33-3.47,22.6-5.66,33.81c-2.16,11.07-4.45,22.13-7.35,33.03c-1.56,5.85-3.1,11.88-5.45,17.47
			c0.25-0.6,0.5-1.19,0.76-1.79c-0.48,1.1-1.08,2.09-1.68,3.12c-0.43,0.73,1.09-1.26,0.51-0.64c-0.21,0.22-0.39,0.46-0.61,0.67
			c-0.17,0.17-0.37,0.32-0.53,0.5c1.08-1.23,1.08-0.78,0.34-0.31c3.76,2.16,7.52,4.32,11.29,6.48c0.18-17.24,0.37-34.48,0.55-51.72
			c0.04-3.92-3.48-7.68-7.5-7.5c-4.3,0.19-7.2,3.3-7.5,7.5c-1.16,16.31-2.33,32.62-3.49,48.93c5,0,10,0,15,0
			c1.18-23.49,2.52-46.97,4.01-70.44c0.42-6.61,0.85-13.22,1.3-19.83c-5,0-10,0-15,0c-0.74,18.21-1.49,36.42-2.23,54.63
			c-0.13,3.15,2.41,6.53,5.51,7.23c1.32,0.3,2.67,0.3,3.99,0c1.63-0.37,3.76-1.9,4.48-3.45c2.35-5.02,4.12-10.23,5.31-15.64
			c1.19-5.44,1.9-10.97,2.62-16.49c1.4-10.84,2.58-21.71,3.55-32.6c0.5-5.63,0.85-11.28,1.59-16.89c-0.09,0.66-0.18,1.33-0.27,1.99
			c0.67-4.84,1.68-9.63,3.56-14.15c-0.25,0.6-0.5,1.19-0.76,1.79c0.87-2.04,1.91-3.99,3.14-5.83c2.61-3.89,0.08-10.03-4.48-11.02
			c-10.08-2.18-20.41-3.05-30.7-3.35c-4.83-0.14-9.66-0.16-14.49-0.18c-5.35-0.02-10.63,0.07-15.93,0.95
			c-5.68,0.94-10.93,3.41-16.19,5.64c0.6-0.25,1.19-0.5,1.79-0.76c-8.28,3.49-17.44,5.56-23.58,12.63
			c-5.22,6.02-8.05,13.55-9.47,21.31c-0.82,4.48-1.31,9.03-1.69,13.57c-0.15,1.74,0.93,4.14,2.2,5.3c1.49,1.37,3.25,2.14,5.3,2.2
			c12.18,0.31,24.33,1.27,36.4,2.89c-0.66-0.09-1.33-0.18-1.99-0.27c15.72,2.13,31.29,5.35,46.56,9.66
			c3.99,1.13,8.03-1.38,9.23-5.24c4.77-15.38,8.58-31.05,11.39-46.91c0.43-2.44,0.2-4.54-1.34-6.54c-1.51-1.96-3.46-2.77-5.89-2.96
			c-13.18-1.01-26.4-1.54-39.63-1.56c-6.61-0.01-13.22,0.11-19.83,0.35c-3.3,0.12-6.61,0.27-9.91,0.46
			c-2.95,0.16-6.01,0.32-8.86,1.17c-3.74,1.12-7.38,3.37-9.28,6.9c-1.24,2.3-1.73,4.74-1.85,7.33c-0.08,1.68,0.01,3.35-0.2,5.03
			c0.09-0.66,0.18-1.33,0.27-1.99c-0.26,1.77-0.72,3.48-1.39,5.14c0.25-0.6,0.5-1.19,0.76-1.79c-0.38,0.88-0.8,1.74-1.29,2.57
			c-0.21,0.35-0.43,0.7-0.66,1.04c-0.15,0.23-0.31,0.45-0.48,0.67c0.76-0.97,0.9-1.15,0.41-0.55c-1.97,2.39-2.82,5.2-1.55,8.19
			c1.2,2.84,3.81,4.43,6.85,4.61c14.33,0.84,28.63,2.22,42.86,4.12c-0.66-0.09-1.33-0.18-1.99-0.27
			c14.23,1.91,28.38,4.35,42.43,7.31c0.66-4.91,1.33-9.82,1.99-14.73c-0.3,0-0.58-0.01-0.87-0.05c0.66,0.09,1.33,0.18,1.99,0.27
			c-0.46-0.08-0.88-0.2-1.31-0.38c0.6,0.25,1.19,0.5,1.79,0.76c-0.25-0.12-0.47-0.25-0.71-0.38c-0.52-0.29-0.59-0.87,0.86,0.68
			c-0.32-0.34-0.68-0.66-1-1.01c-0.38-0.42-0.51-1.02,0.62,0.81c-0.11-0.17-0.24-0.33-0.35-0.5c-0.35-0.52-0.68-1.07-1-1.62
			c-1.01-1.77-1.89-3.62-3.08-5.28c-3.59-5.06-8.81-8.24-14.79-9.75c-5.31-1.34-10.85-1.52-16.3-1.68c-6.48-0.2-12.96-0.4-19.44-0.6
			c-7.31-0.22-14.62-0.45-21.93-0.67c1.26,4.66,2.52,9.32,3.79,13.98c0.14-0.06,0.28-0.12,0.41-0.18c-0.6,0.25-1.19,0.5-1.79,0.76
			c3.2-1.33,6.56-2.08,9.98-2.55c-0.66,0.09-1.33,0.18-1.99,0.27c5.17-0.67,10.41-0.84,15.61-1.13c5.46-0.31,10.92-0.59,16.38-0.81
			c10.74-0.42,21.5-0.57,32.24-0.04c6.17,0.3,12.33,0.83,18.46,1.64c-0.66-0.09-1.33-0.18-1.99-0.27c0.97,0.13,1.94,0.27,2.9,0.41
			c0.66-4.91,1.33-9.82,1.99-14.73c-15.72,1.1-31.44,2.2-47.16,3.3c-3.75,0.26-6.85,2.65-7.37,6.5c-0.46,3.42,1.7,7.54,5.37,8.23
			c16.12,3.03,32.86,0.47,47.17-7.66c3.41-1.94,4.87-6.89,2.69-10.26c-2.22-3.45-6.61-4.77-10.26-2.69
			c-2.11,1.2-4.29,2.27-6.53,3.22c0.6-0.25,1.19-0.5,1.79-0.76c-5.02,2.08-10.28,3.49-15.67,4.22c0.66-0.09,1.33-0.18,1.99-0.27
			c-5.25,0.67-10.55,0.68-15.81,0.01c0.66,0.09,1.33,0.18,1.99,0.27c-1.13-0.15-2.26-0.34-3.38-0.55
			c-0.66,4.91-1.33,9.82-1.99,14.73c15.72-1.1,31.44-2.2,47.16-3.3c3.75-0.26,6.85-2.65,7.37-6.5c0.45-3.32-1.68-7.68-5.37-8.23
			c-26.24-3.88-52.64-2.61-79.02-1.07c-3.84,0.22-7.65,0.55-11.46,1.12c-3.97,0.59-7.61,1.76-11.29,3.36
			c-1.43,0.62-2.5,2.24-3.07,3.59c-0.63,1.49-0.89,3.3-0.38,4.88c1.04,3.22,3.81,5.4,7.23,5.51c9.06,0.28,18.11,0.56,27.17,0.84
			c4.49,0.14,8.97,0.28,13.46,0.41c3.61,0.11,7.22,0.18,10.8,0.64c-0.66-0.09-1.33-0.18-1.99-0.27c2.7,0.37,5.37,0.95,7.9,2
			c-0.6-0.25-1.19-0.5-1.79-0.76c0.99,0.43,1.95,0.92,2.85,1.51c0.21,0.14,0.47,0.39,0.69,0.48c-0.1-0.04-1.46-1.2-0.72-0.55
			c0.42,0.37,0.84,0.75,1.23,1.16c0.2,0.21,0.37,0.43,0.56,0.64c0.56,0.61-0.96-1.42-0.54-0.69c0.26,0.45,0.58,0.87,0.85,1.32
			c0.53,0.88,1,1.79,1.5,2.68c2.89,5.28,7.03,10,13.55,9.98c3.74-0.01,6.87-2.84,7.37-6.5c0.47-3.48-1.71-7.46-5.37-8.23
			c-22.52-4.75-45.33-8.17-68.25-10.27c-6.34-0.58-12.68-1.05-19.03-1.43c1.77,4.27,3.54,8.54,5.3,12.8
			c2.69-3.27,4.76-6.78,5.93-10.88c0.55-1.95,0.84-4.02,0.98-6.03c0.12-1.69-0.02-3.38,0.19-5.06c-0.09,0.66-0.18,1.33-0.27,1.99
			c0.09-0.56,0.22-1.08,0.41-1.61c-0.25,0.6-0.5,1.19-0.76,1.79c0.18-0.43,0.46-0.81,0.65-1.22c-0.88,1.08-1.07,1.34-0.58,0.79
			c0.11-0.11,0.22-0.22,0.34-0.32c0.44-0.39,0.13-0.16-0.91,0.68c0.17-0.12,0.35-0.24,0.53-0.34c0.37-0.22,0.76-0.4,1.15-0.58
			c-0.6,0.25-1.19,0.5-1.79,0.76c1.26-0.51,2.58-0.81,3.92-1.01c-0.66,0.09-1.33,0.18-1.99,0.27c4.4-0.59,8.92-0.6,13.35-0.77
			c4.87-0.19,9.75-0.3,14.62-0.35c9.67-0.1,19.34,0.07,29,0.51c5.53,0.25,11.06,0.59,16.58,1.02c-2.41-3.16-4.82-6.33-7.23-9.49
			c-2.82,15.86-6.62,31.53-11.39,46.91c3.08-1.75,6.15-3.49,9.23-5.24c-21.62-6.1-43.85-10.03-66.23-11.84
			c-6.23-0.5-12.47-0.83-18.72-0.99c2.5,2.5,5,5,7.5,7.5c0.21-2.53,0.46-5.06,0.8-7.58c-0.09,0.66-0.18,1.33-0.27,1.99
			c0.67-4.9,1.67-9.78,3.56-14.36c-0.25,0.6-0.5,1.19-0.76,1.79c0.59-1.39,1.25-2.74,2.02-4.03c0.41-0.69,0.87-1.34,1.32-2
			c0.77-1.12-1.22,1.46-0.34,0.44c0.26-0.3,0.51-0.61,0.78-0.91c0.5-0.55,1.02-1.08,1.58-1.58c0.26-0.23,0.52-0.46,0.79-0.68
			c1.02-0.86-1.61,1.17-0.26,0.22c1.58-1.12,3.31-2,5.09-2.76c-0.6,0.25-1.19,0.5-1.79,0.76c2.31-0.97,4.69-1.76,7.03-2.65
			c2.87-1.08,5.67-2.32,8.49-3.51c-0.6,0.25-1.19,0.5-1.79,0.76c4.23-1.78,8.49-3.35,13.06-4c-0.66,0.09-1.33,0.18-1.99,0.27
			c3.76-0.49,7.54-0.52,11.33-0.51c3.94,0.01,7.88,0.02,11.82,0.09c7.79,0.13,15.59,0.5,23.32,1.52c-0.66-0.09-1.33-0.18-1.99-0.27
			c3.18,0.43,6.34,0.97,9.48,1.65c-1.49-3.67-2.99-7.35-4.48-11.02c-5.59,8.34-7.26,18.4-8.24,28.19
			c-1.01,10.08-1.74,20.19-2.86,30.27c-0.65,5.84-1.34,11.67-2.13,17.49c0.09-0.66,0.18-1.33,0.27-1.99
			c-1.09,8.03-2.49,16.08-5.63,23.61c0.25-0.6,0.5-1.19,0.76-1.79c-0.29,0.69-0.6,1.37-0.92,2.05c4.66,1.26,9.32,2.52,13.98,3.79
			c0.74-18.21,1.49-36.42,2.23-54.63c0.16-3.92-3.56-7.68-7.5-7.5c-4.29,0.19-7.22,3.3-7.5,7.5c-1.58,23.46-3.01,46.94-4.28,70.42
			c-0.36,6.61-0.7,13.23-1.04,19.85c-0.2,3.92,3.59,7.68,7.5,7.5c4.3-0.19,7.2-3.3,7.5-7.5c1.16-16.31,2.33-32.62,3.49-48.93
			c-5,0-10,0-15,0c-0.18,17.24-0.37,34.48-0.55,51.72c-0.06,5.54,6.47,9.54,11.29,6.48c5.62-3.58,7.92-9.44,9.89-15.51
			c1.83-5.65,3.43-11.37,4.87-17.13c2.86-11.44,5.19-23.03,7.35-34.62c4.48-24.04,7.8-48.43,8.1-72.91
			c0.04-3.42,0.03-6.85-0.06-10.27c-0.12-4.4-1.41-8.75-5.49-11.05c-2.08-1.17-4.46-1.38-6.72-0.63c-0.8,0.26-1.6,0.51-2.4,0.75
			c-1.46,0.43-2.93,0.83-4.42,1.19c-3.11,0.76-6.26,1.34-9.44,1.77c0.66-0.09,1.33-0.18,1.99-0.27c-8.03,1.05-16.15,1.05-24.17,0
			c0.66,0.09,1.33,0.18,1.99,0.27c-8.17-1.12-16.03-3.93-24.29-4.43c-3.75-0.23-7.91,3.64-7.5,7.5c0.14,1.3,0.27,2.6,0.41,3.9
			c3.16-2.41,6.33-4.82,9.49-7.23c-4.71-1.29-9.64-1.02-14.32,0.27c-4.29,1.18-8.35,3.15-12.44,4.88c0.6-0.25,1.19-0.5,1.79-0.76
			c-3.46,1.46-6.99,2.81-10.73,3.34c-1.73,0.25-3.65,2.02-4.48,3.45c-0.94,1.61-1.34,3.98-0.76,5.78c0.59,1.81,1.71,3.57,3.45,4.48
			C446.77,337.73,448.53,337.78,450.65,337.48L450.65,337.48z"/>
	</g>
</g>
<g>
	<g>
		<path class="st1" d="M546.26,319.58c3.92,0,7.68-3.45,7.5-7.5c-0.18-4.06-3.3-7.5-7.5-7.5c-3.92,0-7.68,3.45-7.5,7.5
			C538.94,316.14,542.06,319.58,546.26,319.58L546.26,319.58z"/>
	</g>
</g>
<g>
	<g>
		<path class="st1" d="M541.83,300.83c0.25,0.57,0.5,1.14,0.74,1.71c-0.25-0.6-0.5-1.19-0.76-1.79c2.49,5.93,4.41,12.07,5.73,18.36
			c1.38,6.59,2.3,13.29,3.21,19.96c-0.09-0.66-0.18-1.33-0.27-1.99c1.2,8.99,1.95,18.09,0.85,27.13c-0.22,1.77,0.99,4.1,2.2,5.3
			c1.3,1.3,3.44,2.28,5.3,2.2c1.94-0.09,3.95-0.72,5.3-2.2c1.43-1.56,1.94-3.21,2.2-5.3c1.14-9.39,0.27-18.8-0.98-28.13
			c-1.24-9.2-2.42-18.52-4.93-27.47c-1.48-5.26-3.43-10.35-5.64-15.34c-0.71-1.61-2.87-3-4.48-3.45c-1.8-0.49-4.19-0.27-5.78,0.76
			c-1.6,1.03-3.01,2.57-3.45,4.48C540.6,297.14,540.98,298.89,541.83,300.83L541.83,300.83z"/>
	</g>
</g>
<g>
	<g>
		<path class="st1" d="M550.39,363.28c-0.15,3.78-0.07,7.64-0.57,11.39c0.09-0.66,0.18-1.33,0.27-1.99
			c-0.15,1.05-0.39,2.06-0.78,3.05c0.25-0.6,0.5-1.19,0.76-1.79c-0.24,0.56-0.53,1.09-0.88,1.6c4.32,2.52,8.63,5.05,12.95,7.57
			c0.05-0.08,0.09-0.17,0.14-0.25c0.97-1.7,1.28-3.88,0.76-5.78c-0.48-1.74-1.82-3.62-3.45-4.48c-3.56-1.88-8.19-0.95-10.26,2.69
			c-0.05,0.08-0.09,0.17-0.14,0.25c-0.97,1.7-1.28,3.88-0.76,5.78c0.48,1.74,1.82,3.62,3.45,4.48c1.74,0.92,3.85,1.38,5.78,0.76
			c1.93-0.63,3.33-1.76,4.48-3.45c2.13-3.11,2.68-7.02,2.88-10.69c0.17-3.04,0.24-6.08,0.36-9.13c0.07-1.88-0.89-3.99-2.2-5.3
			c-1.3-1.3-3.44-2.28-5.3-2.2C553.69,355.97,550.55,359.08,550.39,363.28L550.39,363.28z"/>
	</g>
</g>
<g>
	<g>
		<path class="st1" d="M551.54,364.35c0.3,8.11,0.2,16.25-0.85,24.31c0.09-0.66,0.18-1.33,0.27-1.99
			c-0.95,7.08-2.65,14.03-5.39,20.64c0.25-0.6,0.5-1.19,0.76-1.79c-0.76,1.81-1.6,3.58-2.51,5.32c4.57,0.6,9.14,1.19,13.71,1.79
			c-0.54-1.38-0.87-2.8-1.08-4.26c0.09,0.66,0.18,1.33,0.27,1.99c-0.61-4.66-0.59-9.46-0.55-14.15c0.04-4.88,0.3-9.76,0.75-14.63
			c0.17-1.81-0.96-4.06-2.2-5.3c-1.3-1.3-3.44-2.28-5.3-2.2c-1.94,0.09-3.95,0.72-5.3,2.2c-1.41,1.54-2,3.22-2.2,5.3
			c-0.53,5.77-0.79,11.56-0.75,17.36c0.02,2.78,0.1,5.56,0.26,8.33c0.19,3.14,0.49,6.4,1.64,9.35c1.11,2.86,3.05,4.94,6.24,5.37
			c2.84,0.38,6.08-0.93,7.47-3.58c8.76-16.62,10.46-35.56,9.78-54.05c-0.15-3.92-3.35-7.69-7.5-7.5
			C555.11,357.02,551.39,360.15,551.54,364.35L551.54,364.35z"/>
	</g>
</g>
<g>
	<g>
		<path class="st1" d="M546.02,406.78c-1.64,5.02-3.33,10.03-5.06,15.02c-1.65,4.77-3.22,9.62-5.17,14.27
			c0.25-0.6,0.5-1.19,0.76-1.79c-0.9,2.09-1.95,4.08-3.34,5.89c4.32,2.52,8.63,5.05,12.95,7.57c6.72-9.35,10.33-20.68,12.75-31.84
			c-4.57,0.6-9.14,1.19-13.71,1.79c0.06,0.11,0.12,0.21,0.18,0.32c-0.25-0.6-0.5-1.19-0.76-1.79c0.03,0.11,0.06,0.23,0.09,0.34
			c-0.09-0.66-0.18-1.33-0.27-1.99c0,0.12,0.01,0.24,0.01,0.36c0.09-0.66,0.18-1.33,0.27-1.99c-0.06,0.4-0.15,0.72-0.3,1.1
			c0.25-0.6,0.5-1.19,0.76-1.79c-0.11,0.24-0.22,0.47-0.35,0.69c-1.88,3.44-0.96,8.33,2.69,10.26c3.5,1.85,8.26,0.99,10.26-2.69
			c1.81-3.32,2.31-6.95,0.38-10.38c-1.47-2.62-4.57-3.97-7.47-3.58c-2.79,0.38-5.61,2.48-6.24,5.37
			c-1.38,6.37-3.17,12.72-5.66,18.75c0.25-0.6,0.5-1.19,0.76-1.79c-1.69,4-3.8,7.77-6.33,11.29c-1.07,1.49-1.23,4.08-0.76,5.78
			c0.48,1.74,1.82,3.62,3.45,4.48c1.74,0.92,3.85,1.38,5.78,0.76c1.99-0.64,3.22-1.81,4.48-3.45c2.09-2.72,3.42-5.89,4.66-9.07
			c1.16-2.96,2.19-5.98,3.24-8.98c2.21-6.29,4.35-12.6,6.43-18.94c1.22-3.73-1.42-8.36-5.24-9.23
			C551.12,400.61,547.33,402.79,546.02,406.78L546.02,406.78z"/>
	</g>
</g>
<g>
	<g>
		<path class="st1" d="M536.66,435.48c-0.57,2.13-1.44,4.17-2.29,6.2c0.25-0.6,0.5-1.19,0.76-1.79c-2.49,5.89-5.47,11.56-8.91,16.95
			c-1.68,2.63-3.41,5.37-5.43,7.76c0.39-0.46,0.94-1.21,0.23-0.3c-0.23,0.29-0.46,0.58-0.69,0.86c-0.55,0.69-1.11,1.37-1.68,2.04
			c-0.46,0.54-0.91,1.08-1.4,1.59c-0.29,0.31-0.6,0.59-0.9,0.89c-0.98,0.95,1.4-0.97,0.19-0.13c-1.63,1.14-2.9,2.51-3.45,4.48
			c-0.49,1.8-0.27,4.19,0.76,5.78c2.05,3.18,6.83,5.1,10.26,2.69c4.05-2.84,6.94-6.78,9.9-10.68c2.35-3.1,4.54-6.32,6.56-9.65
			c2.02-3.33,3.87-6.76,5.53-10.28c1.89-3.99,3.87-8.14,5.02-12.41c1.02-3.78-1.27-8.32-5.24-9.23
			C541.95,429.34,537.75,431.42,536.66,435.48L536.66,435.48z"/>
	</g>
</g>
<g>
	<g>
		<path class="st1" d="M522.23,462.41c-0.76,1.37-1.51,2.74-2.27,4.12c-0.69,1.25-1.38,2.51-2.26,3.65
			c0.39-0.51,0.78-1.01,1.17-1.52c-0.52,0.66-1.1,1.26-1.77,1.78c0.51-0.39,1.01-0.78,1.52-1.17c-0.47,0.35-0.96,0.64-1.49,0.88
			c0.6-0.25,1.19-0.5,1.79-0.76c-0.43,0.18-0.86,0.31-1.32,0.4c-0.98,0.23-1.83,0.68-2.55,1.34c-0.82,0.53-1.46,1.23-1.93,2.1
			c-0.55,0.86-0.84,1.79-0.89,2.79c-0.22,1-0.18,1.99,0.13,2.99c0.59,1.81,1.71,3.57,3.45,4.48c0.6,0.25,1.19,0.5,1.79,0.76
			c1.33,0.36,2.66,0.36,3.99,0c1.13-0.21,2.24-0.73,3.27-1.22c1.05-0.5,1.94-1.27,2.85-1.98c1.39-1.1,2.46-2.56,3.46-4.01
			c1.52-2.22,2.71-4.7,4.01-7.06c0.95-1.73,1.29-3.85,0.76-5.78c-0.48-1.74-1.82-3.62-3.45-4.48c-1.74-0.92-3.85-1.38-5.78-0.76
			C524.88,459.56,523.18,460.68,522.23,462.41L522.23,462.41z"/>
	</g>
</g>
<g>
	<g>
		<path class="st1" d="M526.71,478.85c-0.43,0.7-0.88,1.38-1.35,2.04c-0.5,0.7-0.83,1.12-1.39,1.78c-1.05,1.25-2.19,2.42-3.41,3.51
			c-0.49,0.44-0.48,1.33,0,1.77c0.52,0.48,1.25,0.47,1.77,0c2.55-2.27,4.75-4.93,6.54-7.83c0.34-0.56,0.14-1.4-0.45-1.71
			C527.81,478.08,527.07,478.25,526.71,478.85L526.71,478.85z"/>
	</g>
</g>
<g>
	<g>
		<path class="st1" d="M528.17,478.91c-0.1,0.15-0.2,0.31-0.31,0.45c0.03-0.04,0.07-0.08,0.1-0.13c-0.05,0.06-0.1,0.12-0.16,0.18
			c-0.06,0.06-0.1,0.12-0.13,0.2c-0.04,0.07-0.06,0.15-0.05,0.24c0,0.09,0.01,0.17,0.05,0.24c0.03,0.08,0.07,0.14,0.13,0.2
			c0.12,0.11,0.28,0.19,0.44,0.18c0.06-0.01,0.11-0.01,0.17-0.02c0.11-0.03,0.2-0.08,0.28-0.16c0.05-0.04,0.09-0.09,0.13-0.14
			c0.07-0.09,0.14-0.18,0.21-0.27c0.08-0.11,0.16-0.23,0.24-0.34c0.05-0.07,0.07-0.15,0.07-0.23c0.02-0.08,0.01-0.17-0.01-0.25
			c-0.02-0.08-0.06-0.15-0.11-0.21c-0.04-0.07-0.1-0.12-0.18-0.16c-0.05-0.02-0.1-0.04-0.15-0.06c-0.11-0.03-0.22-0.03-0.33,0
			c-0.05,0.02-0.1,0.04-0.15,0.06C528.3,478.74,528.22,478.82,528.17,478.91L528.17,478.91z"/>
	</g>
</g>
<g>
	<g>
		<path class="st1" d="M488.7,394.52c0.8,0,0.81-1.25,0-1.25C487.9,393.27,487.9,394.52,488.7,394.52L488.7,394.52z"/>
	</g>
</g>
<g>
	<g>
		<path class="st1" d="M451.36,497.78c1.79-4.22,3.56-8.45,5.38-12.66c0.81-1.87,1.67-3.72,2.75-5.45c1.05-1.67,2.38-3.05,3.83-4.38
			c6.56-5.99,12.06-12.88,17.75-19.67c2.85-3.41,5.92-6.74,8.36-10.46c2.17-3.3,3.9-7.28,3.43-11.31c-0.46-4-2.99-6.66-4.9-10.01
			c-0.76-1.33-1.12-2.62-0.98-4.16c0.14-1.56,0.66-3.09,1.08-4.6c1.1-3.98,1.53-8.17-1.77-11.25c-1.41-1.32-2.56-2.24-3.06-4.17
			c-0.5-1.92-0.41-3.95-0.35-5.92c-1.55,0.42-3.11,0.84-4.66,1.26c2.3,4.86,6.13,8.66,9.18,13.03c2.79,3.99,5.01,9,3.07,13.81
			c1.61,0,3.21,0,4.82,0c-0.85-6.1-1.32-12.26-1.46-18.42c-1.64,0.22-3.27,0.44-4.91,0.66c2.29,5.54,3.09,11.6,2.03,17.53
			c1.61,0,3.21,0,4.82,0c-1.22-2.99-2.02-6.12-2.24-9.35c-0.17-2.45-3.29-3.43-4.66-1.26c-2.59,4.09-2.63,9.02-1.79,13.64
			c0.9,4.93,3.04,9.62,3.12,14.69c0.04,2.72,4.36,3.52,4.91,0.66c1.41-7.35,2.24-14.81,2.47-22.29c0.04-1.35-1.18-2.5-2.5-2.5
			c-1.47,0-2.36,1.15-2.5,2.5c-0.43,4.08-0.85,8.16-1.28,12.25c-0.14,1.34,1.25,2.5,2.5,2.5c1.48,0,2.35-1.15,2.5-2.5
			c0.36-3.22,0.06-6.49-0.82-9.61c-0.71-2.51-4-2.23-4.82,0c-2.73,7.36-3.87,15.3-3.34,23.13c0.22,3.18,5.12,3.24,5,0
			c-0.26-7.29-0.53-14.58-0.79-21.87c-0.12-3.21-4.89-3.22-5,0c-0.31,9.46-0.67,19.01-3.8,28.04c-0.96,2.76,3.11,4.24,4.57,1.93
			c6.15-9.73,10.89-20.33,14.07-31.39c-1.64-0.22-3.27-0.44-4.91-0.66c-0.34,3.02-0.69,6.04-1.03,9.05c-0.15,1.34,1.26,2.5,2.5,2.5
			c1.48,0,2.35-1.15,2.5-2.5c0.34-3.02,0.69-6.04,1.03-9.05c0.14-1.22-1.06-2.32-2.17-2.46c-1.23-0.15-2.39,0.57-2.74,1.79
			c-3.07,10.67-7.63,20.81-13.56,30.2c1.52,0.64,3.05,1.28,4.57,1.93c3.27-9.42,3.66-19.49,3.98-29.37c-1.67,0-3.33,0-5,0
			c0.26,7.29,0.53,14.58,0.79,21.87c1.67,0,3.33,0,5,0c-0.51-7.45,0.56-14.81,3.16-21.8c-1.61,0-3.21,0-4.82,0
			c0.77,2.73,0.96,5.46,0.64,8.28c1.67,0,3.33,0,5,0c0.43-4.08,0.85-8.16,1.28-12.25c-1.67,0-3.33,0-5,0
			c-0.21,7.04-0.96,14.04-2.29,20.96c1.64,0.22,3.27,0.44,4.91,0.66c-0.07-5-1.85-9.64-2.97-14.45c-0.87-3.77-1.2-7.95,0.96-11.36
			c-1.55-0.42-3.11-0.84-4.66-1.26c0.26,3.68,1.03,7.26,2.42,10.68c0.42,1.04,1.22,1.84,2.41,1.84c1.03,0,2.22-0.77,2.41-1.84
			c1.22-6.79,0.62-13.79-2.03-20.19c-0.48-1.15-1.41-1.99-2.74-1.79c-1.19,0.18-2.2,1.19-2.17,2.46c0.15,6.62,0.72,13.2,1.64,19.75
			c0.15,1.07,1.42,1.84,2.41,1.84c1.18,0,1.99-0.8,2.41-1.84c2.24-5.55,0.2-11.83-2.88-16.63c-3.1-4.84-7.39-8.82-9.87-14.06
			c-1.12-2.37-4.58-1.04-4.66,1.26c-0.12,3.58-0.08,7.59,2.01,10.66c0.52,0.76,1.12,1.44,1.81,2.05c0.64,0.56,1.41,1.09,1.85,1.83
			c0.58,0.99,0.45,2.23,0.2,3.41c-0.68,3.26-2.12,6.48-1.74,9.88c0.43,3.8,2.94,6.42,4.77,9.59c1.84,3.18,1.15,6.52-0.55,9.62
			c-2.02,3.67-4.91,6.78-7.58,9.97c-5.6,6.68-10.94,13.84-17.42,19.7c-1.68,1.52-3.35,3.02-4.74,4.82
			c-1.45,1.88-2.55,3.95-3.53,6.11c-2.07,4.58-3.95,9.24-5.92,13.86c-0.53,1.24-0.37,2.68,0.9,3.42
			C448.99,499.29,450.83,499.03,451.36,497.78L451.36,497.78z"/>
	</g>
</g>
<g>
	<g>
		<path class="st1" d="M482.79,397.62c-4.75-4.03-9.8-7.69-15.13-10.91c-1.12-0.68-2.8-0.29-3.42,0.9c-0.64,1.21-0.3,2.7,0.9,3.42
			c5.1,3.08,9.74,6.41,14.12,10.13c1,0.85,2.57,1.05,3.54,0C483.65,400.23,483.86,398.53,482.79,397.62L482.79,397.62z"/>
	</g>
</g>
<g>
	<g>
		<path class="st1" d="M456.36,484.27c-2.33,4.72-4.65,9.44-6.98,14.15c-0.56,1.13-0.38,2.43,0.64,3.23
			c0.99,0.77,2.37,0.67,3.28-0.2c1.58-1.51,2.93-3.3,3.95-5.24c0.61-1.16,0.34-2.77-0.9-3.42c-1.15-0.61-2.77-0.34-3.42,0.9
			c-0.44,0.85-0.94,1.65-1.51,2.42c0.25-0.34-0.14,0.18-0.2,0.24c-0.15,0.18-0.31,0.36-0.47,0.54c-0.32,0.35-0.65,0.69-1,1.02
			c1.31,1.01,2.62,2.02,3.93,3.03c2.33-4.72,4.65-9.44,6.98-14.15c0.58-1.17,0.35-2.76-0.9-3.42
			C458.65,482.77,456.97,483.01,456.36,484.27L456.36,484.27z"/>
	</g>
</g>
<g>
	<g>
		<path class="st1" d="M443.02,235.92c-1.15,0.16-2.57,0.29-3.66-0.1c-0.76-0.27-1-0.79-1.02-1.38c-0.08-2.38,1.4-4.95,1.14-7.56
			c-0.16-1.67-0.85-3.07-2.03-4.26c-0.52-0.53-1.19-0.97-1.57-1.62c-0.35-0.61-0.46-1.4-0.56-2.08c-0.58-4.05-0.92-8.15-1.38-12.21
			c-0.15-1.34-1.04-2.5-2.5-2.5c-1.38,0-2.47,1.14-2.5,2.5c-0.09,3.68,3.22,6.84,5.67,9.24c2.28,2.23,5.01,3.98,7.17,6.33
			c0.82,0.89,1.5,1.91,1.73,3.11c0.34,1.74,0.21,3.22,1.5,4.64c0.59,0.65,1.96,1.13,1.46,2.12c-0.54,1.08-2.21,1.51-3.25,1.87
			c-1.17,0.41-1.98,1.47-1.79,2.74c0.17,1.11,1.2,2.32,2.46,2.17c2.03-0.24,3.68-0.92,5.24-2.25c-1.31-0.17-2.62-0.34-3.93-0.51
			c-0.25-0.54-0.31-1.22,0.18-1.36c0.56-0.16,0.44,0.3,0.18-0.19c-0.29-0.55-0.63-1-0.85-1.6c-0.63-1.76-0.9-3.63-1.13-5.47
			c-0.16-1.23-0.83-2.3-2.17-2.46c-1.18-0.14-2.45,0.56-2.74,1.79c-0.6,2.57-1.37,5.08-2.29,7.55c-0.72,1.94,1.38,3.4,3.08,3.08
			c1.77-0.34,3.06-1.56,4.12-2.94c0.57-0.74,1.34-2.38,2.43-2.3c1.08,0.08,2.14-0.84,2.41-1.84c0.31-1.14-0.24-2.16-1.15-2.82
			c-3.34-2.45-6.18-5.59-8.32-9.13c-1.12-1.85-2.05-3.81-2.83-5.82c-0.44-1.13-0.84-2.27-1.23-3.41c-0.19-0.57-0.39-1.14-0.57-1.72
			c-0.08-0.24-0.16-0.48-0.23-0.73c-0.13,0.49-0.45,0.89-0.95,1.19c-0.44,0-0.89,0-1.33,0c-0.46-0.1-0.27-0.42-0.12,0.15
			c0.08,0.29,0.28,0.59,0.41,0.86c0.37,0.79,0.74,1.59,1.09,2.39c0.66,1.47,1.29,2.96,1.89,4.46c1.25,3.1,2.38,6.25,3.41,9.42
			c0.99,3.05,5.82,1.74,4.82-1.33c-1.25-3.86-2.66-7.67-4.22-11.41c-0.82-1.96-1.67-3.91-2.57-5.83c-0.87-1.85-2.05-3.75-4.38-3.58
			c-2.06,0.16-3.19,2.1-3.03,4.02c0.16,1.88,1.06,3.81,1.71,5.57c1.31,3.57,2.87,7.07,5.06,10.2c2.45,3.51,5.42,6.48,8.86,9.01
			c0.42-1.55,0.84-3.11,1.26-4.66c-1.95-0.15-3.72,0.94-4.95,2.39c-0.82,0.96-1.58,2.77-2.93,3.03c1.03,1.03,2.05,2.05,3.08,3.08
			c0.92-2.47,1.69-4.99,2.29-7.55c-1.64-0.22-3.27-0.44-4.91-0.66c0.48,3.75,0.86,8.77,4.19,11.21c3.58,2.63,8.68-0.88,6.73-5.12
			c-0.72-1.57-2.82-1.45-3.93-0.51c-0.46,0.39-1.1,0.72-1.71,0.79c0.22,1.64,0.44,3.27,0.66,4.91c3.5-1.21,7.43-3.41,7.02-7.75
			c-0.11-1.14-0.55-2.14-1.3-3c-0.48-0.55-1.12-0.94-1.61-1.49c-0.16-0.18-0.16-0.16,0.02,0.08c-0.07-0.16-0.1-0.32-0.09-0.48
			c-0.01-0.38-0.06-0.76-0.1-1.14c-0.13-1.05-0.39-1.96-0.82-2.93c-1.4-3.11-4.23-5.19-6.79-7.29c-1.45-1.19-2.83-2.47-4.1-3.85
			c-1-1.08-2.86-2.71-2.83-4.29c-1.67,0-3.33,0-5,0c0.27,2.38,0.54,4.75,0.8,7.13c0.26,2.31,0.4,4.69,0.84,6.98
			c0.42,2.15,1.5,3.62,3.04,5.08c0.98,0.93,1,1.5,0.78,2.7c-0.59,3.11-1.96,6.32-0.11,9.3c2.15,3.46,6.5,3.34,10.04,2.86
			c1.34-0.18,2.07-1.9,1.75-3.08C445.7,236.23,444.36,235.74,443.02,235.92L443.02,235.92z"/>
	</g>
</g>
<g>
	<g>
		<path class="st1" d="M444.94,234.54c3.22,0,3.22-5,0-5C441.72,229.54,441.72,234.54,444.94,234.54L444.94,234.54z"/>
	</g>
</g>
<g>
	<g>
		<path class="st1" d="M447.57,232.38c0.4,0.48,0.81,0.95,1.21,1.43c0.19,0.22,0.37,0.44,0.56,0.66c0.09,0.11,0.19,0.22,0.28,0.33
			c0.31,0.4,0.27,0.28-0.12-0.36c0.08-0.64,0.17-1.28,0.25-1.93c0.51-0.46,0.56-0.54,0.17-0.24c-0.16,0.12-0.33,0.23-0.49,0.35
			c-0.33,0.23-0.66,0.47-0.99,0.7c-0.52,0.37-1.04,0.75-1.57,1.1c-0.28,0.19-0.57,0.36-0.87,0.52c-0.08,0.04-0.71,0.31-0.31,0.16
			c-0.11,0.04-1.01,0.24-0.52,0.19c-0.16,0.01-0.33,0.02-0.49,0.01c0.15,0.03,0.14,0.03-0.03,0c-2.6-0.4-4.6-1.47-6.76-2.98
			c-1.07-0.75-2.83-0.23-3.42,0.9c-0.68,1.28-0.25,2.62,0.9,3.42c1.77,1.24,3.72,2.2,5.76,2.89c1.06,0.36,2.15,0.64,3.27,0.76
			c1.24,0.13,2.45-0.24,3.57-0.74c0.85-0.39,1.62-0.92,2.38-1.46c1.02-0.72,2.17-1.39,3.09-2.23c0.67-0.61,1.05-1.49,0.92-2.4
			c-0.11-0.82-0.5-1.34-1.02-1.96c-0.74-0.89-1.49-1.76-2.24-2.64c-0.85-1-2.67-0.94-3.54,0
			C446.59,229.91,446.66,231.32,447.57,232.38L447.57,232.38z"/>
	</g>
</g>
<g>
	<g>
		<path class="st1" d="M185.47,348.32c2.21,6.91,9.27,9.12,15.68,10.41c-0.5-1.22-1-2.45-1.49-3.67c-1.14,1.89-2.38,3.72-3.7,5.49
			c1.44,0,2.88,0,4.32,0c-2.24-4.05-6.3-6.6-8.65-10.54c-2.39-4.01-3.27-8.72-4.16-13.24c-0.26-1.33-1.84-2.08-3.08-1.75
			c-1.38,0.38-2.01,1.75-1.75,3.08c0.95,4.83,1.99,9.76,4.46,14.09c1.19,2.08,2.75,3.89,4.43,5.6c1.63,1.65,3.29,3.24,4.42,5.29
			c0.99,1.79,3.25,1.43,4.32,0c1.32-1.77,2.55-3.6,3.7-5.49c0.79-1.31,0.09-3.35-1.49-3.67c-4.38-0.88-10.61-1.97-12.19-6.92
			C189.32,343.93,184.49,345.24,185.47,348.32L185.47,348.32z"/>
	</g>
</g>
</svg>
