<?xml version="1.0" encoding="utf-8"?>
<!-- Generator: Adobe Illustrator 24.3.0, SVG Export Plug-In . SVG Version: 6.00 Build 0)  -->
<svg version="1.1" id="Layer_1" xmlns="http://www.w3.org/2000/svg" xmlns:xlink="http://www.w3.org/1999/xlink" x="0px" y="0px"
	 viewBox="0 0 720 720" style="enable-background:new 0 0 720 720;" xml:space="preserve">
<style type="text/css">
	.st0{fill:#FFEE8F;}
	.st1{fill:#FFEEB6;}
	.st2{fill:#B7966D;}
</style>
<g>
	<g>
		<path class="st0" d="M471.4,336.6c-9.1,5-18.3,10-27.4,15c-2.4,1.3-3.4,4.8-1.9,7.2c1.6,2.4,4.6,3.3,7.2,1.9
			c9.1-5,18.3-10,27.4-15c2.4-1.3,3.4-4.8,1.9-7.2C477,336,474,335.2,471.4,336.6L471.4,336.6z"/>
	</g>
</g>
<g>
	<g>
		<path class="st1" d="M483.3,458.5c-2.1,8.2-3.5,16.5-4.5,24.9c-0.8,6.2-1.1,12.6-0.5,18.8c0.5,5.2,1.1,10.5,2.4,15.6
			c1.3,5,3.4,9.8,5.6,14.5c3.6,7.8,9.5,14.5,15.6,20.5c5.5,5.4,11.1,10.7,15.9,16.8c-1.4-1.8-2.7-3.5-4.1-5.3
			c3.1,4,5.7,8.3,7.8,12.9c-0.9-2.1-1.8-4.2-2.6-6.3c0.7,1.7,1.2,3.5,1.5,5.4c-0.3-2.3-0.6-4.6-0.9-7c0.2,1.6,0.2,3.2,0,4.8
			c0.3-2.3,0.6-4.6,0.9-7c-0.2,1.4-0.6,2.7-1.1,4c0.9-2.1,1.8-4.2,2.6-6.3c-0.6,1.3-1.3,2.5-2.2,3.6c1.4-1.8,2.7-3.5,4.1-5.3
			c-0.7,0.8-1.4,1.6-2.2,2.2c8.5-2.2,17-4.5,25.5-6.7c-7.1-2.8-14.5-4.2-21.9-5.5c-7.6-1.3-15.1-3.3-22.6-5.2
			c-14.9-3.8-29.8-7.4-44.8-11c-14.7-3.6-29.5-7.1-44.2-10.9c-7.5-1.9-14.9-3.8-22.4-5.8c-7.5-2-15-4.3-22.5-6.3
			c-4.1-1.1-8.4-1.4-12.5-2.4c-4.1-1-8-2.6-12-4c-7.8-2.8-15.6-5.9-23.2-9.1c2.1,0.9,4.2,1.8,6.3,2.6c-11.9-5-23.6-10.6-34.9-16.8
			c1.8,1.4,3.5,2.7,5.3,4.1c-2.8-2.8-5.4-5.4-8.9-7.4c-1.3-0.8-2.7-1.5-4-2.3c-2.9-1.7-5.8-3.5-8.7-5.4c-5.6-3.6-11-7.5-16.3-11.5
			c1.8,1.4,3.5,2.7,5.3,4.1c-16.3-12.6-30.8-27.3-43.4-43.6c1.4,1.8,2.7,3.5,4.1,5.3c-13.9-18-25.2-37.8-34-58.7
			c0.9,2.1,1.8,4.2,2.6,6.3c-14.2-33.9-19.4-70.3-24.8-106.4c-1.6-10.6-3.2-21.2-5.1-31.8c0.3,2.3,0.6,4.6,0.9,7
			c-1.3-10.5-2.9-20.7-6.7-30.7c-2.2-5.8-4.6-11.5-7.4-16.9c-2-3.9-4.8-7.5-6.5-11.5c0.9,2.1,1.8,4.2,2.6,6.3
			c-0.2-0.6-0.4-1.2-0.5-1.9c0.3,2.3,0.6,4.6,0.9,7c-0.1-0.8-0.1-1.6,0-2.4c-0.3,2.3-0.6,4.6-0.9,7c0.1-0.8,0.4-1.5,0.7-2.3
			c-0.9,2.1-1.8,4.2-2.6,6.3c0.4-0.7,0.7-1.4,1.2-2c-1.4,1.8-2.7,3.5-4.1,5.3c0.6-0.8,1.3-1.4,2.1-2.1c-1.8,1.4-3.5,2.7-5.3,4.1
			c0.8-0.6,1.6-1,2.5-1.4c-2.1,0.9-4.2,1.8-6.3,2.6c1.9-0.7,3.8-1.3,5.8-1.5c-2.3,0.3-4.6,0.6-7,0.9c2.4-0.3,4.8-0.2,7.2,0.1
			c-2.3-0.3-4.6-0.6-7-0.9c8,1.2,15.4,4.9,23,7.4c-2.1-0.9-4.2-1.8-6.3-2.6c14.6,7.3,29.3,14.5,44.7,19.8c13.9,4.9,28.2,8.6,42.5,12
			c29.4,7.1,59.1,12.8,88.3,21c15.2,4.3,30.4,8.3,45,14.4c-2.1-0.9-4.2-1.8-6.3-2.6c9.2,3.9,18.1,8.5,26.5,14
			c8.8-15.1,17.6-30.1,26.4-45.2c-3.7-1.9-7.5-3.5-11-5.8c-6.7,15.9-13.4,31.9-20.2,47.8c0.5,0.2,1,0.4,1.4,0.6
			c-2.1-0.9-4.2-1.8-6.3-2.6c3.3,1.5,6.5,3.3,9.6,5.2c8.8-15.1,17.6-30.1,26.4-45.2c-46.4-22.6-95.4-40.2-146.2-49.7
			c-15.7-2.9-31.5-5.2-47.4-6.8c-3.6-0.1-7,0.6-10.1,2.3c-3.2,1.1-6.1,2.9-8.4,5.4c-4.5,4.5-8,12-7.7,18.5
			c0.3,6.8,2.5,13.8,7.7,18.5c1.8,1.4,3.5,2.7,5.3,4.1c4.1,2.4,8.5,3.6,13.2,3.6c5.4,0.5,10.7,1.2,16.1,1.9c-2.3-0.3-4.6-0.6-7-0.9
			c35.9,4.9,71.2,13.8,105.4,26.1c9.7,3.5,19.3,7.2,28.8,11.2c-2.1-0.9-4.2-1.8-6.3-2.6c10.2,4.3,20.3,8.9,30.2,13.7
			c3,1.9,6.2,2.9,9.7,3.1c3.5,0.8,7,0.6,10.4-0.5c6.1-1.7,12.6-6.4,15.6-12c3.2-6.1,4.8-13.4,2.6-20.2c-2.1-6.6-6.1-12-12-15.6
			c-5.5-3.4-11.2-6-17.2-8.4c-3.5-1.1-7-1.2-10.4-0.5c-3.5,0.2-6.7,1.2-9.7,3.1c-1.8,1.4-3.5,2.7-5.3,4.1c-2.6,2.4-4.4,5.2-5.4,8.4
			c-1.2,2-1.8,4.2-1.8,6.6c-0.8,3.5-0.6,7,0.5,10.4c2.2,6.7,6.1,11.8,12,15.6c3.5,2.2,7.3,3.9,11,5.8c6.3,3.2,13.2,4.6,20.2,2.6
			c6.1-1.7,12.6-6.4,15.6-12c3.2-6.1,4.8-13.4,2.6-20.2c-2.2-6.7-6.1-11.8-12-15.6c-25.6-16.8-55.3-25.1-84.6-32.9
			c-29.6-7.9-59.8-13.7-89.5-21.1c-16-4-31.9-8.5-47.1-14.9c2.1,0.9,4.2,1.8,6.3,2.6c-7-3-13.8-6.5-20.6-9.8
			c-8.5-4.1-17.4-7.7-26.5-10.7c-5.4-1.7-11-2.6-16.7-3.1c-5.5-0.5-11.5,0.3-16.7,2c-3.3,1.1-6.8,2.4-9.8,4.3
			c-5.2,3.4-8.4,6.8-12,11.8c-0.4,0.6-0.8,1.1-1.1,1.7c-1.2,2.3-2.4,5.1-3.2,7.6c-0.8,2.6-1,5.7-1.2,8.4c-0.1,1.9,0.2,3.7,0.5,5.6
			c0.7,5.1,2.3,9.8,5,14.2c1.1,1.7,2.1,3.4,3.1,5.1c2,3.5,3.8,7.2,5.4,10.9c-0.9-2.1-1.8-4.2-2.6-6.3c3.4,8.3,5.7,17,7,25.9
			c-0.3-2.3-0.6-4.6-0.9-7c1.8,13.6,4.2,27,6.3,40.6c1.7,11.1,3.3,22.2,5.2,33.3c3.8,22.2,8.6,44.4,16.7,65.5
			c14.8,38.4,36.7,73.9,66.2,102.8c16.6,16.2,35.5,30.5,55.8,41.8c-1.8-1.4-3.5-2.7-5.3-4.1c2.8,2.8,5.5,5.5,9,7.5
			c2.1,1.2,4.3,2.3,6.4,3.4c4,2.1,8,4.1,12.1,6c9.8,4.6,19.8,8.9,29.9,12.9c8.2,3.3,16.5,6.6,24.9,9.2c4.3,1.3,8.9,1.7,13.3,2.7
			c4.5,1,9,2.5,13.4,3.7c35.3,9.8,70.9,18,106.4,26.7c10.1,2.5,20.3,5.5,30.5,7.7c10,2.2,20,3.2,29.6,6.9c4.6,1.2,9.3,1.2,13.9,0
			c4.4-1.2,8.3-3.5,11.5-6.7c2.6-2.3,4.7-5.2,6.7-8c2-2.8,3.2-6.3,4.4-9.4c1.7-4.5,2.5-9.7,2.2-14.5c-0.2-3.5-0.6-7.2-1.5-10.6
			c-0.9-3.4-2.5-6.7-3.9-9.9c-1.3-2.8-2.8-5.6-4.5-8.2c-4.5-6.9-9.9-13.2-15.7-19.1c-4.6-4.6-9.8-8.9-13.8-14
			c1.4,1.8,2.7,3.5,4.1,5.3c-2.3-3.1-4.2-6.4-5.8-10c0.9,2.1,1.8,4.2,2.6,6.3c-1.7-4.1-2.8-8.3-3.4-12.7c0.3,2.3,0.6,4.6,0.9,7
			c-1-7.2-0.7-14.5,0.3-21.7c-0.3,2.3-0.6,4.6-0.9,7c0.8-5.9,2.1-11.8,3.6-17.6c1.7-6.6,0.9-14.2-2.6-20.2
			c-3.2-5.4-9.4-10.6-15.6-12c-6.7-1.5-14.2-1.2-20.2,2.6C489.7,446.5,485,451.8,483.3,458.5L483.3,458.5z"/>
	</g>
</g>
<g>
	<g>
		<path class="st0" d="M260.5,247.1c24.9,7.2,49.7,15,74,24.2c6.6,2.5,13.2,5.2,19.8,7.9c-2.1-0.9-4.2-1.8-6.3-2.6
			c22,9.3,43.4,20,63.6,32.7c5.8,3.6,11.4,7.4,17,11.4c3,1.9,6.2,2.9,9.7,3.1c3.5,0.8,7,0.6,10.4-0.5c3.4-0.8,6.4-2.4,8.9-4.7
			c2.8-1.8,5.1-4.3,6.7-7.3c0.9-2.1,1.8-4.2,2.6-6.3c1.2-4.6,1.2-9.3,0-13.9c-0.9-2.1-1.8-4.2-2.6-6.3c-2.3-3.9-5.5-7.1-9.4-9.4
			c-20.1-14.3-41.8-26.4-64.2-36.8c-24.5-11.4-49.8-21.1-75.5-29.5c-13.6-4.5-27.3-8.6-41-12.6c-3.5-1.1-7-1.2-10.4-0.5
			c-3.5,0.2-6.7,1.2-9.7,3.1c-3,1.6-5.5,3.9-7.3,6.7c-2.3,2.5-3.9,5.5-4.7,8.9c-0.3,2.3-0.6,4.6-0.9,7c0,4.7,1.2,9.1,3.6,13.2
			c1.4,1.8,2.7,3.5,4.1,5.3C252.3,243.6,256.1,245.9,260.5,247.1L260.5,247.1z"/>
	</g>
</g>
<g>
	<g>
		<path class="st1" d="M221.7,353.1c16.2,8.1,32.1,16.8,47.7,26.1c15,8.9,29.7,18.4,44,28.5c7.9,5.5,15.6,11.3,23.3,17.1
			c-1.8-1.4-3.5-2.7-5.3-4.1c14.6,11.2,28.6,23.1,42.1,35.7c12.9,12.1,25.3,24.7,36.9,38c6.4,7.3,12.6,14.8,18.5,22.5
			c-1.4-1.8-2.7-3.5-4.1-5.3c11.4,14.8,21.9,30.2,31.3,46.3c7.5-13.1,15.1-26.2,22.6-39.4c-4.8-0.3-9.5-0.7-14.3-1.4
			c2.3,0.3,4.6,0.6,7,0.9c-19.1-2.6-37.6-8.1-55.3-15.6c2.1,0.9,4.2,1.8,6.3,2.6c-24.6-10.4-47.7-24.3-69.5-39.5
			c-6.2-4.3-12.3-8.8-18.3-13.5c1.8,1.4,3.5,2.7,5.3,4.1c-21.1-16.3-40.8-34.5-58.4-54.6c-4.7-5.4-9.3-10.9-13.7-16.6
			c1.4,1.8,2.7,3.5,4.1,5.3c-12.8-16.6-24.2-34.4-33.5-53.2c-2.5-5.1-4.9-10.3-7.1-15.5c0.9,2.1,1.8,4.2,2.6,6.3
			c-6.8-16.1-12-32.8-15.4-49.8c-0.9-4.7-1.7-9.5-2.4-14.3c0.3,2.3,0.6,4.6,0.9,7c-1.4-10.5-2.1-21-2.1-31.6
			c-11,8.4-22.1,16.8-33.1,25.2c31.2,9,62,19.3,92.2,31.2c8.3,3.3,16.6,6.6,24.9,10.1c-2.1-0.9-4.2-1.8-6.3-2.6
			c30.3,12.8,60.4,26.6,88.3,44.2c7.3,4.6,14.4,9.5,21.2,14.8c-1.8-1.4-3.5-2.7-5.3-4.1c10.8,8.3,20.8,17.7,29.2,28.4
			c-1.4-1.8-2.7-3.5-4.1-5.3c5.6,7.2,10.2,15.1,13.8,23.5c-0.9-2.1-1.8-4.2-2.6-6.3c4.6,11,7.3,22.7,8.9,34.5
			c-0.3-2.3-0.6-4.6-0.9-7c1.1,8.3,1.7,16.6,2.3,24.9c0.5,7.9,1.1,15.9,0.1,23.8c0.3-2.3,0.6-4.6,0.9-7c-0.5,3.7-1.4,7.2-2.8,10.6
			c0.9-2.1,1.8-4.2,2.6-6.3c-1.2,2.8-2.7,5.5-4.6,7.9c1.4-1.8,2.7-3.5,4.1-5.3c-1.9,2.4-4.1,4.5-6.5,6.4c1.8-1.4,3.5-2.7,5.3-4.1
			c-3.3,2.5-7,4.6-10.8,6.2c2.1-0.9,4.2-1.8,6.3-2.6c-4.4,1.8-9,3.1-13.7,3.8c2.3-0.3,4.6-0.6,7-0.9c-4.2,0.6-8.4,0.6-12.7,0.1
			c2.3,0.3,4.6,0.6,7,0.9c-3.7-0.5-7.4-1.5-10.9-2.9c2.1,0.9,4.2,1.8,6.3,2.6c-3.6-1.5-6.9-3.5-10-5.9c1.8,1.4,3.5,2.7,5.3,4.1
			c-8-6.3-13.9-14.9-20.1-22.9c-8.3-10.7-16.5-21.4-24.8-32.1c-4.7-6-9.3-12.1-14-18.1c1.4,1.8,2.7,3.5,4.1,5.3
			c-16.5-21.4-33.9-42.5-47.5-66c-3.5-6.1-6.8-12.5-9.6-19c0.9,2.1,1.8,4.2,2.6,6.3c-3.7-8.9-6.6-18.1-7.9-27.7
			c0.3,2.3,0.6,4.6,0.9,7c-0.9-6.9-1-13.9-0.1-20.8c-14.9,6.2-29.8,12.3-44.7,18.5c19.4,16.4,38.7,32.9,58.1,49.3
			c19.3,16.4,38.6,32.7,57.8,49.1c10.9,9.3,21.8,18.5,32.7,27.8c2.4,2.6,5.2,4.4,8.4,5.4c3.1,1.6,6.5,2.4,10.1,2.3
			c2.3-0.3,4.6-0.6,7-0.9c3.4-0.8,6.4-2.4,8.9-4.7c2-1.2,3.5-2.7,4.7-4.7c2.3-2.5,3.9-5.5,4.7-8.9c0.3-2.3,0.6-4.6,0.9-7
			c0-4.7-1.2-9.1-3.6-13.2c-7.1-13.7-16-26.1-25.6-38.1c-8.9-11-18.8-21.1-29.5-30.4c-25-21.9-53.2-40.1-83.3-54.1
			c-19.1-8.9-38.8-16.7-58.9-22.9c-3.5-1.1-7-1.2-10.4-0.5c-3.5,0.2-6.7,1.2-9.7,3.1c-1.8,1.4-3.5,2.7-5.3,4.1
			c-3.2,3.3-5.5,7.1-6.7,11.5c-0.8,2.4-1.5,4.8-1.9,7.3c-0.8,4.5-1.5,9-1.6,13.6c-0.1,4.7,0.7,9.3,1.3,14c0.3,2.4,0.8,4.7,1.5,7
			c4.1,14.2,12.3,27.1,22.8,37.4c6.3,6.2,13.5,11.7,21.1,16.3c3,1.9,6.2,2.9,9.7,3.1c3.5,0.8,7,0.6,10.4-0.5
			c3.4-0.8,6.4-2.4,8.9-4.7c2.8-1.8,5.1-4.3,6.7-7.3c3.2-6.1,4.8-13.4,2.6-20.2c-2.1-6.6-6-12-12-15.6c-3-1.8-5.9-3.8-8.7-5.9
			c1.8,1.4,3.5,2.7,5.3,4.1c-5-3.9-9.5-8.3-13.4-13.3c1.4,1.8,2.7,3.5,4.1,5.3c-3.1-4-5.7-8.4-7.7-13.1c0.9,2.1,1.8,4.2,2.6,6.3
			c-1.7-4.1-2.9-8.3-3.5-12.7c0.3,2.3,0.6,4.6,0.9,7c-0.5-4-0.5-8.1,0-12.1c-0.3,2.3-0.6,4.6-0.9,7c0.4-3,1.1-6,2.1-8.9
			c-10.7,6.1-21.5,12.2-32.2,18.3c13.2,4.1,26.2,8.8,38.9,14.2c-2.1-0.9-4.2-1.8-6.3-2.6c21.9,9.3,43.1,20.5,62.8,33.9
			c5.3,3.6,10.4,7.3,15.5,11.2c-1.8-1.4-3.5-2.7-5.3-4.1c13.4,10.4,25.9,21.8,37.1,34.5c3,3.4,5.9,7,8.7,10.6
			c-1.4-1.8-2.7-3.5-4.1-5.3c7.1,9.2,13.4,18.9,18.7,29.2c13.7-10.6,27.4-21.1,41.1-31.7c-19.4-16.4-38.7-32.9-58.1-49.3
			c-19.3-16.4-38.6-32.7-57.8-49.1c-10.9-9.3-21.8-18.5-32.7-27.8c-1.8-1.4-3.5-2.7-5.3-4.1c-2.1-0.9-4.2-1.8-6.3-2.6
			c-2.3-0.3-4.6-0.6-7-0.9c-3.6-0.1-7,0.6-10.1,2.3c-2.2,0.6-4.1,1.7-5.8,3.4c-2,1.2-3.5,2.7-4.7,4.7c-1.6,1.6-2.7,3.6-3.4,5.8
			c-1.6,3.1-2.4,6.5-2.3,10.1c-0.7,5.8-0.8,11.6-0.3,17.3c0.7,7.8,1.9,15.7,4,23.3c2.2,7.7,5.3,15.1,8.5,22.4
			c2.5,5.7,5.3,11.2,8.4,16.6c13.1,22.9,29.9,43.5,45.9,64.3c9.9,12.8,19.7,25.6,29.6,38.3c8.1,10.5,16,21.1,24.4,31.4
			c3.1,3.8,6.3,7.4,10.1,10.4c3.5,2.9,7.1,5.8,11,8.1c4,2.4,8.5,4.2,12.9,5.8c2.7,1,5.5,1.8,8.3,2.2c4.9,0.8,10,1.6,15,1.5
			c4.9-0.1,9.9-0.8,14.7-1.7c2.8-0.5,5.5-1.2,8.1-2.1c4.5-1.5,9-3.4,13.3-5.6c2.2-1.1,4.4-2.4,6.4-3.9c3.6-2.6,7.3-5.3,10.5-8.5
			c3.2-3.3,6-7,8.5-10.9c2.6-4.2,4.6-9,6.2-13.7c1.3-3.8,1.8-7.7,2.4-11.7c0.9-6.9,1.2-13.5,0.8-20.4c-0.8-14.3-2-28.6-4.2-42.7
			c-2.3-14.5-6.7-28.1-13-41.3c-2.4-5.1-5.3-10-8.5-14.6c-4.1-5.9-8.5-11.5-13.3-16.9c-8.7-9.7-18.8-17.9-29.1-25.8
			c-19-14.6-40.2-26.4-61.6-37c-24.9-12.3-50.5-23.3-76.3-33.4c-24.7-9.7-49.9-18.5-75.3-26.3c-6.3-2-12.7-3.8-19.1-5.7
			c-4.6-1.2-9.3-1.2-13.9,0c-3.4,0.8-6.4,2.4-8.9,4.7c-2.8,1.8-5.1,4.3-6.7,7.3c-2.4,4.1-3.6,8.5-3.6,13.2
			c-0.1,15.2,1.6,30.4,4,45.4c2.1,12.9,5.3,25.6,9.5,38c9.3,28,22.6,54.7,39.3,78.9c18,26.2,39.1,50.3,62.8,71.5
			c13.4,12,27.5,23.1,42.1,33.6c13.2,9.5,27,18.4,41.1,26.6c15.8,9.1,32.3,16.9,49.4,23.4c7.7,2.9,15.5,5.4,23.5,7.5
			c10.5,2.7,21.1,4.4,31.8,5.7c4.2,0.5,8.4,0.9,12.6,1.2c9,0.5,18.1-5.4,22.6-13c4.7-8.1,4.7-18.3,0-26.4
			c-10.9-18.7-23.4-36.3-36.7-53.4C452,462,438.4,446.7,424,432.3c-15.1-15.1-31.1-29.3-47.8-42.6c-19.1-15.3-38.9-29.7-59.5-42.9
			c-19.6-12.6-39.8-24.2-60.6-34.9c-2.6-1.4-5.3-2.7-7.9-4c-3-1.9-6.2-2.9-9.7-3.1c-3.5-0.8-7-0.6-10.4,0.5
			c-3.4,0.8-6.4,2.4-8.9,4.7c-2.8,1.8-5.1,4.3-6.7,7.3c-3.2,6.1-4.8,13.4-2.6,20.2C211.7,343.7,215.7,350,221.7,353.1L221.7,353.1z"
			/>
	</g>
</g>
<g>
	<g>
		<path class="st1" d="M235.1,464.3c7.4,4.3,14.8,8.7,22.1,13c3.7,2.2,7.3,4.3,11,6.5c3.4,2,6.7,4.1,10.2,6c0.9,0.5,1.8,0.9,2.8,1.3
			c2.8,1.2,5.6,2.6,8.6,3.5c1,0.3,2,0.5,3.1,0.7c3.2,0.5,6.5,1.1,9.8,1.1c2.3-0.3,4.6-0.6,7-0.9c3.4-0.8,6.4-2.4,8.9-4.7
			c2-1.2,3.5-2.7,4.7-4.7c2.3-2.5,3.9-5.5,4.7-8.9c0.3-2.3,0.6-4.6,0.9-7c-0.3-2.3-0.6-4.6-0.9-7c-0.8-3.4-2.4-6.4-4.7-8.9
			c-1.8-2.8-4.3-5.1-7.3-6.7c-18-9.9-35.5-20.8-52.2-32.8c-4.6-3.3-9.1-6.7-13.6-10.1c1.8,1.4,3.5,2.7,5.3,4.1
			c-11.2-8.6-21.9-17.8-32.2-27.4c-2.4-2.6-5.2-4.4-8.4-5.4c-3.1-1.6-6.5-2.4-10.1-2.3c-3.6-0.1-7,0.6-10.1,2.3
			c-3.2,1.1-6.1,2.9-8.4,5.4c-1.4,1.8-2.7,3.5-4.1,5.3c-2.4,4.1-3.6,8.5-3.6,13.2c0.3,2.3,0.6,4.6,0.9,7c1.2,4.4,3.5,8.3,6.7,11.5
			c12.7,11.9,26.1,22.9,39.9,33.4c12.6,9.6,25.7,18.6,39.2,27c7.9,4.9,16,9.6,24.1,14.1c4.4-16.3,8.8-32.5,13.2-48.8
			c-0.9,0-1.7,0-2.6-0.2c2.3,0.3,4.6,0.6,7,0.9c-1.9-0.3-3.8-0.9-5.6-1.6c2.1,0.9,4.2,1.8,6.3,2.6c-3.8-1.6-7.3-3.9-10.8-6
			c-3.9-2.3-7.7-4.6-11.6-6.8c-7.9-4.6-15.8-9.3-23.6-13.9c-3-1.9-6.2-2.9-9.7-3.1c-3.5-0.8-7-0.6-10.4,0.5
			c-3.4,0.8-6.4,2.4-8.9,4.7c-2.8,1.8-5.1,4.3-6.7,7.3c-0.9,2.1-1.8,4.2-2.6,6.3c-1.2,4.6-1.2,9.3,0,13.9c0.9,2.1,1.8,4.2,2.6,6.3
			C228,458.9,231.2,462,235.1,464.3L235.1,464.3z"/>
	</g>
</g>
<g>
	<g>
		<path class="st1" d="M170.4,237.5c4.7,0,9.2-4.1,9-9c-0.2-4.9-4-9-9-9c-4.7,0-9.2,4.1-9,9C161.6,233.4,165.4,237.5,170.4,237.5
			L170.4,237.5z"/>
	</g>
</g>
<g>
	<g>
		<path class="st1" d="M450.5,267.3c-23-13.1-47.3-24-72-33.4c-22.6-8.6-45.7-15.7-69.1-21.7c-13.2-3.4-26.5-6.5-39.9-9.4
			c-3.5-1.1-7-1.2-10.4-0.5c-3.5,0.2-6.7,1.2-9.7,3.1c-3,1.6-5.5,3.9-7.3,6.7c-2.3,2.5-3.9,5.5-4.7,8.9c-0.3,2.3-0.6,4.6-0.9,7
			c0,4.7,1.2,9.1,3.6,13.2c1.4,1.8,2.7,3.5,4.1,5.3c3.3,3.2,7.1,5.5,11.5,6.7c16.8,3.6,33.5,7.6,50.1,12.1
			c16.6,4.5,33,9.6,49.1,15.4c9.2,3.3,18.2,6.8,27.2,10.6c-2.1-0.9-4.2-1.8-6.3-2.6c16.6,7,32.8,14.9,48.4,23.8
			c3,1.9,6.2,2.9,9.7,3.1c3.5,0.8,7,0.6,10.4-0.5c3.4-0.8,6.4-2.4,8.9-4.7c2.8-1.8,5.1-4.3,6.7-7.3c0.9-2.1,1.8-4.2,2.6-6.3
			c1.2-4.6,1.2-9.3,0-13.9c-0.9-2.1-1.8-4.2-2.6-6.3C457.5,272.8,454.4,269.7,450.5,267.3L450.5,267.3z"/>
	</g>
</g>
<g>
	<g>
		<path class="st1" d="M567,569.3c-9.8-24.9-18.1-50.4-24.5-76.3c-1.8-7.2-3.4-14.4-4.9-21.7c-0.8-3.4-2.4-6.4-4.7-8.9
			c-1.8-2.8-4.3-5.1-7.3-6.7c-2.1-0.9-4.2-1.8-6.3-2.6c-3.5-1.1-7-1.2-10.4-0.5c-2.4,0-4.6,0.6-6.6,1.8c-3.2,1.1-6.1,2.9-8.4,5.4
			c-1.4,1.8-2.7,3.5-4.1,5.3c-2.4,4.1-3.6,8.5-3.6,13.2c0.3,7.1,1.3,14.2,2.3,21.2c0.7,4.9,1.6,9.7,2.8,14.5
			c2.8,11.7,7.2,22.8,12,33.8c1.4,1.8,2.7,3.5,4.1,5.3c2.4,2.6,5.2,4.4,8.4,5.4c2,1.2,4.2,1.8,6.6,1.8c3.5,0.8,7,0.6,10.4-0.5
			c2.1-0.9,4.2-1.8,6.3-2.6c1.8-1.4,3.5-2.7,5.3-4.1c2.6-2.4,4.4-5.2,5.4-8.4c1.6-3.1,2.4-6.5,2.3-10.1c1.6-16.9,2.3-33.9,2.1-50.9
			c0.1-3.6-0.6-7-2.3-10.1c-1.1-3.2-2.9-6.1-5.4-8.4c-2.4-2.6-5.2-4.4-8.4-5.4c-3.1-1.6-6.5-2.4-10.1-2.3c-2.3,0.3-4.6,0.6-7,0.9
			c-4.4,1.2-8.3,3.5-11.5,6.7c-1.4,1.8-2.7,3.5-4.1,5.3c-2.4,4.1-3.6,8.5-3.6,13.2c0.2,17-0.5,34-2.1,50.9
			c16.3-4.4,32.5-8.8,48.8-13.2c-0.3-0.7-0.6-1.4-0.9-2.1c0.9,2.1,1.8,4.2,2.6,6.3c-5.6-13.2-9.5-27.1-11.4-41.4
			c0.3,2.3,0.6,4.6,0.9,7c-0.6-4.3-1-8.6-1.2-12.9c-17.1,2.3-34.3,4.6-51.4,7c5.3,26,12.5,51.6,21.3,76.6c2.5,7.2,5.2,14.4,8,21.5
			c0.8,3.4,2.4,6.4,4.7,8.9c1.8,2.8,4.3,5.1,7.3,6.7c3,1.9,6.2,2.9,9.7,3.1c3.5,0.8,7,0.6,10.4-0.5c2.1-0.9,4.2-1.8,6.3-2.6
			c3.9-2.3,7.1-5.5,9.4-9.4c0.9-2.1,1.8-4.2,2.6-6.3C568.2,578.6,568.2,574,567,569.3L567,569.3z"/>
	</g>
</g>
<g>
	<g>
		<path class="st1" d="M266,379.1c5.7,6.9,11.7,13.4,18.1,19.7c3.2,3.1,6.4,6.1,9.7,9.1c1.7,1.5,3.5,3.1,5.2,4.5
			c1.7,1.4,3.5,2.7,4.9,4.3c-0.5-0.6-0.9-1.2-1.4-1.8c0.3,0.4,0.6,0.8,0.8,1.3c-0.3-0.7-0.6-1.4-0.9-2.1c0.1,0.2,0.1,0.5,0.2,0.7
			c-0.1-0.8-0.2-1.6-0.3-2.4c0,0.2,0,0.4,0,0.6c0.1-0.8,0.2-1.6,0.3-2.4c0,0.1-0.1,0.2-0.1,0.3c0.3-0.7,0.6-1.4,0.9-2.1
			c-0.1,0.3-0.3,0.5-0.5,0.8c0.5-0.6,0.9-1.2,1.4-1.8c-0.1,0.2-0.3,0.3-0.5,0.5c0.6-0.5,1.2-0.9,1.8-1.4c-0.2,0.1-0.4,0.3-0.6,0.4
			c0.7-0.3,1.4-0.6,2.1-0.9c-0.3,0.1-0.6,0.2-0.9,0.3c0.8-0.1,1.6-0.2,2.4-0.3c-0.1,0-0.2,0-0.3,0c0.8,0.1,1.6,0.2,2.4,0.3
			c-0.2,0-0.4-0.1-0.7-0.2c-4.5-1.4-10,1.6-11.1,6.3c-1.1,4.9,1.5,9.6,6.3,11.1c4.6,1.4,9.5-0.4,12.4-4.2c3-3.8,3.3-8.9,0.8-13.1
			c-1.4-2.5-3.6-4.1-5.7-5.9c-1.7-1.4-3.4-2.9-5.1-4.4c-6.7-5.9-13.1-12.1-19.2-18.6c-3.4-3.6-6.7-7.4-9.8-11.2
			c-1.4-1.7-4.3-2.6-6.4-2.6c-2.2,0-4.8,1-6.4,2.6c-1.6,1.7-2.7,4-2.6,6.4C263.5,375.2,264.4,377.2,266,379.1L266,379.1z"/>
	</g>
</g>
<g>
	<g>
		<path class="st1" d="M417.5,451.5c4.7,0,9.2-4.1,9-9c-0.2-4.9-4-9-9-9c-4.7,0-9.2,4.1-9,9C408.7,447.4,412.5,451.5,417.5,451.5
			L417.5,451.5z"/>
	</g>
</g>
<g>
	<g>
		<path class="st1" d="M188.7,354.7c7.2,16.6,15.2,32.9,24,48.7c2.5,4.5,5.1,9,7.7,13.4c1,1.7,3.4,0.2,2.6-1.5
			c-8.2-17.9-16.5-36-27.4-52.5c-3.1-4.6-6.3-9.1-9.8-13.5c-0.9-1.1-3.1,0.1-2.5,1.5c5.3,13.1,10.5,26.2,15.8,39.3
			c0.7,1.8,3.6,1,2.9-0.8c-6.5-16.4-12.4-33.2-17.6-50.1c-0.9,0.4-1.8,0.8-2.7,1.2c8.2,13.3,16.3,26.5,24.5,39.8
			c0.9-0.5,1.7-1,2.6-1.5c-9.5-13.6-18.6-27.5-27.1-41.7c-0.9-1.4-3.3-0.5-2.7,1.2c3.8,12.2,9,24,15.5,35c1,1.7,3.5,0.2,2.6-1.5
			c-3.3-6.3-7.7-12-12.8-16.9c-1.3-1.2-3,0.3-2.4,1.8c6.6,15,14.4,29.4,22.3,43.7c2.3,4.1,4.5,8.1,6.8,12.2c1,1.7,3.4,0.2,2.6-1.5
			c-9.4-19.5-17.7-39.4-25.1-59.6c-2.1-5.7-4.1-11.4-6-17.2c-0.9,0.4-1.8,0.8-2.7,1.2c8.2,13.9,17,27.6,26.1,40.9
			c2.6,3.8,5.3,7.6,8,11.4c0.9,1.3,3.4,0.6,2.7-1.2c-5.4-13.7-11.9-26.9-19.5-39.5c-1-1.7-3.5-0.2-2.6,1.5c3.2,6,7,11.6,11.2,16.9
			c1.2,1.5,3.3-0.6,2.1-2.1c-4.1-5.1-7.6-10.6-10.8-16.3c-0.9,0.5-1.7,1-2.6,1.5c7.5,12.4,13.9,25.4,19.2,38.8
			c0.9-0.4,1.8-0.8,2.7-1.2c-9.4-13.1-18.4-26.6-27-40.3c-2.4-3.9-4.8-7.9-7.2-11.9c-0.8-1.4-3.3-0.5-2.7,1.2
			c6.9,20.6,14.8,40.9,23.6,60.8c2.5,5.6,5.1,11.2,7.8,16.7c0.9-0.5,1.7-1,2.6-1.5c-8-14.3-16.1-28.5-23.3-43.2
			c-2-4.2-4-8.4-5.9-12.6c-0.8,0.6-1.6,1.2-2.4,1.8c5,4.7,9.1,10.2,12.3,16.3c0.9-0.5,1.7-1,2.6-1.5c-6.3-10.8-11.4-22.3-15.2-34.3
			c-0.9,0.4-1.8,0.8-2.7,1.2c8.6,14.2,17.6,28.1,27.1,41.7c1.1,1.6,3.6,0.2,2.6-1.5c-8.2-13.3-16.3-26.5-24.5-39.8
			c-0.9-1.4-3.3-0.5-2.7,1.2c5.2,16.9,11,33.6,17.6,50.1c1-0.3,1.9-0.5,2.9-0.8c-5.3-13.1-10.5-26.2-15.8-39.3
			c-0.8,0.5-1.7,1-2.5,1.5c12.2,15.3,21.4,32.7,29.8,50.3c2.4,5,4.7,10,7,15c0.9-0.5,1.7-1,2.6-1.5c-9.2-15.6-17.7-31.6-25.4-48
			c-2.2-4.7-4.3-9.3-6.3-14.1C190.5,351.4,187.9,353,188.7,354.7L188.7,354.7z"/>
	</g>
</g>
<g>
	<g>
		<path class="st1" d="M208.4,224.9c9.9,19.9,18.8,40.3,26.8,61c2.2,5.8,4.4,11.6,6.5,17.5c0.6,1.8,3.5,1,2.9-0.8
			c-7.5-21-15.9-41.7-25.3-62c-2.7-5.8-5.4-11.6-8.3-17.3C210.1,221.7,207.5,223.2,208.4,224.9L208.4,224.9z"/>
	</g>
</g>
<g>
	<g>
		<path class="st1" d="M132.8,183.8c0.8-0.4,1.6-0.8,2.5-1.1c-1,0.4-1.9,0.8-2.9,1.2c4-1.7,8.3-2.8,12.6-3.4
			c-1.1,0.1-2.1,0.3-3.2,0.4c5.9-0.8,11.9-0.7,17.8,0.1c-1.1-0.1-2.1-0.3-3.2-0.4c9.6,1.3,18.7,4.3,27.6,8.1c-1-0.4-1.9-0.8-2.9-1.2
			c9.8,4.2,19.3,9.1,29,13.5c10.7,4.8,21.6,8.9,32.8,12.2c10.4,3.1,21,5.9,31.5,8.9c10.6,3.1,21.1,6.6,31.4,10.3
			c11.7,4.2,23.2,8.8,34.6,13.6c-1-0.4-1.9-0.8-2.9-1.2c17.1,7.2,33.9,14.9,50.7,22.7c3,1.4,6,2.1,9.2,1.2c2.8-0.8,5.8-2.9,7.2-5.5
			c1.5-2.8,2.2-6.2,1.2-9.2c-0.9-2.8-2.7-5.9-5.5-7.2c-22.7-10.5-45.4-20.9-68.7-30.1c-11.2-4.5-22.5-8.7-33.9-12.5
			c-11.4-3.8-23-7-34.6-10.2c-13-3.6-26-7.4-38.4-12.6c1,0.4,1.9,0.8,2.9,1.2c-13.5-5.7-26.4-12.7-40-18.2
			c-12.9-5.2-27.1-8.7-41.1-7.9c-9.1,0.5-17.7,2.6-25.9,6.6c-2.6,1.3-4.8,4.5-5.5,7.2c-0.8,2.9-0.4,6.7,1.2,9.2
			c1.7,2.6,4.1,4.8,7.2,5.5C126.9,185.7,129.8,185.3,132.8,183.8L132.8,183.8z"/>
	</g>
</g>
<g>
	<g>
		<path class="st1" d="M169.6,179.5c11.3,6.3,23.4,11.4,35.8,14.9c11.7,3.3,23.8,4.7,35.7,6.8c23.3,4.2,46.4,9.5,69,16.6
			c12.7,4,25.2,8.5,37.5,13.7c-0.7-0.3-1.4-0.6-2.1-0.9c10.1,4.3,20.1,9,29.8,14.1c5,2.7,10,5.4,14.9,8.3c5,3,9.9,6.1,14.9,9.1
			c5.7,3.3,11.4,6.6,16.7,10.6c-0.6-0.5-1.2-0.9-1.8-1.4c0.2,0.2,0.5,0.4,0.7,0.6c1.9,1.5,3.8,2.6,6.4,2.6c2.2,0,4.8-1,6.4-2.6
			c1.6-1.7,2.7-4,2.6-6.4c-0.1-2.2-0.8-4.9-2.6-6.4c-7.4-5.9-15.6-10.3-23.6-15.2c-7.2-4.4-14.5-8.8-21.9-12.9
			c-15-8.2-30.7-15.3-46.6-21.4c-15.1-5.8-30.5-10.7-46.1-14.9c-15.8-4.2-31.9-7.7-48-10.6c-8.2-1.5-16.4-2.6-24.6-4.1
			c-8.3-1.6-16.5-3.9-24.4-6.9c-2-0.7-3.9-1.5-5.9-2.3c0.7,0.3,1.4,0.6,2.1,0.9c-5.4-2.3-10.7-4.9-15.8-7.7
			c-4.1-2.3-10-1.1-12.3,3.2C164.1,171.4,165.2,177.1,169.6,179.5L169.6,179.5z"/>
	</g>
</g>
<g>
	<g>
		<path class="st1" d="M552,511.1c0.2-8.9-0.8-17.8-2.2-26.6c-1-6.6-2.7-13-4.9-19.3c-0.8-3.5-2.4-6.6-4.8-9.2
			c-1.9-2.9-4.4-5.3-7.6-7c-2.1-0.9-4.3-1.8-6.4-2.7c-3.6-1.1-7.2-1.3-10.8-0.5c-2.4,0-4.7,0.6-6.8,1.8c-3.3,1.1-6.2,2.9-8.7,5.6
			c-1.4,1.8-2.8,3.6-4.2,5.5c-2.4,4.2-3.7,8.8-3.7,13.6c0.2,5.7,0.9,8.2,2.9,12.9c0.6,1.5,1.1,3.1,2.1,4.5c1.3,1.8,3,4.1,4.4,5.8
			c0.2,0.2,0.4,0.5,0.6,0.7c0.2,0.2,0.4,0.3,0.5,0.5c1.6,1.4,4,3.2,5.8,4.4c0.5,0.3,0.9,0.6,1.4,0.8c2.1,1,4.6,2.1,6.8,2.9
			c0.2,0.1,0.5,0.1,0.7,0.2c1.3,0.3,3.3,0.5,4.3,0.6c1.5,0.2,2.9,0.5,4.3,0.5c9.5,0.2,18.6-5.3,23.3-13.4c2.4-4.2,3.7-8.8,3.7-13.6
			c0-4.9-1.2-9.4-3.7-13.6c-12.7-27.8-25.3-55.6-38-83.3c-10.8-23.7-21.8-47.4-36.1-69.2c-5.1-7.9-10.8-15.4-16.6-22.7
			c-4.6-5.8-9.5-11.3-14.8-16.5c-10.9,14.1-21.8,28.3-32.7,42.4c10.6,7.9,21.3,15.8,31.9,23.7c3.1,2,6.4,3,10,3.2
			c3.6,0.8,7.2,0.6,10.8-0.5c2.1-0.9,4.3-1.8,6.4-2.7c3.1-1.7,5.7-4,7.6-7c1.7-1.7,2.8-3.7,3.5-6c1.7-3.2,2.5-6.7,2.3-10.4
			c-0.3-2.4-0.6-4.8-1-7.2c-1.3-4.6-3.6-8.5-6.9-11.9c-5.5-7.1-11.1-14.2-16.6-21.3c-2.4-2.6-5.3-4.5-8.7-5.6
			c-3.2-1.7-6.7-2.5-10.4-2.3c-2.4,0.3-4.8,0.6-7.2,1c-3.5,0.8-6.6,2.4-9.2,4.8c-2,1.2-3.6,2.8-4.8,4.8c-2.4,2.6-4,5.7-4.8,9.2
			c-0.3,2.4-0.6,4.8-1,7.2c0,4.9,1.2,9.4,3.7,13.6c17.8,24.5,33.3,50.6,46.5,77.9c3.7,7.7,7.2,15.4,10.5,23.3
			c-0.9-2.1-1.8-4.3-2.7-6.4c11.2,26.5,20.1,53.9,26.7,81.9c1.8,7.8,3.5,15.7,5,23.7c0.8,3.5,2.4,6.6,4.8,9.2c1.9,2.9,4.4,5.3,7.6,7
			c2.1,0.9,4.3,1.8,6.4,2.7c3.6,1.1,7.2,1.3,10.8,0.5c2.4,0,4.7-0.6,6.8-1.8c3.3-1.1,6.2-2.9,8.7-5.6c1.4-1.8,2.8-3.6,4.2-5.5
			c2.4-4.2,3.7-8.8,3.7-13.6c-0.1-6-0.6-12-1.4-17.9c-1.1-8.1-2.2-16.2-4-24.2c-2.6-11.7-6.1-23.2-9.8-34.6
			c-7-21.5-14.2-43.1-22.9-63.9c-5.1-12.3-10.5-24.4-17-36c-6.3-11.2-13.8-21.7-21.9-31.7c-6.2-7.7-13.1-14.8-20.5-21.3
			c-9.1-8-18.8-15.4-29-21.8c-10.3-6.5-21.3-11.5-32.5-16.2c-9.1-3.8-18.5-6.9-28.1-9.1c-2.4-0.6-4.8-1.1-7.2-1.5
			c-3.6-1.1-7.2-1.3-10.8-0.5c-3.6,0.2-6.9,1.2-10,3.2c-3.1,1.7-5.7,4-7.6,7c-2.4,2.6-4,5.7-4.8,9.2c-0.3,2.4-0.6,4.8-1,7.2
			c0,4.9,1.2,9.4,3.7,13.6c1.4,1.8,2.8,3.6,4.2,5.5c3.4,3.3,7.3,5.7,11.9,6.9c12.3,2.3,24.3,5.9,35.8,10.7c-2.1-0.9-4.3-1.8-6.4-2.7
			c14.4,6.1,28,14,40.4,23.6c-1.8-1.4-3.6-2.8-5.5-4.2c11.8,9.2,22.5,19.7,31.6,31.6c-1.4-1.8-2.8-3.6-4.2-5.5
			c9.5,12.3,17.2,25.7,23.8,39.7c1.9,4,3.7,8.1,5.4,12.2c-0.9-2.1-1.8-4.3-2.7-6.4c5.9,14.1,11,28.5,15.9,42.9
			c5.2,15.3,10.5,30.7,14.7,46.3c2.3,8.9,4.3,17.9,5.5,27.1c-0.3-2.4-0.6-4.8-1-7.2c0.8,6,1.3,12.1,1.4,18.2
			c17.7-2.4,35.4-4.8,53-7.2c-5.4-29.2-13.4-57.8-23.8-85.6c-11.1-29.7-24.5-58.5-40.4-85.9c-8.4-14.3-17.4-28.2-27.2-41.6
			c-14.1,10.9-28.3,21.8-42.4,32.7c5.5,7.1,11.1,14.2,16.6,21.3c10.9-14.1,21.8-28.3,32.7-42.4c-10.6-7.9-21.3-15.8-31.9-23.7
			c-3.1-2-6.4-3-10-3.2c-3.6-0.8-7.2-0.6-10.8,0.5c-2.1,0.9-4.3,1.8-6.4,2.7c-3.1,1.7-5.7,4-7.6,7c-1.7,1.7-2.8,3.7-3.5,6
			c-1.7,3.2-2.5,6.7-2.3,10.4c0.3,2.4,0.6,4.8,1,7.2c1.3,4.6,3.6,8.5,6.9,11.9c6,5.9,11.5,12.3,16.7,18.9c-1.4-1.8-2.8-3.6-4.2-5.5
			c13.9,18,24.8,38.1,34.7,58.5c10.9,22.4,20.9,45.3,31.3,68c6.2,13.6,12.4,27.3,18.6,40.9c7.8-13.5,15.5-27.1,23.3-40.6
			c-0.2,0-0.5,0-0.7,0c2.4,0.3,4.8,0.6,7.2,1c-0.6-0.1-1.2-0.2-1.8-0.5c2.1,0.9,4.3,1.8,6.4,2.7c-0.6-0.3-1.1-0.5-1.6-0.9
			c1.8,1.4,3.6,2.8,5.5,4.2c-0.5-0.4-0.9-0.8-1.3-1.3c1.4,1.8,2.8,3.6,4.2,5.5c-0.4-0.5-0.7-1-1-1.6c0.9,2.1,1.8,4.3,2.7,6.4
			c-0.2-0.6-0.4-1.1-0.5-1.7c0.3,2.4,0.6,4.8,1,7.2c0-0.2-0.1-0.5-0.1-0.7c-17.7,2.4-35.4,4.8-53,7.2c2.4,7,4.2,14.2,5.2,21.5
			c-0.3-2.4-0.6-4.8-1-7.2c0.8,5.7,1.1,11.5,0.9,17.2c-0.1,3.7,0.6,7.2,2.3,10.4c1.1,3.3,2.9,6.2,5.6,8.7c2.4,2.6,5.3,4.5,8.7,5.6
			c3.2,1.7,6.7,2.5,10.4,2.3c2.4-0.3,4.8-0.6,7.2-1c4.6-1.3,8.5-3.6,11.9-6.9c1.4-1.8,2.8-3.6,4.2-5.5
			C550.8,520.5,552,516,552,511.1L552,511.1z"/>
	</g>
</g>
<g>
	<g>
		<path class="st1" d="M499.8,507.6c1.6,18.3,4.6,36.5,9.8,54.1c17.4-4.8,34.7-9.6,52.1-14.4c-6.5-16-11.6-32.5-15.3-49.3
			c-0.8-3.5-2.4-6.6-4.8-9.2c-1.9-2.9-4.4-5.3-7.6-7c-3.1-2-6.4-3-10-3.2c-3.6-0.8-7.2-0.6-10.8,0.5c-2.1,0.9-4.3,1.8-6.4,2.7
			c-4.1,2.4-7.3,5.6-9.7,9.7c-0.9,2.1-1.8,4.3-2.7,6.4c-1.3,4.8-1.3,9.6,0,14.4c3.7,16.8,8.8,33.3,15.3,49.3
			c0.8,3.5,2.4,6.6,4.8,9.2c1.9,2.9,4.4,5.3,7.6,7c3.1,2,6.4,3,10,3.2c3.6,0.8,7.2,0.6,10.8-0.5c2.1-0.9,4.3-1.8,6.4-2.7
			c4.1-2.4,7.3-5.6,9.7-9.7c0.9-2.1,1.8-4.3,2.7-6.4c1.3-4.8,1.3-9.6,0-14.4c-3.4-11.7-6-23.7-7.6-35.9c0.3,2.4,0.6,4.8,1,7.2
			c-0.5-3.7-0.9-7.3-1.2-11c0.1-3.7-0.6-7.2-2.3-10.4c-1.1-3.3-2.9-6.2-5.6-8.7c-2.4-2.6-5.3-4.5-8.7-5.6c-3.2-1.7-6.7-2.5-10.4-2.3
			c-2.4,0.3-4.8,0.6-7.2,1c-4.6,1.3-8.5,3.6-11.9,6.9c-1.4,1.8-2.8,3.6-4.2,5.5C501,498.2,499.8,502.7,499.8,507.6L499.8,507.6z"/>
	</g>
</g>
<g>
	<g>
		<path class="st1" d="M474.5,553.8c-3.3,0.9-6.7,1.5-10.1,2c0.8-0.1,1.6-0.2,2.4-0.3c-9.6,1.2-19.3,0.9-28.9-0.4
			c0.8,0.1,1.6,0.2,2.4,0.3c-11.3-1.5-22.5-4.3-33.5-7.4c-10.5-3-21.1-6-31.4-9.5c-5.8-1.9-11.5-4-17.2-6.4c0.7,0.3,1.4,0.6,2.1,0.9
			c-5.9-2.5-11.7-5.3-17.3-8.6c-5.3-3.1-10.3-6.7-15.2-10.5c0.6,0.5,1.2,0.9,1.8,1.4c-6.1-4.7-12.1-9.6-18.3-14.1
			c-6.3-4.5-12.9-8.2-20-11.1c-2-0.8-5.1-0.1-6.9,0.9c-1.9,1.1-3.6,3.2-4.1,5.4c-0.5,2.3-0.4,4.9,0.9,6.9c0.5,0.6,0.9,1.2,1.4,1.8
			c1.1,1.1,2.4,1.9,4,2.3c0.4,0.2,0.8,0.3,1.1,0.5c-0.7-0.3-1.4-0.6-2.1-0.9c8.4,3.6,15.9,8.9,23.1,14.4c-0.6-0.5-1.2-0.9-1.8-1.4
			c9,7,17.7,14.3,27.6,20.1c10.3,6,21.5,10.6,32.8,14.5c10.9,3.8,21.9,7,33,10.1c11.6,3.3,23.3,6.3,35.3,7.9
			c14.6,2,29.4,2.1,43.8-1.6c4.6-1.2,7.8-6.5,6.3-11.1C484,555.4,479.4,552.5,474.5,553.8L474.5,553.8z"/>
	</g>
</g>
<g>
	<g>
		<path class="st1" d="M218.5,492.1c5.9,8.3,12.4,16.1,20.2,22.7c7.8,6.6,16.1,12.6,24.8,18c14.6,8.9,30,16.6,45.5,23.7
			c18.2,8.4,36.8,16.1,56,22.1c8.4,2.6,17,5,25.6,6.9c10.8,2.4,21.7,4,32.6,5.4c17.3,2.1,34.9,2.3,52.3,0.1
			c4.4-0.6,8.8-1.1,13.2-1.8c3.5-0.8,6.6-2.4,9.2-4.8c2.9-1.9,5.3-4.4,7-7.6c2-3.1,3-6.4,3.2-10c0.8-3.6,0.6-7.2-0.5-10.8
			c-0.9-2.1-1.8-4.3-2.7-6.4c-2.4-4.1-5.6-7.3-9.7-9.7c-2.1-0.9-4.3-1.8-6.4-2.7c-4.8-1.3-9.6-1.3-14.4,0c-1.5,0.2-3,0.4-4.5,0.6
			c2.4-0.3,4.8-0.6,7.2-1c-19,2.5-38.2,2.2-57.2-0.4c2.4,0.3,4.8,0.6,7.2,1c-22.1-3-43.8-8.9-64.7-16.6c-6-2.2-12-4.6-17.9-7.1
			c2.1,0.9,4.3,1.8,6.4,2.7c-10.7-4.5-21.2-9.4-31.5-14.6c-9.7-4.9-19.3-9.9-28.6-15.6c-5.1-3.1-10-6.4-14.7-10
			c1.8,1.4,3.6,2.8,5.5,4.2c-6.8-5.3-13.1-11.2-18.4-18c1.4,1.8,2.8,3.6,4.2,5.5c-0.8-1-1.5-2-2.2-3c-1.7-3.1-4-5.7-7-7.6
			c-2.6-2.4-5.7-4-9.2-4.8c-3.6-1.1-7.2-1.3-10.8-0.5c-3.6,0.2-6.9,1.2-10,3.2c-1.8,1.4-3.6,2.8-5.5,4.2c-3.3,3.4-5.7,7.3-6.9,11.9
			c-0.3,2.4-0.6,4.8-1,7.2C214.8,483.3,216.1,487.9,218.5,492.1L218.5,492.1z"/>
	</g>
</g>
<g>
	<g>
		<path class="st2" d="M434.7,404c3.9,0,7.7-3.4,7.5-7.5c-0.2-4.1-3.3-7.5-7.5-7.5c-3.9,0-7.7,3.4-7.5,7.5
			C427.4,400.5,430.5,404,434.7,404L434.7,404z"/>
	</g>
</g>
<g>
	<g>
		<path class="st2" d="M460.8,339.6c3.9,0,7.7-3.4,7.5-7.5c-0.2-4.1-3.3-7.5-7.5-7.5c-3.9,0-7.7,3.4-7.5,7.5
			C453.5,336.2,456.6,339.6,460.8,339.6L460.8,339.6z"/>
	</g>
</g>
<g>
	<g>
		<path class="st2" d="M482.2,411.6c3.9,0,7.7-3.4,7.5-7.5c-0.2-4.1-3.3-7.5-7.5-7.5c-3.9,0-7.7,3.4-7.5,7.5
			C474.9,408.2,478,411.6,482.2,411.6L482.2,411.6z"/>
	</g>
</g>
<g>
	<g>
		<path class="st2" d="M422.3,355.3c3.9,0,7.7-3.4,7.5-7.5c-0.2-4.1-3.3-7.5-7.5-7.5c-3.9,0-7.7,3.4-7.5,7.5
			C414.9,351.8,418.1,355.3,422.3,355.3L422.3,355.3z"/>
	</g>
</g>
<g>
	<g>
		<path class="st2" d="M496.5,370.7c3.9,0,7.7-3.4,7.5-7.5c-0.2-4.1-3.3-7.5-7.5-7.5c-3.9,0-7.7,3.4-7.5,7.5
			C489.1,367.3,492.3,370.7,496.5,370.7L496.5,370.7z"/>
	</g>
</g>
<g>
	<g>
		<path class="st2" d="M459.4,462.5c3.9,0,7.7-3.4,7.5-7.5c-0.2-4.1-3.3-7.5-7.5-7.5c-3.9,0-7.7,3.4-7.5,7.5
			C452,459,455.2,462.5,459.4,462.5L459.4,462.5z"/>
	</g>
</g>
<g>
	<g>
		<path class="st2" d="M502.6,460.4c3.9,0,7.7-3.4,7.5-7.5c-0.2-4.1-3.3-7.5-7.5-7.5c-3.9,0-7.7,3.4-7.5,7.5
			C495.3,457,498.4,460.4,502.6,460.4L502.6,460.4z"/>
	</g>
</g>
<g>
	<g>
		<path class="st2" d="M521.2,421.2c3.9,0,7.7-3.4,7.5-7.5c-0.2-4.1-3.3-7.5-7.5-7.5c-3.9,0-7.7,3.4-7.5,7.5
			C513.9,417.8,517,421.2,521.2,421.2L521.2,421.2z"/>
	</g>
</g>
<g>
	<g>
		<path class="st2" d="M519.1,504.7c3.9,0,7.7-3.4,7.5-7.5c-0.2-4.1-3.3-7.5-7.5-7.5c-3.9,0-7.7,3.4-7.5,7.5
			C511.8,501.3,514.9,504.7,519.1,504.7L519.1,504.7z"/>
	</g>
</g>
<g>
	<g>
		<path class="st2" d="M406.4,428.6c3.9,0,7.7-3.4,7.5-7.5c-0.2-4.1-3.3-7.5-7.5-7.5c-3.9,0-7.7,3.4-7.5,7.5
			C399.1,425.2,402.2,428.6,406.4,428.6L406.4,428.6z"/>
	</g>
</g>
<g>
	<g>
		<path class="st2" d="M421.5,299.1c3.9,0,7.7-3.4,7.5-7.5c-0.2-4.1-3.3-7.5-7.5-7.5c-3.9,0-7.7,3.4-7.5,7.5
			C414.1,295.7,417.3,299.1,421.5,299.1L421.5,299.1z"/>
	</g>
</g>
<g>
	<g>
		<path class="st2" d="M370.3,339.8c3.9,0,7.7-3.4,7.5-7.5c-0.2-4.1-3.3-7.5-7.5-7.5c-3.9,0-7.7,3.4-7.5,7.5
			C362.9,336.4,366.1,339.8,370.3,339.8L370.3,339.8z"/>
	</g>
</g>
<g>
	<g>
		<path class="st2" d="M213.8,207.4c-21-10.1-47.1-8.8-66.7,4.3c-18.6,12.5-30.1,34.7-29.8,57.1c0.4,23.1,13.4,42.9,26.3,61
			c6.6,9.3,13.3,18.5,18.8,28.4c5.8,10.5,10,21.7,13.2,33.2c6.6,23.7,9.1,48.2,13.9,72.2c4.6,23.2,11.5,45.8,24.3,65.9
			c12,18.7,27.9,34.8,46.4,47c20.5,13.5,43.6,21,67.6,25c13.5,2.2,27,3.5,40.6,5c13.6,1.5,27.2,3.2,40.7,5.4
			c27.4,4.4,54.6,10.4,81.3,17.8c13.4,3.7,26.6,7.8,39.8,12.2c10.9,3.7,22.7,7.2,34.3,5c12.2-2.4,19.2-12.1,23.7-23
			c4.9-12,9-24.8,11.5-37.5c2.6-13.2,3.1-27.1-1-40.1c-4-12.5-11.6-23.4-16.9-35.4c-10.4-23.5-13.3-49.6-17.7-74.6
			c-4.3-24.2-11.1-47.7-21.3-70.1c-9.9-21.9-22.9-42.4-38.6-60.6c-31-36.1-73.3-62.9-119.7-73.9c-23.5-5.6-47.6-6.2-71.7-6.5
			c-23.5-0.3-47.3-0.3-70.2-6.2c-10.9-2.8-21.2-7.1-30.7-13.1c-4.9-3.1-9.4,4.7-4.5,7.8c40.4,25.7,90.7,18.9,136.1,21.4
			c22.9,1.3,45.2,5.8,66.5,14.1c21.3,8.3,41.4,20.2,59,34.7c35.8,29.4,61.9,69.6,76.2,113.6c7.7,23.5,10.9,47.9,15.4,72.1
			c2.3,12.3,5.1,24.6,9.4,36.4c2.2,5.9,4.7,11.6,7.6,17.2c3,5.8,6.3,11.4,9,17.3c5.4,11.6,6.9,23.9,5.4,36.6
			c-1.5,12.9-5.7,25.4-10,37.6c-3.3,9.4-7.3,20.2-17.9,23.2c-10.4,2.9-21.8-1.2-31.5-4.5c-51.3-17.3-104.3-29-158.1-35.1
			c-26.1-2.9-52.6-4.8-77.6-13.4c-19.9-6.9-38.2-18.3-53.3-32.9c-15.2-14.7-27.4-32.5-35-52.3c-8.6-22.4-12.1-46.4-16-70
			c-3.9-23.4-8.4-47-18.7-68.6c-9.6-20.2-24.8-36.8-36-56c-5.3-9.2-9.7-19-11.2-29.6c-1.4-10.2,0.1-20.8,4.1-30.3
			c8.2-19.6,26.6-33.4,47.8-35.2c10.4-0.9,21,0.7,30.5,5.3c2.2,1.1,4.9,0.6,6.2-1.6C216.6,211.6,216,208.4,213.8,207.4L213.8,207.4z
			"/>
	</g>
</g>
<g>
	<g>
		<path class="st1" d="M166.9,238.4c2.7,0,5.5-1.2,7.4-3.1c1.8-1.8,3.2-4.8,3.1-7.4c-0.3-5.7-4.6-10.5-10.5-10.5
			c-2.7,0-5.5,1.2-7.4,3.1c-1.8,1.8-3.2,4.8-3.1,7.4C156.6,233.6,161,238.4,166.9,238.4L166.9,238.4z"/>
	</g>
</g>
<g>
	<g>
		<path class="st1" d="M251.3,375.7c8.3,8.8,16.2,18,23.6,27.6c-0.5-0.7-1.1-1.4-1.6-2.1c6.4,8.2,12.4,16.8,18,25.5
			c2.1-5.1,4.2-10.3,6.3-15.4c-0.4,0.2-0.8,0.3-1.2,0.3c0.9-0.1,1.9-0.3,2.8-0.4c-0.3,0-0.6,0-1,0c0.9,0.1,1.9,0.3,2.8,0.4
			c-0.5-0.1-1-0.2-1.6-0.4c0.8,0.4,1.7,0.7,2.5,1.1c-0.4-0.2-0.7-0.4-1.1-0.7c0.7,0.5,1.4,1.1,2.1,1.6c-0.2-0.2-0.5-0.4-0.7-0.7
			c0.5,0.7,1.1,1.4,1.6,2.1c-0.3-0.4-0.5-0.7-0.6-1.1c-1-2.2-4-4.2-6.3-4.8c-2.5-0.7-5.9-0.4-8.1,1.1c-2.2,1.4-4.2,3.6-4.8,6.3
			c-0.1,0.9-0.3,1.9-0.4,2.8c0,1.9,0.5,3.7,1.4,5.3c2.7,6.3,11.7,9.9,18,7.4c1.8-0.5,3.3-1.4,4.6-2.7c1-1,1.7-2.1,2.2-3.4
			c1.2-3,1.3-6.5-0.5-9.3c-9.9-15.4-21-30.1-33-44c-3.3-3.8-6.7-7.6-10.2-11.2c-3.8-4-11.1-4.1-14.8,0
			C247.4,365.2,247.3,371.5,251.3,375.7L251.3,375.7z"/>
	</g>
</g>
<g>
	<g>
		<path class="st1" d="M436.9,452.8c2.7,0,5.5-1.2,7.4-3.1c1.8-1.8,3.2-4.8,3.1-7.4c-0.3-5.7-4.6-10.5-10.5-10.5
			c-2.7,0-5.5,1.2-7.4,3.1c-1.8,1.8-3.2,4.8-3.1,7.4C426.6,448,431,452.8,436.9,452.8L436.9,452.8z"/>
	</g>
</g>
<g>
	<g>
		<path class="st1" d="M202,198c0.2,0.3,0.3,0.6,0.5,0.9c0.7,0.9,1.4,1.9,2.1,2.7c1,1.1,2.3,2,3.5,2.8c0.6,0.4,1.2,0.7,1.9,1
			c1.4,0.6,2.8,1.2,4.3,1.7c3.4,1,6.9,1.8,10.4,2.6c2.7,0.7,5.7,0.4,8.1-1.1c2.2-1.3,4.3-3.8,4.8-6.3c0.6-2.7,0.5-5.7-1.1-8.1
			c-1.5-2.3-3.6-4.2-6.3-4.8c-2.3-0.6-4.5-1.1-6.8-1.7c-1.8-0.5-3.7-0.9-5.4-1.6c0.8,0.4,1.7,0.7,2.5,1.1c-0.9-0.4-1.7-0.8-2.4-1.4
			c0.7,0.5,1.4,1.1,2.1,1.6c-0.5-0.4-0.9-0.8-1.3-1.3c0.5,0.7,1.1,1.4,1.6,2.1c-0.2-0.3-0.4-0.6-0.6-1c-1.2-2.3-3.9-4.2-6.3-4.8
			c-2.5-0.7-5.9-0.4-8.1,1.1c-2.2,1.4-4.2,3.6-4.8,6.3c-0.1,0.9-0.3,1.9-0.4,2.8C200.6,194.6,201.1,196.4,202,198L202,198z"/>
	</g>
</g>
</svg>
