<?xml version="1.0" encoding="utf-8"?>
<!-- Generator: Adobe Illustrator 23.0.6, SVG Export Plug-In . SVG Version: 6.00 Build 0)  -->
<svg version="1.1" xmlns="http://www.w3.org/2000/svg" xmlns:xlink="http://www.w3.org/1999/xlink" x="0px" y="0px"
	 viewBox="0 0 720 936" style="enable-background:new 0 0 720 936;" xml:space="preserve">
<style type="text/css">
	.st0{fill:#E0CEC1;}
	.st1{fill:none;}
	.st2{fill:#FAAF70;}
	.st3{font-family:'OrpheusPro-Medium';}
	.st4{font-size:1296px;}
	.st5{fill:#F48264;}
	.st6{font-size:25px;}
	.st7{font-size:27px;}
	.st8{font-size:200px;}
	.st9{font-size:40px;}
</style>
<g id="Layer_2">
	<rect class="st0" width="720" height="936"/>
	<g>
		
			<rect x="36.1" y="-337.67" transform="matrix(1 -1.913946e-03 1.913946e-03 1 -0.8941 1.6605)" class="st1" width="1662.02" height="1611.34"/>
		<text transform="matrix(1 0 0 1 36.4433 648.2839)" class="st2 st3 st4">g</text>
	</g>
	<g>
		<g>
			<path class="st2" d="M271.71,906.01c24.43,6.15,49.58,9.52,74.77,9.97c6.88,0.12,14.02-0.51,20.77,1.1
				c3.13,0.75,4.46-4.07,1.33-4.82c-6.14-1.46-12.45-1.19-18.71-1.23c-6.28-0.05-12.57-0.28-18.84-0.69
				c-12.48-0.82-24.91-2.35-37.21-4.62c-6.97-1.28-13.9-2.8-20.78-4.53C269.92,900.4,268.59,905.22,271.71,906.01L271.71,906.01z"/>
		</g>
	</g>
	<g>
		<g>
			<path class="st2" d="M337.48,424.11c-3.09-0.23-6.13-0.06-9.19,0.39c-1.9,0.28-2.34,2.98-1.1,4.18c2.81,2.72,6.72,3.39,10.5,2.99
				c4.27-0.46,8.5-1.71,12.51-3.2c2.13-0.79,2.61-4.24,0-4.82c-4.66-1.04-9.39-1.71-14.15-2c-2.85-0.17-3.35,4.18-0.66,4.91
				c8.86,2.4,17.89,4.06,27.02,5.02c2.52,0.27,3.33-3.53,1.26-4.66c-5.84-3.18-12.54-4.76-19.19-4.29
				c-6.86,0.49-13.54,2.82-19.38,6.42c-2.74,1.68-0.23,6.01,2.52,4.32c10.17-6.26,22.77-7.99,33.52-2.13
				c0.42-1.55,0.84-3.11,1.26-4.66c-8.68-0.92-17.27-2.56-25.69-4.84c-0.22,1.64-0.44,3.27-0.66,4.91
				c4.33,0.26,8.59,0.87,12.82,1.82c0-1.61,0-3.21,0-4.82c-3.44,1.28-7.08,2.44-10.73,2.96c-2.5,0.36-5.48,0.4-7.41-1.47
				c-0.37,1.39-0.74,2.79-1.1,4.18c2.6-0.39,5.24-0.41,7.86-0.22c1.35,0.1,2.5-1.22,2.5-2.5
				C339.98,425.18,338.83,424.22,337.48,424.11L337.48,424.11z"/>
		</g>
	</g>
	<g>
		<g>
			<path class="st2" d="M364.52,30.66c5.55,0.02,11.08-0.55,16.52-1.65c1.2-0.24,1.96-1.6,1.79-2.74c-0.19-1.28-1.18-2.08-2.46-2.17
				c-6.75-0.47-13.53,0.1-20.12,1.6c-1.32,0.3-2.09,1.82-1.75,3.08c0.39,1.43,1.74,1.95,3.08,1.75c5.6-0.85,11.38-0.04,16.97,0.5
				c4.93,0.48,9.87,0.98,14.78,1.66c9.95,1.38,19.89,3.4,29.25,7.13c5.15,2.05,10.05,4.73,14.56,7.95c0.84-1.44,1.68-2.88,2.52-4.32
				c-7.04-3.78-13.08-9.12-20.02-13.08c-7.61-4.34-15.96-5.98-24.68-5.8c-5.03,0.1-10.04,0.71-15.03,1.33
				c-1.24,0.15-2.3,0.83-2.46,2.17c-0.13,1.1,0.55,2.57,1.79,2.74c16.59,2.37,32.88,6.61,48.53,12.62c1.26,0.49,2.74-0.54,3.08-1.75
				c0.4-1.44-0.5-2.55-1.75-3.08c-9.36-3.93-18.73-7.85-28.09-11.78c-2.29-0.96-4.29,2.64-2.43,4.18
				c7.95,6.57,16.23,12.74,24.82,18.45c0.84-1.44,1.68-2.88,2.52-4.32c-15.74-8.39-29.38-20.76-46.71-26
				c-2.8-0.85-4.23,3.05-1.93,4.57c4.93,3.24,10.34,5.72,16,7.38c0.22-1.64,0.44-3.27,0.66-4.91c-5.25,0.56-10.57,0.47-15.78-0.4
				c-1.33-0.22-2.69,0.35-3.08,1.75c-0.33,1.21,0.41,2.83,1.75,3.08c9.01,1.65,18.01,3.3,27.02,4.95c4.16,0.76,8.49,1.27,12.54,2.53
				c3.38,1.06,5.71,3.22,7.88,5.92c2.48,3.08,4.68,6.26,7.94,8.6c0.84-1.44,1.68-2.88,2.52-4.32c-10.57-7.6-21.88-14.14-33.76-19.46
				c-11.98-5.37-25.23-10.57-38.61-9c-3.51,0.41-7.07,1.17-9.81,3.56c-2.57,2.24-3.98,6.04-2.77,9.33c0.47,1.27,1.7,2.13,3.08,1.75
				c1.22-0.34,2.21-1.8,1.75-3.08c-0.76-2.07,0.52-3.96,2.3-5c2.28-1.33,5.17-1.61,7.76-1.76c5.97-0.35,11.86,0.68,17.57,2.36
				c11.45,3.35,22.47,8.69,32.8,14.58c5.92,3.37,11.64,7.06,17.17,11.04c1.1,0.79,2.78,0.19,3.42-0.9c0.74-1.26,0.2-2.63-0.9-3.42
				c-2.68-1.93-4.56-4.83-6.58-7.39c-2.31-2.93-4.93-5.44-8.42-6.89c-3.9-1.62-8.23-2.11-12.36-2.87c-4.54-0.83-9.09-1.67-13.63-2.5
				c-5.19-0.95-10.39-1.9-15.58-2.86c-0.44,1.61-0.89,3.21-1.33,4.82c5.67,0.94,11.39,1.18,17.11,0.58
				c2.68-0.29,3.54-4.07,0.66-4.91c-5.27-1.54-10.22-3.86-14.81-6.88c-0.64,1.52-1.28,3.05-1.93,4.57
				c16.85,5.09,30.2,17.33,45.52,25.49c2.86,1.52,5.2-2.54,2.52-4.32c-8.24-5.48-16.19-11.37-23.81-17.67
				c-0.81,1.39-1.62,2.79-2.43,4.18c9.36,3.93,18.73,7.85,28.09,11.78c0.44-1.61,0.89-3.21,1.33-4.82
				c-15.64-6.02-31.93-10.26-48.53-12.62c-0.22,1.64-0.44,3.27-0.66,4.91c8.27-1.03,16.87-2.17,25.16-0.66
				c7.92,1.44,14.41,5.7,20.86,10.27c3.63,2.57,7.25,5.15,11.18,7.26c2.88,1.55,5.11-2.47,2.52-4.32
				c-17.3-12.36-39.04-15.25-59.65-17.28c-6.58-0.65-13.17-1.46-19.75-0.46c0.44,1.61,0.89,3.21,1.33,4.82
				c6.17-1.41,12.48-1.86,18.79-1.42c-0.22-1.64-0.44-3.27-0.66-4.91c-5.01,1.01-10.08,1.49-15.19,1.47
				C361.3,25.65,361.3,30.65,364.52,30.66L364.52,30.66z"/>
		</g>
	</g>
</g>
<g id="Layer_3">
	<rect x="81.74" y="-364.6" class="st1" width="650.07" height="1300.6"/>
	<text transform="matrix(1 0 0 1 81.7424 622.9429)" class="st5 st3 st4">g</text>
</g>
<g id="Layer_1">
	<rect x="310.99" y="475.39" class="st1" width="412.87" height="34.44"/>
	<text transform="matrix(1 0 0 1 310.9873 494.4371)" class="st3 st6">ABCDEFGHIJKLMNOPQRSTUVWXYZ</text>
	<rect x="395.09" y="521.69" class="st1" width="326.88" height="35.58"/>
	<text transform="matrix(1 0 0 1 395.0856 542.2606)"><tspan x="0" y="0" class="st3 st7">abcdefghijklmnopqrstu</tspan><tspan x="256.98" y="0" class="st3 st7">-</tspan></text>
	<rect x="309.14" y="242.36" class="st1" width="95.81" height="193.84"/>
	<text transform="matrix(1 0 0 1 309.1423 394.761)" class="st3 st8">t</text>
	<rect x="279.43" y="186.15" class="st1" width="178.63" height="165.35"/>
	<text transform="matrix(1 0 0 1 279.4252 338.5507)" class="st3 st8">f</text>
	<rect x="11.43" y="642.99" class="st1" width="181.2" height="156.79"/>
	<text transform="matrix(1 0 0 1 11.4314 795.384)" class="st3 st8">19</text>
	<rect x="-10.14" y="783.2" class="st1" width="216.95" height="154.34"/>
	<text transform="matrix(1 0 0 1 -10.1452 935.5984)" class="st3 st8">82</text>
	<rect x="473.07" y="127.12" class="st1" width="160.67" height="118.06"/>
	<text transform="matrix(1 0 0 1 497.2491 157.6035)"><tspan x="0" y="0" class="st3 st9">Walter </tspan><tspan x="-8.26" y="48" class="st3 st9">Tiemann</tspan></text>
</g>
</svg>
