<?xml version="1.0" encoding="utf-8"?>
<!-- Generator: Adobe Illustrator 24.1.2, SVG Export Plug-In . SVG Version: 6.00 Build 0)  -->
<svg version="1.1" id="Layer_2" xmlns="http://www.w3.org/2000/svg" xmlns:xlink="http://www.w3.org/1999/xlink" x="0px" y="0px"
	 viewBox="0 0 720 936" style="enable-background:new 0 0 720 936;" xml:space="preserve">
<style type="text/css">
	.st0{clip-path:url(#SVGID_2_);}
	.st1{fill:#E0CEC1;}
	.st2{fill:none;}
	.st3{fill:#FAAF70;}
	.st4{font-family:'OrpheusPro-Medium';}
	.st5{font-size:1296px;}
	.st6{fill:#F48264;}
	.st7{font-size:25px;}
	.st8{font-size:27px;}
	.st9{font-size:200px;}
	.st10{font-size:40px;}
</style>
<defs>
	<rect id="SVGID_1_" width="720" height="935.6"/>
</defs>
<clipPath id="SVGID_2_">
	<use xlink:href="#SVGID_1_"  style="overflow:visible;"/>
</clipPath>
<g id="Layer_1" class="st0">
	<g id="Layer_2_1_">
		<rect class="st1" width="720" height="936"/>
		<g>
			
				<rect x="36.1" y="-337.7" transform="matrix(1 -1.913943e-03 1.913943e-03 1 -0.8941 1.6605)" class="st2" width="1662" height="1611.3"/>
			<text transform="matrix(1 0 0 1 36.4433 648.2839)" class="st3 st4 st5">g</text>
		</g>
		<g>
			<g>
				<path class="st3" d="M271.7,906c24.4,6.2,49.6,9.5,74.8,10c6.9,0.1,14-0.5,20.8,1.1c3.1,0.8,4.5-4.1,1.3-4.8
					c-6.1-1.5-12.5-1.2-18.7-1.2c-6.3,0-12.6-0.3-18.8-0.7c-12.5-0.8-24.9-2.3-37.2-4.6c-7-1.3-13.9-2.8-20.8-4.5
					C269.9,900.4,268.6,905.2,271.7,906L271.7,906z"/>
			</g>
		</g>
		<g>
			<g>
				<path class="st3" d="M337.5,424.1c-3.1-0.2-6.1-0.1-9.2,0.4c-1.9,0.3-2.3,3-1.1,4.2c2.8,2.7,6.7,3.4,10.5,3
					c4.3-0.5,8.5-1.7,12.5-3.2c2.1-0.8,2.6-4.2,0-4.8c-4.7-1-9.4-1.7-14.1-2c-2.9-0.2-3.4,4.2-0.7,4.9c8.9,2.4,17.9,4.1,27,5
					c2.5,0.3,3.3-3.5,1.3-4.7c-5.8-3.2-12.5-4.8-19.2-4.3c-6.9,0.5-13.5,2.8-19.4,6.4c-2.7,1.7-0.2,6,2.5,4.3
					c10.2-6.3,22.8-8,33.5-2.1c0.4-1.5,0.8-3.1,1.3-4.7c-8.7-0.9-17.3-2.6-25.7-4.8c-0.2,1.6-0.4,3.3-0.7,4.9
					c4.3,0.3,8.6,0.9,12.8,1.8c0-1.6,0-3.2,0-4.8c-3.4,1.3-7.1,2.4-10.7,3c-2.5,0.4-5.5,0.4-7.4-1.5c-0.4,1.4-0.7,2.8-1.1,4.2
					c2.6-0.4,5.2-0.4,7.9-0.2c1.4,0.1,2.5-1.2,2.5-2.5C340,425.2,338.8,424.2,337.5,424.1L337.5,424.1z"/>
			</g>
		</g>
		<g>
			<g>
				<path class="st3" d="M364.5,30.7c5.5,0,11.1-0.5,16.5-1.6c1.2-0.2,2-1.6,1.8-2.7c-0.2-1.3-1.2-2.1-2.5-2.2
					c-6.8-0.5-13.5,0.1-20.1,1.6c-1.3,0.3-2.1,1.8-1.8,3.1c0.4,1.4,1.7,2,3.1,1.8c5.6-0.9,11.4,0,17,0.5c4.9,0.5,9.9,1,14.8,1.7
					c10,1.4,19.9,3.4,29.2,7.1c5.1,2,10,4.7,14.6,8c0.8-1.4,1.7-2.9,2.5-4.3c-7-3.8-13.1-9.1-20-13.1c-7.6-4.3-16-6-24.7-5.8
					c-5,0.1-10,0.7-15,1.3c-1.2,0.1-2.3,0.8-2.5,2.2c-0.1,1.1,0.5,2.6,1.8,2.7c16.6,2.4,32.9,6.6,48.5,12.6c1.3,0.5,2.7-0.5,3.1-1.8
					c0.4-1.4-0.5-2.5-1.8-3.1c-9.4-3.9-18.7-7.9-28.1-11.8c-2.3-1-4.3,2.6-2.4,4.2c8,6.6,16.2,12.7,24.8,18.5
					c0.8-1.4,1.7-2.9,2.5-4.3c-15.7-8.4-29.4-20.8-46.7-26c-2.8-0.9-4.2,3-1.9,4.6c4.9,3.2,10.3,5.7,16,7.4c0.2-1.6,0.4-3.3,0.7-4.9
					c-5.2,0.6-10.6,0.5-15.8-0.4c-1.3-0.2-2.7,0.4-3.1,1.8c-0.3,1.2,0.4,2.8,1.8,3.1c9,1.7,18,3.3,27,5c4.2,0.8,8.5,1.3,12.5,2.5
					c3.4,1.1,5.7,3.2,7.9,5.9c2.5,3.1,4.7,6.3,7.9,8.6c0.8-1.4,1.7-2.9,2.5-4.3c-10.6-7.6-21.9-14.1-33.8-19.5
					c-12-5.4-25.2-10.6-38.6-9c-3.5,0.4-7.1,1.2-9.8,3.6c-2.6,2.2-4,6-2.8,9.3c0.5,1.3,1.7,2.1,3.1,1.8c1.2-0.3,2.2-1.8,1.8-3.1
					c-0.8-2.1,0.5-4,2.3-5c2.3-1.3,5.2-1.6,7.8-1.8c6-0.4,11.9,0.7,17.6,2.4c11.5,3.4,22.5,8.7,32.8,14.6c5.9,3.4,11.6,7.1,17.2,11
					c1.1,0.8,2.8,0.2,3.4-0.9c0.7-1.3,0.2-2.6-0.9-3.4c-2.7-1.9-4.6-4.8-6.6-7.4c-2.3-2.9-4.9-5.4-8.4-6.9
					c-3.9-1.6-8.2-2.1-12.4-2.9c-4.5-0.8-9.1-1.7-13.6-2.5c-5.2-1-10.4-1.9-15.6-2.9c-0.4,1.6-0.9,3.2-1.3,4.8
					c5.7,0.9,11.4,1.2,17.1,0.6c2.7-0.3,3.5-4.1,0.7-4.9c-5.3-1.5-10.2-3.9-14.8-6.9c-0.6,1.5-1.3,3-1.9,4.6
					c16.9,5.1,30.2,17.3,45.5,25.5c2.9,1.5,5.2-2.5,2.5-4.3c-8.2-5.5-16.2-11.4-23.8-17.7c-0.8,1.4-1.6,2.8-2.4,4.2
					c9.4,3.9,18.7,7.9,28.1,11.8c0.4-1.6,0.9-3.2,1.3-4.8c-15.6-6-31.9-10.3-48.5-12.6c-0.2,1.6-0.4,3.3-0.7,4.9
					c8.3-1,16.9-2.2,25.2-0.7c7.9,1.4,14.4,5.7,20.9,10.3c3.6,2.6,7.2,5.2,11.2,7.3c2.9,1.5,5.1-2.5,2.5-4.3
					c-17.3-12.4-39-15.2-59.6-17.3c-6.6-0.6-13.2-1.5-19.8-0.5c0.4,1.6,0.9,3.2,1.3,4.8c6.2-1.4,12.5-1.9,18.8-1.4
					c-0.2-1.6-0.4-3.3-0.7-4.9c-5,1-10.1,1.5-15.2,1.5C361.3,25.6,361.3,30.6,364.5,30.7L364.5,30.7z"/>
			</g>
		</g>
	</g>
	<g id="Layer_3">
		<rect x="81.7" y="-364.6" class="st2" width="650.1" height="1300.6"/>
		<text transform="matrix(1 0 0 1 81.7424 622.9429)" class="st6 st4 st5">g</text>
	</g>
	<g id="Layer_1_1_">
		<rect x="311" y="475.4" class="st2" width="412.9" height="34.4"/>
		<text transform="matrix(1 0 0 1 310.9873 494.4371)" class="st4 st7">ABCDEFGHIJKLMNOPQRSTUVWXYZ</text>
		<rect x="395.1" y="521.7" class="st2" width="326.9" height="35.6"/>
		<text transform="matrix(1 0 0 1 395.0856 542.2606)" class="st4 st8">abcdefghijklmnopqrstu</text>
		<text transform="matrix(1 0 0 1 652.0656 542.2606)" class="st4 st8">-</text>
		<rect x="309.1" y="242.4" class="st2" width="95.8" height="193.8"/>
		<text transform="matrix(1 0 0 1 309.1423 394.761)" class="st4 st9">t</text>
		<rect x="279.4" y="186.1" class="st2" width="178.6" height="165.4"/>
		<text transform="matrix(1 0 0 1 279.4252 338.5507)" class="st4 st9">f</text>
		<rect x="11.4" y="643" class="st2" width="181.2" height="156.8"/>
		<text transform="matrix(1 0 0 1 11.4314 795.384)" class="st4 st9">19</text>
		<rect x="-10.1" y="783.2" class="st2" width="216.9" height="154.3"/>
		<text transform="matrix(1 0 0 1 -10.1452 935.5984)" class="st4 st9">82</text>
		<rect x="473.1" y="127.1" class="st2" width="160.7" height="118.1"/>
		<text transform="matrix(1 0 0 1 497.2491 157.6035)" class="st4 st10">Walter </text>
		<text transform="matrix(1 0 0 1 488.9891 205.6035)" class="st4 st10">Tiemann</text>
	</g>
</g>
</svg>
