<?xml version="1.0" encoding="utf-8"?>
<!-- Generator: Adobe Illustrator 23.0.6, SVG Export Plug-In . SVG Version: 6.00 Build 0)  -->
<svg version="1.1" xmlns="http://www.w3.org/2000/svg" xmlns:xlink="http://www.w3.org/1999/xlink" x="0px" y="0px"
	 viewBox="0 0 720 936" style="enable-background:new 0 0 720 936;" xml:space="preserve">
<style type="text/css">
	.st0{fill:#E0CEC1;}
	.st1{fill:none;}
	.st2{fill:#FAAF70;}
	.st3{font-family:'OrpheusPro-Medium';}
	.st4{font-size:1296px;}
	.st5{fill:#F48264;}
	.st6{font-size:54px;}
	.st7{font-size:17px;}
	.st8{font-family:'OrpheusPro-Italic';}
	.st9{font-size:21px;}
</style>
<g id="Layer_1">
	<rect x="-0.77" y="-0.8" class="st0" width="720" height="936"/>
	<g>
		
			<rect x="-52.49" y="-377.88" transform="matrix(1 -1.913517e-03 1.913517e-03 1 -0.2449 0.6081)" class="st1" width="740.29" height="1012.36"/>
		<text transform="matrix(1 0 0 1 -51.5728 608.9556)" class="st2 st3 st4">o</text>
	</g>
	<rect x="66.02" y="-51.84" class="st1" width="833.82" height="1300.6"/>
	<text transform="matrix(1 0 0 1 66.0155 935.702)" class="st5 st3 st4">o</text>
	<g>
		<g>
			<path class="st2" d="M479.96,315.77c0.76,10.59,0.58,21.23-0.54,31.79c-0.14,1.34,1.25,2.5,2.5,2.5c1.47,0,2.36-1.15,2.5-2.5
				c1.12-10.56,1.3-21.2,0.54-31.79c-0.1-1.35-1.08-2.5-2.5-2.5C481.18,313.27,479.86,314.42,479.96,315.77L479.96,315.77z"/>
		</g>
	</g>
	<g>
		<g>
			<path class="st2" d="M484.42,346.93c0.88-10.69,1.08-21.42,0.6-32.14c-0.14-3.2-5.14-3.22-5,0c0.48,10.71,0.28,21.45-0.6,32.14
				c-0.11,1.35,1.23,2.5,2.5,2.5C483.37,349.43,484.31,348.28,484.42,346.93L484.42,346.93z"/>
		</g>
	</g>
	<g>
		<g>
			<path class="st2" d="M479.94,317.03c-0.05,5.35-0.11,10.7-0.16,16.06c-0.03,2.63-0.05,5.27-0.08,7.9
				c-0.03,2.52-0.31,5.21,0.37,7.67c0.85,3.1,5.68,1.78,4.82-1.33c-0.6-2.2-0.2-4.82-0.18-7.08c0.03-2.55,0.05-5.1,0.08-7.66
				c0.05-5.19,0.1-10.37,0.16-15.56C484.97,313.81,479.97,313.81,479.94,317.03L479.94,317.03z"/>
		</g>
	</g>
	<g>
		<g>
			<path class="st2" d="M592.35,363.49c0.07,0.69,0.08,1.35,0.02,2.04c0.15-1.11,0.3-2.22,0.45-3.32c-0.11,0.82-0.31,1.6-0.61,2.37
				c0.42-1,0.84-1.99,1.26-2.99c-0.11,0.25-0.22,0.5-0.35,0.74c7.62,3.21,15.23,6.42,22.85,9.63c0.16-0.65,0.32-1.29,0.48-1.94
				c0.79-3.2,0.42-6.76-1.26-9.63c-1.52-2.59-4.49-5.07-7.47-5.74c-3.2-0.73-6.79-0.57-9.63,1.26c-2.76,1.78-4.83,4.26-5.74,7.47
				c-4.62,16.11-9.98,32.01-16.08,47.63c-1.75,4.47-3.56,8.92-5.42,13.34c0.42-1,0.84-1.99,1.26-2.99
				c-4.17,9.86-8.62,19.59-13.36,29.19c-1.5,3.04-2.18,6.28-1.26,9.63c0.8,2.9,3.04,6.04,5.74,7.47c2.9,1.53,6.42,2.3,9.63,1.26
				c2.97-0.96,6.04-2.84,7.47-5.74c11.63-23.53,21.66-47.91,29.88-72.84c2.22-6.73,4.3-13.5,6.25-20.31
				c-8.04-2.22-16.07-4.43-24.11-6.65c-0.16,0.65-0.32,1.29-0.48,1.94c-1.51,6.08,1.46,12.31,7.24,14.75
				c5.42,2.29,12.77,0.45,15.61-5.11c1.78-3.49,3.08-7.48,2.66-11.46c0.06-1.72-0.29-3.33-1.08-4.82c-0.5-1.55-1.37-2.89-2.58-4.02
				c-2.17-2.17-5.73-3.8-8.84-3.66c-3.23,0.14-6.59,1.21-8.84,3.66C593.91,356.94,592,360.25,592.35,363.49L592.35,363.49z"/>
		</g>
	</g>
	<g>
		<g>
			<path class="st2" d="M584.09,459.34c11.37-21.75,20.74-44.65,27.76-68.17c1.9-6.37,3.63-12.79,5.18-19.25
				c0.77-3.22,0.43-6.74-1.26-9.63c-1.52-2.59-4.49-5.07-7.47-5.74c-3.2-0.73-6.79-0.57-9.63,1.26c-2.69,1.73-4.98,4.28-5.74,7.47
				c-3.64,15.1-8.22,29.97-13.73,44.49c-1.56,4.12-3.2,8.21-4.91,12.27c0.42-1,0.84-1.99,1.26-2.99
				c-3.97,9.4-8.32,18.63-13.04,27.67c-1.55,2.96-2.16,6.35-1.26,9.63c0.8,2.9,3.04,6.04,5.74,7.47c2.9,1.53,6.42,2.3,9.63,1.26
				C579.64,464.11,582.58,462.23,584.09,459.34L584.09,459.34z"/>
		</g>
	</g>
	<g>
		<g>
			<path class="st2" d="M582.79,419.92c4.54-16.62,7.62-33.46,9.91-50.52c-0.15,1.11-0.3,2.22-0.45,3.32
				c0.61-4.54,1.3-9.1,3.07-13.35c-0.42,1-0.84,1.99-1.26,2.99c0.65-1.5,1.42-2.95,2.39-4.28c-0.65,0.84-1.3,1.69-1.95,2.53
				c0.16-0.21,0.33-0.39,0.53-0.56c-0.84,0.65-1.69,1.3-2.53,1.95c0.1-0.07,0.2-0.14,0.31-0.21c-1,0.42-1.99,0.84-2.99,1.26
				c0.11-0.05,0.22-0.09,0.33-0.14c-1.11,0.15-2.22,0.3-3.32,0.45c0.21-0.06,0.42-0.06,0.63-0.01c-1.11-0.15-2.22-0.3-3.32-0.45
				c0.08,0.03,0.16,0.05,0.24,0.08c-1-0.42-1.99-0.84-2.99-1.26c0.07,0.04,0.14,0.08,0.21,0.13c-0.84-0.65-1.69-1.3-2.53-1.95
				c0.13,0.1,0.25,0.23,0.34,0.37c-0.65-0.84-1.3-1.69-1.95-2.53c0.04,0.08,0.09,0.15,0.13,0.23c-0.42-1-0.84-1.99-1.26-2.99
				c0.16,0.37,0.24,0.73,0.3,1.13c-0.15-1.11-0.3-2.22-0.45-3.32c0.04,0.55,0.01,1.06-0.06,1.6c0.15-1.11,0.3-2.22,0.45-3.32
				c-0.61,4.56-1.86,8.98-3.62,13.22c0.42-1,0.84-1.99,1.26-2.99c-2.18,5.13-5.06,9.91-8.47,14.31c0.65-0.84,1.3-1.69,1.95-2.53
				c-3.45,4.42-7.36,8.52-11.79,11.97c0.84-0.65,1.69-1.3,2.53-1.95c-2.51,1.92-5.19,3.59-8.1,4.84c1-0.42,1.99-0.84,2.99-1.26
				c-1.9,0.79-3.84,1.38-5.86,1.74c-3.73,0.67-6.71,3.93-8.1,7.24c-1.58,3.73-1.3,7.55,0.63,11.12c0.61,1.14,1.23,2.27,1.84,3.41
				c5.7-5.7,11.4-11.4,17.1-17.1c-1.55-1.14-3.08-2.3-4.6-3.47c0.84,0.65,1.69,1.3,2.53,1.95c-11.75-9.1-22.63-19.3-32.45-30.46
				c-2.78-3.16-5.49-6.38-8.07-9.7c0.65,0.84,1.3,1.69,1.95,2.53c-1.89-2.45-3.62-5-4.84-7.85c0.42,1,0.84,1.99,1.26,2.99
				c-2.14-5.24-2.79-11.06-3.8-16.6c-1.09-5.91-2.17-11.82-3.26-17.74c-0.51-2.81-3.27-6.16-5.74-7.47
				c-2.52-1.33-5.13-1.87-7.97-1.48c-2.62,0.35-5.33,1.43-7.18,3.44c-2.24,2.44-3.68,5.46-3.66,8.84c0.04,7.33,0.04,14.66,0.12,22
				c0.05,5.12,1.02,10.24,4.03,14.49c2.41,3.39,5.21,6.28,8.36,8.98c5.83,5.01,12.18,9.43,18.43,13.9
				c5.54,3.97,11.13,7.88,16.87,11.54c6.44,4.11,13.09,7.89,20.04,11.08c1.95,1.13,4.05,1.7,6.31,1.71
				c1.72,0.06,3.33-0.29,4.82-1.08c1.55-0.5,2.89-1.37,4.02-2.58c1.55-1.56,2.62-3.4,3.21-5.52c0.87-2.24,1.11-4.71,1.34-7.08
				c0.15-1.52,0.12-3.05,0.06-4.57c-0.15-3.25-0.32-6.49-0.37-9.75c-0.11-6.61,0.15-13.22,1.02-19.78c-0.15,1.11-0.3,2.22-0.45,3.32
				c0.57-4.1,1.27-8.22,2.87-12.07c-0.42,1-0.84,1.99-1.26,2.99c0.66-1.52,1.44-2.96,2.45-4.28c-0.65,0.84-1.3,1.69-1.95,2.53
				c0.72-0.9,1.51-1.7,2.42-2.41c-0.84,0.65-1.69,1.3-2.53,1.95c0.66-0.48,1.34-0.89,2.08-1.25c-1,0.42-1.99,0.84-2.99,1.26
				c0.27-0.13,0.55-0.23,0.85-0.28c-1.11,0.15-2.22,0.3-3.32,0.45c0.15,0,0.29,0.01,0.44,0.01c-1.11-0.15-2.22-0.3-3.32-0.45
				c0.09,0.03,0.18,0.06,0.28,0.09c-1-0.42-1.99-0.84-2.99-1.26c0.08,0.05,0.16,0.09,0.23,0.14c-0.84-0.65-1.69-1.3-2.53-1.95
				c0.07,0.06,0.13,0.13,0.2,0.19c-0.65-0.84-1.3-1.69-1.95-2.53c0.12,0.15,0.22,0.31,0.29,0.49c-0.42-1-0.84-1.99-1.26-2.99
				c0.11,0.31,0.17,0.59,0.22,0.91c-0.15-1.11-0.3-2.22-0.45-3.32c0.16,1.8-0.08,3.68-0.19,5.48c-0.12,1.98-0.26,3.97-0.42,5.95
				c-0.33,3.96-0.77,7.91-1.3,11.86c0.15-1.11,0.3-2.22,0.45-3.32c-1.86,13.72-4.91,27.25-9.12,40.44
				c8.18,1.11,16.37,2.22,24.55,3.32c-0.84-10.27,0.3-20.52,1.42-30.72c0.56-5.12,1.12-10.24,1.4-15.38
				c0.31-5.62,0.63-11.73-0.93-17.2c-2.45-8.62-9.74-15.11-18.87-15.41c-4.74-0.16-9.66,2.06-12.91,5.46
				c-2.1,2.2-3.68,4.78-4.99,7.49c-4.74,9.83-7.34,20.6-7.08,31.55c0.14,5.97,1.01,12.08,2.74,17.8c1.87,6.21,4.6,13.39,9.87,17.54
				c1.56,1.55,3.4,2.62,5.52,3.21c2.22,0.6,4.43,0.6,6.65,0c4.11-1.13,7.7-4.53,8.73-8.73c3.87-15.7,3.94-32.16,0.21-47.9
				c-1.15-4.83-2.58-9.55-5.95-13.35c-4.97-5.61-14-6.76-20.24-2.61c-4.03,2.68-6.72,6.41-8.62,10.77
				c-1.78,4.07-3.45,8.18-4.75,12.43c-2.58,8.48-3.93,17.46-4.18,26.31c-0.09,3.01,1.42,6.79,3.66,8.84
				c2.06,1.9,4.39,3.06,7.18,3.44c2.66,0.36,5.64,0.02,7.97-1.48c0.84-0.65,1.69-1.3,2.53-1.95c1.55-1.56,2.62-3.4,3.21-5.52
				c4.77-11.66,7.29-24.34,7.68-36.93c0.15-4.78-1.36-10.12-4.87-13.53c-2.39-2.32-5.2-3.69-8.47-4.13
				c-4.58-0.61-8.9,0.96-12.26,4.1c-1.55,1.45-2.79,3.29-4.01,5.01c-0.83,1.17-1.58,2.41-2.24,3.68c-1.7,3.25-3.09,6.7-4.25,10.18
				c-2.41,7.24-3.69,14.83-4.33,22.42c0.15,1.11,0.3,2.22,0.45,3.32c0.42,1,0.84,1.99,1.26,2.99c1.38,2.35,3.5,4.07,5.98,5.11
				c4.62,1.95,10.03,0.96,13.65-2.58c2.11-2.07,3.42-4.47,4.33-7.25c0.6-1.84,0.72-3.9,0.95-5.77c0.33-2.62,0.6-5.24,0.82-7.86
				c0.43-5.17,0.65-10.36,0.66-15.55c0.01-5.51-0.03-11.11-1.09-16.54c-0.5-2.59-1.51-5.24-2.95-7.43c-2.61-3.98-6-6.5-10.5-8.07
				c-1.11-0.15-2.22-0.3-3.32-0.45c-1.72-0.06-3.33,0.29-4.82,1.08c-1.06,0.3-1.98,0.83-2.76,1.61c-1.36,0.88-2.43,2.05-3.22,3.51
				c-2.68,3.58-3.31,8.5-3.5,12.83c-0.14,3.21-0.21,6.42-0.31,9.63c-0.21,6.56-0.42,13.12-0.64,19.68
				c8.18-1.11,16.37-2.22,24.55-3.32c-2.74-6.75-4.62-13.8-5.6-21.02c0.15,1.11,0.3,2.22,0.45,3.32
				c-0.99-7.62-0.59-16.02-5.26-22.59c-5.7,5.7-11.4,11.4-17.1,17.1c14.27,8.72,29.86,15.55,45.93,20.18
				c2.08,0.6,4.18,1.16,6.28,1.68c2.01,0.5,4.21,0.76,6.12,1.57c-1-0.42-1.99-0.84-2.99-1.26c0.31,0.16,0.57,0.32,0.85,0.53
				c-0.84-0.65-1.69-1.3-2.53-1.95c0.17,0.14,0.32,0.31,0.45,0.49c-0.65-0.84-1.3-1.69-1.95-2.53c0.15,0.22,0.28,0.46,0.37,0.71
				c-0.42-1-0.84-1.99-1.26-2.99c0.16,0.52,0.26,1.04,0.33,1.58c-0.15-1.11-0.3-2.22-0.45-3.32c0.76,6.04,0.85,12.13,0.26,18.19
				c-0.29,3.01,1.6,6.78,3.66,8.84c2.17,2.17,5.73,3.8,8.84,3.66c3.23-0.14,6.59-1.21,8.84-3.66c0.65-0.84,1.3-1.69,1.95-2.53
				c1.13-1.95,1.7-4.05,1.71-6.31c0.4-4.09,0.5-8.2,0.28-12.31c-0.14-2.53-0.43-5.04-0.76-7.55c-0.32-2.41-0.73-4.16-1.9-6.41
				c-1.21-2.34-3.29-4.3-5.49-5.7c-2.16-1.38-4.63-1.96-7.08-2.53c-1.89-0.44-3.78-0.91-5.65-1.41c-3.61-0.97-7.19-2.05-10.73-3.24
				c-4.04-1.36-8.02-2.88-11.95-4.52c1,0.42,1.99,0.84,2.99,1.26c-8.13-3.43-15.98-7.46-23.51-12.06
				c-4.55-2.78-11.48-2.05-15.15,1.95c-1.47,1.6-2.55,3.45-3.21,5.52c-0.89,2.75-0.45,7.23,1.26,9.63c0.54,0.76,0.98,1.54,1.35,2.39
				c-0.42-1-0.84-1.99-1.26-2.99c0.71,1.73,1.08,3.53,1.33,5.38c-0.15-1.11-0.3-2.22-0.45-3.32c0.74,5.94,1.11,11.9,2.32,17.78
				c1.06,5.16,2.61,10.2,4.59,15.07c0.39,1.63,1.13,3.04,2.24,4.25c0.88,1.36,2.05,2.43,3.51,3.22c2.52,1.33,5.13,1.87,7.97,1.48
				c6.22-0.84,10.64-6,10.84-12.28c0.17-5.41,0.35-10.83,0.52-16.24c0.08-2.62,0.17-5.25,0.25-7.87c0.08-2.5,0.05-5.04,0.36-7.52
				c-0.15,1.11-0.3,2.22-0.45,3.32c0.14-0.89,0.34-1.73,0.66-2.57c-0.42,1-0.84,1.99-1.26,2.99c0.26-0.58,0.56-1.11,0.95-1.62
				c-4.71,1.91-9.41,3.83-14.12,5.74c0.2,0.06,0.39,0.14,0.58,0.22c-1-0.42-1.99-0.84-2.99-1.26c0.36,0.18,0.7,0.37,1.03,0.61
				c-0.84-0.65-1.69-1.3-2.53-1.95c0.47,0.37,0.87,0.78,1.24,1.26c-0.65-0.84-1.3-1.69-1.95-2.53c0.42,0.59,0.76,1.21,1.05,1.88
				c-0.42-1-0.84-1.99-1.26-2.99c0.53,1.33,0.84,2.71,1.03,4.13c-0.15-1.11-0.3-2.22-0.45-3.32c0.7,5.69,0.52,11.62,0.35,17.34
				c-0.18,6.13-0.65,12.25-1.44,18.33c0.15-1.11,0.3-2.22,0.45-3.32c-0.12,0.84-0.28,1.63-0.59,2.42c0.42-1,0.84-1.99,1.26-2.99
				c-0.15,0.32-0.31,0.6-0.51,0.9c0.65-0.84,1.3-1.69,1.95-2.53c-0.14,0.19-0.3,0.36-0.47,0.51c7.11,2.95,14.23,5.89,21.34,8.84
				c0.12-1.43,0.27-2.86,0.46-4.28c-0.15,1.11-0.3,2.22-0.45,3.32c0.88-6.44,2.44-12.86,4.94-18.88c-0.42,1-0.84,1.99-1.26,2.99
				c1.19-2.79,2.63-5.44,4.49-7.85c-0.65,0.84-1.3,1.69-1.95,2.53c0.48-0.6,0.95-1.18,1.56-1.66c-0.84,0.65-1.69,1.3-2.53,1.95
				c0.19-0.14,0.39-0.25,0.61-0.33c-1,0.42-1.99,0.84-2.99,1.26c0.11-0.03,0.22-0.06,0.33-0.09c-1.11,0.15-2.22,0.3-3.32,0.45
				c0.18-0.03,0.36-0.04,0.54-0.03c-1.11-0.15-2.22-0.3-3.32-0.45c0.17,0.01,0.33,0.05,0.49,0.11c-1-0.42-1.99-0.84-2.99-1.26
				c0.15,0.06,0.3,0.14,0.43,0.24c-0.84-0.65-1.69-1.3-2.53-1.95c0.21,0.17,0.37,0.34,0.55,0.55c-0.65-0.84-1.3-1.69-1.95-2.53
				c0.22,0.32,0.39,0.64,0.55,1c-0.42-1-0.84-1.99-1.26-2.99c0.22,0.59,0.36,1.18,0.45,1.81c-0.15-1.11-0.3-2.22-0.45-3.32
				c0.19,1.78-0.02,3.63-0.15,5.41c-0.15,2.02-0.36,4.03-0.63,6.04c0.15-1.11,0.3-2.22,0.45-3.32c-1.13,8.19-3.28,16.19-6.41,23.84
				c8.18,1.11,16.37,2.22,24.55,3.32c0.09-3.05,0.33-6.1,0.72-9.13c-0.15,1.11-0.3,2.22-0.45,3.32c1.05-7.73,3.11-15.28,6.14-22.46
				c-0.42,1-0.84,1.99-1.26,2.99c0.8-1.86,1.58-3.75,2.78-5.39c-0.65,0.84-1.3,1.69-1.95,2.53c0.44-0.56,0.91-1.07,1.45-1.53
				c-0.84,0.65-1.69,1.3-2.53,1.95c0.35-0.27,0.71-0.49,1.11-0.69c-1,0.42-1.99,0.84-2.99,1.26c0.3-0.12,0.57-0.21,0.89-0.28
				c-1.11,0.15-2.22,0.3-3.32,0.45c0.33-0.04,0.61-0.05,0.93-0.03c-1.11-0.15-2.22-0.3-3.32-0.45c0.34,0.06,0.63,0.14,0.95,0.26
				c-1-0.42-1.99-0.84-2.99-1.26c0.3,0.15,0.55,0.3,0.81,0.5c-0.84-0.65-1.69-1.3-2.53-1.95c0.25,0.22,0.46,0.44,0.67,0.69
				c-0.65-0.84-1.3-1.69-1.95-2.53c0.4,0.55,0.71,1.13,0.99,1.75c-0.42-1-0.84-1.99-1.26-2.99c1.84,4.61,2.68,9.82,3.34,14.72
				c-0.15-1.11-0.3-2.22-0.45-3.32c1,7.66,1,15.41,0.01,23.07c0.15-1.11,0.3-2.22,0.45-3.32c-0.43,3.21-1.04,6.39-1.81,9.54
				c6.96-1.84,13.93-3.68,20.89-5.52c-0.85-0.67-1.59-1.43-2.26-2.29c0.65,0.84,1.3,1.69,1.95,2.53c-1.06-1.43-1.86-2.99-2.56-4.62
				c0.42,1,0.84,1.99,1.26,2.99c-1.78-4.27-2.97-8.74-3.62-13.31c0.15,1.11,0.3,2.22,0.45,3.32c-0.67-5.01-0.68-10.07-0.03-15.08
				c-0.15,1.11-0.3,2.22-0.45,3.32c0.67-4.87,1.95-9.61,3.85-14.14c-0.42,1-0.84,1.99-1.26,2.99c0.99-2.31,2.05-4.7,3.59-6.7
				c-0.65,0.84-1.3,1.69-1.95,2.53c0.4-0.48,0.81-0.9,1.3-1.29c-0.84,0.65-1.69,1.3-2.53,1.95c0.4-0.29,0.81-0.52,1.26-0.72
				c-1,0.42-1.99,0.84-2.99,1.26c0.33-0.12,0.64-0.21,0.99-0.28c-1.11,0.15-2.22,0.3-3.32,0.45c0.57-0.08,1.11-0.07,1.69,0
				c-1.11-0.15-2.22-0.3-3.32-0.45c0.46,0.09,0.89,0.21,1.32,0.37c-1-0.42-1.99-0.84-2.99-1.26c0.66,0.28,1.25,0.63,1.82,1.06
				c-0.84-0.65-1.69-1.3-2.53-1.95c0.56,0.46,1.04,0.95,1.49,1.52c-0.65-0.84-1.3-1.69-1.95-2.53c0.38,0.53,0.68,1.09,0.96,1.68
				c-0.42-1-0.84-1.99-1.26-2.99c0.48,1.15,0.78,2.33,0.97,3.56c-0.15-1.11-0.3-2.22-0.45-3.32c0.62,4.68,0.24,9.58-0.09,14.27
				c-0.34,4.82-0.88,9.62-1.41,14.42c-1.07,9.72-2.06,19.5-1.26,29.28c0.26,3.21,1.18,6.56,3.66,8.84c2.06,1.9,4.39,3.06,7.18,3.44
				c6.26,0.84,11.81-2.96,13.72-8.95c5.87-18.42,9.44-37.54,10.96-56.81c0.46-5.83,1.58-12.58-1.63-17.83
				c-1.9-3.1-4.8-5.23-8.26-6.28c-3.91-1.19-8.08-0.03-11.55,1.84c-1.49,0.8-2.81,1.94-4.12,2.99c-0.67,0.54-1.29,1.12-1.85,1.77
				c-3.55,4.14-5.94,8.85-7.39,14.11c-1.38,5.01-1.96,10.3-2.47,15.45c-0.51,5.13-0.65,10.3-0.58,15.46
				c0.04,2.66,0.13,5.32,0.27,7.98c0.12,2.42,0.29,4.83,0.01,7.25c0.15-1.11,0.3-2.22,0.45-3.32c-0.16,1.15-0.43,2.24-0.85,3.32
				c6.12-2.49,12.24-4.98,18.36-7.47c-8.76-4.02-17.03-8.99-25.03-14.35c-7.99-5.35-15.9-10.92-23.53-16.77
				c0.84,0.65,1.69,1.3,2.53,1.95c-3.69-2.86-7.51-5.88-10.41-9.57c0.65,0.84,1.3,1.69,1.95,2.53c-0.65-0.87-1.21-1.77-1.66-2.77
				c0.42,1,0.84,1.99,1.26,2.99c-0.39-0.96-0.63-1.92-0.77-2.95c0.15,1.11,0.3,2.22,0.45,3.32c-0.42-4.05-0.17-8.23-0.19-12.3
				c-0.02-4.16-0.04-8.32-0.07-12.48c-8.18,1.11-16.37,2.22-24.55,3.32c1.4,7.61,2.79,15.23,4.19,22.84
				c0.63,3.44,1.19,6.93,2.38,10.24c1.49,4.16,3.41,7.89,6.05,11.4c8.82,11.7,18.84,22.52,29.73,32.31
				c6.51,5.85,13.36,11.32,20.41,16.5c1,0.42,1.99,0.84,2.99,1.26c1.66,0.52,3.32,0.6,4.98,0.22c2.62-0.35,5.33-1.43,7.18-3.44
				c1.47-1.6,2.55-3.45,3.21-5.52c1-3.11,0.25-6.85-1.26-9.63c-0.61-1.14-1.23-2.27-1.84-3.41c-2.49,6.12-4.98,12.24-7.47,18.36
				c8.23-1.48,15.51-6.27,21.73-11.64c5.53-4.78,10.31-10.56,14.36-16.63c3.99-5.96,7.12-12.71,9.06-19.62
				c0.42-1.49,0.77-3,1.05-4.53c0.44-2.4,1.02-4.89,0.88-7.33c-0.3-5.05-2.47-9.83-6.96-12.52c-5.53-3.31-12.66-2.14-17.14,2.37
				c-1.85,1.86-3.34,4.33-4.43,6.73c-1.13,2.49-2.17,5.01-2.87,7.66c-1.21,4.58-1.67,9.36-2.3,14.04c0.15-1.11,0.3-2.22,0.45-3.32
				c-2.07,15.37-5.16,30.59-9.24,45.55c-0.86,3.13-0.38,6.83,1.26,9.63c1.52,2.59,4.49,5.07,7.47,5.74c3.2,0.73,6.79,0.57,9.63-1.26
				C579.78,425.63,581.91,423.13,582.79,419.92L582.79,419.92z"/>
		</g>
	</g>
	<rect x="164.38" y="108.87" class="st1" width="279.68" height="51.31"/>
	<text transform="matrix(1 0 0 1 164.3782 150.0211)" class="st3 st6">O r p h e u s </text>
	<rect x="277.12" y="447.01" class="st1" width="303.74" height="376.35"/>
	<text transform="matrix(1 0 0 1 277.1204 459.9664)"><tspan x="0" y="0" class="st3 st7">Walter Teimann was a German graphic </tspan><tspan x="0" y="20.4" class="st3 st7">designer, type designer, printer, and book </tspan><tspan x="0" y="40.8" class="st3 st7">designer. In 1894, he began studying at the </tspan><tspan x="0" y="61.2" class="st3 st7">Royal Academy of Graphic Arts and Book </tspan><tspan x="0" y="81.6" class="st3 st7">Trade in Leipzig where he later became the </tspan><tspan x="0" y="102" class="st3 st7">director. </tspan><tspan x="0" y="265.2" class="st3 st7">Today, he is known as one of the most </tspan><tspan x="0" y="285.6" class="st3 st7">sought-after book artists in Germany in his </tspan><tspan x="0" y="306" class="st3 st7">time. He was commissioned by many pub</tspan><tspan x="292.31" y="306" class="st3 st7">-</tspan><tspan x="0" y="326.4" class="st3 st7">lishers to design book covers, titles, and </tspan><tspan x="0" y="346.8" class="st3 st7">illustrations.</tspan></text>
	<rect x="247.36" y="191.56" class="st1" width="113.71" height="23.09"/>
	<text transform="matrix(1 0 0 1 247.3602 207.561)" class="st8 st9">Serif Typeface</text>
</g>
<g id="Layer_2">
</g>
</svg>
