<?xml version="1.0" encoding="utf-8"?>
<!-- Generator: Adobe Illustrator 24.1.2, SVG Export Plug-In . SVG Version: 6.00 Build 0)  -->
<svg version="1.1" id="Layer_1" xmlns="http://www.w3.org/2000/svg" xmlns:xlink="http://www.w3.org/1999/xlink" x="0px" y="0px"
	 viewBox="0 0 504 504" style="enable-background:new 0 0 504 504;" xml:space="preserve">
<style type="text/css">
	.st0{clip-path:url(#SVGID_2_);fill:#A5C3D2;}
	.st1{clip-path:url(#SVGID_4_);}
	.st2{fill:#F4CC91;}
	.st3{font-family:'Univers-Bold';}
	.st4{font-size:300px;}
	.st5{clip-path:url(#SVGID_6_);}
	.st6{fill:#FFFFFF;}
	.st7{font-size:780px;}
	.st8{clip-path:url(#SVGID_8_);}
	.st9{fill:#414042;}
	.st10{font-family:'Univers-Light';}
	.st11{font-size:7px;}
	.st12{clip-path:url(#SVGID_10_);}
	.st13{clip-path:url(#SVGID_12_);}
	.st14{clip-path:url(#SVGID_14_);}
	.st15{clip-path:url(#SVGID_16_);}
	.st16{clip-path:url(#SVGID_18_);}
	.st17{clip-path:url(#SVGID_20_);}
	.st18{clip-path:url(#SVGID_22_);}
	.st19{clip-path:url(#SVGID_24_);}
	.st20{clip-path:url(#SVGID_26_);}
	.st21{clip-path:url(#SVGID_28_);}
	.st22{clip-path:url(#SVGID_30_);}
	.st23{clip-path:url(#SVGID_32_);}
	.st24{clip-path:url(#SVGID_34_);}
	.st25{clip-path:url(#SVGID_36_);}
	.st26{clip-path:url(#SVGID_38_);}
	.st27{clip-path:url(#SVGID_40_);}
	.st28{clip-path:url(#SVGID_42_);}
	.st29{clip-path:url(#SVGID_44_);}
	.st30{clip-path:url(#SVGID_46_);}
	.st31{clip-path:url(#SVGID_48_);}
	.st32{clip-path:url(#SVGID_50_);}
	.st33{clip-path:url(#SVGID_52_);}
	.st34{clip-path:url(#SVGID_54_);}
	.st35{clip-path:url(#SVGID_56_);}
	.st36{clip-path:url(#SVGID_58_);}
	.st37{clip-path:url(#SVGID_60_);}
	.st38{clip-path:url(#SVGID_62_);}
	.st39{clip-path:url(#SVGID_64_);}
	.st40{clip-path:url(#SVGID_66_);}
	.st41{clip-path:url(#SVGID_68_);}
	.st42{clip-path:url(#SVGID_70_);}
	.st43{clip-path:url(#SVGID_72_);}
	.st44{clip-path:url(#SVGID_74_);}
	.st45{clip-path:url(#SVGID_76_);}
	.st46{clip-path:url(#SVGID_78_);}
	.st47{clip-path:url(#SVGID_80_);}
	.st48{clip-path:url(#SVGID_82_);}
	.st49{clip-path:url(#SVGID_84_);}
	.st50{clip-path:url(#SVGID_86_);}
	.st51{clip-path:url(#SVGID_88_);}
	.st52{clip-path:url(#SVGID_90_);}
	.st53{clip-path:url(#SVGID_92_);}
	.st54{clip-path:url(#SVGID_94_);}
	.st55{clip-path:url(#SVGID_96_);}
	.st56{clip-path:url(#SVGID_98_);}
	.st57{clip-path:url(#SVGID_100_);}
	.st58{clip-path:url(#SVGID_102_);}
	.st59{clip-path:url(#SVGID_104_);}
	.st60{clip-path:url(#SVGID_106_);}
	.st61{clip-path:url(#SVGID_108_);}
	.st62{clip-path:url(#SVGID_110_);}
	.st63{clip-path:url(#SVGID_112_);}
	.st64{clip-path:url(#SVGID_114_);}
	.st65{clip-path:url(#SVGID_116_);}
	.st66{clip-path:url(#SVGID_118_);}
	.st67{clip-path:url(#SVGID_120_);}
	.st68{clip-path:url(#SVGID_122_);}
	.st69{clip-path:url(#SVGID_124_);}
	.st70{clip-path:url(#SVGID_126_);}
	.st71{clip-path:url(#SVGID_128_);}
	.st72{clip-path:url(#SVGID_130_);}
	.st73{clip-path:url(#SVGID_132_);}
	.st74{clip-path:url(#SVGID_134_);}
	.st75{clip-path:url(#SVGID_136_);}
	.st76{font-size:34.0013px;}
	.st77{clip-path:url(#SVGID_138_);}
	.st78{font-size:17px;}
	.st79{clip-path:url(#SVGID_140_);fill:#231F20;}
	.st80{clip-path:url(#SVGID_142_);}
	.st81{clip-path:url(#SVGID_144_);}
	.st82{clip-path:url(#SVGID_146_);}
	.st83{font-size:18px;}
</style>
<g>
	<g>
		<defs>
			<rect id="SVGID_1_" width="504" height="504"/>
		</defs>
		<clipPath id="SVGID_2_">
			<use xlink:href="#SVGID_1_"  style="overflow:visible;"/>
		</clipPath>
		<rect class="st0" width="504" height="504"/>
	</g>
	<g>
		<defs>
			<rect id="SVGID_3_" width="504" height="504"/>
		</defs>
		<clipPath id="SVGID_4_">
			<use xlink:href="#SVGID_3_"  style="overflow:visible;"/>
		</clipPath>
		<g class="st1">
			<text transform="matrix(1 0 0 1 143.7397 452.4199)" class="st2 st3 st4">D</text>
		</g>
	</g>
	<g>
		<defs>
			<rect id="SVGID_5_" width="504" height="504"/>
		</defs>
		<clipPath id="SVGID_6_">
			<use xlink:href="#SVGID_5_"  style="overflow:visible;"/>
		</clipPath>
		<g class="st5">
			<text transform="matrix(1 0 0 1 -246.2402 378.7197)" class="st6 st3 st7">g</text>
		</g>
	</g>
	<g>
		<defs>
			<rect id="SVGID_7_" width="504" height="504"/>
		</defs>
		<clipPath id="SVGID_8_">
			<use xlink:href="#SVGID_7_"  style="overflow:visible;"/>
		</clipPath>
		<g class="st8">
			<text transform="matrix(1 0 0 1 293.1426 68.5498)" class="st9 st10 st11">T</text>
			<text transform="matrix(1 0 0 1 296.9026 68.5498)" class="st9 st10 st11">he undergraduate </text>
		</g>
	</g>
	<g>
		<defs>
			<rect id="SVGID_9_" width="504" height="504"/>
		</defs>
		<clipPath id="SVGID_10_">
			<use xlink:href="#SVGID_9_"  style="overflow:visible;"/>
		</clipPath>
		<g class="st12">
			<text transform="matrix(1 0 0 1 293.1426 76.9502)" class="st9 st10 st11">program in Graphic </text>
		</g>
	</g>
	<g>
		<defs>
			<rect id="SVGID_11_" width="504" height="504"/>
		</defs>
		<clipPath id="SVGID_12_">
			<use xlink:href="#SVGID_11_"  style="overflow:visible;"/>
		</clipPath>
		<g class="st13">
			<text transform="matrix(1 0 0 1 293.1426 85.3501)" class="st9 st10 st11">Design all</text>
			<text transform="matrix(1 0 0 1 323.4826 85.3501)" class="st9 st10 st11">o</text>
			<text transform="matrix(1 0 0 1 327.2426 85.3501)" class="st9 st10 st11">ws </text>
		</g>
	</g>
	<g>
		<defs>
			<rect id="SVGID_13_" width="504" height="504"/>
		</defs>
		<clipPath id="SVGID_14_">
			<use xlink:href="#SVGID_13_"  style="overflow:visible;"/>
		</clipPath>
		<g class="st14">
			<text transform="matrix(1 0 0 1 293.1426 93.75)" class="st9 st10 st11">s</text>
			<text transform="matrix(1 0 0 1 296.6426 93.75)" class="st9 st10 st11">t</text>
			<text transform="matrix(1 0 0 1 298.8026 93.75)" class="st9 st10 st11">udents to fully </text>
		</g>
	</g>
	<g>
		<defs>
			<rect id="SVGID_15_" width="504" height="504"/>
		</defs>
		<clipPath id="SVGID_16_">
			<use xlink:href="#SVGID_15_"  style="overflow:visible;"/>
		</clipPath>
		<g class="st15">
			<text transform="matrix(1 0 0 1 293.1426 102.1499)" class="st9 st10 st11">absorb an in</text>
			<text transform="matrix(1 0 0 1 330.8826 102.1499)" class="st9 st10 st11">f</text>
			<text transform="matrix(1 0 0 1 333.0726 102.1499)" class="st9 st10 st11">ormed </text>
		</g>
	</g>
	<g>
		<defs>
			<rect id="SVGID_17_" width="504" height="504"/>
		</defs>
		<clipPath id="SVGID_18_">
			<use xlink:href="#SVGID_17_"  style="overflow:visible;"/>
		</clipPath>
		<g class="st16">
			<text transform="matrix(1 0 0 1 293.1426 110.5498)" class="st9 st10 st11">design process that </text>
		</g>
	</g>
	<g>
		<defs>
			<rect id="SVGID_19_" width="504" height="504"/>
		</defs>
		<clipPath id="SVGID_20_">
			<use xlink:href="#SVGID_19_"  style="overflow:visible;"/>
		</clipPath>
		<g class="st17">
			<text transform="matrix(1 0 0 1 293.1426 118.9502)" class="st9 st10 st11">pr</text>
			<text transform="matrix(1 0 0 1 299.3626 118.9502)" class="st9 st10 st11">o</text>
			<text transform="matrix(1 0 0 1 303.1226 118.9502)" class="st9 st10 st11">vides li</text>
			<text transform="matrix(1 0 0 1 324.5126 118.9502)" class="st9 st10 st11">f</text>
			<text transform="matrix(1 0 0 1 326.5726 118.9502)" class="st9 st10 st11">elong </text>
		</g>
	</g>
	<g>
		<defs>
			<rect id="SVGID_21_" width="504" height="504"/>
		</defs>
		<clipPath id="SVGID_22_">
			<use xlink:href="#SVGID_21_"  style="overflow:visible;"/>
		</clipPath>
		<g class="st18">
			<text transform="matrix(1 0 0 1 293.1426 127.3501)" class="st9 st10 st11">support as th</text>
			<text transform="matrix(1 0 0 1 333.9826 127.3501)" class="st9 st10 st11">e</text>
			<text transform="matrix(1 0 0 1 337.7426 127.3501)" class="st9 st10 st11">y go </text>
		</g>
	</g>
	<g>
		<defs>
			<rect id="SVGID_23_" width="504" height="504"/>
		</defs>
		<clipPath id="SVGID_24_">
			<use xlink:href="#SVGID_23_"  style="overflow:visible;"/>
		</clipPath>
		<g class="st19">
			<text transform="matrix(1 0 0 1 293.1426 135.75)" class="st9 st10 st11">on to engage in </text>
		</g>
	</g>
	<g>
		<defs>
			<rect id="SVGID_25_" width="504" height="504"/>
		</defs>
		<clipPath id="SVGID_26_">
			<use xlink:href="#SVGID_25_"  style="overflow:visible;"/>
		</clipPath>
		<g class="st20">
			<text transform="matrix(1 0 0 1 293.1426 144.1499)" class="st9 st10 st11">real-</text>
			<text transform="matrix(1 0 0 1 306.3626 144.1499)" class="st9 st10 st11">w</text>
			<text transform="matrix(1 0 0 1 312.0626 144.1499)" class="st9 st10 st11">orld design </text>
		</g>
	</g>
	<g>
		<defs>
			<rect id="SVGID_27_" width="504" height="504"/>
		</defs>
		<clipPath id="SVGID_28_">
			<use xlink:href="#SVGID_27_"  style="overflow:visible;"/>
		</clipPath>
		<g class="st21">
			<text transform="matrix(1 0 0 1 293.1426 152.5498)" class="st9 st10 st11">oppor</text>
			<text transform="matrix(1 0 0 1 311.0426 152.5498)" class="st9 st10 st11">t</text>
			<text transform="matrix(1 0 0 1 313.2026 152.5498)" class="st9 st10 st11">unities. </text>
		</g>
	</g>
	<g>
		<defs>
			<rect id="SVGID_29_" width="504" height="504"/>
		</defs>
		<clipPath id="SVGID_30_">
			<use xlink:href="#SVGID_29_"  style="overflow:visible;"/>
		</clipPath>
		<g class="st22">
			<text transform="matrix(1 0 0 1 293.1426 160.9502)" class="st9 st10 st11">S</text>
			<text transform="matrix(1 0 0 1 297.4226 160.9502)" class="st9 st10 st11">t</text>
			<text transform="matrix(1 0 0 1 299.5826 160.9502)" class="st9 st10 st11">udents gain a thor</text>
		</g>
	</g>
	<g>
		<defs>
			<rect id="SVGID_31_" width="504" height="504"/>
		</defs>
		<clipPath id="SVGID_32_">
			<use xlink:href="#SVGID_31_"  style="overflow:visible;"/>
		</clipPath>
		<g class="st23">
			<text transform="matrix(1 0 0 1 354.8984 160.9502)" class="st9 st10 st11">-</text>
		</g>
	</g>
	<g>
		<defs>
			<rect id="SVGID_33_" width="504" height="504"/>
		</defs>
		<clipPath id="SVGID_34_">
			<use xlink:href="#SVGID_33_"  style="overflow:visible;"/>
		</clipPath>
		<g class="st24">
			<text transform="matrix(1 0 0 1 293.1426 169.3501)" class="st9 st10 st11">ough unders</text>
			<text transform="matrix(1 0 0 1 332.0526 169.3501)" class="st9 st10 st11">t</text>
			<text transform="matrix(1 0 0 1 334.5226 169.3501)" class="st9 st10 st11">anding </text>
		</g>
	</g>
	<g>
		<defs>
			<rect id="SVGID_35_" width="504" height="504"/>
		</defs>
		<clipPath id="SVGID_36_">
			<use xlink:href="#SVGID_35_"  style="overflow:visible;"/>
		</clipPath>
		<g class="st25">
			<text transform="matrix(1 0 0 1 293.1426 177.75)" class="st9 st10 st11">of the principles of </text>
		</g>
	</g>
	<g>
		<defs>
			<rect id="SVGID_37_" width="504" height="504"/>
		</defs>
		<clipPath id="SVGID_38_">
			<use xlink:href="#SVGID_37_"  style="overflow:visible;"/>
		</clipPath>
		<g class="st26">
			<text transform="matrix(1 0 0 1 293.1426 186.1499)" class="st9 st10 st11">design, theories </text>
		</g>
	</g>
	<g>
		<defs>
			<rect id="SVGID_39_" width="504" height="504"/>
		</defs>
		<clipPath id="SVGID_40_">
			<use xlink:href="#SVGID_39_"  style="overflow:visible;"/>
		</clipPath>
		<g class="st27">
			<text transform="matrix(1 0 0 1 293.1426 194.5498)" class="st9 st10 st11">of communication </text>
		</g>
	</g>
	<g>
		<defs>
			<rect id="SVGID_41_" width="504" height="504"/>
		</defs>
		<clipPath id="SVGID_42_">
			<use xlink:href="#SVGID_41_"  style="overflow:visible;"/>
		</clipPath>
		<g class="st28">
			<text transform="matrix(1 0 0 1 293.1426 202.9502)" class="st9 st10 st11">and strategies </text>
			<text transform="matrix(1 0 0 1 339.0426 202.9502)" class="st9 st10 st11">f</text>
			<text transform="matrix(1 0 0 1 341.2426 202.9502)" class="st9 st10 st11">or </text>
		</g>
	</g>
	<g>
		<defs>
			<rect id="SVGID_43_" width="504" height="504"/>
		</defs>
		<clipPath id="SVGID_44_">
			<use xlink:href="#SVGID_43_"  style="overflow:visible;"/>
		</clipPath>
		<g class="st29">
			<text transform="matrix(1 0 0 1 293.1426 211.3501)" class="st9 st10 st11">problem solvin</text>
			<text transform="matrix(1 0 0 1 338.6526 211.3501)" class="st9 st10 st11">g</text>
			<text transform="matrix(1 0 0 1 342.6826 211.3501)" class="st9 st10 st11">.</text>
			<text transform="matrix(1 0 0 1 344.6226 211.3501)" class="st9 st10 st11"> </text>
			<text transform="matrix(1 0 0 1 345.7326 211.3501)" class="st9 st10 st11">T</text>
			<text transform="matrix(1 0 0 1 349.4926 211.3501)" class="st9 st10 st11">he </text>
		</g>
	</g>
	<g>
		<defs>
			<rect id="SVGID_45_" width="504" height="504"/>
		</defs>
		<clipPath id="SVGID_46_">
			<use xlink:href="#SVGID_45_"  style="overflow:visible;"/>
		</clipPath>
		<g class="st30">
			<text transform="matrix(1 0 0 1 293.1426 219.75)" class="st9 st10 st11">program educates </text>
		</g>
	</g>
	<g>
		<defs>
			<rect id="SVGID_47_" width="504" height="504"/>
		</defs>
		<clipPath id="SVGID_48_">
			<use xlink:href="#SVGID_47_"  style="overflow:visible;"/>
		</clipPath>
		<g class="st31">
			<text transform="matrix(1 0 0 1 293.1426 228.1499)" class="st9 st10 st11">s</text>
			<text transform="matrix(1 0 0 1 296.6426 228.1499)" class="st9 st10 st11">t</text>
			<text transform="matrix(1 0 0 1 298.8026 228.1499)" class="st9 st10 st11">udents to become </text>
		</g>
	</g>
	<g>
		<defs>
			<rect id="SVGID_49_" width="504" height="504"/>
		</defs>
		<clipPath id="SVGID_50_">
			<use xlink:href="#SVGID_49_"  style="overflow:visible;"/>
		</clipPath>
		<g class="st32">
			<text transform="matrix(1 0 0 1 293.1426 236.5498)" class="st9 st10 st11">resourceful de</text>
		</g>
	</g>
	<g>
		<defs>
			<rect id="SVGID_51_" width="504" height="504"/>
		</defs>
		<clipPath id="SVGID_52_">
			<use xlink:href="#SVGID_51_"  style="overflow:visible;"/>
		</clipPath>
		<g class="st33">
			<text transform="matrix(1 0 0 1 337.8799 236.5498)" class="st9 st10 st11">-</text>
		</g>
	</g>
	<g>
		<defs>
			<rect id="SVGID_53_" width="504" height="504"/>
		</defs>
		<clipPath id="SVGID_54_">
			<use xlink:href="#SVGID_53_"  style="overflow:visible;"/>
		</clipPath>
		<g class="st34">
			<text transform="matrix(1 0 0 1 293.1426 244.9502)" class="st9 st10 st11">signers engaged in </text>
		</g>
	</g>
	<g>
		<defs>
			<rect id="SVGID_55_" width="504" height="504"/>
		</defs>
		<clipPath id="SVGID_56_">
			<use xlink:href="#SVGID_55_"  style="overflow:visible;"/>
		</clipPath>
		<g class="st35">
			<text transform="matrix(1 0 0 1 293.1426 253.3496)" class="st9 st10 st11">reﬂ</text>
			<text transform="matrix(1 0 0 1 303.2626 253.3496)" class="st9 st10 st11">e</text>
			<text transform="matrix(1 0 0 1 307.0126 253.3496)" class="st9 st10 st11">xi</text>
			<text transform="matrix(1 0 0 1 312.0726 253.3496)" class="st9 st10 st11">v</text>
			<text transform="matrix(1 0 0 1 315.4326 253.3496)" class="st9 st10 st11">e, responsi</text>
		</g>
	</g>
	<g>
		<defs>
			<rect id="SVGID_57_" width="504" height="504"/>
		</defs>
		<clipPath id="SVGID_58_">
			<use xlink:href="#SVGID_57_"  style="overflow:visible;"/>
		</clipPath>
		<g class="st36">
			<text transform="matrix(1 0 0 1 349.6641 253.3496)" class="st9 st10 st11">-</text>
		</g>
	</g>
	<g>
		<defs>
			<rect id="SVGID_59_" width="504" height="504"/>
		</defs>
		<clipPath id="SVGID_60_">
			<use xlink:href="#SVGID_59_"  style="overflow:visible;"/>
		</clipPath>
		<g class="st37">
			<text transform="matrix(1 0 0 1 293.1426 261.75)" class="st9 st10 st11">ble and sus</text>
			<text transform="matrix(1 0 0 1 328.5526 261.75)" class="st9 st10 st11">t</text>
			<text transform="matrix(1 0 0 1 331.0126 261.75)" class="st9 st10 st11">ainable </text>
		</g>
	</g>
	<g>
		<defs>
			<rect id="SVGID_61_" width="504" height="504"/>
		</defs>
		<clipPath id="SVGID_62_">
			<use xlink:href="#SVGID_61_"  style="overflow:visible;"/>
		</clipPath>
		<g class="st38">
			<text transform="matrix(1 0 0 1 293.1426 270.1504)" class="st9 st10 st11">practices.</text>
		</g>
	</g>
	<g>
		<defs>
			<rect id="SVGID_63_" width="504" height="504"/>
		</defs>
		<clipPath id="SVGID_64_">
			<use xlink:href="#SVGID_63_"  style="overflow:visible;"/>
		</clipPath>
		<g class="st39">
			<text transform="matrix(1 0 0 1 366.4287 94.4702)" class="st9 st10 st11">Graphic Design </text>
		</g>
	</g>
	<g>
		<defs>
			<rect id="SVGID_65_" width="504" height="504"/>
		</defs>
		<clipPath id="SVGID_66_">
			<use xlink:href="#SVGID_65_"  style="overflow:visible;"/>
		</clipPath>
		<g class="st40">
			<text transform="matrix(1 0 0 1 366.4287 102.8701)" class="st9 st10 st11">majors </text>
			<text transform="matrix(1 0 0 1 389.3787 102.8701)" class="st9 st10 st11">w</text>
			<text transform="matrix(1 0 0 1 395.0687 102.8701)" class="st9 st10 st11">ork in </text>
		</g>
	</g>
	<g>
		<defs>
			<rect id="SVGID_67_" width="504" height="504"/>
		</defs>
		<clipPath id="SVGID_68_">
			<use xlink:href="#SVGID_67_"  style="overflow:visible;"/>
		</clipPath>
		<g class="st41">
			<text transform="matrix(1 0 0 1 366.4287 111.27)" class="st9 st10 st11">dedicated s</text>
			<text transform="matrix(1 0 0 1 402.2187 111.27)" class="st9 st10 st11">t</text>
			<text transform="matrix(1 0 0 1 404.3787 111.27)" class="st9 st10 st11">udios, </text>
		</g>
	</g>
	<g>
		<defs>
			<rect id="SVGID_69_" width="504" height="504"/>
		</defs>
		<clipPath id="SVGID_70_">
			<use xlink:href="#SVGID_69_"  style="overflow:visible;"/>
		</clipPath>
		<g class="st42">
			<text transform="matrix(1 0 0 1 366.4287 119.6699)" class="st9 st10 st11">where th</text>
			<text transform="matrix(1 0 0 1 394.4387 119.6699)" class="st9 st10 st11">e</text>
			<text transform="matrix(1 0 0 1 398.1987 119.6699)" class="st9 st10 st11">y h</text>
			<text transform="matrix(1 0 0 1 407.5287 119.6699)" class="st9 st10 st11">av</text>
			<text transform="matrix(1 0 0 1 414.2687 119.6699)" class="st9 st10 st11">e </text>
		</g>
	</g>
	<g>
		<defs>
			<rect id="SVGID_71_" width="504" height="504"/>
		</defs>
		<clipPath id="SVGID_72_">
			<use xlink:href="#SVGID_71_"  style="overflow:visible;"/>
		</clipPath>
		<g class="st43">
			<text transform="matrix(1 0 0 1 366.4287 128.0698)" class="st9 st10 st11">access to a wide </text>
		</g>
	</g>
	<g>
		<defs>
			<rect id="SVGID_73_" width="504" height="504"/>
		</defs>
		<clipPath id="SVGID_74_">
			<use xlink:href="#SVGID_73_"  style="overflow:visible;"/>
		</clipPath>
		<g class="st44">
			<text transform="matrix(1 0 0 1 366.4287 136.4702)" class="st9 st10 st11">a</text>
			<text transform="matrix(1 0 0 1 369.9287 136.4702)" class="st9 st10 st11">r</text>
			<text transform="matrix(1 0 0 1 372.1987 136.4702)" class="st9 st10 st11">r</text>
			<text transform="matrix(1 0 0 1 374.5287 136.4702)" class="st9 st10 st11">a</text>
			<text transform="matrix(1 0 0 1 377.8987 136.4702)" class="st9 st10 st11">y of digi</text>
			<text transform="matrix(1 0 0 1 402.3987 136.4702)" class="st9 st10 st11">t</text>
			<text transform="matrix(1 0 0 1 404.8687 136.4702)" class="st9 st10 st11">al and </text>
		</g>
	</g>
	<g>
		<defs>
			<rect id="SVGID_75_" width="504" height="504"/>
		</defs>
		<clipPath id="SVGID_76_">
			<use xlink:href="#SVGID_75_"  style="overflow:visible;"/>
		</clipPath>
		<g class="st45">
			<text transform="matrix(1 0 0 1 366.4287 144.8701)" class="st9 st10 st11">traditional printing </text>
		</g>
	</g>
	<g>
		<defs>
			<rect id="SVGID_77_" width="504" height="504"/>
		</defs>
		<clipPath id="SVGID_78_">
			<use xlink:href="#SVGID_77_"  style="overflow:visible;"/>
		</clipPath>
		<g class="st46">
			<text transform="matrix(1 0 0 1 366.4287 153.27)" class="st9 st10 st11">and photographic </text>
		</g>
	</g>
	<g>
		<defs>
			<rect id="SVGID_79_" width="504" height="504"/>
		</defs>
		<clipPath id="SVGID_80_">
			<use xlink:href="#SVGID_79_"  style="overflow:visible;"/>
		</clipPath>
		<g class="st47">
			<text transform="matrix(1 0 0 1 366.4287 161.6699)" class="st9 st10 st11">resources, as </text>
			<text transform="matrix(1 0 0 1 409.9987 161.6699)" class="st9 st10 st11">w</text>
			<text transform="matrix(1 0 0 1 415.6987 161.6699)" class="st9 st10 st11">ell </text>
		</g>
	</g>
	<g>
		<defs>
			<rect id="SVGID_81_" width="504" height="504"/>
		</defs>
		<clipPath id="SVGID_82_">
			<use xlink:href="#SVGID_81_"  style="overflow:visible;"/>
		</clipPath>
		<g class="st48">
			<text transform="matrix(1 0 0 1 366.4287 170.0698)" class="st9 st10 st11">as speciali</text>
			<text transform="matrix(1 0 0 1 398.3187 170.0698)" class="st9 st10 st11">z</text>
			<text transform="matrix(1 0 0 1 401.2987 170.0698)" class="st9 st10 st11">ed </text>
			<text transform="matrix(1 0 0 1 411.0287 170.0698)" class="st9 st10 st11">f</text>
			<text transform="matrix(1 0 0 1 413.2187 170.0698)" class="st9 st10 st11">acili</text>
		</g>
	</g>
	<g>
		<defs>
			<rect id="SVGID_83_" width="504" height="504"/>
		</defs>
		<clipPath id="SVGID_84_">
			<use xlink:href="#SVGID_83_"  style="overflow:visible;"/>
		</clipPath>
		<g class="st49">
			<text transform="matrix(1 0 0 1 424.874 170.0698)" class="st9 st10 st11">-</text>
		</g>
	</g>
	<g>
		<defs>
			<rect id="SVGID_85_" width="504" height="504"/>
		</defs>
		<clipPath id="SVGID_86_">
			<use xlink:href="#SVGID_85_"  style="overflow:visible;"/>
		</clipPath>
		<g class="st50">
			<text transform="matrix(1 0 0 1 366.4287 178.4702)" class="st9 st10 st11">ties </text>
			<text transform="matrix(1 0 0 1 379.6487 178.4702)" class="st9 st10 st11">f</text>
			<text transform="matrix(1 0 0 1 381.8487 178.4702)" class="st9 st10 st11">or bookbindin</text>
			<text transform="matrix(1 0 0 1 423.8687 178.4702)" class="st9 st10 st11">g</text>
			<text transform="matrix(1 0 0 1 427.8987 178.4702)" class="st9 st10 st11">, </text>
		</g>
	</g>
	<g>
		<defs>
			<rect id="SVGID_87_" width="504" height="504"/>
		</defs>
		<clipPath id="SVGID_88_">
			<use xlink:href="#SVGID_87_"  style="overflow:visible;"/>
		</clipPath>
		<g class="st51">
			<text transform="matrix(1 0 0 1 366.4287 186.8701)" class="st9 st10 st11">papermaking and </text>
		</g>
	</g>
	<g>
		<defs>
			<rect id="SVGID_89_" width="504" height="504"/>
		</defs>
		<clipPath id="SVGID_90_">
			<use xlink:href="#SVGID_89_"  style="overflow:visible;"/>
		</clipPath>
		<g class="st52">
			<text transform="matrix(1 0 0 1 366.4287 195.27)" class="st9 st10 st11">screenprintin</text>
			<text transform="matrix(1 0 0 1 406.8787 195.27)" class="st9 st10 st11">g</text>
			<text transform="matrix(1 0 0 1 410.9087 195.27)" class="st9 st10 st11">. </text>
		</g>
	</g>
	<g>
		<defs>
			<rect id="SVGID_91_" width="504" height="504"/>
		</defs>
		<clipPath id="SVGID_92_">
			<use xlink:href="#SVGID_91_"  style="overflow:visible;"/>
		</clipPath>
		<g class="st53">
			<text transform="matrix(1 0 0 1 366.4287 203.6699)" class="st9 st10 st11">F</text>
			<text transform="matrix(1 0 0 1 370.1887 203.6699)" class="st9 st10 st11">acul</text>
			<text transform="matrix(1 0 0 1 382.6387 203.6699)" class="st9 st10 st11">t</text>
			<text transform="matrix(1 0 0 1 385.0987 203.6699)" class="st9 st10 st11">y members </text>
		</g>
	</g>
	<g>
		<defs>
			<rect id="SVGID_93_" width="504" height="504"/>
		</defs>
		<clipPath id="SVGID_94_">
			<use xlink:href="#SVGID_93_"  style="overflow:visible;"/>
		</clipPath>
		<g class="st54">
			<text transform="matrix(1 0 0 1 366.4287 212.0698)" class="st9 st10 st11">assign </text>
			<text transform="matrix(1 0 0 1 388.2087 212.0698)" class="st9 st10 st11">c</text>
			<text transform="matrix(1 0 0 1 391.3687 212.0698)" class="st9 st10 st11">hallenging </text>
		</g>
	</g>
	<g>
		<defs>
			<rect id="SVGID_95_" width="504" height="504"/>
		</defs>
		<clipPath id="SVGID_96_">
			<use xlink:href="#SVGID_95_"  style="overflow:visible;"/>
		</clipPath>
		<g class="st55">
			<text transform="matrix(1 0 0 1 366.4287 220.4702)" class="st9 st10 st11">projects c</text>
			<text transform="matrix(1 0 0 1 396.7687 220.4702)" class="st9 st10 st11">ov</text>
			<text transform="matrix(1 0 0 1 403.8887 220.4702)" class="st9 st10 st11">ering </text>
		</g>
	</g>
	<g>
		<defs>
			<rect id="SVGID_97_" width="504" height="504"/>
		</defs>
		<clipPath id="SVGID_98_">
			<use xlink:href="#SVGID_97_"  style="overflow:visible;"/>
		</clipPath>
		<g class="st56">
			<text transform="matrix(1 0 0 1 366.4287 228.8701)" class="st9 st10 st11">ev</text>
			<text transform="matrix(1 0 0 1 373.5587 228.8701)" class="st9 st10 st11">e</text>
			<text transform="matrix(1 0 0 1 377.4487 228.8701)" class="st9 st10 st11">r</text>
			<text transform="matrix(1 0 0 1 380.0487 228.8701)" class="st9 st10 st11">ything from </text>
		</g>
	</g>
	<g>
		<defs>
			<rect id="SVGID_99_" width="504" height="504"/>
		</defs>
		<clipPath id="SVGID_100_">
			<use xlink:href="#SVGID_99_"  style="overflow:visible;"/>
		</clipPath>
		<g class="st57">
			<text transform="matrix(1 0 0 1 366.4287 237.27)" class="st9 st10 st11">designing books, </text>
		</g>
	</g>
	<g>
		<defs>
			<rect id="SVGID_101_" width="504" height="504"/>
		</defs>
		<clipPath id="SVGID_102_">
			<use xlink:href="#SVGID_101_"  style="overflow:visible;"/>
		</clipPath>
		<g class="st58">
			<text transform="matrix(1 0 0 1 366.4287 245.6699)" class="st9 st10 st11">magazines and post</text>
		</g>
	</g>
	<g>
		<defs>
			<rect id="SVGID_103_" width="504" height="504"/>
		</defs>
		<clipPath id="SVGID_104_">
			<use xlink:href="#SVGID_103_"  style="overflow:visible;"/>
		</clipPath>
		<g class="st59">
			<text transform="matrix(1 0 0 1 428.2803 245.6699)" class="st9 st10 st11">-</text>
		</g>
	</g>
	<g>
		<defs>
			<rect id="SVGID_105_" width="504" height="504"/>
		</defs>
		<clipPath id="SVGID_106_">
			<use xlink:href="#SVGID_105_"  style="overflow:visible;"/>
		</clipPath>
		<g class="st60">
			<text transform="matrix(1 0 0 1 366.4287 254.0703)" class="st9 st10 st11">ers to UX and </text>
			<text transform="matrix(1 0 0 1 410.7687 254.0703)" class="st9 st10 st11">w</text>
			<text transform="matrix(1 0 0 1 416.4687 254.0703)" class="st9 st10 st11">eb</text>
		</g>
	</g>
	<g>
		<defs>
			<rect id="SVGID_107_" width="504" height="504"/>
		</defs>
		<clipPath id="SVGID_108_">
			<use xlink:href="#SVGID_107_"  style="overflow:visible;"/>
		</clipPath>
		<g class="st61">
			<text transform="matrix(1 0 0 1 424.25 254.0703)" class="st9 st10 st11">-</text>
		</g>
	</g>
	<g>
		<defs>
			<rect id="SVGID_109_" width="504" height="504"/>
		</defs>
		<clipPath id="SVGID_110_">
			<use xlink:href="#SVGID_109_"  style="overflow:visible;"/>
		</clipPath>
		<g class="st62">
			<text transform="matrix(1 0 0 1 366.4287 262.4697)" class="st9 st10 st11">sites, ﬁlm graphics, </text>
		</g>
	</g>
	<g>
		<defs>
			<rect id="SVGID_111_" width="504" height="504"/>
		</defs>
		<clipPath id="SVGID_112_">
			<use xlink:href="#SVGID_111_"  style="overflow:visible;"/>
		</clipPath>
		<g class="st63">
			<text transform="matrix(1 0 0 1 366.4287 270.8701)" class="st9 st10 st11">identities, pa</text>
			<text transform="matrix(1 0 0 1 406.1087 270.8701)" class="st9 st10 st11">c</text>
			<text transform="matrix(1 0 0 1 409.2587 270.8701)" class="st9 st10 st11">kaging </text>
		</g>
	</g>
	<g>
		<defs>
			<rect id="SVGID_113_" width="504" height="504"/>
		</defs>
		<clipPath id="SVGID_114_">
			<use xlink:href="#SVGID_113_"  style="overflow:visible;"/>
		</clipPath>
		<g class="st64">
			<text transform="matrix(1 0 0 1 366.4287 279.2695)" class="st9 st10 st11">and </text>
			<text transform="matrix(1 0 0 1 379.6587 279.2695)" class="st9 st10 st11">e</text>
			<text transform="matrix(1 0 0 1 383.4187 279.2695)" class="st9 st10 st11">xhibits. Ea</text>
			<text transform="matrix(1 0 0 1 415.3087 279.2695)" class="st9 st10 st11">c</text>
			<text transform="matrix(1 0 0 1 418.4687 279.2695)" class="st9 st10 st11">h </text>
		</g>
	</g>
	<g>
		<defs>
			<rect id="SVGID_115_" width="504" height="504"/>
		</defs>
		<clipPath id="SVGID_116_">
			<use xlink:href="#SVGID_115_"  style="overflow:visible;"/>
		</clipPath>
		<g class="st65">
			<text transform="matrix(1 0 0 1 366.4287 287.6699)" class="st9 st10 st11">y</text>
			<text transform="matrix(1 0 0 1 369.7987 287.6699)" class="st9 st10 st11">ear do</text>
			<text transform="matrix(1 0 0 1 389.2487 287.6699)" class="st9 st10 st11">z</text>
			<text transform="matrix(1 0 0 1 392.2187 287.6699)" class="st9 st10 st11">ens of vis</text>
		</g>
	</g>
	<g>
		<defs>
			<rect id="SVGID_117_" width="504" height="504"/>
		</defs>
		<clipPath id="SVGID_118_">
			<use xlink:href="#SVGID_117_"  style="overflow:visible;"/>
		</clipPath>
		<g class="st66">
			<text transform="matrix(1 0 0 1 422.165 287.6699)" class="st9 st10 st11">-</text>
		</g>
	</g>
	<g>
		<defs>
			<rect id="SVGID_119_" width="504" height="504"/>
		</defs>
		<clipPath id="SVGID_120_">
			<use xlink:href="#SVGID_119_"  style="overflow:visible;"/>
		</clipPath>
		<g class="st67">
			<text transform="matrix(1 0 0 1 366.4287 296.0703)" class="st9 st10 st11">iting designers and </text>
		</g>
	</g>
	<g>
		<defs>
			<rect id="SVGID_121_" width="504" height="504"/>
		</defs>
		<clipPath id="SVGID_122_">
			<use xlink:href="#SVGID_121_"  style="overflow:visible;"/>
		</clipPath>
		<g class="st68">
			<text transform="matrix(1 0 0 1 366.4287 304.4697)" class="st9 st10 st11">critics spend time </text>
		</g>
	</g>
	<g>
		<defs>
			<rect id="SVGID_123_" width="504" height="504"/>
		</defs>
		<clipPath id="SVGID_124_">
			<use xlink:href="#SVGID_123_"  style="overflow:visible;"/>
		</clipPath>
		<g class="st69">
			<text transform="matrix(1 0 0 1 366.4287 312.8701)" class="st9 st10 st11">complementing the </text>
		</g>
	</g>
	<g>
		<defs>
			<rect id="SVGID_125_" width="504" height="504"/>
		</defs>
		<clipPath id="SVGID_126_">
			<use xlink:href="#SVGID_125_"  style="overflow:visible;"/>
		</clipPath>
		<g class="st70">
			<text transform="matrix(1 0 0 1 366.4287 321.2695)" class="st9 st10 st11">t</text>
			<text transform="matrix(1 0 0 1 368.8887 321.2695)" class="st9 st10 st11">alents of resident </text>
		</g>
	</g>
	<g>
		<defs>
			<rect id="SVGID_127_" width="504" height="504"/>
		</defs>
		<clipPath id="SVGID_128_">
			<use xlink:href="#SVGID_127_"  style="overflow:visible;"/>
		</clipPath>
		<g class="st71">
			<text transform="matrix(1 0 0 1 366.4287 329.6699)" class="st9 st10 st11">f</text>
			<text transform="matrix(1 0 0 1 368.6287 329.6699)" class="st9 st10 st11">acul</text>
			<text transform="matrix(1 0 0 1 381.0687 329.6699)" class="st9 st10 st11">t</text>
			<text transform="matrix(1 0 0 1 383.5387 329.6699)" class="st9 st10 st11">y and o</text>
			<text transform="matrix(1 0 0 1 406.1087 329.6699)" class="st9 st10 st11">f</text>
			<text transform="matrix(1 0 0 1 408.1187 329.6699)" class="st9 st10 st11">f</text>
			<text transform="matrix(1 0 0 1 410.1787 329.6699)" class="st9 st10 st11">ering </text>
		</g>
	</g>
	<g>
		<defs>
			<rect id="SVGID_129_" width="504" height="504"/>
		</defs>
		<clipPath id="SVGID_130_">
			<use xlink:href="#SVGID_129_"  style="overflow:visible;"/>
		</clipPath>
		<g class="st72">
			<text transform="matrix(1 0 0 1 366.4287 338.0703)" class="st9 st10 st11">alternati</text>
			<text transform="matrix(1 0 0 1 391.3087 338.0703)" class="st9 st10 st11">v</text>
			<text transform="matrix(1 0 0 1 394.6787 338.0703)" class="st9 st10 st11">e design </text>
		</g>
	</g>
	<g>
		<defs>
			<rect id="SVGID_131_" width="504" height="504"/>
		</defs>
		<clipPath id="SVGID_132_">
			<use xlink:href="#SVGID_131_"  style="overflow:visible;"/>
		</clipPath>
		<g class="st73">
			<text transform="matrix(1 0 0 1 366.4287 346.4697)" class="st9 st10 st11">perspecti</text>
			<text transform="matrix(1 0 0 1 395.2087 346.4697)" class="st9 st10 st11">v</text>
			<text transform="matrix(1 0 0 1 398.5787 346.4697)" class="st9 st10 st11">es from </text>
		</g>
	</g>
	<g>
		<defs>
			<rect id="SVGID_133_" width="504" height="504"/>
		</defs>
		<clipPath id="SVGID_134_">
			<use xlink:href="#SVGID_133_"  style="overflow:visible;"/>
		</clipPath>
		<g class="st74">
			<text transform="matrix(1 0 0 1 366.4287 354.8701)" class="st9 st10 st11">around the </text>
			<text transform="matrix(1 0 0 1 401.8387 354.8701)" class="st9 st10 st11">w</text>
			<text transform="matrix(1 0 0 1 407.5287 354.8701)" class="st9 st10 st11">orld.</text>
		</g>
	</g>
	<g>
		<defs>
			<rect id="SVGID_135_" width="504" height="504"/>
		</defs>
		<clipPath id="SVGID_136_">
			<use xlink:href="#SVGID_135_"  style="overflow:visible;"/>
		</clipPath>
		<g class="st75">
			<text transform="matrix(-8.726203e-03 1 -1 -8.726203e-03 485.3102 160.9665)" class="st6 st3 st76">c</text>
			<text transform="matrix(-8.726203e-03 1 -1 -8.726203e-03 485.3927 151.5143)" class="st6 st3 st76">i</text>
			<text transform="matrix(-8.726203e-03 1 -1 -8.726203e-03 485.574 130.7416)" class="st6 st3 st76">h</text>
			<text transform="matrix(-8.726203e-03 1 -1 -8.726203e-03 485.7552 109.968)" class="st6 st3 st76">p</text>
			<text transform="matrix(-8.726203e-03 1 -1 -8.726203e-03 485.9202 91.0649)" class="st6 st3 st76">a</text>
			<text transform="matrix(-8.726203e-03 1 -1 -8.726203e-03 486.0298 78.5131)" class="st6 st3 st76">r</text>
			<text transform="matrix(-8.726203e-03 1 -1 -8.726203e-03 486.211 57.7395)" class="st6 st3 st76">g</text>
		</g>
	</g>
	<g>
		<defs>
			<rect id="SVGID_137_" width="504" height="504"/>
		</defs>
		<clipPath id="SVGID_138_">
			<use xlink:href="#SVGID_137_"  style="overflow:visible;"/>
		</clipPath>
		<g class="st77">
			<text transform="matrix(-6.123234e-17 -1 1 -6.123234e-17 472.8954 212.8643)" class="st9 st3 st78">design</text>
		</g>
	</g>
	<g>
		<defs>
			<rect id="SVGID_139_" width="504" height="504"/>
		</defs>
		<clipPath id="SVGID_140_">
			<use xlink:href="#SVGID_139_"  style="overflow:visible;"/>
		</clipPath>
		<rect x="293.1" y="430.7" class="st79" width="73.3" height="73.3"/>
	</g>
</g>
<g>
	<g>
		<defs>
			<rect id="SVGID_141_" x="286.6" y="424.8" width="84.3" height="79.2"/>
		</defs>
		<clipPath id="SVGID_142_">
			<use xlink:href="#SVGID_141_"  style="overflow:visible;"/>
		</clipPath>
		<g class="st80">
			<g>
				<defs>
					<rect id="SVGID_143_" x="285.4" y="423.7" width="86.6" height="81.4"/>
				</defs>
				<clipPath id="SVGID_144_">
					<use xlink:href="#SVGID_143_"  style="overflow:visible;"/>
				</clipPath>
				<g class="st81">
					
						<image style="overflow:visible;enable-background:new    ;" width="303" height="289" xlink:href="BD3E4BC086B0DF4A.jpeg"  transform="matrix(0.2818 0 0 0.2818 285.9822 423.6737)">
					</image>
				</g>
			</g>
		</g>
	</g>
</g>
<g>
	<g>
		<defs>
			<rect id="SVGID_145_" width="504" height="504"/>
		</defs>
		<clipPath id="SVGID_146_">
			<use xlink:href="#SVGID_145_"  style="overflow:visible;"/>
		</clipPath>
		<g class="st82">
			<text transform="matrix(1 0 0 1 366.4287 383.5801)" class="st9 st3 st83">6</text>
		</g>
	</g>
</g>
</svg>
